<!DOCTYPE svg PUBLIC "-//W3C//DTD SVG 1.1//EN" "http://www.w3.org/Graphics/SVG/1.1/DTD/svg11.dtd">
<!-- Uploaded to: SVG Repo, www.svgrepo.com, Transformed by: SVG Repo Mixer Tools -->
<svg fill="#f25050" height="800px" width="800px" version="1.1" id="Layer_1" xmlns="http://www.w3.org/2000/svg" xmlns:xlink="http://www.w3.org/1999/xlink" viewBox="0 0 493.488 493.488" xml:space="preserve" stroke="#f25050">
<g id="SVGRepo_bgCarrier" stroke-width="0"/>
<g id="SVGRepo_tracerCarrier" stroke-linecap="round" stroke-linejoin="round"/>
<g id="SVGRepo_iconCarrier"> <g> <g> <path d="M492.358,143.652L350.266,1.304c-0.736-0.736-1.716-1.136-2.74-1.136L146.406,0c-1.012,0-1.996,0.4-2.716,1.108 L1.358,143.216c-0.732,0.712-1.148,1.692-1.148,2.724L0.03,347.052c0,1.02,0.404,2,1.12,2.72l142.1,142.336 c0.72,0.712,1.692,1.168,2.716,1.168l201.12,0.212h0.008c1.02,0,1.996-0.44,2.704-1.16l142.36-142.1 c0.736-0.716,1.136-1.704,1.136-2.724l0.164-201.128C493.458,145.352,493.062,144.368,492.358,143.652z M257.318,373.324 c-2.864,2.856-6.848,4.476-10.9,4.476c-4.068,0-8.052-1.636-10.928-4.5c-2.86-2.872-4.424-6.848-4.416-10.936 c0-4.048,1.728-8.016,4.572-10.872c2.905-2.853,7.191-4.51,11.024-4.532c4.005,0.029,7.866,1.678,10.744,4.556 c2.872,2.856,4.456,6.816,4.456,10.88C261.862,366.492,260.206,370.456,257.318,373.324z M261.894,300.728 c-0.008,8.484-6.916,15.408-15.428,15.408c-8.512-0.008-15.428-6.94-15.42-15.436l0.216-169.668 c0.008-8.512,7.776-15.428,15.488-15.428v-0.006c4.099,0.019,7.926,1.624,10.816,4.538c2.912,2.916,4.496,6.796,4.496,10.908 L261.894,300.728z"/> </g> </g> </g>
</svg>