<!DOCTYPE svg PUBLIC "-//W3C//DTD SVG 1.1//EN" "http://www.w3.org/Graphics/SVG/1.1/DTD/svg11.dtd">
<!-- Uploaded to: SVG Repo, www.svgrepo.com, Transformed by: SVG Repo Mixer Tools -->
<svg width="800px" height="800px" viewBox="-368.64 -368.64 1249.28 1249.28" xmlns="http://www.w3.org/2000/svg" fill="#000000">
<g id="SVGRepo_bgCarrier" stroke-width="0">
<path transform="translate(-368.64, -368.64), scale(39.04)" d="M16,29.487813355891326C17.902964020996766,30.218482830812242,20.08569466750121,30.13626422729611,22.047684846032716,29.58332256117274C24.091606079587898,29.007290517448222,26.687625248339963,28.26985069519142,27.408780233421,26.272511862677526C28.240542217081696,23.968831594575903,25.34366552220155,21.59085041247572,25.802117223412466,19.184900950670517C26.1809021644704,17.19704176578557,29.00671213622191,16.488635947312833,29.63936163315887,14.566445326034831C30.303695637268856,12.547987082917754,30.290868201099347,10.193190419944303,29.395888218687066,8.26588033090689C28.49708924217665,6.330346163119166,26.61751812319622,4.978373924924955,24.72713586766953,3.988127974244154C22.924269903060637,3.0437260069410987,20.780528726126942,3.277805763852028,18.82135212277752,2.726581853739951C16.729341552762772,2.1379844580647163,14.40542167094957,-0.7708221768076771,12.729280089223554,0.6124726280904316C10.464582381071624,2.4814940809949384,13.045963834583517,7.023905947451006,11.028767946294884,9.157686078813493C9.510491991636165,10.763711098388903,6.446303404422057,8.348723598898653,4.473637645201789,9.345251591680075C2.573883095450972,10.304947160679488,0.09918455797108483,12.339492153960393,0.6730380997972354,14.389071390533017C1.3885452651332961,16.94458167809695,5.1840535080275085,17.087264503597197,7.14265335957276,18.87792637983717C8.100279234826775,19.753441684898288,8.436919558272557,21.080096295629716,9.165750675613252,22.1535857314176C9.980225455048595,23.353219021815107,10.729658627549904,24.556336898295548,11.718164607576679,25.61715975118735C13.044304588368988,27.04031714849503,14.18400695482868,28.79053759548029,16,29.487813355891326" fill="#4e4e4e" strokewidth="0"/>
</g>
<g id="SVGRepo_tracerCarrier" stroke-linecap="round" stroke-linejoin="round"/>
<g id="SVGRepo_iconCarrier">
<path fill="#4e4e4e" d="M283.4 19.83c-3.2 0-31.2 5.09-31.2 5.09-1.3 41.61-30.4 78.48-90.3 84.88l-12.8-23.07-25.1 2.48 11.3 60.09-113.79-4.9 12.2 41.5C156.3 225.4 150.7 338.4 124 439.4c47 53 141.8 47.8 186 43.1 3.1-62.2 52.4-64.5 135.9-32.2 11.3-17.6 18.8-36 44.6-50.7l-46.6-139.5-27.5 6.2c11-21.1 32.2-49.9 50.4-63.4l15.6-86.9c-88.6-6.3-146.4-46.36-199-96.17z"/>
</g>
</svg>