<?xml version="1.0" encoding="utf-8"?><!-- Uploaded to: SVG Repo, www.svgrepo.com, Generator: SVG Repo Mixer Tools -->
<svg width="800px" height="800px" viewBox="0 0 24 24" fill="none" xmlns="http://www.w3.org/2000/svg">
<path d="M10 4C9.44772 4 9 4.44772 9 5V7.58578L2.70711 1.29289C2.31658 0.902369 1.68342 0.902369 1.29289 1.29289C0.902369 1.68342 0.902369 2.31658 1.29289 2.70711L7.58579 9H5C4.44772 9 4 9.44772 4 10C4 10.5523 4.44772 11 5 11H9C10.1046 11 11 10.1046 11 9V5C11 4.44772 10.5523 4 10 4Z" fill="#252525"/>
<path d="M10 20C9.44772 20 9 19.5523 9 19V16.4142L2.70711 22.7071C2.31658 23.0976 1.68342 23.0976 1.29289 22.7071C0.902369 22.3166 0.902369 21.6834 1.29289 21.2929L7.58579 15H5C4.44772 15 4 14.5523 4 14C4 13.4477 4.44772 13 5 13H9C10.1046 13 11 13.8954 11 15V19C11 19.5523 10.5523 20 10 20Z" fill="#252525"/>
<path d="M15 5C15 4.44772 14.5523 4 14 4C13.4477 4 13 4.44772 13 5V9C13 10.1046 13.8954 11 15 11H19C19.5523 11 20 10.5523 20 10C20 9.44772 19.5523 9 19 9H16.4142L22.7071 2.70711C23.0976 2.31658 23.0976 1.68342 22.7071 1.29289C22.3166 0.902369 21.6834 0.902369 21.2929 1.29289L15 7.58578V5Z" fill="#252525"/>
<path d="M14 20C14.5523 20 15 19.5523 15 19V16.4142L21.2929 22.7071C21.6834 23.0976 22.3166 23.0976 22.7071 22.7071C23.0976 22.3166 23.0976 21.6834 22.7071 21.2929L16.4142 15H19C19.5523 15 20 14.5523 20 14C20 13.4477 19.5523 13 19 13H15C13.8954 13 13 13.8954 13 15V19C13 19.5523 13.4477 20 14 20Z" fill="#252525"/>
</svg>