<svg fill="#FFFFFF" version="1.2" xmlns="http://www.w3.org/2000/svg" viewBox="0 0 1024 1024" width="1024" height="1024"><style></style><path  d="m470.2 291.3l26.6 16.8 51.8-4.3 1.4 14.5 13.5 6.2 15.9-10.4 8.6 10.7 16.9-2.7 2.8-17.7 13.2-7.2 6.4 8.8 18.1 1.6 1.6 15.3 12.4 12.8 8.4-2.9 14.3 50.3 33.6 9.5 11.1-12.2 31.6-3.2 18.1-22 2.7 16.1 23.9 1.6-4.5 21.3 28.2 9.3 3.3-6.2 12.5 12.5 21.1-1.1 6.7 36.8 40.8 17.2-29.6-11.3-14.1 5.3-19.1 24.3 2 18.2 10.2 13.4 10-0.3-6.7 9 13 10-3.8 22.4 16.6 11.7-17.3 24.9 5.2-15-27.4 12.3-11.4 25.6-1.8 52.3 16.1 73.3-16.8 11.5 4.3 11.1-24.8-19.3-44.3-14.9-28.6 13.3-22.4-0.6-6.3 17.8-24.2 0.6-45.3-60.2-23.5-10.2-25 6.8-2 31.1-16.7 8-16.3-25 10.9-2.2-7.8-4.2 2.4-6.8-0.2 7.4 11-1.3-7.5-8.8 12.1 2.2-4.6-11.8 7.2 3.8 5.4-19.2-12.8 11.8 9.5-17.8-8.9 4.6-5.9 23.7-0.9-12.4-12.8 2.4 4.1 10.7-7.3-14.9 13.4-6.3-7.5-15.1-5.8 16.8 7.3-33.5-39.1-33.9-39.3-13-53.4 2.9-33.7 22.9-5.1 15.7 7 6.7-9.9-2.4 4.7 9.7 6.6-6.3-10.9 16.4 6.4 8.2-5.5 19 16.9 14.2 3 16.7-13.4 33.7-32.9-34.1-33.6 19.2 6.7-18.2-9.3-20.3 13-4.5-2.1-12.6-18.3-21.9-21.2-8.7-16.3 4.9 5.9 9-12.7 6.5-0.1 14.2-11.2-5.4-5.5 13-13.1-5.8-15.6 13.6-30.8 3.1-22.5-13.1-4.4-14.4-10.4 8.3-20.9-17.2 37.4-11.7-5.9-13.9 16.6-3.1 14.4-31.4 10.7-53.7-13.1-70-45.6-94.7-18.6-16.9-10.2 6.6 3.7-14.3-18.1-34.8 24.7-45.4 51.1 12.8 10-3.7-5.7-13.9 8.9-9.3-0.1 13.1 31.3 21.4 20.8 0.7 5.4 14.3 8.7-3.5 21.3 26.5 11.4-9.5 0.7 8 8.8-1.4 0.3-12.2 17.1 8.9 8.1-9.1 12.7 15.4 8.7-19.4 19.5 8-1.6-12.4 29.1-34.8 19.6 2.8-3.5-17.7 19.8 10.2 7.7-12.9z"/></svg>