<svg fill="#FFFFFF" viewBox="0 0 1024 1024" width="208" height="208" xmlns="http://www.w3.org/2000/svg">
    <defs></defs>
    <path d="M 353.642 229.306 C 350.439 230.054 342.753 230.801 336.56 230.801 C 311.579 231.121 305.814 232.83 299.728 242.011 C 297.166 245.854 296.953 247.029 297.38 253.861 C 297.7 260.694 298.554 262.936 306.454 278.95 C 314.995 296.458 321.294 313.22 323.749 325.284 C 325.137 332.116 327.272 335.426 330.155 335.426 C 331.116 335.426 332.824 336.387 333.891 337.561 C 336.24 340.123 337.628 339.376 337.628 335.533 C 337.628 332.116 335.493 329.768 333.251 330.622 C 331.009 331.369 327.059 322.721 325.884 314.074 C 325.351 310.017 322.895 301.583 320.546 295.391 C 315.636 282.58 315.315 279.163 318.518 275.747 C 321.08 272.971 326.845 270.302 330.048 270.302 C 331.329 270.302 334.959 268.487 338.375 266.352 C 348.304 260.053 359.514 260.267 358.767 266.779 C 358.233 271.05 355.777 272.01 349.905 270.089 L 344.888 268.381 L 345.528 271.797 C 346.489 276.815 351.827 281.192 356.631 280.872 C 365.813 280.231 367.201 280.765 378.09 288.985 C 387.165 295.818 389.834 297.313 394.958 298.167 C 409.691 300.836 414.709 303.932 418.872 312.686 C 422.289 320.159 423.89 321.547 428.374 321.547 C 433.819 321.547 435.207 323.469 434.246 329.661 C 433.819 332.543 434.139 336.6 434.886 339.589 C 435.74 343.219 435.847 345.995 435.207 348.878 C 433.712 354.643 434.353 356.137 438.623 358.166 C 440.651 359.127 442.787 361.155 443.32 362.65 C 444.068 364.571 445.029 365.212 446.843 365.105 C 448.231 364.998 450.9 366.066 452.609 367.454 C 456.025 370.23 457.199 373.539 457.199 380.372 C 457.199 382.614 457.626 384.642 458.053 384.962 C 458.587 385.283 462.217 383.254 466.274 380.585 C 471.398 377.169 475.028 375.568 478.338 375.141 C 484.636 374.393 483.569 376.422 475.882 379.838 C 469.797 382.507 468.729 384.108 469.37 389.553 C 469.69 391.475 469.583 393.076 469.263 393.076 C 468.943 393.076 466.381 391.795 463.391 390.087 C 458.16 387.204 458.16 387.204 456.559 389.34 C 453.676 393.29 455.705 395.532 464.139 398.094 C 467.235 399.055 467.341 399.268 467.235 404.82 C 467.021 409.197 466.167 412.4 463.498 417.311 L 459.868 423.93 L 462.324 428.841 C 465.099 434.499 466.594 435.353 471.291 433.752 C 473.96 432.791 475.135 432.898 477.163 434.179 C 481.754 437.168 481.647 442.826 476.95 447.951 C 474.601 450.406 473.64 450.727 466.594 450.727 C 452.715 450.727 447.591 455.211 446.737 468.128 L 446.31 476.029 L 451.968 482.328 C 455.171 485.851 459.868 491.189 462.537 494.285 L 467.235 499.943 L 474.921 499.302 C 483.035 498.555 485.17 499.409 481.967 502.185 C 477.697 506.028 470.864 506.882 451.327 505.921 L 447.057 505.708 L 446.737 511.366 C 446.416 516.704 446.31 516.918 444.068 515.637 C 442.787 514.996 437.876 511.153 433.285 507.096 C 428.694 503.146 423.89 499.836 422.716 499.836 C 421.435 499.836 417.378 503.039 412.894 507.523 C 408.73 511.793 404.46 515.957 403.499 516.704 C 398.695 520.441 405.207 522.363 413.107 519.694 C 418.872 517.772 426.879 517.452 431.257 519.16 C 435.207 520.548 440.758 525.992 442.36 529.942 C 443.427 532.718 443.32 533.359 441.078 535.707 C 432.431 544.996 421.008 544.462 412.894 534.533 C 410.865 532.078 407.556 529.195 405.634 528.128 C 402.431 526.419 401.684 526.419 399.015 527.701 C 396.987 528.661 395.599 530.37 395.065 532.718 C 394.531 534.853 393.143 536.562 391.755 537.095 C 388.232 538.483 379.158 536.775 377.45 534.426 C 375.208 531.437 375.741 527.167 378.731 524.604 C 380.225 523.323 381.4 521.829 381.4 521.295 C 381.4 519.8 378.304 518.946 375.314 519.694 C 373.926 520.121 370.724 519.8 368.375 518.946 C 364.638 517.772 363.784 517.772 360.475 519.587 C 357.165 521.295 356.204 521.402 353.322 520.227 C 351.4 519.48 346.382 517.665 342.112 516.064 C 335.066 513.501 333.464 512.327 326.739 504.854 C 318.411 495.673 315.849 493.964 308.589 492.897 C 301.97 491.936 299.942 492.683 296.632 497.701 C 293.323 502.719 291.615 502.932 278.59 500.156 C 271.437 498.662 268.554 498.555 257.558 499.623 C 243.039 500.904 239.943 502.078 236.42 507.309 C 233.857 511.259 233.751 511.153 238.982 514.249 C 240.37 515.21 240.69 516.277 240.049 519.373 C 239.195 524.071 236.953 526.526 234.178 525.779 C 232.683 525.459 231.936 524.177 231.722 521.829 C 231.402 518.733 231.082 518.519 226.811 518.199 C 221.58 517.772 219.552 520.227 222.968 522.79 C 224.89 524.177 224.89 524.284 223.075 524.925 C 220.299 525.992 216.242 522.79 215.388 518.946 C 214.534 514.996 215.815 513.715 220.833 513.715 C 226.918 513.715 228.092 511.793 228.84 500.69 C 229.48 491.509 229.907 490.014 234.818 480.086 C 238.768 472.399 241.117 468.876 243.573 467.488 C 245.387 466.42 249.124 462.897 251.9 459.694 C 254.782 456.385 262.469 449.873 269.088 445.175 C 275.707 440.478 283.608 434.499 286.49 432.044 C 290.333 428.734 294.177 426.706 299.942 424.997 C 304.319 423.61 308.376 421.688 308.91 420.727 C 309.764 419.019 308.269 412.293 306.988 412.293 C 305.814 412.293 281.793 426.385 271.544 433.004 C 265.885 436.741 256.49 442.826 250.512 446.67 C 241.117 452.755 239.516 454.25 237.38 458.84 C 231.188 471.972 223.822 479.765 202.79 495.459 C 192.755 502.932 191.901 503.893 192.007 506.989 C 192.221 511.793 204.498 531.971 211.438 538.91 C 217.523 544.996 228.306 551.081 233.003 551.081 C 234.605 551.081 240.904 548.519 247.096 545.316 C 258.626 539.444 258.199 539.551 282.006 536.562 C 285.849 536.028 287.558 535.067 290.867 531.544 L 294.924 527.167 L 299.942 528.982 C 311.365 533.252 330.155 544.996 330.155 547.985 C 330.155 550.12 326.098 548.732 320.119 544.675 C 316.596 542.327 312.539 540.085 311.045 539.658 C 309.55 539.337 306.454 537.522 304.212 535.707 C 301.009 533.145 299.728 532.718 298.34 533.572 C 294.924 535.814 296.632 537.736 306.668 543.287 C 320.226 550.654 322.361 552.469 323.749 557.807 C 330.475 584.497 344.247 610.439 358.767 623.784 C 371.151 635.101 396.88 646.097 431.47 654.745 C 442.787 657.627 456.452 661.684 461.683 663.819 C 470.864 667.556 471.505 667.663 476.736 666.488 C 482.928 665.207 508.871 664.674 512.181 665.848 C 513.355 666.275 522.857 670.439 533.319 675.136 C 546.557 681.115 555.632 684.424 563.746 686.346 C 591.076 692.645 599.617 697.022 614.03 711.648 C 620.115 717.84 623.851 720.616 630.791 724.032 C 636.876 727.021 641.787 730.438 645.951 734.495 C 650.968 739.405 655.452 742.288 669.118 749.121 C 687.053 758.088 690.256 760.651 703.921 776.451 C 713.103 786.914 716.839 788.515 741.821 792.465 C 766.376 796.415 774.703 796.629 784.098 793.64 C 788.369 792.252 794.988 791.291 802.034 790.971 C 808.226 790.65 815.272 789.903 817.834 789.049 C 823.386 787.447 829.151 781.362 830.752 775.597 C 832.781 768.444 832.247 740.153 829.791 728.409 C 826.268 711.007 820.61 694.032 817.3 690.83 C 815.592 689.228 805.664 683.784 795.094 678.766 L 775.878 669.691 L 761.358 668.09 C 753.351 667.129 744.917 665.741 742.462 664.887 C 740.113 664.033 734.134 662.218 729.224 660.937 C 715.985 657.414 710.327 654.531 703.388 647.912 C 696.128 640.973 692.391 639.051 683.851 637.45 C 674.989 635.742 669.758 633.393 664.313 628.695 C 658.335 623.357 654.705 621.863 644.029 620.048 C 635.809 618.553 629.83 615.884 626.841 612.361 C 624.599 609.585 618.193 606.916 612.001 606.169 C 604.101 605.208 593.425 598.055 587.873 589.942 C 583.816 584.07 582.749 583.429 573.034 581.508 C 566.735 580.226 541.967 551.828 538.764 542.22 C 535.881 533.466 537.162 523.644 542.5 512.647 C 547.411 502.505 547.411 502.505 542.607 490.762 C 540.899 486.598 539.191 480.833 538.871 477.844 C 537.91 471.011 540.685 457.773 544.849 449.552 C 546.45 446.349 548.159 441.759 548.479 439.41 C 551.148 424.677 566.201 408.556 589.048 396.172 C 600.151 390.087 604.741 385.817 608.798 377.916 C 613.603 368.308 613.282 362.436 607.624 352.294 C 597.055 333.718 592.571 328.913 584.137 326.992 C 577.731 325.497 532.678 320.373 526.273 320.479 C 519.333 320.479 495.419 312.9 484.957 307.348 C 480.58 305.106 474.281 301.156 471.078 298.7 C 467.875 296.138 457.519 289.626 448.231 284.074 C 429.442 272.971 431.257 274.893 418.018 252.794 C 415.136 248.096 411.719 243.399 410.225 242.331 C 408.73 241.264 401.684 238.915 394.531 237.207 C 387.378 235.392 377.77 232.83 373.179 231.442 C 361.329 227.812 360.154 227.705 353.642 229.306 Z M 499.263 370.55 C 508.124 379.197 514.209 383.468 517.519 383.468 C 520.294 383.468 523.604 380.052 525.526 375.141 C 527.34 370.657 532.358 366.386 536.095 366.386 C 539.298 366.386 541.433 368.415 546.878 376.315 C 549.44 380.265 549.974 381.866 549.119 382.721 C 548.372 383.468 543.034 384.108 536.735 384.322 C 525.846 384.749 525.526 384.856 524.885 387.418 C 523.817 391.582 525.419 398.628 528.408 403.005 C 530.223 405.567 531.184 408.343 531.184 411.119 C 531.184 416.136 527.234 424.784 524.458 425.638 C 523.39 425.958 518.586 425.745 513.782 425.211 C 504.387 424.037 495.74 425.104 493.391 427.88 C 492.643 428.841 492.323 431.403 492.643 434.713 C 492.964 437.702 492.75 440.051 492.323 440.051 C 491.789 440.051 491.362 438.449 491.362 436.528 C 491.362 430.976 489.334 425.318 485.918 421.474 C 481.54 416.457 481.754 412.186 486.665 407.169 C 492.323 401.51 493.498 397.774 493.498 386.671 C 493.498 376.955 493.498 376.955 490.295 375.141 C 487.519 373.539 487.092 372.685 487.092 368.842 C 487.092 364.785 487.946 363.504 490.722 363.29 C 491.149 363.183 494.992 366.493 499.263 370.55 Z M 518.479 550.654 C 522.002 552.042 519.974 553.216 514.102 553.216 C 508.23 553.109 508.017 553.109 510.579 551.615 C 513.462 549.907 515.917 549.693 518.479 550.654 Z M 494.352 553.963 C 491.896 556.312 491.256 556.526 489.761 555.351 C 487.412 553.43 489.654 551.081 493.818 551.081 L 497.234 551.081 L 494.352 553.963 Z M 498.942 562.077 C 495.74 569.55 487.305 573.821 483.889 569.764 C 481.967 567.415 486.024 563.358 492.537 561.223 C 495.312 560.262 498.195 558.768 498.942 557.914 C 501.078 555.245 501.078 556.953 498.942 562.077 Z M 529.903 583.216 C 532.785 586.098 532.251 589.942 528.728 590.369 C 523.177 591.223 512.394 599.763 509.298 606.062 C 505.241 614.069 504.707 614.39 498.622 611.294 C 490.722 607.237 488.907 601.151 495.312 599.87 C 499.156 599.123 508.337 592.611 514.956 585.991 C 519.12 581.828 520.721 580.974 523.817 580.974 C 526.273 580.974 528.408 581.721 529.903 583.216 Z M 566.948 652.716 C 567.696 653.464 568.23 655.172 568.23 656.453 C 568.23 660.083 564.386 667.129 561.504 668.624 C 560.223 669.264 558.408 670.759 557.554 671.826 C 555.952 673.748 555.632 673.535 550.294 666.809 C 547.305 662.965 544.742 659.336 544.742 658.802 C 544.742 656.239 549.653 653.57 554.244 653.57 C 556.913 653.57 559.902 653.037 560.756 652.503 C 562.892 651.115 565.454 651.222 566.948 652.716 Z M 586.913 661.15 C 589.475 661.898 592.891 664.14 595.774 667.022 C 598.229 669.584 601.325 671.72 602.499 671.72 C 603.674 671.72 607.197 674.068 610.293 677.058 C 613.603 680.154 617.339 682.716 619.368 683.036 C 622.997 683.784 624.812 686.132 624.812 690.189 C 624.812 693.819 620.969 698.41 617.873 698.41 C 616.485 698.41 609.973 694.673 603.354 690.189 C 596.734 685.705 587.446 680.474 582.749 678.446 C 578.051 676.524 573.888 674.389 573.354 673.641 C 572.073 671.506 572.393 662.645 573.781 661.257 C 575.382 659.656 581.254 659.656 586.913 661.15 Z M 651.289 697.556 C 657.481 704.922 659.936 706.95 662.712 706.95 C 666.769 706.95 669.331 708.552 676.804 715.598 C 680.434 719.121 684.278 721.897 685.452 721.897 C 686.733 721.897 687.907 722.858 688.334 724.032 C 688.975 725.954 689.616 726.167 693.993 725.633 C 698.69 724.993 699.117 725.1 700.825 728.196 C 702.106 730.544 703.494 731.398 706.057 731.719 C 708.832 731.932 709.793 732.68 710.22 734.708 C 710.541 736.203 712.035 737.911 713.423 738.658 C 714.811 739.299 716.519 741.327 717.266 743.142 C 718.868 747.092 719.615 747.199 724.526 744.21 C 732.32 739.619 742.462 742.395 745.344 749.975 C 746.092 752.217 746.625 754.138 746.412 754.459 C 746.092 754.672 742.355 755.206 737.871 755.633 C 730.611 756.274 729.224 756.06 723.992 753.605 C 720.789 752.11 715.345 750.509 711.822 750.188 C 703.601 749.121 693.566 746.025 690.897 743.676 C 689.829 742.715 688.334 740.046 687.801 737.804 C 687.16 735.669 685.879 733.534 684.918 733.213 C 683.851 732.786 677.765 731.932 671.253 731.398 C 664.847 730.758 657.908 729.477 655.986 728.623 C 653.958 727.662 649.794 723.712 646.591 719.868 C 643.495 716.025 638.905 710.58 636.449 707.805 C 631.111 701.719 631.431 699.157 637.944 696.168 C 644.563 693.178 647.979 693.499 651.289 697.556 Z"/>
</svg>