<svg fill="#FFFFFF" xmlns="http://www.w3.org/2000/svg" width="1024" height="1024"  viewBox="0 0 32 32">
  <path d="M28.17 9.598a.087.087 0 0 0-.045.013c-.012.01-.021.011-.021.004 0-.008-.014-.001-.031.014a.267.267 0 0 1-.072.043c-.039.014-.042.025-.046.143-.002.07 0 .142.005.158.01.036.04.023.04-.018 0-.022.005-.023.02-.007.031.03.046.025.052-.018.004-.025.023-.044.057-.054a.614.614 0 0 0 .083-.03c.02-.01.03-.009.03.005 0 .012.01.006.023-.011.013-.018.032-.026.043-.02.01.007.02.005.02-.005s.013-.014.03-.009c.028.01.028.009 0-.01-.017-.01-.038-.014-.048-.009-.03.02-.04-.047-.013-.095.015-.026.021-.056.014-.067-.01-.017-.07-.027-.12-.027h-.02zm-.285.015c-.005 0-.012.008-.024.028-.02.034-.077.073-.11.075-.046.003-.067.022-.086.081a.582.582 0 0 0-.02.075c0 .024.045.006.069-.019.018-.019-.132-.011.08-.038.066-.008.072-.016.047-.056-.012-.02-.012-.028 0-.04s.015-.011.015.005c0 .02.032.04.05.029.012-.008.005-.1-.01-.128-.004-.007-.007-.011-.01-.012zm.512.165c-.008.002-.012.012-.004.024.004.007.014.01.021.005.009-.005.008-.012 0-.021-.007-.006-.013-.009-.017-.008zm-.028.048c-.025 0-.046.032-.037.054.008.023.03.03.03.01 0-.007.009-.013.019-.013.02 0 .021-.003.01-.03-.003-.011-.014-.02-.022-.02v-.001zm-.224.056h-.006a.066.066 0 0 0-.034.025c-.017.02-.014.023.015.015.02-.005.035-.016.035-.024 0-.009-.004-.015-.01-.016zm.248.008c-.01 0-.019.005-.019.012s.01.012.02.012.018-.005.018-.012-.008-.012-.019-.012zm-.454.146c-.005.001-.008.006-.008.015 0 .01.01.02.02.02s.018-.007.015-.015c-.004-.012-.013-.02-.02-.02h-.007zm.373.04c-.003 0-.007.006-.014.015-.022.03-.018.06.01.083a.11.11 0 0 0 .034.022c.017 0 .063-.036.063-.05 0-.018-.052-.053-.066-.044-.006.004-.015-.002-.019-.012-.003-.01-.005-.014-.008-.014zm-.837.053c-.004.002-.007.006-.011.012a.205.205 0 0 0-.025.056.105.105 0 0 1-.026.048.054.054 0 0 0-.017.036.114.114 0 0 1-.014.045h.244a1.067 1.067 0 0 1-.013-.05c-.002-.011-.013-.02-.019-.03-.013-.018-.023-.04-.04-.055-.044-.043-.062-.06-.074-.06h-.005v-.002zm.632.061a.028.028 0 0 0-.02.008.06.06 0 0 1-.047.013.048.048 0 0 0-.046.015c-.014.017-.013.021.006.035.029.022.005.039-.038.028-.026-.007-.03-.003-.03.02l.002.017h.328v-.005c-.007-.03-.016-.038-.05-.045-.029-.005-.044-.016-.049-.035-.007-.031-.034-.052-.056-.051zm.077.022-.005.001c-.006.004.005.03.013.025.007-.005.01-.014.006-.02-.003-.005-.009-.006-.014-.006zm-.243.134zm.32.014-.001.007.001-.007zm-1.265.678a.945.945 0 0 0-.068.047c-.033.026-.066.042-.077.038-.028-.01-.045.004-.028.025.011.014.01.018-.006.018-.021 0-.023.006-.022.072 0 .04-.015.054-.027.024-.005-.011-.01-.01-.023.004a.173.173 0 0 1-.05.034c-.02.008-.035.022-.035.031 0 .01-.011.024-.026.034a.286.286 0 0 0-.057.072c-.017.029-.037.052-.043.052-.006 0-.01.007-.01.015 0 .024-.04.06-.065.06-.018 0-.024.008-.021.029.003.02.012.027.032.026.028 0 .039.024.016.039-.007.004-.013.03-.013.057 0 .034-.005.049-.017.049-.01 0-.035.016-.056.035l.02-.014h2.508v-.002c0-.007-.012-.02-.027-.03-.022-.013-.028-.013-.037 0-.01.017-.016.006-.012-.018.002-.006-.009-.009-.023-.005-.044.011-.04-.012.007-.034.061-.03.064-.05.019-.114a.292.292 0 0 1-.04-.068c0-.007-.006-.012-.013-.012-.009 0-.011-.01-.006-.028a.79.79 0 0 0 .012-.046c.003-.01.014-.018.025-.016.012.002.02-.004.02-.014 0-.025.04-.035.093-.025.04.007.044.006.045-.02 0-.017.004-.049.007-.07.002-.023-.001-.043-.007-.047-.013-.008-.001-.123.014-.133.014-.009.006-.03-.016-.048h-2.018a.18.18 0 0 0 .025-.017zm2.572.258-.005.001c-.007.005-.012.01-.012.014 0 .003.005.005.012.005s.012-.006.012-.013c0-.005-.003-.008-.007-.007zm.057.157c-.007 0-.01.006-.006.013.005.007.01.012.014.012.003 0 .006-.005.006-.012s-.006-.013-.014-.013zm-.155.112c-.01 0-.02.006-.02.013 0 .007.01.012.02.012s.018-.005.018-.012-.008-.013-.018-.013zm.467.05c-.006 0-.012.008-.012.019 0 .01.005.019.012.019s.013-.01.013-.02-.006-.018-.013-.018zm-.506.058c-.012 0-.026.01-.038.03a.148.148 0 0 1-.057.053.06.06 0 0 0-.032.029h.196c-.006-.013-.01-.027-.008-.035.005-.016 0-.023-.017-.023-.015 0-.024-.008-.024-.023 0-.02-.009-.03-.02-.03zm-.467.005c-.008 0-.002.008-.007.018-.008.017-.009.065-.01.089h.048c.004-.01.006-.02.003-.027-.004-.01-.001-.02.006-.025.018-.011.013-.03-.008-.03-.01 0-.018-.006-.018-.013 0-.007-.007-.012-.014-.012zm-3.417.835c-.024.02-.065.058-.1.093-.037.037-.071.086-.09.093-.017.007-.03.02-.027.028a.073.073 0 0 1-.003.04c-.02.054-.025.093-.014.093a.2.2 0 0 1 .048.015.222.222 0 0 0 .077.021c.013.002.013.005.001.02s-.01.02.014.03c.017.006.038.02.048.031.021.026.126.03.126.004a.05.05 0 0 1 .017-.033c.015-.012.021-.01.033.014.014.032-.002.098-.024.098-.016 0-.029.034-.036.094 0 .029-.022.062-.048.088h5.395l-.024.008a1.047 1.047 0 0 0 .325-.108c.062-.037.143-.13.142-.164a.095.095 0 0 0-.017-.046c-.014-.02-.014-.028.002-.06.026-.053.003-.126-.06-.188-.056-.057-.105-.061-.16-.015-.042.036-.092.04-.18.013a.217.217 0 0 0-.08-.012c-.013.004-.035-.007-.052-.026-.017-.018-.035-.032-.043-.032a.39.39 0 0 1-.086-.05.45.45 0 0 0-.082-.049h-5.102zm5.393.737zm.244-.636c-.004 0-.008.001-.01.003-.004.004.004.007.017.007.014 0 .017-.004.007-.008a.038.038 0 0 0-.014-.002zm-6.091.104c-.01 0-.027.012-.048.035a.445.445 0 0 0-.088.18c0 .011.005.02.012.02a.013.013 0 0 0 .013-.012c0-.021.05-.04.066-.027.021.018.068.004.077-.022a.145.145 0 0 0-.012-.067.148.148 0 0 1-.012-.077c.006-.022.002-.031-.008-.03zm.113.173c-.014.003-.017.017-.004.03.014.014.029.008.029-.012a.018.018 0 0 0-.019-.018h-.006zm-.305.068c-.009.002-.01.012.002.023.012.012.029.01.029-.003 0-.006-.009-.014-.02-.018a.023.023 0 0 0-.01-.002zm.241.945zm5.532.039.003.006-.003-.006zm-7.56.017zm0 .008c-.002.007-.007.011-.014.01-.02-.004-.019.014.003.088.02.068.06.186.027.222-.01.012-.016.03-.012.042.011.028-.068.167-.155.274-.03.037-.064.084-.088.12l.017-.023h1.106c-.002-.013-.018-.028-.042-.038-.032-.013-.05-.032-.068-.075a.297.297 0 0 1-.026-.086c0-.036-.022-.052-.032-.025-.005.013-.016.018-.029.012a.315.315 0 0 0-.082-.01c-.068-.002-.07-.006-.053-.104.005-.027.001-.04-.01-.045-.01-.004-.018-.024-.018-.045 0-.075-.098-.225-.147-.225-.01 0-.03-.014-.042-.03a.118.118 0 0 0-.07-.039 2.271 2.271 0 0 1-.106-.02h-.16l.001-.003zm1.312.003a.495.495 0 0 1 .007.084.346.346 0 0 0 .01.098c.011.043.016.047.047.042.042-.006.05.01.04.074a.306.306 0 0 1-.064.144c-.017.02-.017.021.002.021.011 0 .02.003.02.006 0 .015-.032.08-.057.114-.017.022-.026.047-.022.062.004.016-.005.037-.022.056l-.025.029h1.425c0-.005.002-.01.003-.014l.004-.027c.012-.042.024-.054.056-.071a.275.275 0 0 0 .066-.048c.021-.025.06-.024.06.001 0 .007.007.013.018.013.01 0 .018-.011.018-.024 0-.014.013-.038.029-.054.021-.021.03-.045.031-.09a.178.178 0 0 1 .017-.077c.021-.026.07-.02.079.009.006.019.019.025.054.025.055 0 .108.032.14.085.03.05.05.05.078.003.012-.02.027-.038.033-.038.037 0 .075-.036.075-.073 0-.025.005-.028.028-.021a.28.28 0 0 0 .073.007c.026 0 .052.007.06.017.013.016.023.015.076-.008.033-.014.068-.02.077-.016a.283.283 0 0 1 .102.078.149.149 0 0 1 .032.052c0 .022.019.016.05-.017.022-.023.033-.028.045-.018.023.02.039.005.039-.034 0-.042.063-.105.08-.079a.07.07 0 0 1 .01.027c0 .005.011.009.023.007.013-.003.026.007.033.023.01.023.021.027.081.025.076-.003.1-.014.1-.041 0-.027.03-.02.066.012.017.015.038.026.047.023.009-.003.023.004.031.016.01.013.019.016.024.007.004-.007.019-.013.031-.013.013 0 .03-.008.038-.018.02-.024.059-.024.104 0 .02.01.05.018.066.018s.03.006.03.014c0 .01.005.01.018 0 .012-.01.036-.012.068-.007.03.005.067.002.093-.007.034-.012.047-.013.061-.001.018.015.058.008.058-.01 0-.005.016-.016.035-.024.031-.015.037-.013.086.04.03.032.07.06.095.068a.187.187 0 0 1 .068.036.484.484 0 0 0 .051.041c.015.01.027.028.027.04 0 .048.113.089.185.067.03-.009.048-.007.065.003.015.01.023.01.024.003.002-.01-.006-.013-.013-.013-.035 0-.004-.07.043-.097a.075.075 0 0 0 .026-.037c.007-.023.004-.028-.017-.028-.02 0-.026-.008-.026-.038a.149.149 0 0 0-.025-.073c-.022-.03-.023-.037-.007-.05.01-.009.026-.014.034-.01.026.01.042.005.038-.012-.006-.025.02-.02.05.012.016.015.035.027.043.025.01-.002.016.004.016.015 0 .023.05.026.052.003 0-.009.004-.001.009.016.006.023.018.032.049.035.022.002.04.009.04.014 0 .006.018.022.041.036a.19.19 0 0 1 .058.057c.014.026.026.032.062.03.025 0 .058.006.075.015.048.027.058.025.156-.029a.397.397 0 0 1 .185-.065.191.191 0 0 0 .074-.016.245.245 0 0 1 .08-.02c.036-.006.072-.017.08-.027.018-.021.095-.023.102-.002.004.012.011.012.035 0a.361.361 0 0 1 .166-.032c.023.005.032.002.032-.013 0-.011.01-.02.024-.02.033 0 .055-.03.036-.049-.01-.01-.012-.018-.003-.026.017-.017.058-.002.047.017-.005.008.004.003.019-.01l.027-.024-.034-.035c-.018-.02-.044-.036-.057-.036-.019 0-.022-.003-.01-.016.035-.044-.047-.045-.085-.002-.028.033-.032.033-.092-.01-.041-.03-.044-.05-.006-.044.02.003.03-.003.033-.026.002-.018 0-.026-.01-.02-.007.004-.013.002-.013-.005 0-.025-.05-.042-.071-.024-.016.013-.025.01-.056-.024l-.001-.002h-4.882c-.001.017-.006.032-.013.037-.023.014-.001.205.028.253.014.022.03.04.036.04.005 0 .022.017.037.038.026.036.026.039.005.062-.029.031-.032.032-.07-.013-.02-.022-.04-.034-.051-.03-.011.004-.02-.003-.024-.017-.005-.017-.02-.022-.06-.024a.317.317 0 0 1-.091-.015c-.009-.007-.031-.011-.051-.01-.036.003-.037.002-.04-.072a.518.518 0 0 0-.016-.106.589.589 0 0 1-.02-.073.488.488 0 0 0-.022-.07h-.374zm6.224 0 .002.005c.009.024.01.024.022.003a.048.048 0 0 0 .004-.008h-.028zm.134 0c0 .007.006.012.012.012a.014.014 0 0 0 .014-.012zm.143.012c-.003 0-.005.005-.005.012s.005.013.012.013.01-.006.006-.013c-.004-.007-.01-.012-.013-.012zm-.585.035-.005.001a.014.014 0 0 0-.005.02c.004.006.013.008.02.004a.014.014 0 0 0 .004-.019c-.003-.005-.008-.007-.014-.006zm-.054.02-.005.001c-.006.004-.012.014-.012.02 0 .007.005.012.012.012s.013-.01.013-.02c0-.008-.004-.013-.008-.013zm.475.022c-.002 0-.004.001-.004.005 0 .007.004.017.008.021.005.005.012.006.015.002.004-.004 0-.013-.008-.02-.004-.005-.008-.008-.01-.008zm-.547.002a.01.01 0 0 0-.005.002c-.007.004-.01.013-.006.02.011.016.019.014.019-.008 0-.008-.003-.013-.008-.014zm-.041.033c-.001.002.002.007.01.016.018.023.051.029.051.009 0-.007-.005-.013-.011-.013a.134.134 0 0 1-.034-.008c-.01-.004-.015-.006-.016-.004zm.297.044-.012.002c-.027.007-.032.022-.012.034.006.004.009.018.005.03-.005.016-.004.016.005.004.008-.012.014-.013.02-.003.005.008.016.01.024.005a.111.111 0 0 1 .052-.007c.036.003.036.003.013-.015a.091.091 0 0 0-.035-.02c-.006 0-.019-.007-.029-.017a.049.049 0 0 0-.031-.012v-.001zm.43.006c-.003 0-.005.005-.005.012a.009.009 0 0 0-.005.008c0 .005.004.01.009.01a.008.008 0 0 0 .008-.006c.008 0 .01-.005.006-.012s-.01-.012-.013-.012zm-.274.039c-.008.001-.01.01-.003.022.004.007.013.01.02.006.009-.005.009-.013 0-.022-.006-.006-.012-.007-.017-.006zm-.014.034c-.005.001-.007.008-.003.02.004.01.009.013.015.006.007-.006.007-.012 0-.019-.006-.005-.01-.007-.012-.007zm-.155.06a.01.01 0 0 0-.009.01c0 .004.005.008.01.008a.008.008 0 0 0 .008-.009c0-.004-.004-.009-.009-.009zm-.1.044c-.006 0-.013.002-.016.007-.002.004-.002.01 0 .012.007.007.03-.002.03-.011 0-.005-.006-.008-.013-.008zm.443.07c-.003 0-.005.004-.005.007 0 .005-.006.01-.013.01-.007 0-.013.003-.013.008 0 .011.015.011.022 0 .003-.005.009-.007.013-.004.005.002.009-.001.009-.009 0-.007-.005-.013-.01-.013h-.003zm-.374.104c-.002 0-.003.005-.003.012 0 .008.004.011.009.008a.01.01 0 0 0 .003-.013c-.004-.006-.007-.008-.01-.007zm-1.414.01a.15.15 0 0 0-.11.037l-.028.024.03.052.059.035.336-.001-.07-.03a.243.243 0 0 1-.113-.072c-.03-.039-.045-.045-.104-.045zm-.16.073c-.006.002-.003.008.01.031.016.031.01-.006.01-.015 0-.008-.005-.016-.012-.016h-.009zm-.084.09c-.008 0-.022.008-.035.02a.076.076 0 0 0-.009.012h.032l.005-.004c.009-.008.016-.017.016-.021 0-.006-.003-.008-.009-.008zm-.012.032zm-.014.007zm-6.588.721a.52.52 0 0 1-.091.11c-.025.019-.036.037-.036.063 0 .037-.024.067-.13.157a.414.414 0 0 0-.076.09.459.459 0 0 1-.09.1c-.041.035-.06.06-.058.076.004.03-.034.09-.08.133h3.983l-.006-.005c-.034-.028-.04-.04-.032-.06a.144.144 0 0 0 .007-.056.242.242 0 0 1 .016-.082.761.761 0 0 0 .026-.086.501.501 0 0 1 .035-.092c.03-.058.07-.072.082-.028.005.019.01.022.022.013.013-.01.009-.028-.02-.082-.021-.038-.034-.075-.03-.082.005-.007-.007-.036-.025-.065a.154.154 0 0 1-.032-.104h-3.465zm-3.234 1.39zm-.006.017-.005.024a.193.193 0 0 1 .005-.024zm-.005.024zm-.002.027c-.002.05.003.12.017.216.014.09.015.136.006.16-.02.053-.015.077.018.092a.077.077 0 0 1 .04.05c.013.065.022.101.05.04.09.004.08-.02.05-.043a.1.1 0 0 1-.02-.054.175.175 0 0 0-.018-.066c-.015-.029-.018-.072-.014-.214a.914.914 0 0 0-.002-.18h-.127zm.127 0zm.038-.036zm0 .036h-.02l-.004-.026c.002 0 .002.051.012.05.006 0 .01-.012.011-.024zm5.828-.016zm-5.718.016-.004.002c-.036.015-.042.026-.055.091a.75.75 0 0 1-.031.111c-.018.044-.007.107.018.107.01 0 .024.008.033.019.01.013.029.016.063.01.041-.006.049-.004.056.02.01.034-.013.066-.026.034-.006-.015-.013-.017-.03-.008-.016.009-.036.006-.067-.006-.055-.023-.054-.023-.064 0-.004.011-.002.017.005.013.013-.008.025.022.025.06 0 .02.019.042.057.068.03.022.056.046.056.054 0 .015-.066.001-.073-.015-.002-.006-.015-.004-.028.003a.076.076 0 0 1-.042.008c-.01-.002-.027.008-.038.022-.019.025-.02.025-.058-.016-.02-.023-.035-.047-.03-.053.004-.007-.001-.012-.012-.012a.217.217 0 0 1-.07-.032.328.328 0 0 0-.056-.03c-.019 0-.05.09-.053.15a.772.772 0 0 1-.01.108l-.005.021h5.687c.01-.014.017-.017.028-.01.028.015.133.003.157-.018.011-.01.027-.018.035-.018.011 0 .01-.007-.002-.028-.015-.024-.016-.034-.001-.069.018-.043.026-.047.055-.029.021.014.064-.005.064-.028s.048-.049.075-.04c.018.006.025.002.025-.016 0-.013.019-.042.042-.064.034-.033.052-.04.085-.039.052.004.083-.01.1-.04.01-.02.007-.026-.02-.036-.018-.007-.03-.018-.026-.024.004-.006-.01-.03-.03-.053-.036-.04-.04-.04-.055-.02-.02.025-.06.028-.081.007-.02-.021-.02-.046.004-.07.021-.02.016-.078-.009-.093-.01-.007-.005-.026.006-.04h-5.7zm-2.65 1.435a.184.184 0 0 1 .023.011.094.094 0 0 0-.023-.01zm.023.011zm.022.013h-.243c.012.017.01.028-.004.062a.35.35 0 0 0-.018.11v.067l.113.11c.062.06.113.119.113.13 0 .014.003.015.015.004.025-.026.035-.017.035.029 0 .036.006.045.032.051a.18.18 0 0 0 .066.002c.043-.008.103.032.103.07 0 .039.008.069.024.093h2.097a.084.084 0 0 1-.045-.06c-.006-.036-.042-.04-.082-.008s-.071.032-.115.001a.234.234 0 0 0-.08-.031.109.109 0 0 1-.075-.047c-.056-.075-.138-.147-.178-.155a.695.695 0 0 1-.121-.05.282.282 0 0 0-.098-.035c-.009.003-.015.024-.015.047 0 .081-.022.113-.1.15-.042.02-.08.031-.09.026-.011-.007-.01-.012.006-.02.013-.004.033-.004.04-.017.005-.013.013-.013.037-.026.035-.02.044-.031.044-.062 0-.049-.02-.07-.068-.07a.16.16 0 0 1-.08-.033c-.054-.04-.112-.041-.144-.002-.026.031-.026.032-.048-.037-.014-.046-.021-.053-.052-.053-.02 0-.036-.005-.036-.012s.007-.013.014-.013c.008 0 .011-.009.007-.019-.004-.01-.002-.021.004-.025.006-.003.013-.02.016-.038.004-.023 0-.033-.02-.039-.026-.008-.058.021-.058.054 0 .02-.006.02-.062 0-.05-.016-.068-.038-.072-.08a.177.177 0 0 0-.029-.074h-.005a.103.103 0 0 0-.01.032c-.005.026-.003.05.004.059.01.01.007.023-.008.037-.011.012-.018.032-.015.044.009.033-.01.04-.034.013-.013-.014-.018-.032-.012-.046.008-.02.003-.021-.047-.013a.632.632 0 0 1-.1.007c-.03-.001-.049.007-.065.028-.018.023-.022.024-.022.007 0-.011-.01-.024-.023-.027a.786.786 0 0 0-.25.015c-.02.01-.028.01-.031 0-.003-.01-.021-.012-.054-.007-.044.007-.051.005-.057-.018a.054.054 0 0 0-.032-.034c-.014-.004-.023-.017-.02-.028.003-.02-.02-.047-.052-.07zm2.045 0a.075.075 0 0 1-.009.032c-.012.02-.012.028-.002.035.008.005.016.02.019.034.002.013.018.032.034.04.047.023.06.04.042.058-.012.011-.018.011-.03 0-.008-.009-.047-.016-.086-.016-.083 0-.099.012-.121.099-.025.093-.021.124.017.143a.1.1 0 0 1 .042.034c.038.085.047.095.094.11a.244.244 0 0 1 .076.041c.022.022.03.023.05.008.07-.049.185-.025.198.04a.7.7 0 0 0 .016.063l.001.007h1.32c.026-.05.03-.084.004-.084-.027 0-.024-.071.004-.086a.29.29 0 0 1 .063-.02.246.246 0 0 0 .084-.04c.025-.02.052-.03.064-.025.01.004.036-.002.056-.012a.162.162 0 0 1 .058-.018c.013 0 .03-.011.04-.025.024-.04.087-.066.139-.058.025.004.082.009.127.01.044.001.093.01.106.018.016.01.03.012.045.004.03-.015.143-.008.166.01.017.014.072.008.072-.008 0-.018.078-.053.099-.045.046.02.1.028.112.017.007-.007.035-.006.07.004.046.012.06.022.067.046.004.019.002.033-.006.036-.008.003-.018.024-.023.047-.006.033-.017.045-.057.06-.034.014-.048.028-.048.045 0 .031.042.043.071.02a.089.089 0 0 1 .044-.017c.011 0 .03-.01.041-.02.028-.028.069-.012.084.032.01.03.022.038.068.045.036.005.063.003.074-.007.012-.01.02-.01.025-.001.004.007.02.013.036.013.077 0 .155.03.17.06h.714a.077.077 0 0 0-.002-.01c-.007-.02.001-.028.04-.045l.094-.04c.026-.012.048-.026.048-.03 0-.02.059-.04.13-.045a.286.286 0 0 0 .089-.015.195.195 0 0 1 .074-.01c.046 0 .062.004.072.023.007.013.019.024.026.024.008 0 .024.01.036.02.02.017.024.015.042-.013.012-.019.033-.032.05-.032a.291.291 0 0 0 .09-.032.327.327 0 0 1 .076-.03c.009 0 .024-.013.033-.028l.018-.026.084.039a.72.72 0 0 1 .121.072c.044.037.093.037.1 0a.117.117 0 0 1 .023-.048c.012-.014.016-.032.01-.054-.012-.049 0-.075.057-.114.072-.05.1-.11.1-.219 0-.049-.007-.1-.014-.115v-.001h-5.627zm-1.445.007a.012.012 0 0 0-.012.013c0 .007.005.012.012.012s.013-.006.013-.012a.013.013 0 0 0-.013-.013zm-.13.076a.013.013 0 0 0-.013.013c0 .007.006.012.013.012a.012.012 0 0 0 .012-.012c0-.007-.005-.013-.012-.013zm1.837.573c-.007 0-.005.005.004.016.018.021.04.024.034.003-.003-.008-.015-.016-.028-.018h-.01zm3.968.074zm.002.013zm-.003.018c0 .002 0 .005-.002.007l.002-.007zm-21.346-8.47c-.007.002-.015.01-.024.023-.012.019-.014.026-.012.043a.056.056 0 0 1-.004.037c-.013.023-.012.06.002.07.01.006.02.034.02.053 0 .004-.009.009-.02.012a.07.07 0 0 0-.023.009.19.19 0 0 0 .002.044c.005.037.005.044-.01.091a.215.215 0 0 1-.042.084.826.826 0 0 1 .05.124.98.98 0 0 0 .026.074c.004.007.044.047.07.075v.001c.045.042.04.04.061.085a.454.454 0 0 1 .032.086.146.146 0 0 0 .01.038.021.021 0 0 1 .005.013c0 .004.012.02.028.038a.21.21 0 0 1 .057.1 1.618 1.618 0 0 1 .04.412c-.02.086-.02.101.007.114.015.007.015.008.005.022-.007.01-.01.01-.025.004-.016-.006-.018-.006-.026.004-.007.01-.006.014 0 .025a.242.242 0 0 1 .008.07c0 .054.002.055.014.058.01.003.019.015.027.035a.35.35 0 0 1 .016.077.24.24 0 0 1-.012.127c-.01.022-.01.025-.001.043a.08.08 0 0 0 .012.02c.002.002.007.01.011.019a.04.04 0 0 0 .022.02l.024.006c.006.002.005.005-.004.01-.012.01-.015.025-.006.03a.107.107 0 0 1 .01.026.07.07 0 0 0 .012.025c.004.003.001.008-.008.017l-.014.013.013.019c.007.01.012.026.012.035 0 .01.005.02.01.027l-.007.023a.053.053 0 0 0-.01.03c0 .005.002.008.003.01.005.009.004.013-.007.027a.072.072 0 0 0-.014.021l-.043.04-.006.006c-.015.012-.02.018-.018.034.002.01.007.023.015.044h.001a.233.233 0 0 0 .043.075.16.16 0 0 1 .034.073c.013.051.017.055.054.051a.093.093 0 0 1 .072.023c.03.027.03.028.004.02-.033-.009-.054.015-.032.037.011.01.022.01.04-.001.041-.025.053-.02.053.026 0 .072.014.103.045.103a.071.071 0 0 0 .044-.016c.023-.023.037-.001.02.028-.013.02-.012.027 0 .032.016.006-.023.013-.053.009-.01-.002-.017.013-.017.04 0 .061.014.104.03.094.03-.019.088-.017.088.003 0 .01-.004.019-.01.019-.022 0-.096.074-.101.102-.007.036.031.06.078.048.04-.01.046.023.009.05-.017.012-.027.04-.032.095-.005.048-.016.084-.029.093a.06.06 0 0 0-.02.044.204.204 0 0 1-.02.07c-.013.023-.016.043-.009.048.014.009.025.04.035.099.004.02.013.042.022.047.008.005.011.016.006.023-.016.027.008.055.05.056.062.001.082.013.14.083.02.024.031.041.039.056v-.003.002c.009.018.01.035.01.059v.008c-.002.032-.009.057-.014.057-.006 0 .005.015.022 0l.005-.004c.013-.01.016-.007.016.008a.018.018 0 0 1-.01.016l.002.007a.22.22 0 0 1-.068-.016c-.007-.007-.015-.01-.021-.009-.02.003-.034.04-.034.096 0 .093.042.142.115.136.049-.005.049-.005.05.047 0 .045.005.053.038.062a.077.077 0 0 1 .017.008c.005.002.009.006.014.009v-.002c.044.03.107.088.108.107 0 .008.035.036.078.064.09.058.133.11.155.188.014.049.112.207.156.251a.06.06 0 0 1 .017.036c0 .022.041.036.072.024.019-.007.02-.003.014.019-.006.02-.001.03.017.04.038.02.066.071.082.143.004.02.009.04.011.063.01.081.017.107.045.136.024.025.034.05.034.085 0 .03.007.051.02.056.03.011.024.035-.006.027-.014-.003-.033.002-.041.012-.009.01-.022.018-.03.017-.018.02-.024.038-.035.059-.016.027-.024.053-.017.063.01.016.011.022.015.063.002.02.07.05.144.061.012.002.02.006.027.01l.006.001c.006.005.01.012.01.02 0 .013.008.026.018.03.01.004.03.033.045.065a.186.186 0 0 0 .057.073c.083.04.22.094.242.094.013 0 .042.012.064.026.028.018.05.032.104.02.038-.007.09.03.079.078-.006.023-.002.033.016.039.026.008.063.07.077.13.008.035.013.037.063.033.058-.004.127.03.127.062 0 .01.017.02.039.026a.212.212 0 0 1 .068.031v.001c.022.016.037.033.037.046 0 .01.023.036.051.059a.219.219 0 0 1 .061.066c.006.018.02.026.046.026.02 0 .057.01.081.023.059.032.226.096.312.128.082.03.164.116.18.124.002-.002.027.028.054.048.049.037.09.088.134.166.008.013.024.03.036.037.023.013.024.013.041.002.014-.01.029-.012.069-.01a.24.24 0 0 1 .148.052c.013.01.03.019.037.019.017 0 .023.014.013.032-.006.011-.003.018.029.051l.036.037.042.001c.072 0 .126.026.254.118.1.072.213.125.233.109.006-.006.01-.005.012.004.001.007.02.02.044.032.058.027.127.098.127.13 0 .004.009.026.02.048.01.022.022.057.025.078a.42.42 0 0 0 .026.081.27.27 0 0 1 .02.053c0 .005.01.016.025.023a.21.21 0 0 1 .055.051.219.219 0 0 0 .034.039c.002 0 .002-.01 0-.023-.005-.031.006-.06.028-.07.015-.008.017-.013.014-.029-.005-.023.003-.026.056-.018.042.006.044.007.067-.012.015-.012.022-.022.02-.03-.001-.007 0-.011.009-.011.006 0 .014-.006.016-.014a.288.288 0 0 1 .048-.076.047.047 0 0 0 .013-.006c.008-.005.008-.007 0-.017-.008-.01-.008-.011.007-.007.011.003.02 0 .027-.009.014-.016.018-.016.037 0 .008.007.018.014.023.014.004 0 .012 0 .017.003.006.002.02-.006.038-.023.033-.03.054-.033.104-.014a.11.11 0 0 1 .062.052c.003.006.02.011.046.014a.953.953 0 0 1 .065.009c.02.004.024.003.024-.007 0-.009.001-.01.007-.004.013.013.03.009.044-.009.01-.013.012-.024.01-.055 0-.02-.005-.041-.009-.045a.037.037 0 0 1-.007-.023c0-.008-.003-.015-.007-.015-.003 0-.006-.002-.006-.005 0-.004.006-.007.013-.007.015 0 .017-.014.003-.026-.005-.004-.01-.012-.01-.016 0-.012-.013-.015-.027-.007-.006.004-.013.004-.016 0-.003-.002-.001-.006.003-.007a.013.013 0 0 0 .009-.012c0-.006-.009-.01-.027-.01-.016 0-.024-.002-.022-.006.003-.003.01-.006.02-.006.017 0 .02-.006.008-.019-.007-.006-.006-.008.001-.013.016-.01.031-.008.039.006a.063.063 0 0 0 .022.022.152.152 0 0 1 .038.042c.017.026.02.039.018.055-.004.028.007.054.025.056.021.003.023.025.004.046-.014.014-.015.018-.007.025.007.006.011.005.017 0 .01-.011.017-.01.013.005-.002.009.002.015.016.022.022.011.06.055.06.07 0 .005-.008.015-.017.022-.023.018-.02.026.01.03.016.004.03.01.036.02.007.01.014.013.036.012a.247.247 0 0 0 .04-.006c.009-.002.018 0 .023.005.007.007.012.008.03-.002a.12.12 0 0 0 .033-.026c.011-.013.014-.014.03-.007.02.01.044 0 .04-.017-.015-.047-.012-.091.005-.091.016 0 .016-.011.002-.035-.02-.034-.025-.066-.014-.078.013-.012.006-.032-.018-.055-.018-.016-.018-.02-.016-.064.002-.037 0-.05-.007-.059a.058.058 0 0 1-.01-.032c0-.014-.007-.028-.02-.042-.021-.026-.031-.05-.027-.065.002-.006-.003-.02-.012-.032a.084.084 0 0 1-.017-.038c0-.018-.014-.048-.04-.08a.12.12 0 0 1-.022-.05c-.003-.022-.005-.024-.012-.014s-.01.009-.031-.008c-.032-.024-.041-.04-.043-.075-.002-.032.01-.053.025-.048.015.006 0-.035-.04-.105-.026-.057-.065-.111-.1-.18a.2.2 0 0 0-.045-.063.16.16 0 0 1-.039-.057c-.015-.037-.014-.045.007-.06.02-.015.021-.02.007-.038a.177.177 0 0 1-.025-.063c-.005-.024-.021-.048-.038-.056-.086-.043-.2-.217-.159-.242.013-.009.014-.018.002-.045a.192.192 0 0 1-.016-.066c0-.019-.01-.032-.025-.036l-.006.016c-.025 0-.074-.056-.075-.086-.001-.014-.004-.018-.008-.01-.009.023-.07.021-.102-.003a.1.1 0 0 0-.024-.013.075.075 0 0 0-.028-.006c-.043 0-.276-.239-.319-.327-.033-.068-.036-.083-.032-.205a4.622 4.622 0 0 0-.005-.527c-.008-.1-.006-.128.012-.166a.253.253 0 0 0 .02-.055c0-.006.01-.02.022-.034l.002-.001c.009-.01.012-.015.006-.016l-.015.002a.802.802 0 0 0-.038.01c-.037.01-.07.014-.073.01-.015-.015-.008-.027.021-.033a.379.379 0 0 0 .067-.02c.006 0 .008 0 .005.006l.011.017c.023-.007.002-.04-.074-.12a.432.432 0 0 1-.023-.026.035.035 0 0 1-.007-.01v-.001a.105.105 0 0 0-.02-.034.137.137 0 0 1-.028-.048.148.148 0 0 0-.025-.049.157.157 0 0 1-.014-.156c.013-.03.023-.04.04-.034.022.006.023 0 .017-.088-.006-.086-.004-.1.022-.133.018-.023.039-.035.053-.032.02.005.018-.001-.008-.048-.04-.073-.055-.18-.026-.203a.046.046 0 0 0 .012-.017.051.051 0 0 0 .008-.027c0-.015.012-.029.027-.033.019-.005.024-.014.019-.035-.005-.019.003-.042.026-.068a.154.154 0 0 0 .023-.183.54.54 0 0 1-.036-.149c-.008-.081-.007-.093.012-.093.028 0 .027-.04-.005-.137a.261.261 0 0 1-.018-.103.402.402 0 0 0-.051-.177c-.01-.012-.007-.017.008-.017.012 0 .022-.002.022-.006a.374.374 0 0 0-.047-.098 1.635 1.635 0 0 1-.083-.143l-.002.003.002-.004a16.69 16.69 0 0 1-.118-.224l-.053-.075a1.27 1.27 0 0 0-.022-.055C6.227 13.01 6.22 13 6.212 13c-.005 0-.007-.002-.007-.008a.182.182 0 0 0-.019-.044c-.012-.021-.017-.039-.015-.044.004-.014-.003-.028-.013-.026-.007.001-.008-.002-.007-.014.001-.01-.001-.02-.006-.023a.075.075 0 0 1-.016-.025c-.008-.018-.024-.029-.027-.018a.035.035 0 0 1-.034.022.046.046 0 0 0-.021.007l-.007.004c-.01.01-.012.01-.015.003-.004-.01.017-.037.026-.035l.012-.083a.353.353 0 0 0-.047-.053 1.43 1.43 0 0 1-.074-.072 1.527 1.527 0 0 0-.078-.074c-.026-.022-.03-.024-.052-.024a.118.118 0 0 1-.077-.024.276.276 0 0 0-.044-.024.336.336 0 0 1-.082-.064.44.44 0 0 0-.062-.056c0 .003-.005.007-.016 0l-.021-.014-.027-.023c-.018-.016-.019-.018-.008-.015.006.001.023.013.029.017l-.03-.027a.057.057 0 0 0-.022-.012.44.44 0 0 1-.1-.108.159.159 0 0 0-.028-.037.103.103 0 0 1-.025-.021.3.3 0 0 0-.061-.046l-.035-.019a.254.254 0 0 1-.074-.064.319.319 0 0 1-.078-.117 1.498 1.498 0 0 0-.035-.078 2.004 2.004 0 0 1-.064-.144.358.358 0 0 0-.073-.119c-.023-.022-.029-.025-.057-.028a.095.095 0 0 1-.04-.013c-.005-.004-.012-.009-.015-.009a.06.06 0 0 1-.023-.013c-.017-.015-.025-.011-.025.013 0 .023-.006.008-.006.008l-.005-.018c-.005-.019-.006-.02-.037-.022-.035-.003-.045 0-.045.01 0 .008.013.01.018.003.002-.003.013-.006.026-.006.017 0 .024.002.028.01a.044.044 0 0 1 .005.013c0 .006-.014.002-.027-.008a.053.053 0 0 0-.02-.01c-.01 0-.02.015-.018.025.002.005 0 .004-.006-.003-.005-.008-.013-.012-.024-.012a.142.142 0 0 1-.08-.039c-.012-.01-.023-.017-.026-.015-.003.001-.007 0-.012-.005-.002.002-.012.03-.017.036-.007.01-.008.019-.003.053l.009.057c.006.03-.056.108-.12.152-.051.036-.05.036-.066.066-.008.015-.016.027-.02.027-.01 0-.025.024-.025.043 0 .014-.003.02-.01.025-.008.004-.01.01-.01.023 0 .01-.003.019-.006.02-.008.006-.006.021.005.031a.074.074 0 0 1 .016.03c.005.018.005.022-.004.032a.077.077 0 0 0-.013.02c-.002.005-.009.009-.017.009a.07.07 0 0 0-.06.035l.016.004-.017-.004a.032.032 0 0 0-.004.015c0 .014-.024.036-.044.04-.03.007-.043.043-.025.075.008.014.009.017.002.022-.019.012-.065-.024-.085-.066-.018-.036-.03-.043-.049-.028a.05.05 0 0 1-.027.01c-.012-.002-.013 0-.017.021-.003.018-.01.03-.016.034-.01.006-.02 0-.025-.02a.087.087 0 0 0-.022-.032c-.012-.01-.019-.021-.019-.03 0-.007-.002-.014-.005-.016s-.004-.014-.003-.029v-.024l-.027-.001h.026a.023.023 0 0 0-.002-.008.032.032 0 0 1-.004-.021c.002-.013 0-.013-.022-.013-.021 0-.025-.002-.03-.013a.093.093 0 0 1-.005-.027c0-.009-.004-.014-.014-.018a.102.102 0 0 1-.028-.018l-.014-.014-.03.015a.409.409 0 0 0-.116.078c0 .007-.008.008-.063.005a.992.992 0 0 1-.074-.006c-.008-.002-.014.004-.03.03-.015.026-.023.035-.036.039-.012.003-.017.007-.02.018a2.263 2.263 0 0 1 .002 0l-.001.002c-.002.013-.005.015-.022.015-.01 0-.022.003-.025.006-.007.007-.017.004-.03-.006l-.002-.001a.023.023 0 0 0-.02-.005.049.049 0 0 0-.028.019l.046-.012a2.615 2.615 0 0 0-.047.013.101.101 0 0 0-.015.095c.007.019.008.027.003.04-.007.02-.035.05-.048.05-.005 0-.009.004-.009.01 0 .018-.025.034-.082.05-.004.002-.006.007-.004.013.003.011-.013.026-.028.026-.005 0-.013.005-.016.011l-.006.011-.012-.013a.088.088 0 0 1-.015-.04.168.168 0 0 0-.043-.084.22.22 0 0 1-.024-.036c-.004-.008-.011-.015-.015-.015-.008.001-.013.001-.015-.001h-.002l-.001-.003v-.004c-.003-.015-.01-.022-.017-.014-.007.01-.028.001-.048-.022-.01-.013-.022-.024-.026-.024-.013 0-.03-.03-.031-.054 0-.016.002-.026.01-.033.015-.013.022-.026.025-.054.003-.026.009-.04.021-.05.005-.004.008-.015.008-.024 0-.024.006-.03.025-.026.009.002.02.001.026-.002.008-.004.017-.004.03 0 .02.005.02.004.026-.036.003-.022.005-.027.023-.039.02-.013.02-.016.006-.034-.005-.006-.006-.011-.002-.022a.087.087 0 0 0-.002-.066c-.007-.013-.008-.017 0-.025a.15.15 0 0 0 .017-.039l.009-.03-.021-.017a.108.108 0 0 0-.03-.02l-.026-.006a.03.03 0 0 1-.02-.015c-.005-.011-.004-.015.006-.026a.13.13 0 0 0 .018-.024c.005-.01.013-.013.035-.016a.107.107 0 0 0 .032-.008c.005-.005-.007-.063-.013-.063-.002 0-.005-.009-.005-.02 0-.015-.002-.022-.009-.026-.011-.006-.06-.002-.079.008-.038.02-.063.02-.068 0a.051.051 0 0 0-.02-.024.675.675 0 0 1-.026-.017c-.008-.006-.011-.004-.025.009a.12.12 0 0 0-.023.033c-.007.017-.009.018-.03.015-.017-.002-.026 0-.03.004-.01.011-.017.01-.032-.01-.018-.023-.03-.024-.03-.004 0 .01-.004.018-.013.023-.017.012-.025.002-.03-.033a.081.081 0 0 0-.009-.032c-.008-.008-.006-.035.003-.045.007-.008.006-.013-.011-.047-.018-.037-.02-.04-.018-.085.001-.064-.006-.081-.043-.099a.089.089 0 0 0-.035-.01c-.016.006-.039-.011-.048-.037a.17.17 0 0 1-.008-.035c0-.01 0-.01-.005 0a.221.221 0 0 1-.078.067.134.134 0 0 0-.03.02c0 .002-.008.004-.016.004-.014 0-.018-.005-.016-.017 0-.002-.009-.004-.02-.004a.048.048 0 0 1-.026-.008.427.427 0 0 0-.046-.026c-.032-.017-.04-.02-.052-.015-.023.008-.054-.001-.079-.024a.11.11 0 0 0-.066-.03c-.007 0-.012 0-.017.003a.041.041 0 0 1-.015.005l-.048.063.048-.063a.084.084 0 0 1-.05-.012.111.111 0 0 0-.038-.014c-.018 0-.035-.012-.047-.036a.12.12 0 0 0-.024-.032l-.033-.029-.02-.018.016-.017c.015-.015.015-.016.01-.04a.074.074 0 0 0-.029-.046c-.02-.017-.022-.022-.02-.035l.004-.015-.03.003c-.021 0-.032.004-.035.01-.01.018-.048.007-.062-.018-.007-.011-.014-.017-.022-.015zm4.556 2.08-.012.084h.002c.003.003.009 0 .016-.009.007-.007.017-.013.023-.013.013 0 .01-.007-.024-.055l-.005-.007zm.537 2.936-.001.001c-.005.009-.004.016.002.016l.01-.001zM.933 11.019c-.003 0-.003.003.004.008l.02.015.011.009-.011.008c-.007.005-.012.014-.012.02 0 .005-.002.01-.005.01-.009 0-.01-.011-.005-.022.008-.014.004-.017-.014-.013-.01.002-.018.01-.026.024l-.013.022-.038-.003c-.034-.002-.04-.001-.044.007-.007.013-.015.012-.015-.003 0-.009-.004-.014-.017-.018-.021-.007-.035-.007-.061.003-.02.007-.023.007-.03 0-.013-.012-.02-.01-.023.005-.004.02.005.08.013.088a.28.28 0 0 0 .093.012c.007 0 .014.034.014.065 0 .02.003.036.008.042a.051.051 0 0 1 .008.027c0 .021.01.022.025.001.008-.01.016-.015.025-.015.01 0 .024-.01.047-.032.032-.03.034-.031.057-.03.022.002.025.004.034.021l.009.018.015-.013c.009-.007.015-.016.015-.02 0-.002.01-.008.024-.012.03-.008.036-.023.016-.037-.015-.011-.017-.02-.006-.03a.022.022 0 0 0 .008-.014.025.025 0 0 0-.008-.015.03.03 0 0 1-.007-.017c0-.005-.005-.013-.01-.019-.006-.005-.01-.01-.008-.013.001-.002 0-.006-.004-.008-.003-.002-.005-.002-.003.001s-.003.006-.01.006c-.012 0-.016-.004-.023-.017a.054.054 0 0 1-.006-.028c.002-.008-.002-.013-.015-.021a.068.068 0 0 0-.032-.01zm.103.034c-.002 0-.004.002-.006.005-.01.015-.008.023.01.034l.017.01a.092.092 0 0 0-.009-.027c-.006-.015-.01-.02-.012-.02zm.04.025-.01.012-.002.021.007.013.005-.03zm.01.179-.01.001a.098.098 0 0 1-.026.006c-.013 0-.013.001.006.01.026.012.028.013.034 0 .006-.01.004-.017-.004-.017zm-.347.022c-.01 0-.021.014-.021.023 0 .006.018.003.025-.003.01-.01.007-.02-.004-.02zm.21.02c-.004 0-.011.007-.016.014a.058.058 0 0 1-.024.02c-.012.003-.017.01-.024.03-.004.015-.013.03-.02.034-.016.01-.018.035-.003.044a.026.026 0 0 1 .011.02c0 .009.002.01.01.008.007-.002.012.001.016.008.007.014.012.012.025-.01.014-.025.014-.032 0-.056-.01-.017-.011-.021-.005-.043a.084.084 0 0 1 .021-.037c.016-.015.02-.031.009-.031zm.047.002c-.01-.001-.013.01-.006.016.005.006.015 0 .015-.007 0-.004-.004-.008-.01-.009zm-.033.044c-.004.001-.008.005-.016.015-.023.026-.021.04.005.044a.07.07 0 0 1 .023.007c.002.002.007-.002.01-.008.004-.008.005-.014.002-.017-.003-.003-.005-.01-.005-.017a.035.035 0 0 0-.01-.02c-.004-.004-.006-.006-.01-.004zm-.204.044c-.002 0-.003 0-.005.004a.024.024 0 0 0-.001.016c.001.006.006.01.01.01.011 0 .014-.015.005-.025l-.009-.005zm.038.012c-.014.002-.023.021-.023.052 0 .023 0 .023.014.02.02-.005.022-.005.024-.024a.243.243 0 0 1 .006-.028c.003-.008.001-.012-.006-.017a.023.023 0 0 0-.015-.003zm.924.551c-.01 0-.025.013-.025.022 0 .006.023.005.033-.003.011-.008.007-.019-.008-.019zm-.057.105a.012.012 0 0 0-.006.003.01.01 0 0 0-.001.011c.005.008.018.007.018-.002 0-.007-.005-.013-.01-.012zm-.007.09c-.003 0-.007.003-.01.009-.004.005-.003.01.002.016.009.01.017.003.015-.014 0-.007-.004-.01-.007-.01zm-.041.442c-.01 0-.02.004-.027.01a.082.082 0 0 1-.035.016c-.02.004-.026.003-.034-.005-.006-.006-.014-.011-.019-.011-.004 0-.007-.003-.007-.006v-.004l-.006.003c-.004.004-.004.009 0 .015a.03.03 0 0 1 0 .021c-.008.02-.005.032.01.038.012.006.013.007.01.03a.296.296 0 0 0 .004.112c.01.04.01.04-.005.045-.009.003-.014.01-.016.023-.004.021 0 .028.01.02a.042.042 0 0 1 .022-.007.23.23 0 0 0 .036-.003c.014-.002.023-.001.025.003.002.003.012.005.021.005.014 0 .02.004.03.017.01.015.012.016.013.007a.042.042 0 0 1 .007-.017c.003-.004.003-.01-.003-.018-.009-.013-.005-.023.015-.046a.188.188 0 0 0 .025-.07c.012-.052.014-.057.033-.073l.02-.016-.016-.004c-.02-.004-.042-.026-.044-.046-.002-.013-.005-.016-.018-.017a.046.046 0 0 1-.026-.012.033.033 0 0 0-.025-.01zm.094.23c-.002-.001-.004 0-.01.005a.031.031 0 0 0-.01.019c0 .011.004.012.014.002a.031.031 0 0 0 .007-.019l-.001-.008zm.103.065c-.007 0-.008.005-.008.025s.003.026.008.026.007-.002.005-.007 0-.007.002-.005c.003.001.005 0 .005-.005s-.002-.009-.004-.009c-.003 0-.004-.005-.003-.012.002-.01 0-.013-.005-.013zm-.327.073c-.004.002-.008.008-.008.015 0 .013.007.013.016.002.005-.006.005-.01 0-.013l-.004-.004h-.004zm2.818 3.174h.001l.002.003-.003-.003zm-1.057.24-.002.001a.368.368 0 0 0-.074.161c-.004.055.014.056.033.001a.239.239 0 0 1 .042-.071c.02-.021.025-.038.02-.063-.005-.017-.013-.028-.019-.028zm-.089.022c-.027 0-.059.022-.059.042 0 .018.023.012.055-.015.03-.025.03-.026.004-.027zm.025.03a.01.01 0 0 0-.005.003c-.007.004-.013.013-.013.02 0 .02.01.015.018-.008.004-.009.004-.014 0-.014zm-.044.114c-.007 0-.013.015-.013.035 0 .038.016.032.022-.01.002-.014-.002-.025-.009-.025zm4.502.053a.025.025 0 0 0-.02.012c-.005.008 0 .014.011.014.012 0 .021-.006.021-.014a.012.012 0 0 0-.012-.012zm.087.027c-.025.003-.043.052-.021.093.012.022.012.03 0 .034-.057.02-.071.095-.026.143.032.033.1.042.127.015.02-.02.021-.085.003-.096-.008-.005-.01-.014-.006-.021.008-.013-.029-.124-.05-.153-.01-.011-.019-.016-.027-.015zm-2.224.189zm1.808.125c-.044 0-.052.018-.017.038.036.021.056.016.056-.012 0-.02-.008-.026-.04-.026zm-.21.04c-.009 0-.013.008-.008.019.004.01.013.023.017.007.004-.016 0-.027-.01-.027zm.87.12c-.004 0-.007 0-.01.002-.023.009-.023.01 0 .035.025.028.04.032.05.015.012-.019-.016-.05-.04-.052zm-.746.181c-.01 0-.019.005-.019.013 0 .007.009.013.02.013.01 0 .02-.006.02-.013 0-.007-.01-.013-.02-.013zm1.023.004-.003.001c-.015.01-.004.063.016.077.026.017.047.01.047-.015 0-.027-.04-.068-.06-.063zm-.82.035c-.017 0-.016.031.003.05.017.017.038.021.038.008 0-.017-.029-.058-.04-.058zm.207.225c-.027.002-.031.023-.006.048a.064.064 0 0 0 .04.016c.042 0 .023-.058-.02-.063h-.014zm-.074.13-.005.001a.009.009 0 0 0-.004.003c-.004.004.001.019.01.034.023.036.057.038.038.001-.012-.022-.028-.037-.04-.038zm-2.725.188c-.002 0-.004 0-.005.002-.008.004-.014.01-.014.014 0 .003.006.006.014.006.007 0 .013-.007.013-.014 0-.006-.004-.009-.008-.008zm2.64.885c-.003.002-.002.007-.004.013-.002.006-.001.011.002.011.01 0 .013-.02.003-.024z"/>
  <path d="M27.382 10.326c-.014.029-.036.057-.052.062-.023.008-.031.068-.009.068.012 0-.01.049-.028.063-.005.003-.003.028.004.054.017.06-.003.113-.052.138a.135.135 0 0 0-.05.047.122.122 0 0 1-.028.036.045.045 0 0 0-.016.029.132.132 0 0 1-.035.052c-.018.018-.032.043-.032.056 0 .038-.022.07-.061.09a.693.693 0 0 0-.051.034h2.017a.116.116 0 0 0-.02-.014.374.374 0 0 1-.065-.047c-.02-.018-.042-.026-.06-.023-.022.004-.044-.009-.085-.05a.276.276 0 0 1-.063-.085c-.004-.017-.012-.03-.017-.03-.015 0-.043.065-.043.099 0 .039-.044.052-.053.015-.004-.014-.02-.027-.043-.032a.062.062 0 0 1-.048-.039c-.006-.017-.022-.032-.035-.033a.393.393 0 0 1-.125-.015c-.008-.005-.02-.042-.029-.081-.013-.065-.018-.073-.04-.067-.026.007-.026.006-.002-.02.022-.026.021-.028.002-.05a.088.088 0 0 1-.02-.05.044.044 0 0 0-.02-.036c-.017-.01-.017-.016.006-.057.014-.025.023-.046.018-.046-.004 0 0-.008.008-.018.008-.01.01-.03.007-.05h-.327a.106.106 0 0 0 .015.037c.026.034.023.078-.006.093-.014.008-.023.019-.02.025.004.005-.005.02-.018.032a.07.07 0 0 0-.024.045c0 .012-.009.023-.019.023-.013 0-.016.01-.01.036.005.03-.001.04-.038.068a.194.194 0 0 1-.056.033c-.018 0-.1.085-.104.109-.003.013-.026.029-.057.04-.07.024-.116.005-.116-.05 0-.034.015-.064.082-.175a.866.866 0 0 1 .046-.063c.031-.039.032-.045.02-.102-.012-.055-.016-.06-.043-.055-.02.004-.034 0-.043-.016-.02-.037-.014-.055.01-.035.016.013.021.013.025 0 .003-.008.017-.014.031-.014.02 0 .024-.006.017-.028v-.003h-.244zm1.235.03a.012.012 0 0 0-.013.013c0 .007.006.013.013.013a.012.012 0 0 0 0-.025zm-.307.089a.087.087 0 0 0-.023.006c-.01.005-.02.013-.02.02 0 .017.02.012.038-.009.01-.012.013-.018.005-.017zm.278.15h-.033c-.04.004-.057.01-.057.023 0 .01.011.021.025.024.081.014.04.063-.052.063-.058 0-.068.003-.064.022.002.012.018.024.035.027.017.002.036.01.043.015.012.012.023.01.107-.017.078-.025.085-.038.05-.103-.022-.042-.028-.053-.054-.054zm-.09.196c-.008 0-.01.028-.002.027.01 0 .016-.007.015-.015a.013.013 0 0 0-.014-.012zm-2.079.994-.019.015c-.038.035-.042.055-.037.173.001.036-.114.147-.163.158-.052.01-.059.025-.068.128-.011.127-.032.17-.097.203-.048.024-.065.027-.166.019-.139-.01-.173-.028-.162-.086.006-.028.003-.046-.01-.056-.02-.016-.029-.006-.078.089a.281.281 0 0 1-.065.079l-.007.006h5.102-.003c-.032 0-.122-.068-.16-.12-.023-.033-.05-.056-.064-.056-.013 0-.037-.013-.052-.031a1.374 1.374 0 0 0-.258-.179.535.535 0 0 1-.078-.048c-.019-.017-.021-.015-.029.014-.01.038-.024.042-.041.012-.01-.018-.015-.019-.032-.005-.02.017-.025.011-.02-.028.001-.018-.004-.021-.023-.015-.015.005-.03.002-.036-.008-.018-.03-.107-.053-.139-.036-.023.012-.026.019-.012.036.012.014.013.02.002.024-.01.003-.012.02-.007.049.006.037.003.043-.02.05-.03.007-.034.028-.011.05.011.012.01.022-.003.046-.022.04-.035.04-.045 0-.007-.027-.012-.03-.043-.023-.028.006-.037.003-.037-.012 0-.026-.003-.025-.057.011a.176.176 0 0 1-.075.031.051.051 0 0 0-.04.023c-.01.018-.014.019-.02.003a.266.266 0 0 1-.01-.044.12.12 0 0 0-.013-.04c-.005-.007-.002-.016.007-.02.01-.004.006-.008-.007-.009-.012 0-.022-.009-.022-.02 0-.032 0-.036-.02-.058-.018-.02-.018-.022.001-.03a.205.205 0 0 1 .043-.01.183.183 0 0 0 .04-.01c.049-.02.088-.018.102.003.013.021.017.021.055.003.023-.01.042-.024.042-.03 0-.006.017-.017.039-.024l.039-.014-.067-.062c-.054-.05-.064-.065-.053-.083.01-.016.007-.028-.011-.051l-.01-.017h-.197a.034.034 0 0 0-.003.011c0 .042-.06.068-.156.068-.071 0-.08.003-.068.018.028.034.001.045-.11.044h-.131c-.03.002-.05-.018-.04-.036.005-.007.02-.013.033-.013.013 0 .024-.006.024-.013 0-.007.006-.012.014-.012.015 0 .058-.048.061-.067H26.42Zm2.527 0c0 .008-.002.014-.003.014.006.004-.026.046-.027.06-.003.028.062-.03.08-.074zm.428.316a.005.005 0 0 0-.003.002c-.002.002 0 .017.006.031.011.03.074.038.074.01 0-.013-.062-.047-.077-.043zm.218 0c-.017.003-.022.015-.008.029.01.01.01.01.035 0 .025-.009.013-.03-.019-.03h-.008zm-4.023 1.141a.179.179 0 0 1-.073.047.1.1 0 0 0-.05.038c-.01.017-.028.032-.038.032-.004 0-.01.003-.015.008a.047.047 0 0 0-.01.016c-.005.014-.015.025-.025.025-.01 0-.018.013-.018.03s-.01.034-.02.038c-.03.012-.086.009-.1-.005-.006-.006-.029-.013-.05-.015-.031-.002-.042-.01-.054-.043-.012-.033-.02-.04-.048-.038-.026.002-.034.01-.035.032-.001.033-.018.046-.072.056.006.001-.008.025-.006.043.002.016.01.028.017.028.007 0 .023.014.037.031a.741.741 0 0 0 .047.054.1.1 0 0 1 .021.063c0 .023.009.05.02.058.014.012.015.02.004.033-.01.013-.01.022.003.037.01.011.015.033.013.048-.002.016.004.032.016.036.014.005.021.046.019.077h4.882c-.025-.027-.046-.038-.072-.038-.024 0-.042-.01-.052-.025-.009-.014-.02-.025-.027-.025a.556.556 0 0 1-.116-.118.12.12 0 0 1-.016-.058c0-.034-.04-.085-.084-.109-.04-.021-.045-.063-.01-.08.017-.007.031-.017.031-.023 0-.005.027-.037.061-.072.056-.057.065-.062.095-.05.042.016.044.015.044-.007 0-.026.02-.023.028.003.004.015.007.012.008-.009.003-.054.019-.067.086-.066.082 0 .145.036.145.08 0 .071.073.097.12.043.026-.03.037-.03.175.003.032.008.05.006.067-.006a.117.117 0 0 1 .058-.017.27.27 0 0 0 .093-.031.264.264 0 0 1 .089-.032.131.131 0 0 0 .067-.03.435.435 0 0 1 .14-.062H25.57zm4.403.102-.006.002a.061.061 0 0 0-.02.026c-.003.01-.037.05-.017.05.02 0 .12-.042.12-.05 0-.01-.055-.029-.077-.028zm-5.211.122c-.006.003-.069.06-.069.076a.12.12 0 0 1-.02.054c-.016.023-.028.027-.077.023-.07-.005-.111.005-.137.055a.084.084 0 0 1-.056.044c-.037.008-.038.012-.014.075.014.033.03.113.038.178h.374c-.003-.008-.006-.017-.01-.023a.17.17 0 0 1-.015-.09c.004-.022.001-.043-.006-.048-.008-.005-.01-.024-.006-.045.004-.023.001-.037-.008-.037-.021 0-.016-.022.011-.05.013-.012.016-.02.018-.039h-.001a.437.437 0 0 1-.015-.121c0-.045-.007-.052-.007-.052zm5.176.168a.027.027 0 0 0-.017.01c-.004.007-.004.014 0 .018.01.01.042-.003.042-.017 0-.007-.008-.01-.018-.011h-.007zm.08 0c-.02.003-.022.015-.002.035.015.015.084.02.084.006 0-.015-.044-.04-.071-.041h-.01zm.033.061c-.002 0-.005.002-.008.005-.004.004-.003.014.002.023.008.013.011.013.015 0 .005-.014 0-.027-.009-.028zm.149.058c-.013 0-.02.007-.023.021-.002.014.031.012.036-.002.005-.015.002-.02-.013-.02zm-.095.02-.006.001c-.02.008-.013.026.011.03.025.003.027-.011.018-.02a.037.037 0 0 0-.023-.01zm.06.019-.024.038c-.016.027-.113.013-.144.014l-.062.026.15.034c.03.012.062.025.073.034a.04.04 0 0 0 .038.009.044.044 0 0 1 .038.006c.027.018.046.008.066-.014.012-.012.02-.014.027-.003.006.01.019.007.034-.01.022-.025.02-.027-.035-.04-.038-.008-.063-.007-.07.004-.009.01-.013.01-.018-.002a.309.309 0 0 0-.04-.057l-.034-.04zm.455.116h-.017c-.012.003-.022.009-.025.019-.01.026.003.038.024.02.018-.015.036-.006.049.024h.028c.005-.013.001-.024-.013-.039a.076.076 0 0 0-.046-.024zm-7.483.036c-.018-.001-.022.004-.021.016 0 .004 0 .008-.002.011h.16l-.009-.002-.042-.025-.064.002a.268.268 0 0 0-.022-.003zm7.66.014a.012.012 0 0 0-.012.012v.001h.026c0-.008-.007-.013-.014-.013zm-7.904.743a.728.728 0 0 0-.036.053c-.056.098-.271.298-.436.406a1.16 1.16 0 0 0-.089.061c0 .02-.065.032-.1.062a.443.443 0 0 1-.075.146h3.466l.001-.078a.486.486 0 0 1 .036-.12c.035-.078.034-.117-.004-.134-.042-.018-.057-.062-.03-.086a.084.084 0 0 1 .048-.02c.03 0 .065-.043.065-.08 0-.013.008-.052.017-.087.01-.031.023-.083.032-.123h-1.425c-.019.02-.038.043-.06.068-.03.035-.066.064-.077.064-.012 0-.025.006-.03.013-.008.015-.096.041-.096.026 0-.005.007-.016.015-.024.012-.012.006-.018-.022-.028-.04-.014-.093-.081-.093-.117v-.002h-1.107Zm5.834 0c-.008.009-.006.01.005.01a.054.054 0 0 0 .027-.01h-.032zm-7.132 1.457a.662.662 0 0 1-.319.143c-.248.053-.364.09-.364.115 0 .012-.006.026-.012.03-.007.005-.013-.003-.013-.017 0-.022-.006-.025-.041-.018a.307.307 0 0 0-.06.016.426.426 0 0 1-.089.018 2.996 2.996 0 0 0-.263.059l-.253.064c-.033.007-.06.019-.06.025 0 .007-.01.009-.024.004a.405.405 0 0 0-.125.018.87.87 0 0 1-.137.026.088.088 0 0 0-.051.015c-.012.012-.018.012-.025.001-.012-.02-.26.016-.302.043-.02.012-.034.015-.042.006-.01-.009-.023-.002-.042.02-.015.02-.004.048-.056.075a.352.352 0 0 0-.096.06c0 .006-.016.017-.036.026h5.7c.008-.01.018-.02.028-.02.01 0 .021-.016.026-.035a.163.163 0 0 1 .02-.05c.007-.009.011-.016.009-.016l-.03-.006a.096.096 0 0 1-.042-.023c-.016-.017-.013-.024.028-.062.03-.029.045-.054.045-.076 0-.024.014-.044.053-.071a.197.197 0 0 1 .074-.038c.012 0 .026-.012.03-.026.017-.052.058-.11.074-.104a.162.162 0 0 1 .043.055c.026.046.031.048.075.041a.204.204 0 0 0 .083-.038c.024-.02.047-.028.067-.025.036.007.067-.03.067-.085 0-.053.026-.104.056-.112.021-.005.02-.01-.012-.038h-3.984zm-2.63.624c-.011 0-.022.008-.033.022-.013.016-.02.043-.022.083h.127a.163.163 0 0 0-.017-.046c-.02-.04-.037-.059-.055-.059zm.105.068a.07.07 0 0 0-.019.01l.003.027h.02a.102.102 0 0 0 .001-.036c0-.002-.003-.002-.005-.001zm-.324.766c-.001.016.005.017.029.012.018-.003.032-.002.032.003a.302.302 0 0 1-.071.098c-.01.005-.017.021-.017.034 0 .02.008.021.072.016a.24.24 0 0 1 .121.014c.06.025.054.025.062-.006.01-.036.041-.023.036.015-.01.067-.053.079-.124.035-.042-.026-.043-.026-.06-.003a.098.098 0 0 0-.019.033c0 .005-.009.01-.02.01-.012 0-.017.012-.017.041 0 .023-.009.05-.02.058-.01.009-.019.035-.019.058a.487.487 0 0 1-.057.156c-.037.073-.055.122-.05.137a.05.05 0 0 1 .001.019h5.627c-.011-.021-.01-.03.006-.041.011-.008.02-.024.02-.034 0-.01.009-.026.02-.035.014-.012.024-.011.049.005.042.028.048.026.067-.017.012-.027.026-.038.047-.038.04 0 .048-.017.03-.069-.014-.036-.013-.046.003-.065.047-.055.033-.096-.023-.066-.023.012-.037.013-.052.003-.022-.013-.037-.067-.019-.067.015 0 .014-.068-.002-.079-.02-.014-.01-.13.018-.192a.213.213 0 0 1 .019-.035h-5.689zm-2.467.324-.045.108a.065.065 0 0 0-.034.043c-.003.016-.014.027-.032.03-.015.002-.029.008-.029.012 0 .022.034.098.047.107.01.006.016.02.016.034 0 .014.004.025.01.026l.052.006a.096.096 0 0 1 .066.03l.007.01h.243a.215.215 0 0 0-.045-.024c-.024-.008-.044-.02-.044-.024s-.025-.015-.054-.024c-.057-.017-.096-.045-.096-.07 0-.008-.012-.024-.026-.037-.021-.019-.026-.038-.024-.11l-.007-.067h.02l-.02-.016-.005-.034zm.25.215a.012.012 0 0 0-.012.013c0 .007.005.013.012.013s.013-.006.013-.013a.012.012 0 0 0-.013-.013zm.88.189v.002h.004c-.001-.002-.003-.003-.004-.002zm-.593.73a.17.17 0 0 0 .064.057c.054.03.063.04.063.072 0 .024.006.038.018.038.01 0 .02.006.022.013.003.008.021.015.042.015a.206.206 0 0 1 .13.051c.008.01.013.031.01.047-.001.022.005.03.02.03.014 0 .035.022.051.05a.219.219 0 0 0 .037.055c.005.002.01.024.01.049 0 .033.003.042.015.033.023-.017.077-.019.087-.002.005.008.027.016.05.016.03 0 .043.007.046.026a.08.08 0 0 0 .03.041c.012.01.023.024.023.033 0 .023.069.07.116.079a.168.168 0 0 1 .057.02c.006.005.016.007.028.006.036-.003.087-.027.087-.047 0-.036.017-.04.04-.01.022.028.023.028.062.006a.168.168 0 0 1 .058-.021c.01 0 .027-.01.037-.02.018-.018.022-.018.04 0 .03.027.04.024.037-.01-.003-.022.004-.028.034-.032.045-.004.082-.034.082-.064 0-.04.035-.055.143-.058a.477.477 0 0 0 .13-.015.318.318 0 0 1 .086-.02c.09-.01.134-.02.157-.04.018-.017.027-.015.068.013a.194.194 0 0 0 .067.033c.012 0 .049.014.083.031.072.036.127.04.157.012.04-.037.105.011.117.087.005.034.034.04.034.008 0-.018.008-.026.025-.026.014 0 .025-.006.025-.012s.027-.026.06-.044c.044-.025.067-.03.1-.024.024.004.046.017.05.026.005.014.02.016.056.01.029-.005.049-.004.049.004 0 .006.02.016.045.02.053.01.087-.013.1-.07.004-.02.016-.04.027-.045a.273.273 0 0 0 .061-.05c.037-.038.047-.04.12-.042.043 0 .111-.005.149-.01.064-.007.07-.01.07-.04a.137.137 0 0 1 .011-.049.231.231 0 0 0 .014-.072.204.204 0 0 1 .027-.088.582.582 0 0 0 .044-.07h-1.32c.004.02.001.021-.023.014a.144.144 0 0 1-.03-.014h-2.098zm5.325 0a.021.021 0 0 1 .002.01c0 .01.006.019.013.019.006 0 .029.017.05.038.035.034.043.036.06.02.073-.062.213-.05.23.02a.067.067 0 0 0 .034.04c.015.007.028.022.028.033 0 .032.045.024.082-.014.02-.02.042-.037.05-.037a.44.44 0 0 0 .085-.03c.066-.03.09-.058.08-.099h-.714z"/>
  <path d="M28.17 9.598a.087.087 0 0 0-.045.013c-.012.01-.021.011-.021.004 0-.008-.014-.001-.031.014a.267.267 0 0 1-.072.043c-.039.014-.042.025-.046.143-.002.07 0 .142.005.158.01.036.04.023.04-.018 0-.022.005-.023.02-.007.031.03.046.025.052-.018.004-.025.023-.044.057-.054a.615.615 0 0 0 .083-.03c.02-.01.03-.009.03.005 0 .012.01.006.023-.011.013-.018.032-.026.043-.02.01.007.02.005.02-.005s.013-.014.03-.008c.028.008.028.008 0-.01-.017-.011-.038-.015-.048-.01-.03.02-.04-.047-.013-.095.015-.026.021-.056.014-.067-.01-.017-.07-.027-.12-.027h-.02zm-.285.015c-.005 0-.012.008-.024.028-.02.034-.077.073-.11.075-.046.003-.066.022-.086.081a.582.582 0 0 0-.02.075c0 .024.045.006.069-.019.018-.019-.132-.011.08-.038.066-.008.072-.016.047-.056-.012-.02-.012-.028 0-.04s.015-.011.015.005c0 .02.032.04.05.029.012-.008.005-.1-.01-.128-.004-.007-.007-.011-.01-.012zm.512.165c-.008.002-.012.012-.004.024.004.007.014.01.021.005.009-.005.008-.012 0-.021-.007-.006-.013-.009-.017-.008zm-.028.048c-.025 0-.046.032-.037.054.008.023.03.03.03.01 0-.007.009-.013.019-.013.02 0 .021-.003.01-.03-.003-.011-.014-.02-.022-.02v-.001zm-.224.056h-.006a.066.066 0 0 0-.034.025c-.017.02-.014.023.015.015.02-.005.035-.016.035-.024 0-.009-.004-.015-.01-.016zm.248.008c-.01 0-.019.005-.019.012s.01.012.02.012.018-.005.018-.012-.008-.012-.019-.012zm-.454.146c-.005.001-.008.006-.008.015 0 .01.01.02.02.02s.018-.007.015-.015c-.004-.012-.013-.02-.02-.02h-.007zm.373.04c-.003 0-.007.006-.014.015-.022.03-.018.06.01.083a.11.11 0 0 0 .034.022c.017 0 .063-.036.063-.05 0-.018-.052-.053-.066-.044-.006.004-.015-.002-.019-.012-.003-.01-.005-.014-.008-.014zm-.837.053c-.004.002-.007.006-.011.012a.205.205 0 0 0-.025.056.105.105 0 0 1-.026.048.054.054 0 0 0-.017.036c0 .033-.04.1-.066.107-.023.008-.031.068-.009.068.012 0-.01.049-.028.063-.005.003-.003.028.004.054.017.06-.003.113-.052.138a.135.135 0 0 0-.05.047.122.122 0 0 1-.028.036.045.045 0 0 0-.016.029.132.132 0 0 1-.035.052c-.018.018-.032.043-.032.056 0 .038-.022.07-.061.09a.847.847 0 0 0-.095.064c-.033.026-.066.042-.077.038-.028-.01-.045.004-.028.025.012.014.01.018-.006.018-.021 0-.023.006-.022.072 0 .04-.015.054-.027.025-.005-.012-.01-.011-.023.003a.173.173 0 0 1-.05.034c-.02.008-.035.022-.035.031 0 .01-.011.024-.025.034a.286.286 0 0 0-.058.072c-.017.029-.037.052-.043.052-.006 0-.01.007-.01.015 0 .024-.04.06-.065.06-.018 0-.024.008-.021.029.003.02.012.027.032.026.029 0 .039.024.016.039-.007.004-.012.03-.012.057 0 .034-.006.049-.018.049-.01 0-.035.016-.055.036-.039.035-.042.055-.038.173.002.036-.114.147-.163.158-.051.01-.058.025-.068.128-.01.127-.032.17-.097.203-.048.024-.065.027-.166.019-.139-.01-.172-.028-.162-.086.006-.028.003-.046-.01-.056-.02-.016-.028-.006-.078.089a.281.281 0 0 1-.064.079 1.04 1.04 0 0 0-.107.099c-.038.037-.072.086-.09.092-.018.007-.03.02-.027.029a.073.073 0 0 1-.004.04c-.019.054-.025.093-.014.093.007 0 .029.007.048.014a.222.222 0 0 0 .077.022c.013.002.014.005.001.02-.012.015-.01.02.014.03.017.006.039.02.048.031.021.026.126.03.126.004a.05.05 0 0 1 .017-.033c.015-.012.022-.01.033.014.014.032-.002.098-.024.098-.016 0-.028.034-.036.094-.001.054-.075.123-.12.135a.1.1 0 0 0-.05.038c-.011.017-.029.032-.038.032-.005 0-.01.003-.016.008a.047.047 0 0 0-.01.016c-.004.014-.015.025-.025.025-.01 0-.018.013-.018.03s-.01.034-.02.038c-.03.012-.086.009-.099-.005a.118.118 0 0 0-.05-.015c-.032-.002-.043-.01-.055-.043-.012-.033-.02-.04-.048-.038-.026.002-.034.01-.035.032-.001.033-.018.046-.072.056.007 0-.008.025-.006.043.003.016.01.028.017.028.007 0 .024.014.037.031a.741.741 0 0 0 .047.054.1.1 0 0 1 .021.063c0 .023.01.05.02.058.014.012.015.02.004.033-.01.012-.01.022.003.037.01.011.015.033.013.048-.002.016.005.031.016.036.023.009.027.101.006.114-.023.014-.001.205.028.253.014.022.03.04.036.04.006 0 .022.017.037.038.026.036.026.039.005.062-.028.032-.032.032-.07-.012-.02-.022-.04-.035-.051-.031-.011.004-.02-.003-.024-.017-.005-.017-.02-.022-.06-.024a.317.317 0 0 1-.091-.015c-.009-.007-.031-.011-.05-.01-.036.003-.037.002-.042-.072a.518.518 0 0 0-.014-.106.589.589 0 0 1-.02-.073.542.542 0 0 0-.032-.093.17.17 0 0 1-.016-.09c.004-.022.001-.043-.006-.048-.008-.005-.01-.024-.006-.045.005-.023.001-.037-.008-.037-.02 0-.016-.022.011-.05.013-.012.016-.02.018-.039h-.001a.437.437 0 0 1-.014-.121c-.001-.045-.008-.053-.008-.053-.006.004-.069.062-.069.077s-.01.039-.02.054c-.016.023-.028.027-.077.023-.07-.005-.111.005-.137.055a.084.084 0 0 1-.055.044c-.038.008-.04.012-.015.075a.987.987 0 0 1 .045.262.346.346 0 0 0 .01.098c.011.043.016.047.047.042.042-.006.05.01.04.074a.306.306 0 0 1-.064.144c-.017.02-.017.021.002.021.011 0 .02.003.02.006 0 .015-.032.08-.057.114-.017.022-.026.047-.022.062s-.004.037-.022.056l-.085.097c-.03.035-.066.064-.077.064-.012 0-.025.006-.03.013-.008.015-.095.04-.095.026 0-.005.006-.016.014-.024.012-.012.006-.018-.022-.028-.04-.014-.093-.081-.093-.117 0-.013-.017-.029-.043-.04-.032-.013-.05-.032-.068-.075a.297.297 0 0 1-.026-.087c0-.035-.022-.051-.032-.024-.005.013-.015.017-.028.012a.315.315 0 0 0-.083-.01c-.068-.002-.07-.006-.053-.104.005-.027.002-.04-.01-.045-.01-.004-.018-.024-.018-.045 0-.075-.098-.225-.147-.225-.01 0-.029-.014-.042-.03a.118.118 0 0 0-.07-.04 1.967 1.967 0 0 1-.115-.02l-.042-.026-.064.002c-.037-.005-.044-.003-.043.014 0 .012-.006.02-.015.018-.02-.004-.019.014.003.088.02.067.06.186.027.222-.01.012-.016.03-.012.042.011.028-.068.167-.155.274-.04.049-.088.116-.107.15-.056.098-.271.298-.436.406a1.16 1.16 0 0 0-.089.061c0 .02-.065.032-.1.062 0 .043-.114.217-.166.256-.025.019-.036.037-.036.063 0 .037-.024.067-.13.157a.414.414 0 0 0-.076.09.459.459 0 0 1-.09.1c-.041.035-.06.06-.058.076.006.036-.054.12-.114.16a.662.662 0 0 1-.286.116c-.248.053-.364.09-.364.115 0 .012-.005.026-.012.03-.007.005-.013-.003-.013-.017 0-.022-.006-.025-.041-.018a.307.307 0 0 0-.06.016.426.426 0 0 1-.089.018 2.996 2.996 0 0 0-.263.059c-.106.027-.22.056-.253.063-.033.008-.06.02-.06.026 0 .007-.01.009-.024.004a.401.401 0 0 0-.125.018.87.87 0 0 1-.137.026.088.088 0 0 0-.051.015c-.012.012-.018.012-.025.001-.012-.02-.26.016-.302.043-.02.012-.034.015-.042.006-.01-.009-.023-.002-.042.02-.016.02-.004.048-.056.075a.352.352 0 0 0-.096.06c0 .006-.017.018-.04.028-.036.015-.042.026-.055.091a.75.75 0 0 1-.031.111c-.018.044-.007.107.018.107.01 0 .024.008.033.019.01.013.029.016.063.01.041-.006.049-.004.056.02.01.034-.013.066-.026.034-.006-.015-.013-.017-.03-.008-.016.008-.036.006-.067-.007-.055-.023-.054-.023-.064.001-.004.011-.002.016.005.013.013-.008.025.022.025.06 0 .02.019.042.057.068.03.022.056.046.056.054 0 .015-.066 0-.073-.015-.002-.006-.015-.004-.028.003a.076.076 0 0 1-.042.008c-.01-.002-.027.008-.038.022-.019.024-.02.025-.058-.016-.02-.023-.035-.047-.03-.053.004-.007-.001-.012-.012-.012a.217.217 0 0 1-.07-.032.328.328 0 0 0-.056-.03c-.019 0-.05.09-.053.15a.772.772 0 0 1-.01.108c-.009.037-.007.04.024.033.018-.003.032-.002.032.003a.302.302 0 0 1-.071.098c-.01.005-.017.021-.017.034 0 .02.008.021.072.016a.24.24 0 0 1 .121.014c.06.025.054.025.062-.006.01-.036.041-.023.036.015-.01.067-.053.079-.124.035-.042-.026-.043-.026-.06-.003a.097.097 0 0 0-.019.033c0 .005-.009.01-.019.01-.013 0-.018.012-.018.041 0 .023-.009.05-.02.058-.01.009-.018.035-.018.058a.487.487 0 0 1-.058.156c-.037.073-.054.122-.05.137a.07.07 0 0 1-.008.051c-.012.02-.012.028-.002.035.008.005.016.02.019.034.002.014.018.032.034.04.047.023.06.04.042.058-.012.012-.018.012-.03 0-.008-.008-.047-.016-.086-.016-.083 0-.098.012-.121.099-.025.093-.02.124.017.143a.1.1 0 0 1 .042.034c.038.085.047.095.094.11a.244.244 0 0 1 .076.042c.022.02.03.022.05.007.07-.049.185-.025.198.04.003.019.01.047.016.063.008.027.006.03-.021.02-.042-.012-.072-.04-.076-.072-.006-.037-.042-.04-.082-.01-.04.033-.071.033-.115.002a.234.234 0 0 0-.08-.031.109.109 0 0 1-.075-.047c-.056-.075-.138-.147-.178-.155a.695.695 0 0 1-.121-.05.283.283 0 0 0-.098-.035c-.009.003-.015.024-.015.047 0 .081-.022.113-.1.15-.042.02-.08.031-.09.026-.011-.007-.01-.012.006-.02.013-.004.033-.004.04-.017.006-.013.013-.013.037-.026.035-.02.044-.031.044-.063 0-.048-.02-.068-.068-.068a.16.16 0 0 1-.08-.034c-.054-.04-.112-.041-.144-.002-.026.031-.026.032-.048-.037-.014-.046-.021-.053-.052-.053-.02 0-.036-.005-.036-.012s.007-.014.015-.014c.007 0 .01-.008.006-.018-.004-.01-.001-.021.004-.025.006-.003.013-.02.016-.038.005-.023 0-.033-.019-.039-.026-.008-.059.021-.059.054 0 .02-.006.02-.062 0-.05-.016-.068-.038-.072-.08a.177.177 0 0 0-.018-.057c-.015-.028-.017-.028-.026.015-.005.026-.003.05.005.059.009.01.006.022-.009.037-.011.012-.018.032-.015.044.009.033-.01.04-.034.013-.012-.014-.017-.032-.012-.046.008-.02.004-.021-.047-.013a.632.632 0 0 1-.1.006c-.03 0-.049.008-.065.029-.018.023-.022.024-.022.007 0-.011-.01-.024-.023-.027a.786.786 0 0 0-.25.015c-.02.01-.027.01-.031 0-.003-.01-.021-.012-.054-.007-.044.007-.051.005-.057-.018a.054.054 0 0 0-.032-.034c-.013-.004-.023-.017-.02-.028.005-.028-.042-.073-.097-.093-.024-.008-.044-.02-.044-.024s-.024-.015-.054-.024c-.057-.017-.096-.045-.096-.07 0-.008-.012-.024-.026-.037-.02-.019-.025-.037-.024-.11l-.006-.067h.019l-.02-.016s-.001-.018-.004-.034l-.046.108c-.017.009-.032.028-.034.043-.003.016-.014.027-.032.03-.015.002-.029.008-.029.012 0 .023.034.099.048.107.008.006.015.02.015.034 0 .014.004.025.01.026l.053.006a.096.096 0 0 1 .065.03c.02.025.02.031.003.072a.35.35 0 0 0-.018.11v.067l.113.11c.062.061.113.12.113.13 0 .014.003.016.015.004.025-.025.036-.017.036.029 0 .036.005.045.031.051a.18.18 0 0 0 .066.002c.043-.008.104.032.104.07 0 .074.024.115.088.15.053.03.063.04.063.072 0 .024.006.038.017.038.01 0 .02.006.022.014.003.007.022.014.042.014.042 0 .108.025.13.051.008.01.013.031.011.048-.002.02.004.03.02.03.013 0 .034.02.05.05a.218.218 0 0 0 .037.054c.005.002.01.025.01.05 0 .033.003.041.015.032.023-.017.077-.018.087-.001.005.007.027.015.05.015.031 0 .043.007.046.026a.08.08 0 0 0 .03.042c.013.009.023.023.023.032 0 .023.069.07.116.079a.168.168 0 0 1 .057.02c.006.005.017.007.028.006.036-.002.088-.027.088-.047 0-.036.016-.04.04-.01.021.028.023.028.06.007a.168.168 0 0 1 .059-.022c.01 0 .027-.01.037-.02.018-.017.022-.017.041 0 .03.027.04.024.036-.009-.003-.023.004-.029.035-.032.044-.005.08-.035.08-.065 0-.04.036-.055.144-.057a.477.477 0 0 0 .13-.016.318.318 0 0 1 .086-.02c.09-.01.134-.02.157-.04.018-.016.027-.015.068.013a.194.194 0 0 0 .068.033c.01 0 .048.014.083.031.072.036.126.04.156.012.04-.036.105.011.117.087.005.034.035.04.035.008 0-.017.007-.025.024-.025.014 0 .025-.006.025-.013 0-.006.027-.026.06-.044.044-.025.067-.03.1-.024.024.005.047.017.05.027.006.013.02.015.056.009.029-.005.049-.003.049.004s.02.016.045.02c.054.01.087-.013.1-.07.004-.02.017-.04.028-.045a.273.273 0 0 0 .06-.05c.037-.038.047-.04.12-.042.043 0 .111-.004.15-.009.063-.007.069-.011.07-.041 0-.018.005-.04.01-.049a.231.231 0 0 0 .015-.072.204.204 0 0 1 .026-.088c.063-.088.083-.154.047-.154-.027 0-.024-.071.004-.086a.29.29 0 0 1 .063-.02.246.246 0 0 0 .085-.04c.025-.02.051-.03.063-.025.01.004.036-.001.056-.012a.162.162 0 0 1 .058-.018c.013 0 .03-.011.04-.025.024-.04.087-.066.139-.058.025.004.082.009.127.01.045.001.093.01.106.018.016.011.03.012.046.004.028-.015.142-.008.165.01.017.015.072.008.072-.008 0-.018.078-.053.099-.045.046.02.1.028.112.017.007-.007.035-.005.07.004.046.012.06.022.067.047.004.018.002.033-.006.035-.008.003-.018.024-.022.047-.007.034-.018.045-.058.06-.034.014-.048.028-.048.045 0 .031.042.043.072.02a.089.089 0 0 1 .043-.017c.011 0 .03-.01.041-.02.028-.028.069-.012.084.032.01.03.022.038.068.045.036.005.063.003.074-.007.012-.01.02-.01.025-.001.004.007.02.013.036.013.085 0 .172.036.172.07 0 .01.006.018.013.018.006 0 .029.017.05.038.035.034.043.037.06.02.073-.061.213-.05.23.02a.062.062 0 0 0 .034.04c.015.007.028.022.028.033 0 .033.045.025.082-.014.02-.02.042-.037.05-.037a.44.44 0 0 0 .085-.03c.072-.032.093-.061.078-.107-.006-.02.001-.03.04-.046l.094-.04c.026-.012.048-.026.048-.03 0-.02.059-.04.13-.045a.286.286 0 0 0 .089-.015.194.194 0 0 1 .074-.01c.046 0 .062.004.072.023.007.013.019.024.027.024.007 0 .024.01.035.02.02.017.024.016.043-.013.012-.019.033-.032.049-.032a.291.291 0 0 0 .09-.031.327.327 0 0 1 .076-.031c.009 0 .024-.013.034-.028l.017-.026.084.039a.72.72 0 0 1 .121.072c.044.037.093.037.1 0a.117.117 0 0 1 .023-.048c.012-.014.016-.032.01-.054-.012-.049 0-.075.057-.114.072-.05.1-.11.1-.219 0-.049-.007-.1-.014-.115-.012-.021-.01-.03.006-.042.011-.008.02-.023.02-.034 0-.01.009-.026.02-.035.014-.012.024-.011.05.005.041.028.047.026.066-.017.012-.027.026-.037.047-.037.04 0 .048-.018.03-.07-.014-.036-.013-.046.003-.065.047-.055.033-.096-.023-.065-.023.012-.036.012-.052.003-.022-.014-.037-.067-.019-.067.015 0 .014-.069-.002-.08-.02-.014-.01-.13.018-.192.02-.046.029-.055.046-.045.027.015.132.004.156-.018a.066.066 0 0 1 .035-.017c.011 0 .01-.008-.002-.029-.015-.024-.016-.034-.001-.068.018-.044.026-.048.055-.03.021.014.064-.005.064-.028s.048-.048.075-.04c.018.006.025.002.025-.015 0-.013.02-.042.042-.065.034-.032.052-.04.085-.038.052.003.083-.01.1-.04.01-.02.007-.026-.02-.037-.018-.006-.03-.018-.026-.024.004-.006-.01-.03-.03-.053-.036-.039-.04-.04-.055-.02-.02.026-.06.029-.08.007-.022-.02-.02-.045.003-.069.021-.02.016-.079-.009-.094-.018-.01.01-.06.034-.06.01 0 .021-.016.026-.035a.163.163 0 0 1 .02-.05c.007-.01.012-.016.009-.017l-.03-.005a.096.096 0 0 1-.041-.024c-.017-.016-.014-.024.027-.062.03-.028.045-.054.045-.076 0-.024.015-.043.053-.07a.197.197 0 0 1 .074-.038c.012 0 .026-.012.03-.027.017-.051.059-.11.074-.104a.162.162 0 0 1 .044.055c.025.046.03.049.074.042a.204.204 0 0 0 .083-.038c.024-.02.048-.029.067-.025.037.007.067-.031.067-.086 0-.052.026-.103.056-.111.023-.006.021-.01-.018-.043-.033-.028-.04-.041-.032-.06a.144.144 0 0 0 .007-.056.242.242 0 0 1 .016-.083.76.76 0 0 0 .027-.086.501.501 0 0 1 .034-.091c.03-.059.07-.073.082-.029.005.02.01.023.022.013.013-.01.009-.027-.02-.081-.021-.038-.034-.075-.03-.083.005-.007-.007-.036-.025-.064-.031-.047-.035-.062-.03-.182a.486.486 0 0 1 .036-.121c.035-.077.035-.116-.004-.133-.042-.019-.057-.062-.03-.086a.084.084 0 0 1 .048-.02c.03 0 .065-.044.065-.08 0-.013.008-.052.018-.087.01-.035.025-.097.034-.138.003-.01.003-.019.005-.027.01-.042.023-.054.055-.071a.275.275 0 0 0 .066-.048c.021-.025.06-.024.06.002 0 .007.008.012.018.012.01 0 .018-.01.018-.024 0-.013.013-.037.03-.053.02-.022.029-.046.03-.09a.178.178 0 0 1 .017-.078c.022-.025.07-.02.08.01.005.018.018.024.053.024.055 0 .108.033.14.086.03.048.05.05.078.002.013-.02.027-.038.034-.038.037 0 .074-.036.074-.072 0-.025.005-.03.029-.022a.28.28 0 0 0 .073.008c.025-.001.05.006.06.016.012.016.022.015.075-.007.034-.014.068-.021.077-.017a.283.283 0 0 1 .102.078.149.149 0 0 1 .033.053c0 .022.018.015.05-.018.021-.023.032-.027.044-.017.023.019.04.004.04-.034 0-.043.062-.105.079-.08a.07.07 0 0 1 .01.027c0 .006.011.009.023.007.013-.002.026.008.033.023.01.024.021.027.082.025.076-.003.1-.013.1-.04 0-.027.03-.021.065.011.017.016.038.026.047.023.01-.003.023.004.032.016.01.014.018.016.023.008.004-.008.019-.014.031-.014a.06.06 0 0 0 .039-.018c.02-.024.058-.024.103 0 .02.01.05.018.066.018s.03.007.03.014c0 .01.005.01.018 0 .012-.01.036-.012.068-.006.03.005.067.002.093-.008.034-.012.048-.012.062 0 .017.014.058.007.058-.01 0-.006.015-.016.034-.025.032-.014.037-.013.086.04.03.033.07.061.096.068a.186.186 0 0 1 .067.036.484.484 0 0 0 .051.041c.015.01.028.028.028.04 0 .048.112.09.184.068.03-.01.048-.008.066.003.014.009.022.01.024.002.001-.009-.007-.013-.014-.013-.034 0-.003-.069.043-.096a.075.075 0 0 0 .026-.038c.007-.022.004-.028-.017-.028-.02 0-.026-.007-.026-.038a.149.149 0 0 0-.025-.073c-.021-.03-.023-.037-.006-.05.01-.008.025-.013.034-.01.025.01.04.006.037-.011-.006-.025.02-.02.05.011.016.016.035.027.044.025.008-.002.015.004.015.015 0 .023.05.026.052.003 0-.008.004-.001.009.016.007.024.019.032.049.035.022.002.04.009.04.015s.019.022.041.036a.19.19 0 0 1 .058.057c.014.025.026.031.063.03a.158.158 0 0 1 .074.015c.048.026.058.025.156-.03a.397.397 0 0 1 .185-.065.191.191 0 0 0 .074-.016.247.247 0 0 1 .08-.02c.036-.005.072-.017.08-.026.018-.022.095-.024.102-.003.004.012.011.012.035.001a.361.361 0 0 1 .166-.032c.024.004.032.001.032-.014 0-.011.011-.02.024-.02.033 0 .055-.03.036-.048-.01-.01-.011-.018-.003-.027.017-.017.058-.001.047.017-.005.008.004.004.02-.01l.026-.024-.034-.035c-.018-.019-.044-.035-.057-.035-.019 0-.021-.004-.01-.017.035-.043-.047-.045-.084-.002-.029.033-.033.033-.093-.01-.041-.03-.044-.049-.006-.043.021.003.03-.004.033-.026.003-.019 0-.026-.01-.02-.007.004-.013.001-.013-.006 0-.025-.05-.041-.07-.024-.017.014-.026.01-.056-.024-.026-.028-.047-.04-.073-.04-.024 0-.043-.009-.053-.025-.008-.014-.02-.025-.026-.025a.556.556 0 0 1-.117-.118.12.12 0 0 1-.016-.058c0-.034-.04-.085-.084-.108-.04-.022-.045-.064-.01-.08.018-.008.032-.018.032-.023 0-.006.026-.038.06-.073.056-.057.065-.062.095-.05.042.016.044.015.044-.007 0-.026.021-.023.028.003.004.015.007.013.008-.009.003-.054.019-.067.087-.066.081 0 .144.036.144.08 0 .071.073.097.12.044.027-.031.037-.031.175.002.032.008.05.007.067-.006a.117.117 0 0 1 .058-.017.28.28 0 0 0 .093-.03.264.264 0 0 1 .089-.032.131.131 0 0 0 .067-.031.429.429 0 0 1 .185-.068c.035 0 .2-.06.256-.094.062-.036.143-.13.143-.163a.095.095 0 0 0-.018-.047c-.014-.019-.014-.028.002-.06.026-.053.003-.126-.059-.188-.057-.057-.105-.061-.16-.015-.043.036-.093.04-.18.013a.217.217 0 0 0-.08-.011c-.014.003-.035-.008-.053-.027a.132.132 0 0 0-.042-.032.39.39 0 0 1-.087-.05.397.397 0 0 0-.084-.05c-.033 0-.123-.067-.16-.118-.024-.033-.05-.056-.064-.056-.014 0-.037-.014-.053-.032a1.374 1.374 0 0 0-.258-.178.535.535 0 0 1-.077-.048c-.02-.017-.022-.016-.03.014-.009.037-.024.042-.04.011-.01-.018-.015-.019-.032-.005-.02.017-.025.012-.021-.028.002-.018-.003-.021-.022-.015-.015.005-.03.002-.036-.008-.018-.03-.108-.053-.14-.036-.023.013-.025.019-.011.036.012.015.012.02.002.024-.01.003-.013.02-.008.049.006.037.004.044-.019.05-.03.007-.034.029-.012.051.012.011.01.022-.003.046-.021.04-.035.04-.045 0-.007-.028-.012-.03-.043-.023-.028.006-.036.002-.036-.013 0-.026-.004-.025-.058.012a.176.176 0 0 1-.074.03.051.051 0 0 0-.041.023c-.01.018-.013.019-.02.003a.267.267 0 0 1-.01-.044.12.12 0 0 0-.012-.039c-.005-.008-.002-.017.006-.02.01-.004.007-.01-.006-.01-.012 0-.022-.008-.022-.019 0-.033-.001-.037-.02-.059-.019-.02-.019-.022 0-.03a.205.205 0 0 1 .043-.01.19.19 0 0 0 .04-.01c.05-.02.089-.018.102.004.013.02.017.02.056.002.023-.01.041-.024.041-.03 0-.005.018-.016.04-.024l.038-.014-.066-.061c-.054-.051-.064-.066-.053-.083.01-.016.007-.029-.012-.052-.013-.016-.021-.04-.018-.052.004-.016 0-.022-.018-.022-.015 0-.024-.009-.024-.024 0-.04-.034-.04-.058 0a.148.148 0 0 1-.056.052c-.022.01-.035.025-.035.04 0 .042-.061.069-.156.069-.072 0-.081.002-.068.018.028.033 0 .044-.11.044h-.132c-.029.001-.05-.019-.039-.037.005-.007.02-.013.033-.013.013 0 .024-.006.024-.012 0-.007.006-.013.013-.013.016 0 .06-.05.061-.069 0-.007-.011-.02-.026-.029-.022-.014-.029-.014-.037 0-.01.016-.017.006-.012-.019.001-.006-.01-.008-.023-.005-.044.012-.04-.012.006-.034.062-.029.065-.05.02-.114a.292.292 0 0 1-.04-.068c0-.006-.006-.011-.014-.011s-.01-.011-.006-.029a.79.79 0 0 0 .013-.046c.002-.01.014-.018.025-.016.011.002.02-.004.02-.014 0-.025.039-.035.093-.025.04.008.043.006.044-.02l.007-.07c.003-.022 0-.043-.007-.047-.013-.008 0-.123.015-.133.017-.011-.001-.043-.037-.062a.374.374 0 0 1-.065-.046c-.02-.019-.042-.027-.06-.024-.022.005-.043-.009-.085-.05a.276.276 0 0 1-.062-.085c-.004-.016-.013-.03-.018-.03-.014 0-.042.065-.043.099 0 .04-.043.052-.053.016-.004-.015-.02-.028-.042-.033a.062.062 0 0 1-.048-.039c-.007-.017-.023-.032-.035-.033a.393.393 0 0 1-.126-.015.23.23 0 0 1-.029-.081c-.013-.064-.017-.072-.04-.067-.026.007-.025.006-.002-.02.022-.025.022-.028.003-.05a.088.088 0 0 1-.021-.049.046.046 0 0 0-.02-.037c-.017-.01-.016-.016.006-.057.015-.025.023-.045.019-.045s-.001-.009.007-.019c.01-.01.012-.033.007-.055-.007-.029-.016-.038-.05-.044-.028-.006-.043-.017-.048-.036-.01-.04-.054-.065-.076-.042a.06.06 0 0 1-.048.012.048.048 0 0 0-.045.015c-.015.017-.014.022.005.036.03.02.005.038-.038.027-.025-.006-.03-.003-.03.02 0 .016.008.04.019.054.026.034.023.078-.007.094-.014.007-.023.018-.02.024.004.005-.005.02-.018.032-.014.013-.024.032-.024.045 0 .013-.008.023-.019.023-.013 0-.016.01-.01.036.006.03 0 .04-.038.068a.194.194 0 0 1-.055.033c-.019 0-.1.085-.105.109-.002.013-.026.03-.056.04-.071.024-.117.005-.117-.05 0-.033.015-.063.082-.175a.866.866 0 0 1 .046-.062c.031-.04.032-.046.02-.102-.011-.055-.015-.06-.043-.055-.02.004-.034-.002-.042-.017-.02-.037-.015-.054.009-.035.016.014.021.013.026.001.002-.008.016-.015.03-.015.02 0 .024-.006.018-.028a1.043 1.043 0 0 1-.014-.052c-.003-.012-.013-.02-.02-.03-.013-.019-.023-.04-.04-.056-.043-.043-.062-.06-.073-.06h-.005v-.001zm.71.083-.006.001c-.006.004.005.03.013.025.007-.005.01-.014.006-.02-.003-.005-.009-.006-.014-.006zm.432.145a.012.012 0 0 0-.013.012c0 .007.006.013.013.013a.012.012 0 0 0 0-.025zm-.307.088a.087.087 0 0 0-.023.006c-.01.005-.02.013-.02.02 0 .017.02.012.038-.009.01-.012.013-.018.005-.017zm.278.15h-.033c-.04.004-.057.01-.057.023 0 .01.011.021.025.024.081.014.04.064-.052.064-.058 0-.068.003-.064.021.002.012.018.024.035.027.017.002.036.01.043.015.012.012.023.01.107-.017.078-.025.085-.038.05-.103-.022-.042-.028-.053-.054-.054zm-.09.196c-.008 0-.01.028-.002.027.01 0 .016-.007.015-.015a.013.013 0 0 0-.014-.012zm1.07.505-.005.001c-.007.005-.012.01-.012.014 0 .003.005.005.012.005s.012-.006.012-.013c0-.005-.003-.008-.007-.007zm.057.157c-.007 0-.01.006-.006.013.005.007.01.012.014.012.003 0 .006-.005.006-.012s-.006-.013-.014-.013zm-.155.112c-.01 0-.02.006-.02.013 0 .007.01.012.02.012s.018-.005.018-.012-.008-.013-.018-.013zm.467.05c-.007 0-.012.008-.012.019 0 .01.005.019.012.019s.013-.01.013-.02-.006-.018-.013-.018zm-.973.063c-.008 0-.002.008-.007.018-.011.023-.009.105-.014.103.006.003-.026.046-.027.06-.004.035.096-.063.082-.101-.004-.01-.001-.02.006-.025.018-.011.013-.03-.008-.03-.01 0-.018-.006-.018-.013 0-.007-.007-.012-.014-.012zm.41.423a.005.005 0 0 0-.003.002c-.002.002 0 .017.006.031.011.03.074.038.074.01 0-.013-.062-.047-.077-.043zm.218 0c-.017.003-.022.015-.008.029.01.01.01.01.035 0 .025-.009.013-.03-.019-.03h-.008zm1.592.513c-.004 0-.008.001-.01.003-.004.004.004.007.017.007.014 0 .017-.004.007-.008a.038.038 0 0 0-.014-.002zm-6.091.104c-.01 0-.027.012-.048.035a.445.445 0 0 0-.088.18c0 .011.005.02.012.02a.013.013 0 0 0 .013-.012c0-.021.05-.04.066-.027.021.018.068.004.077-.022a.145.145 0 0 0-.012-.067.148.148 0 0 1-.012-.078c.006-.02.002-.03-.008-.03zm.113.173c-.014.003-.017.017-.004.03.014.013.029.008.029-.012a.018.018 0 0 0-.019-.018h-.006zm-.305.068c-.009.002-.01.012.002.023.012.012.029.01.029-.003 0-.006-.009-.014-.02-.018a.023.023 0 0 0-.01-.002zm5.071.385-.006.002a.061.061 0 0 0-.02.026c-.003.01-.037.05-.017.05.02 0 .12-.042.12-.05 0-.01-.055-.029-.077-.028zm-.035.29a.027.027 0 0 0-.017.01c-.004.007-.004.014 0 .018.01.01.042-.003.042-.017 0-.007-.008-.01-.018-.011h-.007zm.08 0c-.02.003-.022.015-.002.035.015.015.084.02.084.006 0-.015-.044-.04-.071-.041h-.01zm.033.061c-.002 0-.005.002-.008.005-.004.004-.003.014.002.023.008.013.011.013.015 0 .005-.014 0-.027-.009-.028zm.149.058c-.013 0-.02.007-.023.021-.002.014.031.012.036-.002.005-.015.002-.02-.013-.02zm-.095.02-.006.001c-.02.008-.013.026.011.03.025.003.027-.011.018-.02a.037.037 0 0 0-.023-.01zm.06.019-.024.038c-.016.027-.113.013-.144.014l-.062.026.15.034c.03.012.062.025.073.034a.04.04 0 0 0 .038.009.044.044 0 0 1 .038.006c.027.018.046.008.066-.014.012-.012.02-.014.027-.003.006.01.019.007.034-.01.022-.025.02-.027-.035-.04-.039-.008-.063-.007-.07.004-.009.01-.013.01-.018-.002a.309.309 0 0 0-.04-.057l-.034-.04zm.455.116h-.017c-.012.003-.022.009-.025.019-.01.026.003.038.024.02.02-.015.038-.005.051.029.009.024.01.024.022.002.01-.017.008-.028-.009-.046a.076.076 0 0 0-.046-.024zm.177.05a.012.012 0 0 0 0 .025c.007 0 .014-.006.014-.013 0-.007-.007-.012-.014-.012zm.13.025c-.002 0-.004.005-.004.012s.005.013.012.013.01-.006.006-.013c-.004-.007-.01-.012-.013-.012zm-.584.035-.005.001a.014.014 0 0 0-.005.02c.004.006.013.008.02.004a.014.014 0 0 0 .004-.019c-.003-.005-.008-.007-.014-.006zm-.054.02-.005.001c-.006.004-.012.014-.012.02 0 .007.006.012.012.012.007 0 .013-.01.013-.02 0-.008-.004-.013-.008-.013zm.475.022c-.002 0-.004 0-.004.005 0 .007.004.017.008.021.005.005.012.006.015.002.004-.004 0-.013-.008-.02-.004-.005-.008-.008-.01-.008zm-.547.002a.01.01 0 0 0-.005.002c-.007.004-.01.013-.006.02.011.016.019.014.019-.008 0-.008-.003-.013-.008-.014zm-.041.033c-.001.002.002.007.01.016.018.023.051.028.051.009 0-.007-.005-.013-.011-.013a.134.134 0 0 1-.034-.008c-.01-.004-.015-.006-.016-.004zm.297.044-.012.002c-.027.007-.032.022-.012.034.006.004.009.018.005.03-.005.016-.004.016.005.003.008-.011.014-.012.02-.002.005.008.016.01.024.005a.111.111 0 0 1 .052-.007c.036.003.036.003.013-.015a.091.091 0 0 0-.035-.02c-.006 0-.019-.007-.028-.017a.049.049 0 0 0-.032-.012v-.001zm.43.006c-.003 0-.005.005-.005.012a.009.009 0 0 0-.005.008c0 .005.004.01.009.01a.008.008 0 0 0 .008-.006c.008 0 .01-.005.006-.012s-.01-.013-.013-.013zm-.274.039c-.008 0-.01.01-.003.022.004.007.013.01.02.006.009-.006.009-.013 0-.022-.006-.006-.012-.007-.017-.006zm-.014.034c-.005.001-.007.008-.003.02.004.01.009.013.015.006.007-.006.007-.012 0-.019-.006-.005-.01-.007-.012-.007zm-.155.06a.01.01 0 0 0-.009.01c0 .004.005.008.01.008a.008.008 0 0 0 .008-.009.009.009 0 0 0-.009-.009zm-.1.044c-.006 0-.013.002-.016.007-.002.004-.002.01 0 .012.007.007.03-.002.03-.011 0-.005-.006-.008-.013-.008zm.443.07c-.003 0-.005.004-.005.007 0 .005-.006.01-.013.01-.007 0-.013.003-.013.008 0 .011.015.011.022 0 .003-.005.009-.007.013-.004.005.002.009-.001.009-.009 0-.007-.005-.013-.01-.013h-.003zm-.374.104c-.002 0-.003.005-.003.012 0 .008.004.011.009.008a.01.01 0 0 0 .003-.013c-.004-.006-.007-.008-.01-.007zm-1.414.01a.15.15 0 0 0-.11.037l-.028.024.03.051.059.036.336-.002-.07-.03a.243.243 0 0 1-.113-.07c-.03-.04-.045-.046-.104-.046zm-.16.073c-.006.002-.003.008.01.031.016.031.01-.006.01-.015 0-.008-.005-.016-.012-.016h-.009zm-.084.09c-.008 0-.022.008-.035.02-.018.02-.018.022-.004.022a.056.056 0 0 0 .032-.014c.008-.008.015-.017.015-.021 0-.006-.003-.008-.008-.008zm-9.806 2.114c-.011 0-.022.007-.033.021-.03.036-.03.124-.005.299.014.09.015.136.006.16-.02.053-.015.077.018.092a.076.076 0 0 1 .04.05c.013.065.022.101.05.04.09.004.08-.02.05-.043a.1.1 0 0 1-.02-.054.175.175 0 0 0-.018-.066c-.016-.029-.018-.072-.014-.214.006-.16.004-.182-.019-.227-.02-.04-.037-.059-.055-.058zm.105.067a.07.07 0 0 0-.019.01c.002 0 .002.052.012.051.013-.001.016-.049.012-.06 0-.001-.002-.002-.005-.001zm-2.54 1.306a.012.012 0 0 0-.013.012c0 .007.005.013.012.013s.013-.006.013-.013a.012.012 0 0 0-.013-.012zm.65.197a.012.012 0 0 0-.012.013c0 .007.005.012.012.012s.013-.006.013-.012a.013.013 0 0 0-.013-.013zm-.13.076a.013.013 0 0 0-.013.013c0 .007.006.012.013.012a.012.012 0 0 0 .012-.012c0-.007-.005-.013-.012-.013zm1.838.573c-.008 0-.006.005.003.016.018.021.04.024.034.003-.003-.008-.015-.016-.028-.018h-.01z"/>
</svg>
