<svg fill="#FFFFFF" version="1.2" xmlns="http://www.w3.org/2000/svg" viewBox="0 0 1024 900" width="1024" height="900"><path class="a" d="m3300.6-996.7l-3.1-29 15 3.6v25.4zm-112.2-136.1l-0.6-14.4 10.4-13 13.4 8.8-17 19.2zm80.6-64.2l-19.1 15-38.3 0.5-5.7 13-17.5-6.2-7.3-14 38.8-19.7 34.1 15zm-298.4-98.8l-5.1 16.1-10.9 9.8-16-18.6 13.9-11.4 11.9 4.7zm128.8-110.7l-27.9 13.9-3.1-14.4 11.4-6.8zm-128.8-27.4l-5.2 8.3 7.2 18.6-8.7-4.6-5.2 9.3-9.8-2.6-19.2 10.8-8.3-5.6-7.7-25.9 10.9-10.3zm-172.3-198.2l5.2-6.7 17.1-1-17.1 19.6z"/><path class="a" d="m1910.4 3460.9l7.3-17.6 8.2 7.7-7.2 16.6zm-829.5-1023.1l19.1-3.1-5.7 5.2zm-438-124.7l-4.7-8.3 17.6-1-1.6 8.3zm-461.8-260.7l7.8 8.8-3.1 15z"/><path fill-rule="evenodd" class="a" d="m4209.8 2243.3l-8.8-3.6 17.1-7.3zm-1393.3-379.1l-3.6-14.5 4.6-3.1 12.4 16zm1276.9-48.6l-16.5-10.9 13.9 5.7zm-750.4-176.3l-5.7 4.6 4.7-7.2-6.7-16.6-6.2 0.5 6.7-2zm-465.5-326.4l7.8 6.7-5.7 6.7zm-202.2-99.8l-8.8-6.2 7.2-2.6zm139.7-19.1l-15-5.2 6.7-3.6zm1069.5-157.3l-2.1 5.2-4-8.6zm-6.1-3.4l-5.3-3 5.2 2.8zm-29.1-15.7l-4.1 3.6 1.6-5.7 26.3 14.8zm-128.2-28.4l-23.8-24.9 20.6 18.1zm-945.9-37.2l-36.7-40.9 35.2 33.7zm-549.8-90.6l-7.7-3.6 5.2-3.1zm545.6-6.7l13.4-23.3 38.8-16.5-13.4 23.8-28.5 21.2zm-427.2-57.4l3.1-4.7-18.1-18.1 19.7 17.1zm-688.4-35.2l-13.4-17.1 7.2 6.2zm957.8-34.6l8.8 0.5 2.6 8.3zm-630.9-151.6l-9.9-9.3-5.1 4.1 1-3.6 6.7-2zm163.4-22.8l-17-11.4-23.3-1h26.9zm-106-33.6l-29-22.8 18.1 4.1 9.3 13zm-619-96.8l-15.6-8.2 10.4-7.8 7.7 9.8zm1529.3-47.5h-15l11.4-6.3zm-2004-31.5l2-12.9 5.7 15.5zm789.7 12.9l-25.3-37.2 24.8 30.5zm-281.3-130.9l-3.1-17 5.7 9.3zm-308.8-68.3l-17.6-12.9 9.3 5.1zm-143.7-31l-32.1-19.7 29.5 9.9zm685.2-77.1l15-8.3-16 10.4-1-3.1 8.2-17.6-4.6 12.4zm-246.2-49.7l4.2-10.3-7.8-5.2 6.7 1.1 3.1 4.1-1 5.7zm71.4-13.5l10.8-2.6-5.7 2.1zm236.9 17.1l27.9-23.3-27.9 6.2 30-7.7zm-206.9-36.8l1.1-5.1h-17.6l19.1-1.1z"/><path class="a" d="m273.1 591.2l-6.2-7.8 10.8-7.2 3.6 9.8zm-107 21.2l-6.7-3.6-0.6-38.8 11.9 2.6 16.6 30zm97.2-41.4l5.7-12.4 5.7 12.4-6.7 5.7zm-94.2-32.6l-6.2 15-19.1-9.3 4.1-13.9 11.4 2zm-79.6-22.7l-4.2-12.4 7.8 6.7z"/><path class="a" d="m722.5 825.5l6.7 29.5-8.3 5.7-21.2-6.2-17.6-32.6-30.5 10.9-28.4-7.3-12.4-28.9 1.5-17.1 28-14 32 4.7 13 11.9 7.7 38.2zm-161.9-41.9l-24.8-19.6 38.8-3.1z"/></svg>