<svg fill="#FFFFFF" version="1.2" xmlns="http://www.w3.org/2000/svg" viewBox="0 0 1024 1024" width="1024" height="1024"><style>.a{stroke:#000;stroke-width:20px;}</style><path class="a" d="m271.7 662.9l3.2-0.7 1.5 0.9 3.9-0.1 4.8 0.4 1.1-0.5h1.3l1.2 1 2.6-0.2 0.2 0.3-0.3 3.2 0.7 1.4 6.7 3.2 1.7 1.4 3.9 0.1 11.2 13.4 0.1 0.8-0.1 2.2-0.3 0.7-3.5-0.4-1.2 1-0.8 0.3-2.1-0.5-1.3 1.2-0.2 0.5 3.1 4.2 0.3 2.5 2 1.1 1.6 0.1-0.1 1.3 1.6 3.5 4.6 1.4 0.2 1 1.4 1.2-0.1 1.3 7.3 5.1 10.4 1.5 4.2 1.1 5.2 3.5 1.4 0.6 1.5-0.1 3.3-1.2 4.7-1.1 5.3 0.1 2.6 0.6 3.6 2.7 1.8 25.1 2.7 10.9 27.5 66.1-5.3 0.5-6.5-0.8-17.4-0.4-7.9 0.4-4.6 0.9-14.6 5.2-3.7-0.3-13-4-3.7-4.4-3.7-11.9-6-6-0.8-1.9-1.4-2-3.2-2.1-2.3-0.6 0.2-9.7-1.2-1.4-2.7-1-1.5-13.3-2.4-9.4-4.8-14.4-4.7-6.7 5.5-2.3 1.8-3.6-11-5.5-15-11.3-10.4-9.6 0.1-7.6 17.9-1.6 2.4-1.5 1.6-2-0.2-2.5z"/><path class="a" d="m180.6 639.4l3.5-1.2 5.4-4.3 1.9-0.3 1.8 1.4 0.6-0.1 2.3 1.5 0.4-0.8 1.6-0.2 1.9 0.7 0.1 1.6-0.6 1.5 0.3 0.9-0.6 1.5 0.9 0.3 1.1 0.3 0.9-0.9v-4l2.1 1.3 0.8 2 1.9 1.7 4.1-0.6 4.4 0.4 1.5-0.4 1.1 0.7-2 1.1 2.5 1 0.2 0.9 3.3 3.4 1.3-1.3 5.8 0.3 0.8-4.1 10.6-2.9 3.2 0.2 5.7-0.6 1.4 1.7-4.5 7.8-2.4 1.4-1.7 1.6-1.3 0.5h-1.9l-2 0.9-1.7 2.3-0.5 4.3-1.5 3.6-4.9 7-5.3 5.4 5.8 11.4 2 1.9 1.2 6.4-0.5 4.2-1.5-0.1-1.1-1.3-5.4 0.6-1 1-3.8 1.9v0.9l-1 1.6-0.8-1.1-1 0.3h-2.6l0.4 1.2-1.3 0.2-3.1 2-1.4 0.2-0.7 1.4-2 0.8-1.8 2.8-0.1 4-1.5 8.8 1.4 10.5-7.6 10-3.1 1.9-23.2 23.4-1.1-0.8-1.1-2.6-2.6-3.3v-0.8l-1.7-1.5-0.4-1.1 5.2-13.7-0.2-4.6-1.4-0.8-0.4-5.1-7.4 0.7-0.1-1.7-1.6-1.8-4.4-1.9-4.5-5.1-0.6-3.6 4-17.1-0.2-0.5-1.1 0.4-2.4-0.1 3.2-2.2 0.4-1.6 1.6-1.3 0.5-1.8 0.5-0.5 0.7-1.8 1.3-1.5-1.5-4-1-1.3 0.2-5.3-1-2.3-0.3-1.7-1-1.4-1-2.8v-0.8l9.8-8.9 1.2-1.5 0.6-0.3 0.9 0.3 0.6-1.3-0.5-1.2 0.1-1.5 4-4.3-1.3-1.9 0.1-0.5 3.7-3.9 0.9-2.5 4.7 0.3 1.7-2.3 1.5-3.7 0.1-1.6z"/><path class="a" d="m263.8 314.2l119.2 0.2v171.1l-26.9 0.1 2.8 29.8 5.2 46.4 1.7 9.2 3.4 2.4 11.1 33.6 2.4 7.1-1.8 10.7 1.6 1.9 1.8 3.3v4.2l-1 2.7 0.2 0.4-5.9 7.3-0.3 4.9-0.9 1.5-0.1 1.3 0.5 0.6-10.6 12.5-1 5.9-0.1 6.3 0.5 2.8-0.4 2.9-3.7 6.3-0.5 1.8 0.6 2.3 0.9 1.7 0.4 2.8-0.6 6.2 1.2 2.8 1.3 1.8 5.3 13.9-3.6-2.7-2.6-0.6-5.3-0.1-4.7 1.1-3.3 1.2-1.5 0.1-1.4-0.6-5.2-3.5-4.2-1.1-10.4-1.5-7.3-5.1 0.1-1.3-1.4-1.2-0.2-1-4.6-1.4-1.6-3.5 0.1-1.3-1.6-0.1-2-1.1-0.3-2.5-3.1-4.2 0.2-0.5 1.3-1.2 2.1 0.5 0.8-0.3 1.2-1 3.5 0.4 0.3-0.7 0.1-2.2-0.1-0.8-11.2-13.4-3.9-0.1-1.7-1.4-6.7-3.2-0.7-1.4 0.3-3.2-0.2-0.3-2.6 0.2-1.2-1h-1.3l-1.1 0.5-4.8-0.4-3.9 0.1-1.5-0.9-3.2 0.7-3.8 1.1h-2.8l-1.6-0.4-2.8-2.3-4-0.6-2.2-2.6-1.9-1.2-2 0.2-3.8-0.9-0.9 0.4-4.9-1.6h-2.7l-1.3-0.7 2-0.9h1.9l1.3-0.5 1.7-1.6 2.4-1.4 4.5-7.8-1.4-1.7-5.7 0.6-3.2-0.2-10.6 2.9-0.8 4.1-5.8-0.3-1.3 1.3-3.3-3.4-0.2-0.9-2.5-1 2-1.1-1.1-0.7-1.5 0.4-4.4-0.4-4.1 0.6-1.9-1.7-0.8-2-2.1-1.3v4l-0.9 0.9-1.1-0.3-0.9-0.3 0.6-1.5-0.3-0.9 0.6-1.5-0.1-1.6-1.9-0.7-1.6 0.2-0.4 0.8-2.3-1.5-0.6 0.1-1.8-1.4-1.9 0.3-5.4 4.3-3.5 1.2 0.2-7.2 3.1-1.9-2.2-1.5-1.2-2.2-1.6-3 0.2-1.9-0.7-1.7-0.1-4 0.8-2.8 0.1-3.1 1.5-3.6-1-1.4-1.7-0.6-1.5 1.6-4.1-3.8 2-6-5.8-11.3-5.9 3.6-3.5-3.8-0.5-3.7 1 0.7 2.5-13-3.2-3.4-2.4-0.7 2.9-3.1 1.8-1.2 0.9-1.4 1-0.6 1.4 0.1 0.9-0.7-0.4-2.9 2.1-1.5 1-1.7-0.5-1.6 0.8-2.2-0.6-1.6 0.3-2.8-0.3-0.9-2.9-2.4-0.4-1.1 0.2-2.6 1.4-1.9 1.6-0.1 0.8-0.4 1.5-1.4 1-1.9 1.3-0.6 1.8-2 1.5-0.2 2.1 0.4 0.8-0.2 0.6 0.4 2.2 0.4 3.8 0.3 3-0.3 4.7-2.2 3-0.8 4-0.2 3 0.6 3.9 0.1 7.5 2 1.8-0.1v-214z"/><path class="a" d="m237 654.3l1.3 0.7h2.7l4.9 1.6 0.9-0.4 3.8 0.9 2-0.2 1.9 1.2 2.2 2.6 4 0.6 2.8 2.3 1.6 0.4h2.8l3.8-1.1 11.9 31.3 0.2 2.5-1.6 2-2.4 1.5-17.9 1.6-0.1 7.6 10.4 9.6 15 11.3 11 5.5-1.8 3.6-5.5 2.3 4.7 6.7 4.8 14.4 2.4 9.4 1.5 13.3-3.4 0.8-0.7 0.6-2.8-0.1-3.7 0.4-6.8 2.1h-2.5l-2.5 0.7-1.7 0.2-0.8 0.5-2.7 0.2-1.6-0.6-3.9 0.8-1.2-0.1-2.9 1.1-2.7 5.4v1.8l0.6 1.3v1.2l-1.3 2.6-1.2 3.3-2.3 3-3.9 2.8-2.3 0.8-1.3 3.1-1.2 1.3 0.6 1.7v4.2l0.5 1.8v2.2l-1.1 2.3-6.1 4.6 0.8 3.2-1.4 2.5-2.3 9.6 1.4 4.8-0.2 1.4-1.8 1.6-2.1 3.1-6.4 3.3-5.1 4.3 0.2-1.1-0.7-0.5-1.9 1.2-2-1-1.6 0.8-4.5-0.9-2 0.1-1.3-0.8-1.3-0.2-3.2 0.6-2.6-1-1.7 0.2-2.1 0.8-3-0.4-2.2-0.9h-1l-1.5 0.2-1 1.1-1.7-0.5-0.1-1.5-0.5-0.6v-2.1l0.3-0.5 1.5-1 1.7-2.7 0.3-1.5-0.1-3-0.8-0.6-1.8 2.2h-1.3l-1.8-0.9-0.1-1.1-0.8-0.6 0.8-1.4v-1l0.5-1.3 0.1-2.3 0.6-0.4 0.1-1.1h0.7l0.2-0.3 0.8 0.3 0.9-0.2 3.1-2.5 0.4-1.4 0.6-0.6 0.9-0.1 0.2-0.6-0.7-1.8-0.1-1 0.6-2.4 0.6-0.6 0.7-1.5-0.5-0.9-1.1 0.5-0.5-1.3 0.3-2 0.7-1-1.3-0.3 3.3-6-1.4-10.8-17.4-28.1-1.9-0.9-1-1.6-1.6-0.9-0.8-1.2-1.5-1.3-1.4-2-5.2-3.3 23.2-23.4 3.1-1.9 7.6-10-1.4-10.5 1.5-8.8 0.1-4 1.8-2.8 2-0.8 0.7-1.4 1.4-0.2 3.1-2 1.3-0.2-0.4-1.2h2.6l1-0.3 0.8 1.1 1-1.6v-0.9l3.8-1.9 1-1 5.4-0.6 1.1 1.3 1.5 0.1 0.5-4.2-1.2-6.4-2-1.9-5.8-11.4 5.3-5.4 4.9-7 1.5-3.6 0.5-4.3z"/><path class="a" d="m156.6 564.7l2.4 0.7 3.2 3.4-2.5 13-1-0.7 0.5 3.7 3.5 3.8 5.9-3.6 5.8 11.3-2 6 4.1 3.8 1.5-1.6 1.7 0.6 1 1.4-1.5 3.6-0.1 3.1-0.8 2.8 0.1 4 0.7 1.7-0.2 1.9 1.6 3 1.2 2.2 2.2 1.5-3.1 1.9-0.2 7.2-2.5 2.3-0.1 1.6-1.5 3.7-1.7 2.3-4.7-0.3-0.9 2.5-3.7 3.9-0.1 0.5 1.3 1.9-4 4.3-0.1 1.5 0.5 1.2-0.6 1.3-0.9-0.3-0.6 0.3-1.2 1.5-9.8 8.9v0.8l1 2.8 1 1.4 0.3 1.7 1 2.3-0.2 5.3 1 1.3 1.5 4-1.3 1.5-0.7 1.8-0.5 0.5-0.5 1.8-1.6 1.3-0.4 1.6-3.2 2.2-1.4 0.3-1.9 1.2-1 0.1-0.6-0.4 0.6-0.1 0.9-2.5 0.1-3.3-0.3-1.6-0.5-1.8-1.5-2.6-1.2-4.3 0.2-1.3-1.4-1.6-0.7-0.1-0.3-0.5 2.3-3.7 1.8-5.6-4.7-1.8-7.7-4.3-0.1 2.1-1.5 1.4-1.3 0.6-5 1.4-4.4 0.1-2.5-2.5-0.4-1.1-0.6-0.5-1.3-4.3 0.7-3.6 1.2-2.1 0.9-2.7 1.6-1.8 0.1-0.9-0.4-0.5 1-1 0.9-0.3 1.8-1.4 0.5-1.7 2.8-0.3 0.5-0.8 2.5-0.4 0.5-1.2 1.3-1.1 0.5-1.5 1.8-1.4 0.4-0.9 2.6-2.8-0.3-1.9-0.9-0.8-0.5-0.1-0.5-1.4-0.8-0.7-0.2-2.8 0.2-2-0.4-0.8-2-1.5-0.5-1-0.7-0.2-1.4-3.1 0.6-1.5-0.2-0.8-1.2-1-0.4-0.6 0.1-0.6 2.7-3.9 2.9-2.9 1-1.5 2.9-1.4 1.7-1.7 1.5-0.3 1.6-1.6 1.8-0.1 3.5-2.8 1.5-0.5 1.9-2.8 0.2-0.4-1.2-1.2 0.2-1-2-0.7-1.8 0.6-2.3-2.6-0.1-0.9 0.3-0.5 1.3-0.8-0.3-1.3-0.6-0.4 0.2-5.8-1.8-1.1-1.2-0.1 1.3-4.3 0.9-0.1 0.6-0.4 0.6-0.1 1.2-0.8 6.5-1.3 4.8-1.8-0.3-2.5-1.9-5.4 0.6-1.3 0.9-0.8 2.6-0.6 0.1-0.7-0.5-1z"/><path class="a" d="m701.8 527.1l0.6 0.8 3.3 2.5 2.5 0.6 2.3 2.7 5.5 1 2.7 0.4 0.8-0.2 7.1 3.7 0.1 2.2-0.6 4.3-0.5 0.6 6.2 3.9 1.7 0.2 7.2 4.1 3.3 9 3.6 4.8 23.9-1.5 2.8-6.7 0.2-2.3 2.6-1.2 1.3-2.9 0.2-1.1-1.3-2.9-1.1-1.5v-0.8l0.6-0.7 0.5 1.2 2.2 2.1 1.6 3.8 1.4 0.6 1.3 2 1 0.4 1.9 2.8 0.7 1.9 3.2 3.1 1.9-0.1 1.1-2.3h1.1l3.7-2.1 11.1-3.6 1.3 9.8 0.2 4.4 2.6 25.8 1 3 0.6 0.1 0.1 0.3-0.9 0.5-0.2 2.5-3.7 11.1 1.8 6.1-2.6 4-2 5.9-1 4.8-4.8 8.3-4 14.9-1.9 5.2-0.2 1.4 1.2 1.8 0.1 1.1-0.2 4.7-1 3.4 0.1 1h-2.4l-0.5-1-2.2-0.7-2 0.2-0.4 0.5-10.9 2.3-0.5-0.4-0.7 0.5-1.2-0.6-1.2 0.2-2-1.1-2.5-0.7-1.9-1.5-2.7 0.8-1-0.2-1.2 0.3-6.3-1.2-1.3-1.6-1.9-1.1-1.2-0.3-0.4-0.8-1.7-0.3-1.2-1.8-1.8-1.7-1-0.1-1.4 0.3-3.2-2.6-0.9 0.5-1.2-0.5-0.4-1.1-1.2-0.2-2.5-1.8 0.2-0.7-0.5-0.6-3.1-1.9 0.3-1.1-1-1.1v-1l-0.3-0.6-0.6-0.1-0.7-0.8-1.2-0.3-0.7 0.3-0.4-0.4-3.2 0.4-1.3-2.2 0.2-0.7-1.3-0.1-0.6-0.7-0.9 0.1-9.7-11.1-3.6-8 3.3-1.5-0.7-2.8-2.4 0.2-1-0.3-1.1 0.3-1.6-0.8-0.3-0.5-2.1 0.4-1.2-0.9-0.9-1.9-0.7-0.2-1.1-2.1-0.7-3.2-1.7-0.8-1.4-1.8-0.6-1.3v-0.7l-1.1-0.5-0.2-1.8-0.9-1.3-0.2-1-0.7-0.6 0.5-1.2-0.3-1.1 7.8-11.5-0.3-0.5 9.1-13.2 1.1-3.1-3.7-6.7-9.8-15.3-14.9-5.1-3-0.1-0.7-5.2-1.7-1.8-1.7-0.6 0.4-2.1 1.9-2.7 0.9-3.9 3-2.8 0.9 0.8 0.9-0.2 0.4-1.1 7.4-2 1.9 0.1 3.3-2z"/><path class="a" d="m380.3 607l16.6-0.4 13.9 2 3.2 1 18.9 7.7 2.4 0.5 1.7 2 11.1-0.5-0.1 3 12.7 7.5 4.6 5.3 2.5 1.1-1 0.9 5.7 2.8 6.7 1.8 1.8 14.3 10.3 16.8-6.8 13.8-3.8 2.8-1.7 2.2-0.8 2 0.2 2.5-1.2 3-1.3 1.9-3 2.8-3.9 5.9-3 2.4-0.4 5.2-1.5 1.3-0.4 1.4 0.1 2.6 2.1 2 3.5-0.1 5.5 11.8 0.7 6.4 0.6 1-0.2 2.6-5.6 4.5-0.9 1.4-0.6 2.9 1.9 4.3 18.9 18.1 4.1 5.5 4.3 8.7-1.6 1.9-17.1 8.9 0.1 16-21.7 0.4-2.2 0.8-4.5 6-6.4 5.7-2.2 3.8 0.6 2.5-34.6 0.2-6.4-12.9-27.5-66.1-2.7-10.9-1.8-25.1-5.3-13.9-1.3-1.8-1.2-2.8 0.6-6.2-0.4-2.8-0.9-1.7-0.6-2.3 0.5-1.8 3.7-6.3 0.4-2.9-0.5-2.8 0.1-6.3 1-5.9 10.6-12.5-0.5-0.6 0.1-1.3 0.9-1.5 0.3-4.9 5.9-7.3-0.2-0.4 1-2.7v-4.2l-1.8-3.3-1.6-1.9 1.8-10.7z"/><path class="a" d="m671.8 541.2l1.7 0.6 1.7 1.8 0.7 5.2 3 0.1 14.9 5.1 9.8 15.3 3.7 6.7-1.1 3.1-9.1 13.2 0.3 0.5-7.8 11.5 0.3 1.1-0.5 1.2 0.7 0.6 0.2 1 0.9 1.3 0.2 1.8 1.1 0.5v0.7l0.6 1.3-12.8-4.2-0.5-1.9-2.9-0.5v1.8l-0.4 0.6-1.8 0.3-0.1 0.5 1.2 2.6-0.6 0.7h-1.3l-0.7 0.5 1.6 1.7v1.7l-5.1 0.3-2 2-1.4 0.5-0.9-0.4-0.4-0.8 2.1-1.1 0.1-0.6-5-0.3-0.7-5.7-2.7-1.1-1.2-0.8h-0.9l-0.7 0.6-0.9-0.6-1 0.1-2.3 0.8-0.6-0.1 0.2-1.4-2.4 0.1-0.5 2.9-0.6 1.4 0.5 5.6 1.9 2.7-2.2 0.5-1.6 0.8-1.9 1.7-1.1 2.7 0.7 4.6-11.3 0.3-1.2-4.7 1.1-1.9-0.2-1.4-2.1-4.5 0.3-2.2-2.6 0.1-0.9-1.6-0.9 0.4-1.5-1.1 0.7-2.9-1.6-4 0.1-0.8 1.1-0.3-0.7-0.7 0.5-2.7-2.8-0.8-1 0.9-0.9-1.1 2-2.5 3-0.1 0.5 1.2 0.6-0.2-0.9-2.9-1.4-0.5-0.5-1.7 1.9 0.5 0.4-0.4-0.4-0.8 0.6-2.6 1.5-1.4-2-1.1-2 1.9-2-1.4 1.2-1.4-0.9-0.7-1.2 1.2-1.8-1.2 0.3-1-0.4-0.4 2-2.5 4.9 1.1 0.9-1.5 3.6-0.2 1.3-0.9 3.2-0.2 0.5 0.7 0.7-0.4 0.9 0.2 0.7-1-2.9-3.7-0.4-2.2 1.7-0.7 1.6-1.2-0.6-1.1 1.3-0.4 1.2 1.5 0.3 0.9 0.7 0.1 0.4-2.2-0.9-1.1-0.1-0.7-1-0.8-0.6 0.5-0.7-0.4-1.2 0.7-3.2-2.2-0.8 0.4-2.3-1.5 1.1-1.1-3.6-2.9 1.9-2.3 0.2-1.1 4.5 3.4 1-3.4-0.3-0.9-1.2-1.5-0.4-2-2.5-1.2-0.6-0.8h-1.8l-0.2-0.6-1.9-0.5-0.4-0.4-1.3 0.5-3.9-2.2 3.5 0.4 22.5-2.1 5.7 0.1 2.5 1 3.9-4.5 11.3-6.2z"/><path class="a" d="m777.3 456.6l16.8 5.9 3.6 0.4 38.7-2.2-0.1 0.3 0.5 0.7 0.2 1.9-1.5 1.6-0.1 0.8 1 1.8-0.3 0.9 0.7 2.3-0.5 1.8 1.3 1.7-0.9 1-1 0.4-0.4 0.9 0.5 1-1.7 2.1-2.8 0.7-0.2 0.9 0.6 1-0.9 4.4 0.6 2.5 1.9 2.5 1.3 0.8-0.9 3.1-0.7 0.6 0.7 2-0.1 1 0.8 0.4-1.5 1.1-1.9 2.4-3.6 12v0.6l-1.3 2.9-1 3.5-3.3 5.7-2.9 9.4-0.4 2.7-0.7 1.3-0.1 1.4-3.1 8.5-1.1 1.2-1.3 0.1-1 0.5-1.8 2.3 0.1 0.5-11.1 3.6-3.7 2.1h-1.1l-1.1 2.3-1.9 0.1-3.2-3.1-0.7-1.9-1.9-2.8-1-0.4-1.3-2-1.4-0.6-1.6-3.8-2.2-2.1-0.5-1.2-0.6 0.7v0.8l1.1 1.5 1.3 2.9-0.2 1.1-1.3 2.9-2.6 1.2-0.2 2.3-2.8 6.7-23.9 1.5-3.6-4.8-3.3-9-7.2-4.1-1.7-0.2-6.2-3.9 0.5-0.6 0.6-4.3-0.1-2.2-7.1-3.7-0.8 0.2-2.7-0.4-5.5-1-2.3-2.7-2.5-0.6-3.3-2.5-0.6-0.8 9.3 1.8-0.8-3-7.4-13.2 6.7-13.9h1.3l2.5-2.8 3.7-1.8 37.8 1.9 2.5-1 2.6 0.4 12.9-9.3z"/><path class="a" d="m589.5 482.7l16.6 12.5 25.4 3.4 4.9 4.1 13 2.3 17.3 4.9 3.4 2.9 5.1 2.2 7.1 1.8 11.8-2 8.8-2.1 7.4 13.2 0.8 3-9.3-1.8-9-1.8-3.3 2-1.9-0.1-7.4 2-0.4 1.1-0.9 0.2-0.9-0.8-3 2.8-0.9 3.9-1.9 2.7-0.4 2.1-1.8-0.8-11.3 6.2-3.9 4.5-2.5-1-5.7-0.1-22.5 2.1-3.5-0.4-1.2 1.5-0.5 1.6-3.4-0.1-12-26.1-11.1-13.8-3.3-5-1.1 0.1 0.4-1.9-5-13.1-2.4-3.3-1.3-3.8z"/><path class="a" d="m383 485.5h54.5l64 0.7 48.6 2.6 23.4-0.3 6.2-0.7 1.3 3.8 2.4 3.3 5 13.1-0.4 1.9 1.1-0.1 3.3 5 11.1 13.8 12 26.1-14.9 6.5-0.6 1-0.2 1 1.6 2.9-1.1 0.3-0.3 0.5-4-0.2-2.6 9.4-13.5 12.2-3.6 9.1 0.1 6.4 2.3 7.4 9 6.7 4.2 12.6 8.6 7.5v0.6l0.7 0.5-0.7 0.4-1.9 5.9 0.1 2.8 1.9 0.7 0.2 1-3 3.8-3.7 1.2-4.1 3.7-4.9 2.7-3 9.5 0.2 1.3-1.5 3.3 2.1 7.5-12.7-4.8-0.9 0.7-1.2-0.4-0.5 1.4-0.6-0.8 0.1-0.6-2 0.2-2.6 1.5v1.4l-0.7-1.1-1.1 0.1-0.1 0.5-0.5-0.1v-0.4h-1.1v0.6h-0.4l-0.1-0.6-5.7-0.2-0.4 0.5-0.2 1.2v1.3l0.6 1.8 0.2 3.8-0.2 1.4-1.1 1.4-0.4 0.1-3.3-0.9-2.5 3.1-1.7-1.3-2.8 3.6 0.3 0.6-11.7 0.8-3.1-4.2-2-6.1-2.7-1.8-0.6-0.9 3.1-3.6-3.1 1.2-9.6 2-2.6 1-2.8 2.1-1.5 0.4 0.1-7.7-0.1-1.1-1-0.6v-3.1l-3-1.1-1.9-1.4h-7.5l-10.3-16.8-1.8-14.3-6.7-1.8-5.7-2.8 1-0.9-2.5-1.1-4.6-5.3-12.7-7.5 0.1-3-11.1 0.5-1.7-2-2.4-0.5-18.9-7.7-3.2-1-13.9-2-16.6 0.4-11.1-33.6-3.4-2.4-1.7-9.2-5.2-46.4-2.8-29.8z"/><path class="a" d="m491.3 672.8h7.5l1.9 1.4 3 1.1v3.1l1 0.6 0.1 1.1-0.1 7.7 1.5-0.4 2.8-2.1 2.6-1 9.6-2 3.1-1.2-3.1 3.6 0.6 0.9 2.7 1.8 2 6.1 3.1 4.2 11.7-0.8-0.3-0.6 2.8-3.6 1.7 1.3 2.5-3.1 3.3 0.9 0.4-0.1 1.1-1.4 0.2-1.4-0.2-3.8-0.6-1.8v-1.3l0.2-1.2 0.4-0.5 5.7 0.2 0.1 0.6h0.4v-0.6h1.1v0.4l0.5 0.1 0.1-0.5 1.1-0.1 0.7 1.1v-1.4l2.6-1.5 2-0.2-0.1 0.6 0.6 0.8 0.5-1.4 1.2 0.4 0.9-0.7 12.7 4.8 6.3 18.6h4.2l9.2 8.5 3.4 3.9 10.4 10.3 0.2 24 0.9 3.5 2.7 4.6-14.9 14.3-7.8 4.9-7.2 12.8-2.1 2.8-12.1 13.7-9.5 12-3.8 1.4h-17.4l-3.5 1.6-10.9-10.3-8-4.5-20.9-13h-2.6l-1.4-0.3-4.3-8.7-4.1-5.5-18.9-18.1-1.9-4.3 0.6-2.9 0.9-1.4 5.6-4.5 0.2-2.6-0.6-1-0.7-6.4-5.5-11.8-3.5 0.1-2.1-2-0.1-2.6 0.4-1.4 1.5-1.3 0.4-5.2 3-2.4 3.9-5.9 3-2.8 1.3-1.9 1.2-3-0.2-2.5 0.8-2 1.7-2.2 3.8-2.8z"/><path class="a" d="m654.4 722.9l29.9-19.5 14.6-3.3 10.9-6.8-0.1-2.1-1.8-1.2 6.5-6.8 2.1 1.2 0.8-0.5 7.7 1.9 1 1.4 2.8 1.1 7.7 21.6-0.7 1.9 7.3 10.8 0.3 1.6 1 2.3 0.1 6-2.6 6.6-2.9 4.8-0.7 0.5-0.5 1.2-0.6 0.3 0.2 0.4h1.5l1.7 1.8 0.2 0.9-2.1 10.8 1.2 2.8-5.5 4.3v1.6l-0.4 0.9-3.5 2.3h-0.4l0.7-2.2h-1.2l-7.5-6.9-0.5-0.1-0.7 0.6-1.4 0.2-1.1 1.5-3.2 1.5-3.9 6.9-1.8 2.3-2.2 2.2-0.9 2.6v0.8l1.3 0.3 0.9 1.6-1.6 3.3 1.5 5.4 1.3 3.5-0.4 1 0.2 1.6-0.6 1.2v1.4l-1.7 1.3-1.9 0.8-1.2 1.1-0.7 4.2-0.1 2.8-3.4 8.8-0.6 3.8-1.5 4.3 0.1 3-10.1 0.2v-2.5l-0.6-2.5 0.2-2.5 1.6-4.8 1.7-2.5 1.7-6.6-0.3-1.5 0.2-2.7-1.1-3.6 0.2-1.6-0.7-2h-3.5l-4.5-8-5.8-4.1-8.8-10.5-11.1-3.6 2.9-5.1-8-37.1z"/><path class="a" d="m569.6 212.2l48.6 0.4-5.5 103.2 0.1 16.1-2.9 40.7 18 18.3-3.3 18.3 5.7 17.2-9.6 13.2-29.9 42.9-1.3 0.2-9.8 5.1-6.2 0.7-23.4 0.3-48.6-2.6-64-0.7h-54.5v-171.1l-119.2-0.2v-101.3l6.6-0.3 63.8-0.2 152.1 0.1 16 0.4v-0.4h62.9l1.8-5.6 2.5-3.4 3.1-2.2 1.8 2.3-3.7 5.1z"/><path class="a" d="m672.1 226.8h0.7l-1.4 1.3-13.3 10 2.9 3.3 0.5 1.2 0.6 6.4-0.4 2.1-2.5 3.3 0.3 5.9-1.4 5.2 0.8 2.2 3.8 2.5 3.8 4.9 4.6 1.5 1.4 3.4 3.4 5.8 1.7 4-0.3 6.9-3.3 14.3v1.2l2.3 3.6 2.1 14.8-1.2 13.6 0.2 4.1 5.6 9.2 15.2 40.2 15.8 5.3 7.8 4.2 11.5 11.5 14.9 24.1 2.8 2.6 7.7 3.6 18.6 7.6-4.4 29.6-12.9 9.3-2.6-0.4-2.5 1-37.8-1.9-3.7 1.8-2.5 2.8h-1.3l-6.7 13.9-8.8 2.1-11.8 2-7.1-1.8-5.1-2.2-3.4-2.9-17.3-4.9-13-2.3-4.9-4.1-25.4-3.4-16.6-12.5 1.3-0.2 29.9-42.9 9.6-13.2-5.7-17.2 3.3-18.3-18-18.3 2.9-40.7-0.1-16.1 5.5-103.2 35.1-0.1z"/><path class="a" d="m620.6 551.7l3.9 2.2 1.3-0.5 0.4 0.4 1.9 0.5 0.2 0.6h1.8l0.6 0.8 2.5 1.2 0.4 2 1.2 1.5 0.3 0.9-1 3.4-4.5-3.4-0.2 1.1-1.9 2.3 3.6 2.9-1.1 1.1 2.3 1.5 0.8-0.4 3.2 2.2 1.2-0.7 0.7 0.4 0.6-0.5 1 0.8 0.1 0.7 0.9 1.1-0.4 2.2-0.7-0.1-0.3-0.9-1.2-1.5-1.3 0.4 0.6 1.1-1.6 1.2-1.7 0.7 0.4 2.2 2.9 3.7-0.7 1-0.9-0.2-0.7 0.4-0.5-0.7-3.2 0.2-1.3 0.9-3.6 0.2-0.9 1.5-4.9-1.1-2 2.5 0.4 0.4-0.3 1 1.8 1.2 1.2-1.2 0.9 0.7-1.2 1.4 2 1.4 2-1.9 2 1.1-1.5 1.4-0.6 2.6 0.4 0.8-0.4 0.4-1.9-0.5 0.5 1.7 1.4 0.5 0.9 2.9-0.6 0.2-0.5-1.2-3 0.1-2 2.5 0.9 1.1 1-0.9 2.8 0.8-0.5 2.7 0.7 0.7-1.1 0.3-0.1 0.8 1.6 4-0.7 2.9 1.5 1.1 0.9-0.4 0.9 1.6 2.6-0.1-0.3 2.2 2.1 4.5 0.2 1.4-1.1 1.9 1.2 4.7 11.3-0.3 0.4 3.1-0.5 1.1 1.2 1.9-0.7 4-1.5 4.4-0.4 2.5 8.2 11.7 4.3 4.8-5.9 11.4 5 11.4 3.2 11.3-25.3-0.9 0.3 0.8-0.1 4.6 1 3.6-0.2 1.9-1.1 2.5 0.1 1.8h-26.2l-3.4-3.9-9.2-8.5h-4.2l-6.3-18.6-2.1-7.5 1.5-3.3-0.2-1.3 3-9.5 4.9-2.7 4.1-3.7 3.7-1.2 3-3.8-0.2-1-1.9-0.7-0.1-2.8 1.9-5.9 0.7-0.4-0.7-0.5v-0.6l-8.6-7.5-4.2-12.6-9-6.7-2.3-7.4-0.1-6.4 3.6-9.1 13.5-12.2 2.6-9.4 4 0.2 0.3-0.5 1.1-0.3-1.6-2.9 0.2-1 0.6-1 14.9-6.5 3.4 0.1 0.5-1.6z"/><path fill-rule="evenodd" class="a" d="m896.6 401.2l-0.3 0.4 0.9 0.6-1.1 1.7 0.3 0.5 1.5 0.3 0.4 0.7 1.9 0.8 1.4-0.4v-0.4l-0.3 0.1-0.6-0.6 0.5-0.4 1.1 0.3 1 1.3-0.1 0.5-0.2 0.3-0.3 0.6 0.7 1.3 1.5 0.8 1.1-1.1v0.5l0.9 0.6-0.5 0.3-0.8-0.5v1.2l0.9-0.1 0.7 0.7-0.1 0.6 0.4 0.2 0.6-0.2 0.6-1.5-0.7-0.7 0.1-0.7 1.8 1.7 0.9 2.1-0.3 0.4 0.8 0.1 0.4 0.6-6.3 6-2.9 7.1-0.2 1.2-1.8 3.8-2.4 0.8-0.9 0.7-0.2 1.6-0.7 1.7-0.8 0.2-1.5-0.4-0.8 0.9-0.9-1.9-0.5 0.5h-1.7l-1 0.7-0.4 1.8 0.2 2.1-1.7-0.1-0.1-3.5-0.5-0.6-1.5 0.8-1.1-0.4-1.5 2-0.1 0.5 0.3 0.9-2.8 1.5-2.2 0.3-0.7-1.7-0.9-0.7-2.4 0.2-0.6 0.8 0.4 1.9-0.5 0.4-0.3 2.5-7.3 0.4-4.7 1.9-0.4 1.5h-0.7l0.3 1.1 1.1 0.7-0.2 0.6-1 0.5-0.2 1.4 0.8 1-1.5 1.1-0.5 1.6-1.4 2.1-1.1 0.2-0.9 2.6-4-2.4-2.8 1-1.5-0.2-1.1 0.8-3.3 0.3-0.8-1.2-2.6-0.3-0.8-0.6-0.9 0.2-0.8 1-38.7 2.2-3.6-0.4-16.8-5.9-18.6-7.6-7.7-3.6-2.8-2.6-14.9-24.1-11.5-11.5-7.8-4.2-15.8-5.3-15.2-40.2-5.6-9.2-0.2-4.1 1.2-13.6-2.2-14.8-2.2-3.6v-1.2l3.3-14.3 0.3-6.9-1.7-4-3.5-5.8-1.3-3.4-4.6-1.5-3.8-4.9-3.8-2.5-0.8-2.2 1.4-5.2-0.3-5.9 2.5-3.3 0.4-2.1-0.6-6.4-0.5-1.2-2.9-3.3 13.3-10 1.4-1.3 20.5-2.4 7.4-22.2 25.4-4.7 12.3-28.7 12.5 3.6 19.5-18.4 0.3 1.1 0.4 0.4v1.7l0.4 0.3 0.3-0.2 0.3 0.7 0.2 3.5 0.8 1.5-0.7-0.2-0.1 1 0.6 0.5v-0.5h0.5l0.2 1 3.3 4.5 0.2-0.2-0.3-1.1 1-0.3 2.2 4.7 2.2 2.2 1 0.4v0.6l2.9 0.7-0.3 0.2-0.2 1.1 0.8-0.2 0.5-0.9 0.7 0.8 3.6 0.5 2.1 0.8 2-0.1 0.6 0.4 1.3-0.1 0.8 1.2 1.5 0.3 0.6 1h0.7l0.3 1.2 0.8 0.6 0.8 3.2 0.7 1.4 3.3 2.6 1 0.4 0.4-0.2 0.6 0.5-0.1 1.3 0.9 2.2 6.1 3.1 2.7 2.6 0.9 0.3 0.2 0.9 0.9 0.5 0.6 0.9h0.8l1.2 1.6 2.2 0.3 0.2-0.5 1.1 0.9 0.2 1.3 1.4 0.9 0.7 1.1 2.4 1-0.1 2.2-0.8 1.9-0.6 0.5 1 1.7v0.8l-0.6 0.1-0.1 1 0.5 0.3-0.3 2.1 0.4 0.3 0.1 0.9 0.2 0.3-0.4 2 1 3.7-0.1 1.8 0.4 0.8-0.1 1-0.6 0.3 0.5 0.3 0.3-0.5 0.4 0.6-0.3 1.1 0.4 0.3v0.6l0.8 0.6 0.2 1.3 0.9 0.9 0.1 1.1 0.4 0.6h-0.5l-0.4 0.4-0.1 0.6 0.3 0.1 0.5-0.7h0.4l1.2 2.7 0.9 0.9-1.6 0.9-0.2 0.3-0.1 0.3 0.8-0.1 1-1.1 2.1 3.1-1.7 0.2-0.4-0.5-0.6 1.2 0.8-0.4 0.1 0.9 0.5-0.8 1.4-0.3 1.5 1.6 1.7 2.6 1.6 1.8 1.6 0.9 0.3 0.7 1.7 1.6 0.6 1.1 1.2 1.2 0.7 2.1 1.4 1.1-1.1 2.4-1.9 0.1-0.1 1.1-1.8-4-0.3-0.2v-0.9l0.4-0.2 0.9 1.7 2 1.2-0.6-1.3-0.7-0.4-0.9-1.5v-0.6l0.4-0.2-0.3-0.8-0.7 0.2-0.3-0.5-0.3-0.1-0.1 0.6-0.6-0.2 0.2-1.3-0.7 0.1-0.1 1-0.8-0.5-0.2-0.9 0.6-1.5-0.4-0.9-1.1-0.4h-0.9l-0.4 0.3-0.8 1.4-0.1 0.8 0.2 0.8 1.1 0.3-0.1 0.9 0.4 0.3-0.5 1 0.4 0.3v1.5l-0.6 0.3-0.6-0.5-0.4 0.3v1.7l0.8 0.4v1l1 0.8 1.5 4.1-0.2 0.8 0.5 0.5 0.1 4.6 0.7 3.7-0.3 1.8 1.3 1.9 0.1 1.9 0.8 0.9 0.8 2.6-0.6 3 0.4 1.2-1.9-0.2-0.4 0.5 0.9 2.9-0.9 1.4 0.2 3.4 0.6 1.1-0.1 2.8 0.4 2.2 0.2 5.1-0.2 1.2-0.7 1.2 0.2-1.1-0.9 1.4 0.5 1 0.3 2 0.9 1.5 0.2 1.4 0.2 0.7 1.2 1.5v1l0.8 0.4-0.2 6.8-0.4 0.8 0.2 0.4-0.8 1.3 0.2-1.3-0.4-0.1-0.3 1.4 0.4 4.2 0.3 1 2.1 3.3-0.1 1.3 1.5 5.1-0.1 1.7 0.4 1.5-0.2 1.9 0.6 2.6-0.3 0.9 0.5 1.3-0.1 1.3 0.6 0.6 0.4-0.3-0.1 0.9 1.2 3.4 0.5 1.1 0.1 1.3 0.6 0.3-0.6 1.6 1 2.5-0.2 1.8 0.6 0.7 0.2 0.8 2.6 3 0.5 1.3 0.7 0.4 1.4 1.5 1.2 0.2 0.4 0.4 4-0.9 0.9-0.6 0.3 0.8 0.9 0.6h2l0.5 0.9-0.3 0.6 1.2 0.7-0.1 0.9 0.7 0.3 0.8 1.1 4.1 1.3 2.4 1.1 1.2 1 2.5 3.6 5.1 3.5-0.1 0.3-1.5 0.7-0.3 2.2 0.4 0.6-0.2 0.6 0.7 0.7-0.2 0.5 1.2 1.7 2 0.4-0.2 0.8 1.4 0.5 1.2 0.2 1.2-0.1 0.9-0.6 0.1-0.6-0.6-0.6 0.4-0.7h0.7zm2 2.1l1.7 0.4 0.1 0.2-1.1 0.4-0.9-0.7zm1.6-1.1l1.4 0.8 0.2 0.5h-0.6l-0.8-0.5-0.4-0.6zm-3.3-2l2.1 1.4-1.2 0.1zm-13-25l1.2 0.4 0.2 1-1.5-0.2-0.4-0.6zm7.8-2.3l0.6 0.2-0.2 0.9-0.2-0.6-1 0.1zm-42.6-101.4l0.7 0.5v0.4l-0.5 3.3-0.9 1.1-0.4-1.3 0.1-2.5 0.2-0.8zm-29.9-72.8l1 1-1.1-0.1v0.5l-0.3-0.1-0.2-0.6zm-42.2-32.3l0.2 1-0.5 0.5 0.1-1.1-0.6-0.2 0.1-0.5zm-1-0.7v0.9l-1.1-0.4 0.1-0.3zm129.8 239.1l0.4 0.8-0.3 0.5-0.5-0.3-0.1 0.4 0.6 0.3 1 1.3-0.2 0.6-0.2-0.2 0.1-0.4-0.8-1-0.8-0.2-0.4 0.8-0.5-0.1 0.6-0.8-0.7-0.8 0.1-0.3 0.8 0.3z"/><path class="a" d="m693.1 613.8l1.4 1.8 1.7 0.8 0.7 3.2 1.1 2.1 0.7 0.2 0.9 1.9 1.2 0.9 2.1-0.4 0.3 0.5 1.6 0.8 1.1-0.3 1 0.3 2.4-0.2 0.7 2.8-3.3 1.5 3.6 8 9.7 11.1 0.9-0.1 0.6 0.7 1.3 0.1-0.2 0.7 1.3 2.2 3.2-0.4 0.4 0.4 0.7-0.3 1.2 0.3 0.7 0.8 0.6 0.1 0.3 0.6v1l1 1.1-0.3 1.1 3.1 1.9 0.5 0.6-0.2 0.7 2.5 1.8 1.2 0.2 0.4 1.1 1.2 0.5 0.9-0.5 3.2 2.6 1.4-0.3 1 0.1 1.8 1.7 1.2 1.8 1.7 0.3 0.4 0.8 1.2 0.3 1.9 1.1 1.3 1.6 6.3 1.2 1.2-0.3 1 0.2 2.7-0.8 1.9 1.5 2.5 0.7 2 1.1-0.6 0.8 0.4 0.9-0.4 1-0.9 0.5-0.9-0.2-10.3 17.9 0.5 0.7-0.2 1.2-0.6 0.5h-1.1l-3.3 5.8 0.5 0.9-0.1 1.2-0.8 0.5-1-0.1-1.3 3.6-0.9 0.3-7.6 5.8-2.4 3.8 0.1 0.5-7.3-10.8 0.7-1.9-7.7-21.6-2.8-1.1-1-1.4-7.7-1.9-0.8 0.5-2.1-1.2-6.5 6.8 1.8 1.2 0.1 2.1-10.9 6.8-14.6 3.3-29.9 19.5 3.4-20.7 2.2-2.7-2.5 0.1-3.2-11.3-5-11.4 5.9-11.4-4.3-4.8-8.2-11.7 0.4-2.5 1.5-4.4 0.7-4-1.2-1.9 0.5-1.1-0.4-3.1-0.7-4.6 1.1-2.7 1.9-1.7 1.6-0.8 2.2-0.5-1.9-2.7-0.5-5.6 0.6-1.4 0.5-2.9 2.4-0.1-0.2 1.4 0.6 0.1 2.3-0.8 1-0.1 0.9 0.6 0.7-0.6h0.9l1.2 0.8 2.7 1.1 0.7 5.7 5 0.3-0.1 0.6-2.1 1.1 0.4 0.8 0.9 0.4 1.4-0.5 2-2 5.1-0.3v-1.7l-1.6-1.7 0.7-0.5h1.3l0.6-0.7-1.2-2.6 0.1-0.5 1.8-0.3 0.4-0.6v-1.8l2.9 0.5 0.5 1.9z"/></svg>