<svg width="1024" height="1024" viewBox="0 0 1024 1024" fill="#FFFFFF" xmlns="http://www.w3.org/2000/svg">
<path d="M442.041 457.464L439.896 457.868L435.777 461.467L435.012 465.066L428.833 466.096L425.234 468.156L417.271 459.927L412.642 453.238L412.377 451.444L416.751 450.924L417.526 448.355L414.436 445.53L417.006 442.186L416.751 438.842L419.841 437.047L420.605 432.928L418.29 431.134L419.841 428.819L420.35 423.935L415.211 419.816L414.957 412.872L413.152 410.048L407.238 420.846L404.159 418.786L402.864 415.707L399.785 413.392L397.215 413.647L396.185 417.756L392.841 419.051L390.527 416.216L386.673 414.932L383.583 412.362L385.122 409.018L385.388 404.134L382.553 402.074L381.502 396.808L384.39 394.706L386.163 391.51L389.168 388.824L402.216 382.603L396.037 377.825L396.175 376.275L400.963 372.835L402.524 369.437L400.761 365.626L401.101 363.056L408.087 361.22L410.466 359.553L410.699 357.196L407.28 353.066L407.217 349.7L409.34 345.4L414.628 341.026L427.039 335.048L425.882 331.077L426.604 327.956L428.196 326.247L433.154 324.771L435.066 322.371L435.947 319.494L435.48 315.629L434.163 312.965L431.254 312.189L433.048 309.875L438.707 308.59L442.763 308.378L443.071 315.502L448.772 320.896L451.32 327L458.296 330.186L458.02 332.394L461.598 340.325L468.679 340.113L470.803 341.238L475.167 358.586L472.257 366.995L473.988 373.238L479.679 377.145L486.93 387.603L492.25 391.001L496.433 391.616L496.974 391.638L496.146 395.757L496.666 401.406L499.491 402.181L502.58 406.289L492.802 407.84L488.438 411.184L492.037 414.518L493.832 417.862H497.696L497.431 420.952L502.58 426.6L504.12 431.495L501.295 433.809L498.461 433.544L495.636 431.749L493.067 432.524L491.517 438.428L488.948 441.517L496.146 448.461L492.802 450.255L493.046 455.341L490.806 453.504L487.206 452.729L486.177 449.639L482.312 449.384L480.263 451.189L475.889 450.669L473.574 447.59L473.319 443.726L470.484 442.441L467.915 443.216L466.63 445.01L461.492 446.305L459.432 437.302L450.949 435.763L449.409 433.958L445.81 432.928L445.035 436.527L443.23 438.587L444.525 441.411L446.829 442.696L448.379 446.04L442.466 453.504L442.041 457.464Z" fill="#FFFFFF" stroke="black" stroke-width="2"/>
<path d="M367.861 175.907L359.059 181.885L354.685 183.17L352.625 185.994L354.94 187.799V191.908L349.292 198.596V203.735L346.977 206.825L343.112 206.57L331.805 200.401L327.176 200.136L333.345 195.772L331.55 192.173L324.607 187.544L326.921 185.484L327.176 182.915L318.693 178.54L315.603 183.17L308.405 176.226L305.836 170.312L297.607 161.829L295.548 156.17L296.323 152.061L293.753 146.912L296.323 143.833L298.637 143.058L299.667 140.234L294.783 141.773L295.038 137.144L289.729 131.666L290.26 131.082L287.563 126.633L298.765 119.498L301.037 122.546L305.761 120.507L312.673 113.627L312.62 110.792L320.827 106.047L318.523 103.297L318.056 101.12L319.638 99.7505L321.22 100.228L324.925 97.4148L326.454 94.3782L335.702 95.9496L339.736 92L342.422 93.8474L344.344 92.5309L347.285 96.0239L349.26 95.9814L353.135 100.717L361.034 104.305L365.961 100.048L370.069 99.1241L371.651 104.496L370.367 107.321L368.052 109.38L366.513 120.178L360.089 133.8L358.805 144.088L361.119 148.207V151.031L358.03 151.806L357.52 155.14L360.089 160.024L359.835 165.428L361.374 167.488L362.138 171.087L364.973 172.882L365.738 175.196L367.861 175.907Z" fill="#FFFFFF" stroke="black" stroke-width="2"/>
<path d="M432.562 310.501L428.835 308.537L425.756 302.623L421.892 299.279L424.726 297.485L423.187 293.365L428.071 289.511L430.64 285.657L427.551 279.998L415.468 267.396L421.127 263.542L422.667 260.717L420.097 258.403L415.213 256.598L412.899 253.519V248.635L414.959 246.575L415.723 244.006L414.184 239.887L410.329 243.231L406.73 241.946L407.76 235.523L406.465 232.179L402.866 231.149L401.846 227.804L399.012 226.01L395.933 232.179L393.098 235.003L391.304 232.179L391.813 227.295L393.618 224.205L391.558 220.606L399.532 215.977L402.866 212.378L399.012 211.093L393.618 212.887L393.353 209.033L397.217 207.239L397.472 202.61L389.244 204.404L388.469 201.07L390.019 199.265L399.012 198.49L396.697 191.292L399.266 188.213H405.18L408.015 186.153V182.034L404.671 178.955L406.73 177.67L408.525 173.816L425.236 171.501L430.12 173.041L433.209 171.756L437.839 179.985L439.123 184.868L443.497 187.438L442.468 191.547L435.524 194.891V199.265L430.895 204.669L434.494 207.748L441.438 208.003L449.411 203.894L452.235 205.689H457.894L456.089 195.921L458.149 191.037L463.808 186.153L466.377 188.722H471.007L471.516 179.209L474.086 175.355L474.606 171.501L477.366 170.493L480.318 170.089L481.507 177.521L482.526 179.316L484.459 179.73L487.007 178.307L492.729 178.562L494.014 172.308L499.461 174.474L498.463 179.666L497.369 179.804L496.647 181.991L496.615 189.434L495.734 191.929L496.7 192.916L496.934 197.747L494.789 199.881L493.419 204.457L491.508 206.421L492.4 212.239L495.543 211.199L500.713 221.413L497.358 225.214L491.922 228.388L493.101 230.246L492.22 232.263L500.82 232.306L505.523 235.279L507.413 238.91L506.542 238.835L505.969 241.532L504.981 241.575L510.12 244.569L512.806 244.452L514.909 249.155L514.144 249.251L514.303 250.27L516.66 250.461L518.295 254.135L521.353 255.993L523.296 258.626L525.228 258.966L525.759 261.524L523.816 263.595L512.498 265.4L506.585 270.283L498.102 273.617L503.761 277.227L502.731 279.531L499.131 280.561L492.188 284.935L486.274 293.673L476.251 283.396L467.248 281.846L465.454 279.796L463.394 280.826L461.6 286.22L454.911 285.19L452.596 286.475L449.507 289.819L446.937 294.703L447.458 302.931L444.623 304.991L443.593 308.335L438.709 308.59L433.05 309.875L432.562 310.501Z" fill="#FFFFFF" stroke="black" stroke-width="2"/>
<path d="M403.025 188.212V186.259L400.71 182.914L389.913 179.825H383.478L378.595 177.001L368.827 176.226L365.737 175.196L364.973 172.881L362.138 171.087L361.374 167.488L359.834 165.428L360.089 160.024L357.52 155.14L358.029 151.806L361.119 151.031V148.207L358.804 144.087L360.089 133.799L366.512 120.178L368.052 109.38L370.366 107.32L371.651 104.496L370.069 99.1237L376.779 94.93L385.411 94.8769L389.445 95.6838L391.303 100.642L394.372 100.143L395.051 100.897L399.808 94.5796L401.432 98.2425L405.392 101.014L408.418 100.26L411.083 98.2L417.921 105.388L420.246 103.986L420.819 106.821L423.038 104.655L422.433 106.715L425.045 106.757L422.635 108.032L423.654 110.484L427.593 112.799L428.665 115.687L433.241 120.231L432.785 122.333L435.152 128.576L433.814 129.998L441.979 136.825L447.712 135.838L452.671 139.214L457.14 151.392L461.823 149.831L461.355 148.632L464.519 147.803L466.197 155.926L468.002 155.469L468.596 157.465L470.359 156.987L477.09 163.878L475.752 167.307L477.366 170.492L474.606 171.501L474.085 175.355L471.516 179.209L471.006 188.722H466.377L463.808 186.153L458.149 191.037L456.089 195.92L457.894 205.688H452.235L449.411 203.894L441.438 208.003L434.494 207.748L430.895 204.669L435.524 199.265V194.891L442.467 191.546L443.497 187.437L439.123 184.868L437.838 179.984L433.209 171.756L430.12 173.04L425.236 171.501L408.524 173.815L406.73 177.67L404.67 178.954L408.015 182.033V186.153L405.18 188.212H403.025Z" fill="#FFFFFF" stroke="black" stroke-width="2"/>
<path d="M496.434 391.616L492.251 391L486.932 387.602L479.681 377.145L473.99 373.237L472.259 366.995L475.168 358.586L470.805 341.237L468.681 340.112L461.599 340.324L458.022 332.393L458.298 330.185L451.322 327L448.774 320.895L443.073 315.501L442.765 308.377L443.593 308.335L444.623 304.99L447.457 302.931L446.937 294.702L449.507 289.818L452.596 286.474L454.911 285.189L461.599 286.219L463.394 280.826L465.454 279.796L467.248 281.845L476.251 283.395L486.274 293.672L492.188 284.934L499.131 280.56L502.73 279.53L503.76 277.226L498.101 273.617L506.584 270.283L512.498 265.399L523.816 263.594L525.759 261.524L526.067 262.277L532.278 260.876L532.076 263.817L534.784 263.647L536.939 267.777L543.522 265.983L545.687 262.224L546.388 263.254L547.567 262.299L548.766 263.063L548.374 265.505L549.764 269.54L552.111 271.875L551.399 273.786L553.502 276.812L554.701 276.483L561.273 280.879L563.599 278.426L568.249 278.978L572.867 282.323L574.226 281.686L577.645 283.161L579.429 281.176L583.368 285.943L589.717 288.385L591.5 292.356L594.558 292.855L596.045 296.465L595.885 298.779L589.165 302.028L588.156 305.054L589.823 307.857L586.245 311.764L585.321 314.769L586.022 317.805L581.404 319.26L579.142 318.506L577.666 320.226L575.384 320.035L572.867 321.489L576.509 324.6L575.946 325.142L580.342 328.072L579.323 329.58L583.612 333.115L587.997 333.497L598.38 338.795L599.421 340.282L600.43 346.971L593.56 348.637L591.341 350.379L588.05 350.219L587.583 351.09L585.47 349.412L583.782 350.549L582.009 349.933L579.227 350.984L574.216 350.782L572.644 353.957L573.292 355.815H571.901L573.016 356.685L572.241 357.386L573.483 357.906L572.506 358.352L572.729 359.435L553.725 367.483L547.737 371.793L544.435 375.987L538.839 377.293L533.733 379.788L529.379 379.947L527.245 379.64L522.776 380.287L513.071 388.993L505.629 391.021L498.462 391.701L496.434 391.616Z" fill="#FFFFFF" stroke="black" stroke-width="2"/>
<path d="M328.248 200.199L327.176 200.497L324.086 207.96L327.43 212.579L326.666 214.639L321.517 214.129L319.977 221.837L316.888 223.122L310.209 219.523L304.296 224.152L303.775 228.526L300.431 230.065L297.352 233.41L298.637 236.234L301.726 238.294L300.176 241.638L297.607 240.353L293.233 240.099L289.899 242.413L287.319 240.608L286.034 237.784L284.24 238.548L283.21 241.893H274.472L273.442 239.324L270.098 238.294L266.499 240.099L262.644 239.578L264.439 237.519L258.78 234.694L256.986 232.38L253.386 233.665L251.581 232.635L252.303 230.214L254.501 230.968L260.234 230.384L262.092 228.016L262.443 225.118L257.75 221.731L253.185 221.041L251.539 216.709L248.417 216.868L247.197 219.714L241.707 221.062L239.149 219.968L233.851 214.373L234.35 211.814L236.919 208.067L235.348 205.157L236.601 203.862L240.253 203.671L240.943 199.605L243.788 196.09L244.054 193.203L238.915 190.57L236.123 187.491L232.927 173.943L231.547 171.618L228.935 170.418L228.202 168.624L229.02 157.816L225.315 154.896L224.794 149.948L223 147.411L223.924 146.699L224.858 148.526L230.273 147.305L229.721 145.319L231.94 146.147L235.698 142.41L243.289 144.172L246.698 143.005L247.908 144.746L249.681 144.565L247.897 139.926L250.414 136.794L259.566 136.613L257.654 129.585L263.25 121.834L267.305 122.545L268.962 130.232L276.564 130.89L276.192 129.818L280.726 129.701L281.309 130.455L287.903 130.19L289.729 131.665L295.037 137.144L294.783 141.773L299.667 140.234L298.637 143.058L296.322 143.833L293.753 146.912L296.322 152.061L295.547 156.17L297.607 161.829L305.835 170.312L308.404 176.226L315.603 183.169L318.692 178.54L327.176 182.915L326.921 185.484L324.606 187.544L331.55 192.173L333.344 195.772L327.176 200.136L328.248 200.199Z" fill="#FFFFFF" stroke="black" stroke-width="2"/>
<path d="M252.303 230.215L251.581 232.636L253.386 233.666L256.985 232.381L258.78 234.695L264.439 237.52L262.644 239.579L266.498 240.1L270.098 238.295L273.442 239.325L274.472 241.894H283.21L284.24 238.549L286.034 237.785L287.319 240.609L289.899 242.414L293.232 240.1L297.607 240.354L300.176 241.639L301.726 238.295L298.637 236.235L297.352 233.411L300.431 230.066L303.775 228.527L304.295 224.153L310.209 219.524L316.887 223.123L319.977 221.838L321.516 214.13L326.666 214.64L327.43 212.58L324.086 207.961L327.175 200.498L328.248 200.2L331.805 200.402L343.112 206.571L346.976 206.825L349.291 203.736V198.597L354.939 191.908V187.799L352.625 185.995L354.685 183.17L359.059 181.886L367.86 175.908L368.827 176.227L378.594 177.002L383.478 179.826H389.912L400.71 182.916L403.024 186.26V188.213H399.266L396.697 191.292L399.011 198.491L390.018 199.266L388.468 201.071L389.243 204.405L397.472 202.61L397.217 207.239L393.352 209.034L393.618 212.888L399.011 211.093L402.865 212.378L399.531 215.977L391.558 220.606L393.618 224.206L391.813 227.295L391.303 232.179L393.097 235.003L395.932 232.179L399.011 226.011L401.846 227.805L402.865 231.149L406.464 232.179L407.76 235.524L406.73 241.947L410.329 243.232L414.183 239.887L415.723 244.007L414.958 246.576L412.898 248.636V253.52L415.213 256.599L420.097 258.404L422.666 260.718L421.127 263.542L415.468 267.396L427.55 279.999L430.64 285.658L428.07 289.512L423.186 293.366L424.726 297.485L422.326 299.004L415.723 291.051L411.614 291.826L405.445 291.317L404.415 288.737L401.846 287.972L395.932 294.141L392.068 293.631L390.528 291.572L392.588 289.512L392.843 285.403L389.498 284.883L385.124 290.542L384.105 293.886L382.045 295.426L375.356 296.71L367.903 295.68L363.274 296.455L361.734 298.25L358.39 296.455L353.506 296.201H348.357L345.023 298.25L337.304 297.485L331.136 297.995L327.791 296.71H324.447L318.278 293.111L315.189 293.631L310.305 298.25L303.149 291.996L302.894 289.14L304.2 286.889L303.499 280.126L295.398 280.009L283.135 277.96L263.674 267.725L260.723 259.922L251.889 258.276L245.805 253.063L245.211 250.738L248.364 247.043L250.403 246.969L251.73 243.253L247.026 237.721L247.717 230.81L249.15 228.814L252.303 230.215Z" fill="#FFFFFF" stroke="black" stroke-width="2"/>
<path d="M422.326 299.003L421.89 299.279L425.755 302.624L428.834 308.537L432.56 310.502L431.255 312.19L434.164 312.965L435.48 315.63L435.947 319.494L435.066 322.372L433.155 324.771L428.197 326.247L426.604 327.956L425.882 331.078L427.04 335.048L414.628 341.026L409.341 345.4L407.217 349.7L407.281 353.066L410.7 357.196L410.466 359.553L408.088 361.22L401.102 363.057L400.762 365.626L402.525 369.437L400.964 372.835L396.175 376.275L396.037 377.825L402.217 382.603L389.168 388.824L386.163 391.511L384.39 394.706L381.503 396.808L376.364 395.534L375.706 392.625L377.861 391.181L382.724 390.247L386.259 387.497L386.11 384.96L378.148 386.181L374.686 385.374L368.305 382.167L358.41 374.109L348.685 373.451L345.85 370.542L344.491 366.327L344.735 360.795L353.282 343.542L351.923 342.013L348.441 342.746L345.648 339.508L340.616 339.295L333.099 343.988L322.875 344.593L319.243 343.935L316.738 340.325L312.661 344.742L306.598 341.376L305.07 343.309L303.859 340.729L301.343 342.395L293.784 340.58L293.051 342.438L297.563 345.05L297.701 346.08L296.565 346.802L290.768 343.043L287.127 343.935L284.079 342.088L277.943 345.262L276.244 341.291L273.324 340.389L269.714 343.425L266.19 344.901L264.692 347.163L260.541 348.596L258.45 351.622L251.963 353.129L250.189 343.988L259.522 342.746L262.898 338.637L268.143 336.45L269.81 334.263L268.908 333.328L269.215 330.027L268.164 329.124L264.162 331.099L255.944 329.804L261.635 326.247L262.951 323.784L261.975 318.21L264.395 315.683L264.48 312.54L261.975 309.726L263.206 307.369L261.051 304.121L261.168 300.49L266.657 301.19L268.568 300.256L274.163 292.06L274.641 289.586L272.677 287.335L272.9 286.358L274.248 286.263L284.939 292.102H288.082L289.101 286.847L292.35 286.539L297.553 292.643L303.148 291.996L310.304 298.249L315.188 293.631L318.277 293.111L324.446 296.71H327.79L331.135 297.995L337.303 297.485L345.022 298.249L348.356 296.2H353.505L358.389 296.455L361.733 298.249L363.273 296.455L367.902 295.68L375.355 296.71L382.044 295.425L384.104 293.886L385.123 290.541L389.497 284.882L392.842 285.403L392.587 289.511L390.527 291.571L392.067 293.631L395.931 294.14L401.845 287.972L404.414 288.736L405.444 291.316L411.613 291.826L415.722 291.051L422.326 299.003Z" fill="#FFFFFF" stroke="black" stroke-width="2"/>
<path d="M385.4 407.829L380.665 407.224L379.635 409.018L376.29 410.303L372.691 407.988L366.002 414.422L369.602 421.876L369.867 425.985L369.602 429.329L367.553 432.928V436.793L365.493 441.411L361.894 441.677L358.294 440.127L356.235 437.048L351.86 435.243L347.497 434.733L345.182 431.389L338.493 432.419L335.669 435.243L332.58 434.733L331.55 431.898L326.921 429.849L324.096 431.134H318.692L317.153 432.928L320.497 435.498L320.752 438.587L319.213 442.441V445.276L315.613 445.531L314.329 446.815L320.242 452.474L319.988 455.553L315.359 456.328L314.329 459.418L310.984 461.467L308.415 464.812L313.808 468.666L318.692 469.695L322.292 471.755L327.441 472.53L330.01 476.384V481.778L333.355 483.328L336.2 486.927L336.434 491.036L335.414 494.38L333.609 492.321L331.04 491.556L318.225 500.506L316.611 495.633L313.469 494.518L313.426 492.873L315.093 490.77L314.276 489.167L311.961 489.836L310.008 492.289L306.504 490.165L304.975 485.419L298.276 482.606L298.297 478.263L296.131 475.694L296.789 473.188L293.986 469.526L293.583 466.022L289.729 466.213L287.308 464.928L284.431 467.02L281.511 467.689L279.154 466.181L277.646 462.136L273.569 463.803L271.69 463.325L269.875 460.044L266.721 457.146L267.21 453.005L264.863 452.411L263.706 449.958L264.81 447.59H263.409L262.878 446.539L263.749 441.836L268.208 439.086L269.004 437.536L268.983 430.38L266.838 422.959L265.054 421.409L266.435 417.385L272.529 416.981L273.304 414.454L275.799 411.8L275.587 410.069L273.761 408.912L275.215 405.674L279.642 403.519L279.271 400.418L281.384 399.314L282.254 396.575L283.581 396.405L283.104 394.781L284.388 391.426L286.278 389.812L287 385.926L291.831 383.399L290.249 380.564L291.024 378.048L290.313 376.296L292.733 377.103L293.848 375.309L291.427 372.973L291.778 371.158L290.451 370.128L291.035 369.108L294.188 368.546L293.381 366.762L291.767 367.442L289.644 366.497L292.51 364.755L291.704 362.664L292.096 361.507L293.572 361.294L292.776 359.712L294.91 360.402L296.258 359.808L298.679 356.57L297.256 353.841L299.666 354.467L301.97 351.537L300.165 350.751L300.017 347.683L297.373 344.668L293.211 342.438L293.944 340.58L301.503 342.396L304.019 340.729L305.23 343.309L306.759 341.376L312.821 344.742L316.898 340.325L319.404 343.935L323.035 344.593L333.27 343.988L340.787 339.295L345.809 339.508L348.601 342.746L352.678 342.247L353.049 345.422L351.107 347.587L344.896 360.795L344.651 366.327L345.639 369.937L348.856 373.451L358.57 374.109L368.466 382.168L374.847 385.374L378.318 386.181L386.271 384.96L386.419 387.497L382.31 390.576L376.938 391.734L375.696 393.719L376.524 395.535L381.45 396.862L382.714 402.075L385.549 404.134L385.4 407.829Z" fill="#FFFFFF" stroke="black" stroke-width="2"/>
<path d="M385.242 407.83L385.125 409.019L383.586 412.363L386.675 414.933L390.529 416.217L392.844 419.052L396.188 417.757L397.218 413.648L399.787 413.393L402.866 415.708L404.162 418.787L407.241 420.846L413.154 410.049L414.959 412.873L415.214 419.817L420.353 423.936L419.843 428.82L418.293 431.134L420.608 432.929L419.843 437.048L416.754 438.843L417.008 442.187L414.439 445.531L417.529 448.356L416.754 450.925L412.379 451.445L412.645 453.239L417.274 459.928L425.237 468.157L428.836 466.097L435.015 465.067L435.78 461.468L439.899 457.868L442.044 457.465L441.948 458.389L445.038 458.644L445.293 467.381L446.503 468.794L444.263 472.531L438.614 479.474L435.27 480.494L432.435 485.643L428.326 486.673L426.787 490.527H422.158L418.293 492.321L412.125 491.812L406.731 496.695L400.297 497.47L398.365 498.044L397.473 496.441L389.499 495.666L385.391 496.186L381.526 498.755L377.927 496.186L375.102 490.782L370.994 489.752L366.874 491.812L364.56 494.636L361.735 492.066H358.136L359.421 494.901L362.5 497.47L363.785 501.325L362.5 503.639H358.136L357.106 499.785L354.017 495.411L338.845 486.407L336.031 486.928L333.197 483.328L329.852 481.778V476.385L327.283 472.531L322.133 471.756L318.534 469.696L313.65 468.666L308.257 464.812L310.826 461.468L314.171 459.419L315.19 456.329L319.819 455.554L320.084 452.475L314.171 446.816L315.455 445.531L319.054 445.277V442.442L320.594 438.588L320.339 435.498L316.995 432.929L318.534 431.134H323.938L326.763 429.85L331.392 431.899L332.421 434.734L335.511 435.243L338.335 432.419L345.024 431.389L347.339 434.734L351.702 435.243L356.077 437.048L358.136 440.127L361.735 441.677L365.335 441.412L367.384 436.793V432.929L369.444 429.33L369.698 425.985L369.444 421.876L365.844 414.423L372.533 407.989L376.132 410.304L379.477 409.019L380.507 407.225L385.242 407.83Z" fill="#FFFFFF" stroke="black" stroke-width="2"/>
<path d="M541.727 479.643L539.083 479.314L539.604 475.205L535.75 474.43L533.69 476.224L529.836 471.861L523.922 468.516L522.117 463.632L517.488 465.427H511.829L505.151 462.603L499.747 462.082L501.031 456.689L499.747 455.914L493.069 455.659L492.803 450.255L496.148 448.461L488.949 441.517L491.518 438.427L493.069 432.524L495.638 431.749L498.462 433.543L501.297 433.809L504.121 431.494L502.582 426.6L497.432 420.951L497.698 417.862H493.833L492.039 414.517L488.439 411.184L492.803 407.839L502.582 406.289L499.492 402.18L496.668 401.405L496.148 395.757L496.976 391.638L498.462 391.701L505.629 391.022L513.071 388.994L522.775 380.288L527.245 379.64L529.379 379.948L528.806 388.548L529.57 392.413L532.915 395.492L532.405 399.356L533.69 402.435L543.203 406.034L541.918 416.832L547.312 428.405L546.802 433.809L541.143 440.232L541.663 444.607L547.312 446.656L548.341 451.285L541.143 453.599L540.697 458.154L539.561 460.437L546.388 469.918L543.734 473.326L542.215 478.263L541.727 479.643Z" fill="#FFFFFF" stroke="black" stroke-width="2"/>
<path d="M540.696 458.154L541.142 453.599L548.34 451.285L547.31 446.656L541.662 444.606L541.142 440.232L546.801 433.809L547.31 428.405L541.917 416.832L543.202 406.034L533.689 402.435L532.404 399.356L532.914 395.491L529.569 392.412L528.805 388.548L529.378 379.948L533.731 379.789L538.838 377.294L544.433 375.988L547.735 371.794L553.723 367.483L572.728 359.436L576.274 362.323L578.812 368.45L588.547 368.566L593.622 369.787L597.285 369.278L604.197 371.815L606.469 374.926L608.179 380.468L608.455 387.475L610.695 390.597L619.135 390.034L623.255 392.179L632.874 390.406L634.806 392.158L643.205 392.752L646.517 393.899L650.69 393.495L655.383 395.863L660.468 396.309L662.634 401.872L660.5 403.072L659.619 408.052L657.272 410.101L656.986 412.16L653.461 412.447L653.758 420.07L652.293 423.298L652.58 428.872L650.233 431.505L645.838 431.802L644.373 435.9H639.393L638.809 439.128L633.819 444.702L635.868 447.048L637.333 451.147L635.284 453.196L643.491 454.661L647.887 457.888L648.768 470.502L651.996 472.551L653.758 469.026L656.104 467.858L657.272 471.967L656.986 475.481L659.916 478.995L656.688 485.153L658.154 489.846L656.986 493.658L654.639 495.707L648.184 495.42L645.838 498.637L639.977 497.767L637.429 501.398L635.146 497.225H630.22L625.293 494.189H617.32L612.776 490.016L600.258 489.262L599.494 483.954L593.049 478.263L587.741 478.634L585.086 475.98H580.149L576.741 478.634L572.558 475.98L573.705 473.708L575.977 472.19L572.186 469.918L568.385 461.573L564.977 459.672L561.187 466.499L556.25 465.745L554.732 460.808L549.805 457.4L540.696 458.154Z" fill="#FFFFFF" stroke="black" stroke-width="2"/>
<path d="M493.048 455.341L499.747 455.914L501.032 456.689L499.747 462.083L505.151 462.603L511.829 465.427H517.488L522.117 463.633L523.922 468.517L529.836 471.861L533.69 476.225L535.75 474.431L539.604 475.206L539.084 479.315L541.727 479.644L540.326 483.572L542.98 489.263L547.535 491.917L545.634 496.472L538.808 501.016L536.907 505.189L539.561 509.361L539.944 514.67L534.635 515.816L529.698 518.853L533.499 521.507L534.635 525.68L532.735 527.952L532.352 530.606L528.944 531.742L525.908 534.779L527.044 539.716L531.216 540.852L515.291 550.715L513.443 551.023L513.008 548.432L509.218 546.16L502.773 545.396L498.972 546.542L495.182 548.061L494.428 551.469L497.082 553.369L492.91 556.406L486.454 556.777L478.109 543.888L475.742 542.826L476.145 540.406L472.036 537.582L468.437 532.177L465.093 529.088L462.003 522.155L472.036 513.661L475.89 513.152L476.665 510.837L473.066 505.698L463.033 497.725L462.778 493.096L460.209 487.692L457.639 484.867L454.04 484.613L449.411 478.444L449.146 471.755L446.576 468.666L446.502 468.793L445.292 467.381L445.037 458.643L441.947 458.388L442.468 453.504L448.381 446.04L446.831 442.696L444.527 441.411L443.232 438.587L445.037 436.527L445.812 432.928L449.411 433.958L450.951 435.763L459.434 437.303L461.493 446.306L466.632 445.011L467.917 443.216L470.486 442.441L473.321 443.726L473.576 447.591L475.89 450.67L480.265 451.19L482.314 449.385L486.178 449.64L487.208 452.729L490.807 453.504L493.048 455.341Z" fill="#FFFFFF" stroke="black" stroke-width="2"/>
<path d="M591.947 560.663L591.533 559.516L586.978 564.443L583.941 565.961H580.533L580.151 563.307L576.743 562.924L574.46 561.024L579.015 558.752L575.978 557.616L575.225 554.961L571.424 554.579L569.905 557.616L562.707 557.998L561.56 550.025L564.225 548.506L563.079 543.58L559.67 546.616L558.906 557.616L555.87 558.752L552.079 562.542H548.289L545.252 561.406L544.87 564.443L546.771 568.233L542.598 569.751L538.426 568.233H534.253L526.29 565.196L523.254 567.097L519.431 563.593L514.155 555.259L513.443 551.023L515.291 550.715L531.216 540.851L527.044 539.715L525.908 534.778L528.944 531.742L532.353 530.606L532.735 527.951L534.635 525.679L533.499 521.507L529.698 518.853L534.635 515.816L539.944 514.669L539.562 509.361L536.907 505.188L538.808 501.016L545.635 496.472L547.535 491.917L542.98 489.263L540.326 483.572L542.216 478.263L543.734 473.326L546.388 469.918L539.562 460.437L540.698 458.154L549.807 457.4L554.734 460.808L556.252 465.745L561.189 466.499L564.979 459.672L568.387 461.573L572.188 469.918L575.978 472.19L573.706 473.708L572.56 475.98L576.743 478.635L580.151 475.98H585.088L587.742 478.635L593.051 478.263L599.495 483.954L600.26 489.263L612.778 490.016L617.322 494.189H625.295L630.222 497.225H635.148L637.431 501.398L634.776 503.67L632.494 512.397L630.222 519.224L626.049 526.433L623.777 533.642L618.468 534.024L618.086 535.914L620.358 544.642L615.432 549.95L613.149 551.851L600.26 552.604L591.947 560.663Z" fill="#FFFFFF" stroke="black" stroke-width="2"/>
<path d="M637.43 501.399L639.978 497.768L645.839 498.638L648.185 495.421L654.64 495.708L656.987 493.659L658.154 489.847L656.689 485.154L659.917 478.996L656.987 475.482L657.273 471.968L656.105 467.859L653.759 469.027L651.996 472.552L648.769 470.503L647.888 457.889L643.492 454.662L635.285 453.197L637.334 451.148L635.869 447.049L633.82 444.703L638.81 439.129L639.394 435.901H644.373L645.839 431.803L650.234 431.506L652.58 428.873L652.294 423.299L653.759 420.071L653.462 412.448L656.987 412.161L657.273 410.102L659.62 408.052L660.501 403.073L662.635 401.873L665.002 404.39L666.468 413.913L670.916 416.918L672.424 422.832L680.312 427.652L686.088 426.962L694.253 409.273L697.459 404.697L699.445 398.157L702.746 395.503L703.967 391.33L708.31 388.092L715.296 387.392L718.885 382.805L726.072 380.501L741.011 396.618L747.424 400.217L754.399 399.697L755.949 401.65L759.134 402.617L765.186 409.762L766.375 414.784L757.52 419.381L747.976 413.032L742.126 412.936L739.323 415.92L738.367 423.946L737.051 426.102L732.984 428.002L726.2 426.633L724.522 428.172L725.499 433.077L730.351 437.855L730.744 444.215L733.526 452.241L738.452 459.408L742.062 460.979L752.424 462.901L755.854 466.691L755.896 470.163L754.102 474.335L753.815 478.221L753.114 476.735L751.49 478.604L750.226 477.86L750.418 479.697L749.069 481.396L749.589 482.245L747.88 482.564L748.952 484.209L747.7 484.974L746.882 484.422L745.969 486.11L748.007 487.575L747.997 489.783L746.818 489.38L745.544 497.269L746.882 499.222L746.213 502.811L747.37 503.841L746.999 505.603L741.924 505.815L741.319 507.419L738.824 506.824L735.15 507.811L735.012 508.756H732.91L732.326 506.994L727.633 509.924L724.703 508.459L724.416 501.133L727.633 500.252L729.682 497.619L725.584 493.223H722.356L718.258 486.768L709.457 487.947L702.715 486.471L698.319 484.719L695.389 480.61L693.626 487.065L690.112 489.412L693.329 493.51V497.035L695.389 499.965L695.092 505.826L696.854 509.638L689.528 517.547L686.884 523.121L686.003 530.447L682.489 531.626L681.024 534.259L676.628 536.605V533.675L673.103 532.794L668.124 521.359L664.896 521.953L662.847 524.884L658.154 523.705L652.878 520.488L649.066 513.449H643.492L641.443 515.201L637.631 513.746L634.998 515.795L631.792 514.511L632.493 512.398L634.775 503.671L637.43 501.399Z" fill="#FFFFFF" stroke="black" stroke-width="2"/>
<path d="M735.012 508.755L736.318 511.293L734.312 513.904L722.601 514.552L721.996 515.826L717.845 517.015L718.588 519.266L717.59 521.113L717.547 529.342L714.882 531.837L715.668 535.192L714.564 542.634L710.657 553.973L714.044 561.448L716.634 563.72L715.753 569.252L716.9 570.961L717.579 575.42L719.862 578.892L723.546 581.865L727.315 583.139L729.067 586.366L727.464 589.658L729.407 593.66L728.748 600.763L735.193 618.335L737.508 619.779L740.916 619.832L744.005 624.875L752.34 626.552L753.869 631.596L751.671 632.031L748.74 634.377L740.831 643.466L734.673 642.584L731.445 639.07L731.158 635.258L728.218 636.426L727.347 638.189L722.654 639.951L718.843 636.724L715.912 636.426L710.922 633.793H707.705V634.579L707.992 627.933L709.17 625.289L706.24 618.844L703.299 616.785L701.834 619.428L698.022 620.596L690.994 613.854L688.35 615.914L680.727 616.498L679.262 612.686L676.034 612.389L673.688 610.043L667.827 609.459L668.411 607.41L666.362 603.885L666.659 601.836L661.382 596.272L657.571 594.51L654.641 595.391L655.511 598.608L660.204 603.301V606.528L656.987 606.826L655.511 604.479H653.175L652.294 606.528H649.651L648.769 603.014L646.72 601.549L642.027 593.045L639.097 595.094L631.474 592.747L628.544 590.698L627.662 586.887L624.732 584.243L620.039 576.62L619.753 572.224L621.504 568.413L620.92 565.78L618.574 563.136L620.92 559.038L616.525 553.167L615.41 549.971L615.431 549.95L620.358 544.641L618.086 535.914L618.468 534.024L623.776 533.642L626.049 526.433L630.221 519.224L631.792 514.51L634.999 515.794L637.632 513.745L641.443 515.2L643.493 513.448H649.067L652.878 520.487L658.155 523.704L662.848 524.882L664.897 521.952L668.124 521.358L673.104 532.792L676.629 533.673V536.604L681.024 534.257L682.489 531.624L686.004 530.446L686.885 523.12L689.529 517.546L696.854 509.636L695.092 505.825L695.389 499.964L693.329 497.034V493.509L690.112 489.411L693.627 487.064L695.389 480.609L698.32 484.718L702.715 486.47L709.457 487.945L718.259 486.767L722.357 493.222H725.584L729.683 497.618L727.634 500.251L724.417 501.132L724.703 508.458L727.634 509.923L732.326 506.993L732.91 508.755H735.012Z" fill="#FFFFFF" stroke="black" stroke-width="2"/>
<path d="M398.363 498.044L397.726 498.235L397.981 502.099L396.696 505.699L399.531 511.092L395.932 518.291L402.865 526.774L401.071 530.638V536.287L402.865 542.2V547.35L406.73 549.664L404.925 557.372L408.269 565.091L413.153 572.035V576.653L415.213 581.027L412.123 583.597L407.759 581.548L403.64 583.862L403.13 587.461L399.786 589.256L395.666 589.51L392.067 592.6L387.183 600.053L382.809 600.308L382.299 597.994L380.505 598.769L377.67 603.653L378.445 607.772L383.074 608.802L390.783 617.03L395.412 624.993L396.187 629.622L400.296 633.221L401.325 637.075L403.895 640.42L402.865 645.824L407.494 648.648L411.868 649.423L415.213 647.109L423.441 645.049L426.785 645.304L429.61 647.109L428.994 649.71H425.384L423.494 654.265L425.384 659.955L421.211 660.72L418.939 663.746L423.112 667.164L424.63 670.201L427.667 670.573L428.803 675.51L412.866 679.3L410.976 686.127L405.657 686.509L403.003 690.299L401.113 695.236L397.312 700.545L396.887 703.857L383.775 689.407L381.142 683.547L376.418 686.626L369.124 686.413L366.735 684.683L364.855 685.989L363.273 683.844L358.305 683.164L355.895 674.235L354.376 672.091L352.805 672.261L351.265 675.775L349.153 674.289L342.559 672.484L337.803 669.49L333.577 661.813L324.128 655.91L321.081 646.588L314.498 644.019L312.566 641.343L311.281 636.003L307.321 634.814L301.248 629.452L294.984 626.957L290.111 623.708L280.534 613.006L280.014 606.296L282.71 606.859L283.581 605.702L284.059 594.309L286.543 593.301L294.814 595.063L299.91 592.696L301.259 593.396L301.853 595.361L303.212 595.382L305.166 599.703L306.981 599.968L311.016 597.112L317.503 597.293L318.48 596.125L317.259 594.288L316.377 594.363L317.503 590.838L315.932 587.652L317.45 586.474L319.159 588.502L321.028 586.973L318.363 570.41L312.269 565.261L311.133 561.29L308.669 559.241L303.849 557.479L302.267 547.912L300.059 546.023L297.458 540.969L293.784 538.835L293.243 534.184L289.633 532.581L289.155 529.63L283.984 525.478L281.213 520.403L280.725 515.052L282.456 514.585L285.545 517.983L291.13 518.503L295.122 521.327L297.086 521.147L298.7 523.44L302.066 525.33L304.125 524.088L307.618 525.723L321.06 526.052L323.034 522.654L326.623 520.584L326.347 517.855L334.097 514.628L333.259 511.018L334.533 508.215L333.843 507.376L331.868 507.833L331.38 504.488L329.564 504.095L328.715 508.066L327.738 508.597L324.818 504.032L319.669 502.375L318.066 500.507L330.881 491.557L333.45 492.321L335.244 494.381L336.274 491.036L336.019 486.927L338.843 486.407L354.015 495.411L357.105 499.785L358.135 503.639H362.498L363.783 501.324L362.498 497.47L359.419 494.901L358.135 492.066H361.734L364.558 494.636L366.873 491.811L370.992 489.752L375.101 490.781L377.925 496.186L381.524 498.755L385.389 496.186L389.498 495.665L397.471 496.44L398.363 498.044Z" fill="#FFFFFF" stroke="black" stroke-width="2"/>
<path d="M475.742 542.826L474.701 542.369L468.628 544.259L464.838 548.814L465.22 555.259L458.011 558.677L454.974 563.604L452.32 565.886L446.247 566.258L447.012 569.677L450.048 574.232L450.802 579.54L448.148 582.194L443.593 580.294L440.185 582.194L438.667 585.985L442.457 589.786L439.42 597.749L431.84 604.575L435.248 608.748L440.939 609.884L443.211 614.821L447.765 618.229L444.729 629.611L447.765 632.265L447.383 642.128L442.457 644.029L437.902 650.091L437.148 654.646L433.358 653.128L429.185 649.709H428.994L429.61 647.108L426.786 645.303L423.441 645.048L415.213 647.108L411.869 649.422L407.495 648.647L402.865 645.823L403.895 640.419L401.326 637.075L400.296 633.22L396.187 629.621L395.412 624.992L390.783 617.029L383.075 608.801L378.446 607.771L377.671 603.652L380.506 598.768L382.3 597.993L382.81 600.307L387.184 600.052L392.068 592.599L395.667 589.51L399.786 589.255L403.131 587.46L403.64 583.861L407.76 581.547L412.124 583.596L415.213 581.026L413.153 576.652V572.034L408.27 565.09L404.925 557.371L406.73 549.663L402.865 547.349V542.2L401.071 536.286V530.637L402.865 526.773L395.932 518.29L399.532 511.091L396.697 505.698L397.982 502.099L397.727 498.234L400.296 497.469L406.73 496.694L412.124 491.81L418.292 492.32L422.157 490.526H426.786L428.325 486.672L432.434 485.642L435.269 480.493L438.613 479.473L444.262 472.53L446.576 468.665L449.146 471.755L449.411 478.443L454.04 484.612L457.639 484.867L460.209 487.691L462.778 493.095L463.033 497.724L473.066 505.698L476.665 510.836L475.89 513.151L472.036 513.661L462.003 522.154L465.093 529.087L468.437 532.177L472.036 537.581L476.145 540.405L475.742 542.826Z" fill="#FFFFFF" stroke="black" stroke-width="2"/>
<path d="M519.431 563.594L518.698 562.925L514.154 570.134L513.772 575.825L511.118 579.615L510.736 582.652L517.945 587.96L517.18 591.379H513.008V594.405L514.908 597.824L515.29 602.75L517.18 607.305L513.008 609.959L508.463 608.823L505.427 606.551L502.39 606.169L499.354 608.441L495.181 606.551L493.281 609.577L498.218 613.76L495.181 624.377L495.564 630.068L501.637 630.822L506.181 635.376L505.427 642.203L499.736 647.512L502.773 650.166L499.938 656.048H499.726L496.901 656.728L492.729 660.422L489.363 661.399L481.252 666.464L472.439 669.171L473.087 672.069L478.98 678.089L478.067 683.111L478.704 685.819L479.744 687.071L482.239 686.626L482.175 691.286L484.352 698.326L484.501 702.381L483.98 703.847L476.007 705.004L476.06 707.499L472.089 705.513L466.78 707.425L456.397 714.697L454.826 717.999L455.08 720.186L460.378 728.128L460.283 729.275L459.487 731.069L457.873 733.766L455.664 735.061L435.481 738.236L437.774 735.21L437.976 725.813L436.681 723.149L430.289 719.74L429.78 717.16L423.505 715.971L420.161 713.328L409.681 708.603L405.095 710.281L400.168 705.545L396.888 703.857L397.312 700.545L401.113 695.236L403.003 690.299L405.657 686.509L410.977 686.127L412.867 679.3L428.803 675.509L427.667 670.572L424.63 670.201L423.112 667.164L418.94 663.746L421.212 660.72L425.384 659.955L423.494 654.264L425.384 649.71H429.185L433.358 653.128L437.148 654.647L437.902 650.092L442.457 644.029L447.383 642.129L447.765 632.266L444.729 629.611L447.765 618.23L443.21 614.822L440.938 609.885L435.248 608.749L431.839 604.576L439.42 597.749L442.457 589.786L438.666 585.985L440.184 582.195L443.593 580.295L448.147 582.195L450.802 579.541L450.048 574.232L447.011 569.677L446.247 566.259L452.32 565.887L454.974 563.604L458.011 558.678L465.22 555.259L464.838 548.815L468.628 544.26L474.701 542.37L478.109 543.888L486.454 556.778L492.909 556.406L497.082 553.369L494.428 551.469L495.181 548.061L498.972 546.543L502.773 545.396L509.217 546.16L513.008 548.433L514.154 555.259L519.431 563.594Z" fill="#FFFFFF" stroke="black" stroke-width="2"/>
<path d="M591.533 633.932L591.151 633.104L582.424 630.068L578.634 631.957L574.461 628.549L571.053 628.931L570.289 631.204H567.252L562.708 633.858L555.87 634.24L553.981 636.894L554.363 642.957L552.462 645.993L548.29 646.375L547.536 652.82L545.253 657.375L539.945 660.794L536.908 659.275L533.118 655.485L528.181 658.139L525.527 655.103L523.254 656.621L522.118 661.547L520.218 662.312V671.793L517.946 674.829L516.81 678.62L517.097 684.141L516.884 684.045L513.179 681.816L509.505 680.987L506.065 677.547L505.11 673.12L506.532 671.846L508.9 671.559L513.773 673.237L514.071 670.944L506.766 658.437L503.124 656.143L500.417 656.048H499.939L502.774 650.166L499.737 647.511L505.428 642.203L506.182 635.376L501.638 630.821L495.565 630.068L495.183 624.377L498.219 613.76L493.282 609.576L495.183 606.551L499.355 608.44L502.392 606.168L505.428 606.551L508.465 608.823L513.009 609.959L517.181 607.304L515.292 602.75L514.909 597.823L513.009 594.404V591.379H517.181L517.946 587.96L510.737 582.651L511.119 579.615L513.773 575.824L514.156 570.134L518.7 562.925L523.254 567.097L526.291 565.197L534.254 568.233H538.426L542.599 569.751L546.771 568.233L544.871 564.443L545.253 561.406L548.29 562.542H552.08L555.87 558.752L558.907 557.616L559.671 546.617L563.079 543.58L564.226 548.506L561.561 550.025L562.708 557.998L569.906 557.616L571.425 554.579L575.225 554.962L575.979 557.616L579.016 558.752L574.461 561.024L576.744 562.925L580.152 563.307L580.534 565.961H583.942L586.979 564.443L591.533 559.516L593.052 563.689V567.479L596.088 569.369L594.942 572.406L591.151 575.06L589.633 579.615L593.806 587.578L597.978 589.096L599.496 600.86L603.287 603.132L602.915 608.823L599.496 613.76L601.015 619.44L604.051 622.858L601.015 626.649L597.224 627.031L594.942 630.821L591.533 633.932Z" fill="#FFFFFF" stroke="black" stroke-width="2"/>
<path d="M707.705 634.579V637.903L705.943 642.882L698.022 644.931H696.271L693.627 642.585L689.529 640.833H686.588L682.49 638.486L681.608 639.654L680.727 642.882L682.192 646.991L681.906 648.743L685.42 651.673V655.198L680.44 658.415L677.797 665.454L678.678 668.098L685.717 671.315L692.459 676.889L700.082 677.77L701.547 680.7L700.369 686.274L697.438 686.561L693.924 688.44V688.122L691.864 689.29L689.815 693.398L687.469 693.685L686.301 691.339L681.024 691.933L680.727 687.824L677.499 686.657L667.827 676.687L663.134 675.222L658.452 674.925L650.532 680.201L650.235 676.103L647.888 674.043L642.622 676.39L636.082 677.441L635.53 675.965L632.493 666.856L631.357 659.275L627.567 656.621L622.258 656.238L620.358 664.201L618.468 661.929L612.777 660.029L610.877 656.621L612.777 654.338V650.93L608.222 650.165L604.804 647.511L603.668 644.103L606.322 640.684L607.086 636.512L599.877 637.648L593.051 637.276L591.532 633.932L594.94 630.821L597.223 627.031L601.013 626.648L604.05 622.858L601.013 619.439L599.495 613.759L602.914 608.822L603.285 603.131L599.495 600.859L597.977 589.095L593.804 587.577L589.632 579.614L591.15 575.06L594.94 572.405L596.087 569.369L593.051 567.479V563.689L591.946 560.663L600.26 552.604L613.149 551.85L615.41 549.971L616.525 553.167L620.921 559.038L618.574 563.136L620.921 565.78L621.505 568.413L619.753 572.225L620.039 576.62L624.732 584.243L627.663 586.887L628.544 590.699L631.474 592.748L639.097 595.094L642.028 593.045L646.72 601.549L648.769 603.015L649.651 606.529H652.294L653.176 604.48H655.511L656.987 606.826L660.204 606.529V603.301L655.511 598.608L654.641 595.391L657.571 594.51L661.383 596.273L666.659 601.836L666.362 603.885L668.411 607.41L667.827 609.459L673.688 610.043L676.034 612.389L679.262 612.687L680.727 616.498L688.35 615.914L690.994 613.855L698.022 620.597L701.834 619.429L703.299 616.785L706.24 618.845L709.17 625.289L707.992 627.933L707.705 634.579Z" fill="#FFFFFF" stroke="black" stroke-width="2"/>
<path d="M579.801 733.458L579.472 733.001L575.31 734.031L572.889 729.243L569.28 725.665L562.771 724.029L556.603 724.613L556.051 723.095L559.066 713.954L557.059 707.966L555.159 706.543L552.324 707.254L548.757 712.266L548.481 694.949L546.824 688.706L544.775 688.844L542.323 691.053L540.305 685.16L537.056 681.847L530.049 685.043L525.144 682.824L522.925 684.289L522.129 684.576L519.91 685.33L517.765 684.427L517.096 684.141L516.81 678.62L517.946 674.83L520.218 671.793V662.312L522.118 661.547L523.254 656.621L525.526 655.103L528.181 658.139L533.118 655.485L536.908 659.275L539.944 660.794L545.253 657.375L547.536 652.82L548.289 646.376L552.462 645.993L554.362 642.957L553.98 636.894L555.87 634.24L562.708 633.858L567.252 631.204H570.288L571.053 628.932L574.461 628.549L578.633 631.957L582.424 630.068L591.151 633.104L593.051 637.277L599.878 637.648L607.087 636.512L606.323 640.685L603.669 644.103L604.805 647.512L608.223 650.166L612.778 650.93V654.338L610.878 656.621L612.778 660.029L618.469 661.93L620.359 664.202L622.259 656.239L627.568 656.621L631.358 659.275L632.494 666.856L635.531 675.966L636.667 679.002L632.123 685.065L625.296 688.101L622.259 688.483L616.186 694.174L611.26 694.546L608.977 697.582L602.15 701.001H595.706L593.805 704.037L586.225 708.964L588.879 713.901V718.063L586.978 718.827L586.596 722.617L588.114 725.654L585.46 730.209L579.801 733.458Z" fill="#FFFFFF" stroke="black" stroke-width="2"/>
<path d="M693.923 688.441L697.438 686.562L700.368 686.275L701.547 680.701L700.081 677.771L692.458 676.889L685.716 671.315L678.677 668.098L677.796 665.455L680.44 658.416L685.419 655.199V651.674L681.905 648.743L682.191 646.992L680.726 642.883L681.607 639.655L682.489 638.487L686.587 640.834H689.528L693.626 642.585L696.27 644.932H698.022L705.942 642.883L707.704 637.903V633.794H710.921L715.912 636.428L718.842 636.725L722.653 639.952L727.346 638.19L728.217 636.428L731.158 635.26L731.444 639.071L734.672 642.585L740.83 643.467L748.74 634.378L751.67 632.032L753.868 631.597L755.248 632.786L761.141 632.531L767.139 636.003L767.649 638.53L771.1 642.416L775.378 644.889L777.873 651.09L777.618 653.733L781.08 656.802L781.26 658.607L785.019 664.467L790.954 668.831L793.831 668.077L799.999 671.018L797.228 675.775L798.715 677.335L798.428 681.508L796.453 686.583L788.002 692.03L784.923 700.449L780.421 702.806L778.213 706.341L769.433 710.365L769.305 714.718L767.5 716.799L768.785 719.963L764.071 728.287L759.76 728.213L758.646 729.572L757.457 728.733L755.004 731.876L754.335 730.177L751.999 728.977L749.632 729.837L746.616 726.503L741.881 727.236L740.48 729.965L740.522 732.396L735.362 729.317L732.995 730.708L721.475 728.287L713.565 719.199L717.079 715.09L705.358 708.348L700.081 706.299H696.556L695.675 704.239L691.864 703.071L689.815 699.844L692.161 697.211L696.27 696.913L696.556 694.864L698.616 693.686L697.14 691.053L693.923 690.756V688.441Z" fill="#FFFFFF" stroke="black" stroke-width="2"/>
<path d="M732.995 730.707L732.57 733.542L731.275 735.018L726.964 738.479L723.089 739.679L719.426 739.573L716.676 741.855H714.383L712.557 745.985L709.35 748.268L704.764 749.192L703.851 751.942L701.833 753.205H697.735L692.161 751.443V745.285H690.399L689.528 746.75L686.587 742.057L678.677 745.869L677.499 743.235L677.796 739.127L671.638 738.543L667.54 741.77L664.015 738.84H661.382L658.738 744.701L652.294 745.582L649.066 743.235L645.839 743.522L643.492 745.285H639.097L637.048 748.512V750.859L634.404 754.086L633.236 761.699L629.424 762.877L629.318 764.81L629.191 764.735L626.409 764.884L621.164 771.021L618.34 772.178L614.964 769.29L609.676 759.989L605.175 757.08L599.803 755.796L592.933 755.923L592.795 755.87L586.765 752.706L576.742 751.963L576.232 746.973L579.534 741.08L580.479 734.423L579.8 733.457L585.459 730.208L588.113 725.653L586.595 722.617L586.977 718.827L588.877 718.062V713.9L586.223 708.963L593.804 704.037L595.704 701H602.149L608.976 697.582L611.258 694.545L616.185 694.174L622.258 688.483L625.294 688.101L632.121 685.064L636.665 679.002L636.081 677.441L642.622 676.39L647.888 674.043L650.234 676.103L650.531 680.201L658.452 674.925L663.134 675.222L667.827 676.687L677.499 686.657L680.727 687.825L681.024 691.933L686.301 691.339L687.468 693.685L689.815 693.399L691.864 689.29L693.924 688.122V690.755L697.141 691.052L698.616 693.685L696.557 694.864L696.27 696.913L692.161 697.21L689.815 699.843L691.864 703.071L695.675 704.239L696.557 706.298H700.082L705.358 708.348L717.08 715.089L713.565 719.198L721.475 728.287L732.995 730.707Z" fill="#FFFFFF" stroke="black" stroke-width="2"/>
<path d="M723.088 739.679L722.217 740.263L722.504 743.416L724.479 745.964L725.041 748.64L730.467 755.53L730.053 758.896L728.811 759.098L726.347 764.396L724.808 765.277L727.133 767.889L724.128 772.996L725.615 774.45L722.016 783.984L721.761 787.838L726.124 788.953L729.925 793.646L733.206 795.355L736.593 798.817L738.313 803.095L736.243 807.225L735.022 814.647L733.355 816.335L732.983 819.159L727.324 820.104L727.568 822.673L724.712 826.156L725.105 829.107L723.81 831.263L721.145 833.121L720.02 831.677L717.312 831.655L716.452 832.717L711.929 833.397L711.271 835.01L709.148 835.902L698.042 826.867L694.783 830.095L689.57 832.133L689.708 834.628L691.173 836.89L690.684 838.217L689.198 836.826L685.896 836.943L683.284 835.085L677.434 838.557L667.465 835.849L665.426 836.677L661.476 833.662L652.707 829.649L651.56 831.04L650.456 836.55L647.43 837.346L641.973 835.159L636.356 836.03L628.128 844.566L614.719 847.655L606.533 845.171L606.671 837.049L603.995 835.754L602.509 832.526L602.753 829.001L604.898 825.03L609.006 822.058L610.472 815.05L609.357 812.545L610.355 809.625L614.294 806.004L621.375 802.416L624.051 799.252L626.801 787.032L630.421 780.757L635.889 777.625L633.936 774.397L633.341 768.09L630.262 765.372L629.317 764.81L629.423 762.877L633.235 761.699L634.403 754.086L637.046 750.859V748.512L639.096 745.285H643.491L645.837 743.522L649.065 743.236L652.293 745.582L658.737 744.701L661.381 738.84H664.014L667.539 741.771L671.637 738.543L677.795 739.127L677.498 743.236L678.676 745.869L686.586 742.057L689.527 746.75L690.398 745.285H692.16V751.443L697.734 753.205H701.832L703.85 751.942L704.763 749.192L709.349 748.268L712.556 745.986L714.382 741.856H716.675L719.425 739.573L723.088 739.679Z" fill="#FFFFFF" stroke="black" stroke-width="2"/>
<path d="M492.165 780.322L493.28 777.816L494.044 770.225L500.489 767.953L501.253 763.78L506.562 761.88L509.598 765.299L512.635 761.126L516.425 759.979L519.462 762.634L520.216 766.052L525.142 764.916L532.733 759.226L535.77 752.017L533.869 747.09L536.524 744.054L541.843 742.535L540.324 737.227L535.016 734.572L533.869 719.401L535.388 714.464L535.77 707.637L528.561 701.192L525.906 695.873V689.046L522.594 684.406L522.923 684.29L525.142 682.824L530.047 685.043L537.054 681.848L540.303 685.16L542.321 691.053L544.773 688.844L546.822 688.706L548.478 694.949L548.755 712.266L552.322 707.255L555.157 706.543L557.057 707.966L559.064 713.954L556.049 723.095L556.601 724.614L562.769 724.03L569.277 725.665L572.887 729.243L575.308 734.031L579.47 733.001L580.479 734.424L579.534 741.081L576.232 746.973L576.741 751.963L586.764 752.707L592.794 755.871L592.879 755.902L590.013 763.398L584.322 761.498L580.532 762.634L587.359 769.089L587.741 775.533H582.804L576.359 777.434L575.595 780.842L572.187 785.397L568.386 786.915L562.705 793.742L568.386 798.679L566.496 803.223L563.459 804.37L563.077 809.678L566.496 813.086L567.632 816.123L564.978 817.641L566.878 824.85L560.805 827.505L559.287 829.405L562.323 830.159V833.949L560.805 838.886L563.842 841.158V843.812L565.36 845.331L575.977 847.231L577.262 849.164L571.55 854.642L568.471 860.174L565.116 870.685L562.621 873.625L559.881 874.22L554.137 873.328L551.441 866.746L547.767 863.03L546.302 856.957L543.796 854.791L539.486 854.493L534.23 858.199L532.139 861.31L523.072 867.032L522.116 861.267L516.043 857.466L510.734 857.848L507.316 855.576L507.698 852.54L515.289 845.713L519.462 844.195L522.488 840.404L522.87 834.714L520.216 825.222L515.289 822.95L519.462 819.159L520.598 814.987L516.807 810.05L513.771 808.542L512.635 803.605L501.253 797.532H497.835L497.081 792.606L498.599 790.334L496.316 786.161L497.835 783.125L494.426 781.224L492.165 780.322Z" fill="#FFFFFF" stroke="#666666" stroke-width="2"/>
<path d="M497.835 797.533H495.563L491.773 799.815L486.082 800.187L481.909 793.36L479.627 792.606L475.083 796.396L464.837 795.643L458.01 801.705L459.529 814.605L458.764 824.85L463.319 829.023L471.282 832.431L467.109 833.578L462.565 838.886L457.628 842.677L455.091 850.565L454.57 848.495L449.283 842.857L441.819 840.267L440.449 837.888L434.833 835.871L434.971 834.565L432.646 832.421L431.021 832.474L428.41 834.714L426.159 833.1L421.636 834.087L419.778 832.973L420.011 831.008L418.631 828.63L419.682 827.781L419.852 824.712L419.109 822.759L414.82 818.905L417.315 815.794L416.349 812.513L412.601 809.233L413.28 807.247L411.242 805.092L408.97 799.157L400.019 794.294L398.214 790.929L396.282 790.111L398.374 784.059L397.673 778.05L405.37 769.588L400.678 763.674L394.732 760.181L392.619 754.352L395.22 748.619L408.832 752.686L420.457 753.567L421.912 752.898L426.626 746.676L425.511 743.215L426.339 741.739L431.765 737.684L435.481 738.236L455.664 735.061L457.872 733.766L459.486 731.069L460.028 729.837L462.565 730.4L466.355 726.981L472.046 729.264L477.355 738.745L476.973 747.09L473.936 749.745L476.219 751.263V758.09L472.8 758.844L473.564 762.262L475.836 763.781L476.973 768.707L480.009 769.089L482.281 766.435L483.799 766.817L486.454 775.916L488.354 776.67L490.626 779.706L494.427 781.225L497.835 783.125L496.317 786.162L498.6 790.334L497.081 792.606L497.835 797.533Z" fill="#FFFFFF" stroke="#666666" stroke-width="2"/>
<path d="M523.072 867.032L516.149 869.23L510.49 875.324L505.617 875.367L502.612 877.14L496.338 878.764L490.668 888.118L491.103 896.75L492.919 900.997L492.452 904.808L494.511 908.662L488.162 915.595L479.074 921.159L472.948 931.68L471.313 932.806L469.2 931.999L465.718 932.678L463.35 925.278L463.318 917.432L465.07 916.041L467.937 915.691L465.516 908.588L471.43 904.076L472.077 897.567L470.325 895.168L467.947 885.23L464.656 882.034L462.501 877.862L463.987 875.016L463.339 873.095L464.189 870.408L462.851 865.949L460.844 863.433L458.211 853.771L455.09 850.565L457.627 842.676L462.564 838.886L467.108 833.578L471.281 832.431L463.318 829.023L458.763 824.85L459.528 814.605L458.01 801.705L464.836 795.642L475.082 796.396L479.626 792.606L481.909 793.36L486.081 800.187L491.772 799.815L495.562 797.532H501.253L512.635 803.605L513.771 808.542L516.807 810.05L520.598 814.987L519.462 819.159L515.289 822.95L520.216 825.222L522.87 834.714L522.488 840.404L519.462 844.195L515.289 845.713L510.352 849.886L507.698 852.54L507.316 855.576L510.734 857.848L516.043 857.466L522.116 861.267L523.072 867.032Z" fill="#FFFFFF" stroke="#666666" stroke-width="2"/>
<path d="M522.595 684.406L525.907 689.046V695.873L528.561 701.192L535.77 707.637L535.388 714.464L533.87 719.4L535.017 734.572L540.325 737.227L541.843 742.535L536.524 744.054L533.87 747.09L535.77 752.016L532.734 759.225L525.143 764.916L520.216 766.052L519.462 762.634L516.426 759.979L512.636 761.126L509.599 765.298L506.563 761.88L501.254 763.78L500.49 767.953L494.045 770.225L493.281 777.816L492.166 780.322L490.626 779.706L488.354 776.669L486.454 775.916L483.799 766.817L482.281 766.434L480.009 769.089L476.973 768.707L475.837 763.78L473.564 762.262L472.8 758.843L476.219 758.089V751.263L473.936 749.744L476.973 747.09L477.355 738.745L472.046 729.264L466.355 726.981L462.565 730.4L460.028 729.837L460.282 729.274L460.378 728.128L455.08 720.186L454.825 717.999L456.397 714.697L466.78 707.424L472.089 705.513L476.06 707.499L476.006 705.004L483.98 703.846L484.5 702.381L484.352 698.325L482.175 691.286L482.239 686.625L479.744 687.071L478.703 685.818L478.066 683.111L478.979 678.089L473.087 672.069L472.439 669.171L481.251 666.463L489.363 661.399L492.728 660.422L496.901 656.727L499.725 656.048H500.415L503.123 656.143L506.764 658.437L514.069 670.944L513.772 673.237L508.898 671.56L506.531 671.846L505.108 673.12L506.064 677.548L509.504 680.988L513.177 681.816L516.882 684.045L517.764 684.428L519.908 685.33L522.127 684.576L522.595 684.406Z" fill="#FFFFFF" stroke="#666666" stroke-width="2"/>
<path d="M577.262 849.164L575.977 847.231L565.36 845.331L563.842 843.813V841.158L560.805 838.886L562.324 833.949V830.159L559.287 829.405L560.805 827.505L566.878 824.85L564.978 817.641L567.632 816.123L566.496 813.087L563.077 809.678L563.46 804.37L566.496 803.223L568.386 798.679L562.706 793.742L568.386 786.915L572.187 785.397L575.595 780.842L576.36 777.434L582.804 775.534H587.741L587.359 769.089L580.532 762.634L584.322 761.498L590.013 763.398L592.88 755.903L592.933 755.924L599.802 755.796L605.174 757.081L609.676 759.99L614.964 769.291L618.34 772.179L621.164 771.021L626.409 764.885L629.191 764.736L630.263 765.373L633.342 768.091L633.936 774.398L635.89 777.625L630.422 780.757L626.802 787.032L624.052 799.252L621.376 802.416L614.295 806.005L610.356 809.625L609.358 812.545L610.472 815.051L609.007 822.058L604.898 825.031L602.754 829.002L602.51 832.527L603.996 835.754L606.672 837.05L606.533 845.172L593.432 846.785L588.527 844.269H585.14L582.284 848.792L577.262 849.164Z" fill="#FFFFFF" stroke="#666666" stroke-width="2"/>
</svg>
