<?xml version="1.0" encoding="utf-8"?>
<svg fill="#FFFFFF" viewBox="0 0 1024 1024" xmlns="http://www.w3.org/2000/svg">
  <g transform="matrix(1.600327, 0, 0, 1.600327, -301.454224, -402.233276)" >
    <path id="TV" title="Tuvalu"  d="M 799.5 797.79 L 799.63 793.66 L 798.46 791.22 L 797.91 790.98 L 799.07 793.9 L 799.32 798.23 L 799.5 797.79 Z" />
    <path id="TV" title="Tuvalu"  d="M 217.66 323.67 L 217.6 322.79 L 216.98 321.33 L 217.04 321.8 L 217.46 322.8 L 217.51 323.29 L 217.51 323.91 L 217.66 323.67 Z" />
    <path id="TV" title="Tuvalu"  d="M 543.32 386.47 L 543.17 384.37 L 542.69 382.53 L 542.1 382.32 L 537.22 377.99 L 537.8 380.03 L 540.93 385.97 L 542.76 387.49 L 543.32 386.47 Z" />
    <path id="TV" title="Tuvalu"  d="M 479.18 500.11 L 477.6 502.82 L 475.98 506.41 L 475.52 509.17 L 477.05 509.38 L 479.18 500.11 Z" />
    <path id="TV" title="Tuvalu"  d="M 652.31 607.63 L 653.96 605.63 L 653.53 603.65 L 651.78 600.9 L 651.6 595.68 L 650.12 592.81 L 649.73 597.28 L 649.85 600.76 L 650.74 603.3 L 651.12 605.28 L 650.26 607.54 L 648.4 610.22 L 652.31 607.63 Z" />
    <path id="TV" title="Tuvalu"  d="M 793.65 785.4 L 792.56 782.42 L 791.41 781.63 L 791.32 781.88 L 792.24 783.13 L 793.34 785.87 L 793.65 785.4 Z" />
  </g>
</svg>