<?xml version="1.0" encoding="utf-8"?>
<svg viewBox="0 0 1024 1024" xmlns="http://www.w3.org/2000/svg">
  <g transform="matrix(1, 0, 0, 1, -6.659027, 29.62999)" fill="#FFFFFF" stroke="none">
    <path id="XK-PR" title="Pristina"  d="M 464.459 452.272 L 465.699 446.102 L 463.499 442.792 L 464.049 438.922 L 466.529 436.442 L 469.569 428.992 L 477.299 425.672 L 482.269 425.952 L 483.919 422.642 L 481.439 415.742 L 482.819 411.602 L 487.789 411.602 L 488.339 408.562 L 491.099 406.632 L 496.069 406.632 L 499.659 409.112 L 499.929 412.432 L 503.239 413.532 L 509.039 409.392 L 510.149 402.212 L 515.389 401.942 L 522.289 398.622 L 525.329 398.622 L 526.979 402.762 L 536.369 414.362 L 539.959 414.082 L 549.619 404.422 L 564.249 394.212 L 563.139 389.242 L 563.969 387.032 L 567.009 386.482 L 568.109 377.372 L 563.699 374.612 L 563.969 371.572 L 575.009 361.362 L 577.499 360.812 L 577.499 358.602 L 583.289 358.322 L 584.399 353.082 L 583.019 347.562 L 577.219 342.042 L 573.629 341.212 L 572.249 326.302 L 569.219 321.892 L 568.389 316.092 L 566.179 312.782 L 566.179 306.712 L 570.039 302.572 L 570.599 294.012 L 573.359 286.282 L 573.079 279.382 L 564.799 257.852 L 558.169 255.362 L 556.239 251.782 L 557.069 246.812 L 551.269 243.772 L 549.889 237.532 L 546.309 233.122 L 548.509 222.082 L 544.369 215.452 L 538.579 218.492 L 532.679 207.642 L 540.389 205.092 L 545.169 201.402 L 560.069 206.652 L 572.779 199.182 L 575.929 198.942 L 584.109 207.262 L 589.199 222.102 L 595.359 216.532 L 598.899 215.162 L 600.519 216.202 L 602.909 220.402 L 604.679 231.882 L 605.369 275.452 L 606.929 275.452 L 614.339 262.862 L 618.469 260.642 L 621.479 261.062 L 626.259 264.652 L 631.319 279.702 L 623.729 302.702 L 625.119 306.522 L 640.629 305.062 L 657.019 309.162 L 666.089 318.162 L 672.189 330.212 L 674.469 331.202 L 682.649 327.622 L 685.179 331.202 L 684.309 343.532 L 680.949 353.462 L 674.509 362.772 L 674.199 371.092 L 675.789 375.322 L 701.009 377.202 L 705.229 381.062 L 715.979 385.072 L 716.339 389.402 L 712.749 397.132 L 708.609 398.512 L 707.509 406.522 L 697.849 405.692 L 694.259 402.102 L 691.499 401.552 L 685.149 406.242 L 690.939 412.042 L 690.939 415.352 L 697.569 417.562 L 699.499 420.872 L 703.639 421.982 L 705.019 425.562 L 703.089 426.942 L 706.129 432.472 L 702.809 433.852 L 701.989 439.642 L 705.299 443.232 L 709.159 444.892 L 710.269 451.242 L 715.509 455.102 L 718.269 462.002 L 713.029 463.932 L 711.369 466.422 L 704.749 462.832 L 701.709 464.762 L 699.229 461.452 L 694.259 461.452 L 689.009 467.802 L 690.119 476.082 L 685.699 478.562 L 679.079 476.352 L 677.139 471.942 L 671.349 470.562 L 669.969 468.072 L 660.859 471.942 L 656.989 470.562 L 654.789 467.802 L 650.089 467.522 L 644.849 470.832 L 640.709 478.842 L 647.059 486.572 L 644.569 490.162 L 645.119 494.852 L 650.639 498.712 L 650.369 501.472 L 647.879 508.102 L 638.499 506.722 L 637.119 508.932 L 639.049 512.512 L 637.969 521.012 L 637.949 520.962 L 635.459 521.792 L 634.079 524.552 L 631.869 524.272 L 626.909 517.102 L 622.769 517.652 L 619.179 514.892 L 612.279 515.162 L 605.379 517.652 L 601.789 516.542 L 595.719 520.412 L 592.679 520.132 L 590.189 512.962 L 579.429 512.132 L 575.559 508.812 L 565.349 513.512 L 558.999 510.472 L 550.719 511.022 L 545.199 506.612 L 544.099 509.642 L 537.199 511.022 L 535.819 506.612 L 529.739 504.952 L 522.839 509.642 L 521.739 512.682 L 511.549 514.002 L 511.529 513.782 L 509.589 506.052 L 503.519 504.122 L 497.719 508.262 L 494.959 506.052 L 498.549 501.362 L 496.619 495.572 L 502.139 495.012 L 502.419 488.392 L 500.479 487.562 L 499.099 483.422 L 496.899 483.972 L 494.409 490.042 L 487.789 490.042 L 485.299 492.252 L 480.609 492.812 L 475.369 498.332 L 473.989 492.532 L 477.299 488.662 L 477.849 481.492 L 480.889 478.732 L 481.439 471.832 L 473.159 466.312 L 473.159 463.552 L 477.299 459.412 L 478.129 454.442 L 472.609 451.402 L 465.959 452.372 L 464.459 452.272 Z" />
    <path d="M 465.434 446.154 L 463.238 442.851 L 463.813 438.804 L 466.317 436.301 L 469.376 428.803 L 477.254 425.419 L 482.119 425.693 L 483.648 422.626 L 481.174 415.745 L 482.639 411.352 L 487.58 411.352 L 488.111 408.416 L 491.02 406.382 L 496.147 406.382 L 499.899 408.974 L 500.165 412.247 L 503.197 413.255 L 508.808 409.25 L 509.933 401.973 L 515.326 401.695 L 522.232 398.372 L 525.498 398.372 L 527.197 402.634 L 536.481 414.103 L 539.848 413.84 L 549.458 404.23 L 563.968 394.103 L 562.879 389.224 L 563.785 386.811 L 566.783 386.269 L 567.842 377.5 L 563.436 374.743 L 563.729 371.454 L 574.889 361.132 L 577.249 360.611 L 577.249 358.364 L 583.084 358.082 L 584.142 353.087 L 582.794 347.693 L 577.096 342.27 L 573.397 341.415 L 572.006 326.39 L 568.98 321.985 L 568.15 316.184 L 565.929 312.858 L 565.929 306.614 L 569.795 302.467 L 570.352 293.961 L 573.107 286.244 L 572.831 279.433 L 564.606 258.047 L 557.993 255.563 L 555.978 251.825 L 556.793 246.949 L 551.05 243.939 L 549.658 237.644 L 546.041 233.188 L 548.244 222.13 L 544.28 215.781 L 538.477 218.828 L 532.316 207.499 L 540.27 204.868 L 545.124 201.121 L 560.042 206.378 L 572.702 198.937 L 576.026 198.684 L 584.327 207.127 L 589.312 221.662 L 595.226 216.316 L 598.927 214.883 L 600.706 216.025 L 603.149 220.318 L 604.929 231.861 L 605.615 275.202 L 606.786 275.202 L 614.159 262.675 L 618.423 260.383 L 621.577 260.823 L 626.471 264.499 L 631.582 279.701 L 623.994 302.698 L 625.288 306.255 L 640.648 304.809 L 657.146 308.936 L 666.294 318.013 L 672.371 330.019 L 674.469 330.929 L 682.735 327.311 L 685.435 331.131 L 684.556 343.582 L 681.175 353.575 L 674.756 362.854 L 674.451 371.051 L 675.967 375.085 L 701.114 376.959 L 705.362 380.845 L 716.215 384.893 L 716.594 389.447 L 712.93 397.335 L 708.836 398.7 L 707.724 406.791 L 697.737 405.933 L 694.136 402.332 L 691.559 401.819 L 685.531 406.271 L 691.189 411.939 L 691.189 415.172 L 697.737 417.355 L 699.663 420.657 L 703.827 421.773 L 705.322 425.653 L 703.415 427.016 L 706.482 432.596 L 703.037 434.028 L 702.253 439.56 L 705.447 443.023 L 709.382 444.716 L 710.498 451.1 L 715.715 454.943 L 718.597 462.148 L 713.192 464.138 L 711.45 466.751 L 704.759 463.122 L 701.648 465.097 L 699.104 461.702 L 694.377 461.702 L 689.271 467.877 L 690.389 476.217 L 685.725 478.834 L 678.895 476.554 L 676.96 472.156 L 671.184 470.78 L 669.86 468.39 L 660.867 472.21 L 656.838 470.774 L 654.663 468.045 L 650.154 467.776 L 645.04 471.007 L 641.007 478.811 L 647.372 486.559 L 644.828 490.227 L 645.354 494.711 L 650.902 498.591 L 650.615 501.529 L 648.042 508.379 L 638.624 506.993 L 637.408 508.941 L 639.307 512.464 L 638.095 522.001 L 637.804 521.274 L 635.636 521.996 L 634.223 524.822 L 631.727 524.506 L 626.79 517.37 L 622.699 517.913 L 619.098 515.145 L 612.327 515.41 L 605.385 517.916 L 601.826 516.815 L 595.781 520.669 L 592.496 520.366 L 590.007 513.199 L 579.328 512.375 L 575.518 509.106 L 565.347 513.788 L 558.95 510.726 L 550.639 511.278 L 545.315 507.025 L 544.286 509.86 L 537.028 511.311 L 535.621 506.817 L 529.784 505.224 L 523.047 509.803 L 521.922 512.91 L 511.324 514.283 L 511.282 513.824 L 509.38 506.248 L 503.562 504.398 L 497.71 508.575 L 494.612 506.094 L 498.27 501.315 L 496.283 495.355 L 501.898 494.785 L 502.162 488.554 L 500.277 487.748 L 498.935 483.721 L 497.082 484.184 L 494.577 490.292 L 487.884 490.292 L 485.406 492.491 L 480.728 493.05 L 475.233 498.839 L 473.716 492.466 L 477.056 488.562 L 477.607 481.374 L 480.648 478.613 L 481.178 471.959 L 472.909 466.446 L 472.909 463.448 L 477.066 459.292 L 477.853 454.576 L 472.562 451.661 L 465.969 452.623 L 464.158 452.502 L 465.434 446.154 Z M 465.949 452.121 L 472.656 451.143 L 478.405 454.308 L 477.532 459.532 L 473.409 463.656 L 473.409 466.178 L 481.7 471.705 L 481.13 478.851 L 478.091 481.61 L 477.542 488.762 L 474.262 492.598 L 475.505 497.825 L 480.49 492.574 L 485.192 492.013 L 487.694 489.792 L 494.241 489.792 L 496.716 483.76 L 499.263 483.123 L 500.681 487.376 L 502.676 488.23 L 502.38 495.239 L 496.955 495.789 L 498.828 501.409 L 495.306 506.01 L 497.728 507.949 L 503.476 503.846 L 509.798 505.856 L 511.776 513.74 L 511.774 513.721 L 521.556 512.454 L 522.631 509.481 L 529.694 504.68 L 536.017 506.407 L 537.37 510.733 L 543.912 509.424 L 545.083 506.199 L 550.799 510.766 L 559.048 510.218 L 565.351 513.236 L 575.6 508.518 L 579.53 511.889 L 590.371 512.725 L 592.862 519.898 L 595.657 520.155 L 601.752 516.269 L 605.373 517.388 L 612.231 514.914 L 619.26 514.639 L 622.839 517.391 L 627.028 516.834 L 632.011 524.038 L 633.935 524.282 L 635.282 521.588 L 637.87 520.725 L 637.843 520.023 L 638.791 512.56 L 636.83 508.923 L 638.374 506.451 L 647.716 507.825 L 650.123 501.415 L 650.376 498.833 L 644.884 494.993 L 644.31 490.097 L 646.746 486.585 L 640.411 478.873 L 644.658 470.657 L 650.024 467.268 L 654.915 467.559 L 657.14 470.35 L 660.851 471.674 L 670.079 467.754 L 671.514 470.344 L 677.318 471.728 L 679.263 476.15 L 685.673 478.29 L 689.849 475.947 L 688.747 467.727 L 694.141 461.202 L 699.354 461.202 L 701.77 464.427 L 704.739 462.542 L 711.288 466.093 L 712.866 463.726 L 717.941 461.856 L 715.303 455.261 L 710.04 451.384 L 708.936 445.068 L 705.151 443.441 L 701.725 439.724 L 702.581 433.676 L 705.776 432.348 L 702.763 426.868 L 704.716 425.471 L 703.451 422.191 L 699.335 421.087 L 697.401 417.769 L 690.689 415.532 L 690.689 412.145 L 684.767 406.213 L 691.439 401.285 L 694.382 401.872 L 697.961 405.451 L 707.294 406.253 L 708.382 398.324 L 712.568 396.929 L 716.084 389.357 L 715.743 385.251 L 705.096 381.279 L 700.904 377.445 L 675.611 375.559 L 673.947 371.133 L 674.262 362.69 L 680.723 353.349 L 684.062 343.482 L 684.923 331.273 L 682.563 327.933 L 674.469 331.475 L 672.007 330.405 L 665.884 318.311 L 656.892 309.388 L 640.61 305.315 L 624.95 306.789 L 623.464 302.706 L 631.056 279.703 L 626.047 264.805 L 621.381 261.301 L 618.515 260.901 L 614.519 263.049 L 607.072 275.702 L 605.123 275.702 L 604.429 231.903 L 602.669 220.486 L 600.332 216.379 L 598.871 215.441 L 595.492 216.748 L 589.086 222.542 L 583.891 207.397 L 575.832 199.2 L 572.856 199.427 L 560.096 206.926 L 545.214 201.683 L 540.508 205.316 L 533.042 207.785 L 538.681 218.156 L 544.458 215.123 L 548.774 222.034 L 546.577 233.056 L 550.12 237.42 L 551.488 243.605 L 557.345 246.675 L 556.5 251.739 L 558.345 255.161 L 564.992 257.657 L 573.327 279.331 L 573.611 286.32 L 570.846 294.063 L 570.283 302.677 L 566.429 306.81 L 566.429 312.706 L 568.628 316 L 569.458 321.799 L 572.492 326.214 L 573.861 341.009 L 577.342 341.814 L 583.244 347.431 L 584.656 353.077 L 583.494 358.562 L 577.749 358.84 L 577.749 361.013 L 575.129 361.592 L 564.21 371.69 L 563.962 374.481 L 568.376 377.244 L 567.235 386.695 L 564.153 387.253 L 563.399 389.26 L 564.53 394.321 L 549.78 404.614 L 540.071 414.324 L 536.257 414.621 L 526.761 402.89 L 525.16 398.872 L 522.346 398.872 L 515.452 402.189 L 510.365 402.451 L 509.27 409.534 L 503.281 413.809 L 499.693 412.617 L 499.419 409.25 L 495.991 406.882 L 491.178 406.882 L 488.567 408.708 L 487.998 411.852 L 482.999 411.852 L 481.704 415.739 L 484.19 422.658 L 482.419 426.211 L 477.344 425.925 L 469.762 429.181 L 466.741 436.583 L 464.285 439.04 L 463.76 442.733 L 465.965 446.05 L 464.76 452.042 L 465.949 452.121 Z" />
    <path id="XK-KM" title="Kosovska Mitrovica"  d="M 532.679 207.642 L 538.579 218.492 L 544.369 215.452 L 548.509 222.082 L 546.309 233.122 L 549.889 237.532 L 551.269 243.772 L 557.069 246.812 L 556.239 251.782 L 558.169 255.362 L 564.799 257.852 L 573.079 279.382 L 573.359 286.282 L 570.599 294.012 L 570.039 302.572 L 566.179 306.712 L 566.179 312.782 L 568.389 316.092 L 569.219 321.892 L 572.249 326.302 L 573.629 341.212 L 577.219 342.042 L 583.019 347.562 L 584.399 353.082 L 583.289 358.322 L 577.499 358.602 L 577.499 360.812 L 575.009 361.362 L 563.969 371.572 L 563.699 374.612 L 568.109 377.372 L 567.009 386.482 L 563.969 387.032 L 563.139 389.242 L 564.249 394.212 L 549.619 404.422 L 539.959 414.082 L 536.369 414.362 L 526.979 402.762 L 525.329 398.622 L 522.289 398.622 L 515.389 401.942 L 510.149 402.212 L 509.039 409.392 L 503.239 413.532 L 499.929 412.432 L 499.659 409.112 L 496.069 406.632 L 491.099 406.632 L 488.339 408.562 L 487.789 411.602 L 482.819 411.602 L 481.439 415.742 L 483.919 422.642 L 482.269 425.952 L 477.299 425.672 L 469.569 428.992 L 466.529 436.442 L 464.049 438.922 L 463.499 442.792 L 465.699 446.102 L 464.459 452.272 L 463.219 452.392 L 459.909 454.052 L 457.699 453.222 L 456.319 445.772 L 451.079 441.912 L 442.789 440.252 L 441.139 431.972 L 447.209 427.552 L 445.549 422.582 L 442.789 420.932 L 444.999 418.442 L 440.309 414.032 L 437.829 415.132 L 436.999 419.002 L 433.959 422.032 L 428.439 422.312 L 420.989 410.992 L 420.159 406.572 L 414.639 404.092 L 414.089 400.782 L 416.019 396.642 L 419.609 396.362 L 423.199 392.222 L 424.849 387.532 L 425.129 383.392 L 420.989 379.802 L 419.609 374.282 L 424.019 365.452 L 424.019 357.442 L 427.609 350.542 L 428.159 342.262 L 420.709 342.262 L 420.989 335.912 L 417.949 331.492 L 414.919 329.842 L 413.809 326.252 L 410.779 323.212 L 404.979 322.662 L 403.599 318.522 L 392.559 322.942 L 379.789 324.592 L 383.039 315.382 L 372.749 302.562 L 369.699 295.402 L 369.079 289.882 L 373.029 281.582 L 384.039 274.792 L 392.039 266.962 L 399.139 263.282 L 409.879 260.452 L 412.509 258.472 L 422.489 263.472 L 422.349 257.192 L 442.409 254.272 L 443.719 250.592 L 443.339 240.392 L 439.219 231.552 L 437.869 222.672 L 438.039 210.952 L 431.769 212.082 L 429.139 208.922 L 427.549 202.112 L 430.179 194.542 L 429.829 189.482 L 415.009 174.342 L 412.509 170.032 L 413.549 166.902 L 430.139 162.792 L 440.359 157.912 L 455.949 147.492 L 464.439 145.022 L 477.839 134.362 L 490.589 134.262 L 499.729 140.052 L 518.539 173.392 L 517.359 177.272 L 515.279 177.372 L 505.099 173.062 L 499.139 173.772 L 495.569 176.992 L 497.959 188.112 L 506.619 196.762 L 515.869 198.852 L 532.679 207.642 Z" />
    <path d="M 538.681 218.156 L 544.458 215.123 L 548.774 222.034 L 546.577 233.056 L 550.12 237.42 L 551.488 243.605 L 557.345 246.675 L 556.5 251.739 L 558.345 255.161 L 564.992 257.657 L 573.327 279.331 L 573.611 286.32 L 570.846 294.063 L 570.283 302.677 L 566.429 306.81 L 566.429 312.706 L 568.628 316 L 569.458 321.799 L 572.492 326.214 L 573.861 341.009 L 577.342 341.814 L 583.244 347.431 L 584.656 353.077 L 583.494 358.562 L 577.749 358.84 L 577.749 361.013 L 575.129 361.591 L 564.209 371.69 L 563.962 374.481 L 568.376 377.244 L 567.235 386.695 L 564.153 387.253 L 563.399 389.26 L 564.53 394.321 L 549.78 404.614 L 540.07 414.324 L 536.257 414.621 L 526.761 402.89 L 525.159 398.872 L 522.346 398.872 L 515.452 402.189 L 510.365 402.451 L 509.27 409.534 L 503.281 413.809 L 499.693 412.617 L 499.419 409.25 L 495.991 406.882 L 491.178 406.882 L 488.567 408.708 L 487.998 411.852 L 482.999 411.852 L 481.704 415.739 L 484.19 422.658 L 482.419 426.211 L 477.344 425.925 L 469.762 429.181 L 466.741 436.583 L 464.285 439.04 L 463.76 442.733 L 465.964 446.05 L 464.668 452.503 L 463.289 452.636 L 459.923 454.324 L 457.479 453.406 L 456.091 445.915 L 450.975 442.146 L 442.576 440.464 L 440.863 431.864 L 446.914 427.458 L 445.341 422.749 L 442.402 420.992 L 444.651 418.458 L 440.259 414.328 L 438.047 415.309 L 437.228 419.127 L 434.067 422.277 L 428.309 422.569 L 420.753 411.087 L 419.937 406.747 L 414.414 404.265 L 413.83 400.747 L 415.854 396.404 L 419.487 396.121 L 422.979 392.094 L 424.602 387.481 L 424.871 383.499 L 420.766 379.939 L 419.344 374.253 L 423.769 365.393 L 423.769 357.381 L 427.363 350.473 L 427.892 342.512 L 420.448 342.512 L 420.736 335.985 L 417.777 331.683 L 414.71 330.013 L 413.588 326.385 L 410.666 323.452 L 404.793 322.895 L 403.446 318.853 L 392.622 323.186 L 379.418 324.892 L 382.757 315.43 L 372.532 302.692 L 369.455 295.466 L 368.823 289.839 L 372.835 281.408 L 383.884 274.594 L 391.891 266.757 L 399.048 263.047 L 409.768 260.223 L 412.482 258.179 L 422.23 263.063 L 422.094 256.976 L 442.224 254.046 L 443.467 250.553 L 443.091 240.452 L 438.977 231.625 L 437.619 222.689 L 437.785 211.252 L 431.67 212.354 L 428.909 209.036 L 427.289 202.098 L 429.926 194.508 L 429.586 189.591 L 414.808 174.495 L 412.236 170.06 L 413.355 166.692 L 430.054 162.555 L 440.235 157.694 L 455.842 147.263 L 464.322 144.796 L 477.751 134.113 L 490.661 134.011 L 499.916 139.874 L 518.809 173.362 L 517.547 177.513 L 515.234 177.624 L 505.063 173.318 L 499.247 174.011 L 495.844 177.081 L 498.188 187.987 L 506.745 196.534 L 515.956 198.615 L 532.862 207.456 L 538.681 218.156 Z M 515.782 199.089 L 506.493 196.99 L 497.73 188.237 L 495.294 176.903 L 499.031 173.533 L 505.135 172.806 L 515.324 177.12 L 517.171 177.031 L 518.269 173.422 L 499.542 140.23 L 490.517 134.513 L 477.927 134.611 L 464.556 145.248 L 456.056 147.721 L 440.483 158.13 L 430.224 163.029 L 413.743 167.112 L 412.782 170.004 L 415.21 174.19 L 430.072 189.373 L 430.432 194.576 L 427.809 202.126 L 429.369 208.808 L 431.868 211.81 L 438.293 210.652 L 438.119 222.655 L 439.461 231.479 L 443.587 240.332 L 443.971 250.631 L 442.594 254.498 L 422.604 257.408 L 422.748 263.882 L 412.536 258.765 L 409.99 260.681 L 399.229 263.517 L 392.187 267.167 L 384.194 274.99 L 373.223 281.756 L 369.335 289.925 L 369.943 295.338 L 372.966 302.432 L 383.321 315.334 L 380.16 324.292 L 392.496 322.698 L 403.752 318.191 L 405.165 322.429 L 410.892 322.972 L 414.03 326.119 L 415.128 329.671 L 418.121 331.301 L 421.242 335.839 L 420.97 342.012 L 428.426 342.012 L 427.855 350.611 L 424.269 357.503 L 424.269 365.511 L 419.874 374.311 L 421.212 379.665 L 425.387 383.285 L 425.096 387.583 L 423.419 392.35 L 419.731 396.603 L 416.184 396.88 L 414.348 400.817 L 414.864 403.919 L 420.381 406.398 L 421.225 410.897 L 428.569 422.055 L 433.85 421.787 L 436.77 418.877 L 437.611 414.955 L 440.359 413.736 L 445.347 418.426 L 443.176 420.872 L 445.757 422.415 L 447.504 427.646 L 441.415 432.08 L 443.002 440.04 L 451.183 441.678 L 456.547 445.629 L 457.919 453.038 L 459.895 453.78 L 463.149 452.148 L 464.25 452.041 L 465.433 446.154 L 463.238 442.851 L 463.813 438.804 L 466.317 436.301 L 469.376 428.803 L 477.254 425.419 L 482.119 425.693 L 483.648 422.626 L 481.174 415.745 L 482.639 411.352 L 487.58 411.352 L 488.111 408.416 L 491.02 406.382 L 496.147 406.382 L 499.899 408.974 L 500.165 412.247 L 503.197 413.255 L 508.808 409.25 L 509.933 401.973 L 515.326 401.695 L 522.232 398.372 L 525.498 398.372 L 527.197 402.634 L 536.481 414.103 L 539.847 413.84 L 549.458 404.23 L 563.968 394.103 L 562.879 389.224 L 563.785 386.811 L 566.783 386.269 L 567.842 377.5 L 563.436 374.743 L 563.728 371.454 L 574.889 361.133 L 577.249 360.611 L 577.249 358.364 L 583.084 358.082 L 584.142 353.087 L 582.794 347.693 L 577.096 342.27 L 573.397 341.415 L 572.006 326.39 L 568.98 321.985 L 568.15 316.184 L 565.929 312.858 L 565.929 306.614 L 569.795 302.467 L 570.352 293.961 L 573.107 286.244 L 572.831 279.433 L 564.606 258.047 L 557.993 255.563 L 555.978 251.825 L 556.793 246.949 L 551.05 243.94 L 549.658 237.644 L 546.041 233.188 L 548.244 222.13 L 544.28 215.781 L 538.477 218.828 L 532.496 207.828 L 515.782 199.089 Z" />
    <path id="XK-DA" title="Đakovica"  d="M 366.219 616.532 L 355.119 603.992 L 343.859 600.822 L 342.929 598.812 L 336.659 597.652 L 332.919 591.492 L 318.789 586.402 L 319.129 583.142 L 313.279 577.722 L 309.189 577.862 L 302.609 583.512 L 296.969 579.452 L 285.569 581.932 L 280.509 578.662 L 281.479 574.182 L 278.019 568.202 L 280.649 566.052 L 281.099 558.352 L 279.229 553.442 L 268.419 543.722 L 270.609 539.242 L 274.689 535.922 L 272.269 527.642 L 262.849 519.412 L 264.549 514.412 L 259.419 508.982 L 258.309 503.362 L 254.049 498.822 L 253.699 494.052 L 249.269 490.682 L 238.809 486.372 L 238.189 484.262 L 231.189 481.832 L 226.649 473.352 L 221.799 471.292 L 227.069 456.062 L 224.959 448.842 L 225.299 440.962 L 228.869 436.552 L 232.919 434.402 L 241.959 423.162 L 247.919 427.502 L 270.549 431.082 L 265.309 437.992 L 266.139 441.572 L 268.899 442.402 L 273.039 449.302 L 281.039 449.582 L 285.729 452.892 L 300.359 457.862 L 307.259 454.822 L 308.639 451.242 L 311.679 451.792 L 320.789 461.722 L 317.479 463.102 L 318.859 465.862 L 321.069 468.352 L 324.929 468.902 L 325.759 471.392 L 321.889 475.802 L 324.929 478.012 L 335.969 477.462 L 342.319 473.592 L 350.319 476.082 L 356.119 476.082 L 362.749 473.042 L 369.919 474.152 L 375.719 478.562 L 382.899 476.912 L 385.099 479.672 L 383.449 483.532 L 385.659 486.292 L 385.659 489.332 L 389.519 495.402 L 392.279 494.302 L 395.319 494.022 L 398.909 495.952 L 401.109 502.022 L 403.599 503.682 L 409.119 503.962 L 410.779 514.172 L 429.549 515.552 L 436.449 520.522 L 437.269 523.832 L 444.999 525.762 L 443.899 531.562 L 446.659 534.042 L 449.969 534.322 L 451.349 536.802 L 447.209 540.942 L 453.009 547.852 L 451.629 558.612 L 453.559 564.682 L 450.799 567.442 L 451.899 574.622 L 448.869 576.552 L 447.209 584.012 L 443.349 587.322 L 440.859 586.492 L 436.719 576.832 L 431.749 576.832 L 426.229 586.492 L 421.819 590.912 L 420.989 594.492 L 414.639 592.842 L 414.639 588.422 L 411.049 587.872 L 402.489 588.972 L 399.729 593.942 L 396.419 587.872 L 395.039 597.252 L 389.519 598.362 L 385.099 604.162 L 379.029 605.542 L 378.759 609.682 L 368.269 613.262 L 366.219 616.532 Z" />
    <path d="M 354.981 604.213 L 343.68 601.031 L 342.756 599.034 L 336.503 597.877 L 332.751 591.697 L 318.52 586.571 L 318.867 583.24 L 313.185 577.975 L 309.285 578.109 L 302.623 583.83 L 296.913 579.72 L 285.521 582.198 L 280.228 578.778 L 281.214 574.224 L 277.696 568.143 L 280.406 565.928 L 280.846 558.391 L 279.017 553.587 L 268.112 543.782 L 270.409 539.083 L 274.402 535.833 L 272.05 527.782 L 262.558 519.49 L 264.264 514.474 L 259.188 509.101 L 258.078 503.481 L 253.806 498.929 L 253.458 494.183 L 249.144 490.901 L 238.603 486.558 L 237.985 484.456 L 231.015 482.036 L 226.47 473.548 L 221.486 471.431 L 226.807 456.056 L 224.707 448.873 L 225.053 440.869 L 228.707 436.355 L 232.756 434.205 L 241.913 422.82 L 248.017 427.264 L 271 430.9 L 265.579 438.05 L 266.35 441.374 L 269.064 442.19 L 273.183 449.057 L 281.122 449.335 L 285.844 452.667 L 300.347 457.594 L 307.063 454.635 L 308.48 450.959 L 311.806 451.561 L 321.214 461.816 L 317.822 463.23 L 319.068 465.721 L 321.195 468.117 L 325.117 468.676 L 326.042 471.449 L 322.258 475.761 L 325.005 477.758 L 335.893 477.215 L 342.285 473.32 L 350.357 475.832 L 356.064 475.832 L 362.713 472.783 L 370.02 473.915 L 375.777 478.292 L 382.996 476.633 L 385.388 479.633 L 383.738 483.493 L 385.909 486.204 L 385.909 489.259 L 389.619 495.093 L 392.22 494.056 L 395.371 493.766 L 399.111 495.777 L 401.316 501.86 L 403.68 503.436 L 409.333 503.723 L 410.994 513.937 L 429.638 515.308 L 436.67 520.373 L 437.475 523.626 L 445.289 525.577 L 444.171 531.47 L 446.764 533.8 L 450.123 534.084 L 451.659 536.845 L 447.548 540.957 L 453.271 547.775 L 451.884 558.589 L 453.843 564.751 L 451.065 567.529 L 452.171 574.745 L 449.091 576.707 L 447.435 584.148 L 443.404 587.604 L 440.673 586.694 L 436.554 577.082 L 431.894 577.082 L 426.429 586.645 L 422.046 591.038 L 421.175 594.799 L 414.389 593.035 L 414.389 588.637 L 411.046 588.124 L 402.646 589.204 L 399.727 594.461 L 396.557 588.648 L 395.261 597.462 L 389.661 598.589 L 385.243 604.386 L 379.266 605.744 L 378.998 609.865 L 368.434 613.47 L 366.253 616.948 L 354.981 604.213 Z M 368.104 613.054 L 378.52 609.499 L 378.792 605.34 L 384.955 603.938 L 389.377 598.135 L 394.817 597.042 L 396.281 587.096 L 399.731 593.423 L 402.332 588.74 L 411.052 587.62 L 414.889 588.207 L 414.889 592.649 L 420.803 594.185 L 421.592 590.786 L 426.028 586.339 L 431.604 576.582 L 436.884 576.582 L 441.045 586.29 L 443.294 587.04 L 446.983 583.876 L 448.647 576.397 L 451.627 574.499 L 450.533 567.355 L 453.275 564.613 L 451.374 558.635 L 452.747 547.929 L 446.87 540.927 L 451.039 536.759 L 449.815 534.56 L 446.554 534.284 L 443.627 531.654 L 444.709 525.947 L 437.062 524.038 L 436.228 520.671 L 429.46 515.796 L 410.564 514.407 L 408.905 504.201 L 403.518 503.928 L 400.902 502.184 L 398.706 496.127 L 395.267 494.278 L 392.338 494.548 L 389.419 495.711 L 385.409 489.405 L 385.409 486.38 L 383.16 483.571 L 384.81 479.711 L 382.802 477.191 L 375.661 478.832 L 369.818 474.389 L 362.785 473.301 L 356.174 476.332 L 350.281 476.332 L 342.353 473.864 L 336.045 477.709 L 324.853 478.266 L 321.52 475.843 L 325.476 471.335 L 324.741 469.128 L 320.943 468.587 L 318.65 466.003 L 317.136 462.974 L 320.364 461.628 L 311.552 452.023 L 308.798 451.525 L 307.455 455.009 L 300.371 458.13 L 285.614 453.117 L 280.956 449.829 L 272.894 449.547 L 268.734 442.614 L 265.928 441.77 L 265.039 437.934 L 270.097 431.264 L 247.82 427.74 L 242.004 423.504 L 233.082 434.599 L 229.031 436.749 L 225.545 441.055 L 225.211 448.811 L 227.331 456.068 L 222.112 471.153 L 226.828 473.156 L 231.363 481.628 L 238.393 484.068 L 239.015 486.186 L 249.394 490.463 L 253.94 493.921 L 254.292 498.715 L 258.54 503.243 L 259.65 508.863 L 264.834 514.35 L 263.14 519.334 L 272.488 527.502 L 274.975 536.011 L 270.809 539.401 L 268.726 543.662 L 279.441 553.297 L 281.352 558.313 L 280.892 566.176 L 278.342 568.261 L 281.744 574.14 L 280.79 578.546 L 285.617 581.666 L 297.025 579.184 L 302.595 583.194 L 309.093 577.615 L 313.373 577.469 L 319.391 583.044 L 319.058 586.233 L 333.087 591.287 L 336.815 597.427 L 343.102 598.59 L 344.037 600.613 L 355.257 603.771 L 366.185 616.116 L 368.104 613.054 Z" />
    <path id="XK-GN" title="Gnjilane"  d="M 637.969 521.012 L 639.049 512.512 L 637.119 508.932 L 638.499 506.722 L 647.879 508.102 L 650.369 501.472 L 650.639 498.712 L 645.119 494.852 L 644.569 490.162 L 647.059 486.572 L 640.709 478.842 L 644.849 470.832 L 650.089 467.522 L 654.789 467.802 L 656.989 470.562 L 660.859 471.942 L 669.969 468.072 L 671.349 470.562 L 677.139 471.942 L 679.079 476.352 L 685.699 478.562 L 690.119 476.082 L 689.009 467.802 L 694.259 461.452 L 699.229 461.452 L 701.709 464.762 L 704.749 462.832 L 711.369 466.422 L 713.029 463.932 L 718.269 462.002 L 715.509 455.102 L 710.269 451.242 L 709.159 444.892 L 705.299 443.232 L 701.989 439.642 L 702.809 433.852 L 706.129 432.472 L 703.089 426.942 L 705.019 425.562 L 703.639 421.982 L 699.499 420.872 L 697.569 417.562 L 690.939 415.352 L 690.939 412.042 L 685.149 406.242 L 691.499 401.552 L 694.259 402.102 L 697.849 405.692 L 707.509 406.522 L 708.609 398.512 L 712.749 397.132 L 716.339 389.402 L 715.979 385.072 L 733.809 384.962 L 747.309 388.202 L 758.639 395.532 L 771.939 418.912 L 780.429 426.192 L 787.529 423.282 L 789.949 418.772 L 800.719 407.832 L 807.719 407.462 L 818.179 415.912 L 819.669 431.772 L 824.589 439.882 L 821.719 442.742 L 810.839 447.762 L 801.729 463.562 L 799.479 480.052 L 794.799 494.282 L 788.079 502.242 L 770.239 511.272 L 760.339 520.392 L 757.839 527.742 L 760.649 534.052 L 756.939 551.672 L 746.619 559.142 L 741.219 569.132 L 740.599 578.002 L 744.339 586.122 L 751.089 589.392 L 749.709 598.212 L 750.739 609.822 L 717.769 613.882 L 705.439 607.542 L 696.919 607.542 L 694.489 609.032 L 692.759 616.582 L 689.709 618.912 L 677.589 619.662 L 672.789 622.052 L 669.689 617.022 L 665.829 615.092 L 658.649 616.192 L 656.439 612.332 L 653.129 611.502 L 649.259 613.432 L 647.329 610.392 L 645.119 610.392 L 638.219 597.972 L 635.459 597.422 L 634.909 589.972 L 637.389 583.622 L 640.979 583.342 L 642.639 573.962 L 634.629 575.892 L 632.149 572.032 L 627.729 571.472 L 629.389 563.472 L 631.319 561.812 L 634.909 561.812 L 639.599 557.402 L 642.639 557.122 L 647.329 560.982 L 647.329 557.672 L 649.819 555.192 L 643.739 548.562 L 647.609 534.762 L 640.979 529.792 L 639.599 525.382 L 637.969 521.012 Z" />
    <path d="M 638.791 512.56 L 636.83 508.923 L 638.374 506.451 L 647.716 507.825 L 650.123 501.415 L 650.376 498.833 L 644.884 494.993 L 644.31 490.097 L 646.746 486.585 L 640.411 478.873 L 644.658 470.657 L 650.024 467.268 L 654.915 467.559 L 657.14 470.35 L 660.851 471.674 L 670.079 467.754 L 671.514 470.344 L 677.318 471.728 L 679.263 476.15 L 685.673 478.29 L 689.849 475.947 L 688.747 467.727 L 694.141 461.202 L 699.354 461.202 L 701.77 464.427 L 704.739 462.542 L 711.288 466.093 L 712.866 463.726 L 717.941 461.856 L 715.303 455.261 L 710.04 451.384 L 708.936 445.068 L 705.151 443.441 L 701.725 439.724 L 702.581 433.676 L 705.776 432.348 L 702.763 426.868 L 704.716 425.471 L 703.451 422.191 L 699.335 421.087 L 697.401 417.769 L 690.689 415.532 L 690.689 412.145 L 684.767 406.213 L 691.439 401.285 L 694.382 401.872 L 697.961 405.451 L 707.294 406.253 L 708.382 398.324 L 712.568 396.929 L 716.084 389.357 L 715.708 384.824 L 733.838 384.712 L 747.409 387.969 L 758.826 395.355 L 772.135 418.751 L 780.476 425.903 L 787.351 423.085 L 789.746 418.622 L 800.609 407.587 L 807.802 407.207 L 818.418 415.784 L 819.913 431.691 L 824.905 439.92 L 821.864 442.95 L 811.016 447.956 L 801.97 463.644 L 799.724 480.108 L 795.021 494.406 L 788.237 502.442 L 770.383 511.479 L 760.555 520.533 L 758.107 527.73 L 760.91 534.024 L 757.164 551.818 L 746.812 559.311 L 741.465 569.203 L 740.853 577.956 L 744.529 585.936 L 751.365 589.248 L 749.961 598.22 L 751.009 610.041 L 717.723 614.14 L 705.379 607.792 L 696.99 607.792 L 694.709 609.19 L 692.983 616.726 L 689.8 619.157 L 677.655 619.908 L 672.696 622.378 L 669.514 617.214 L 665.788 615.351 L 658.517 616.465 L 656.275 612.549 L 653.158 611.767 L 649.169 613.756 L 647.192 610.642 L 644.972 610.642 L 638.057 598.195 L 635.224 597.63 L 634.656 589.934 L 637.213 583.385 L 640.767 583.108 L 642.326 574.295 L 634.515 576.177 L 632.002 572.265 L 627.429 571.686 L 629.162 563.338 L 631.226 561.562 L 634.81 561.562 L 639.49 557.161 L 642.719 556.864 L 647.079 560.452 L 647.079 557.568 L 649.473 555.184 L 643.461 548.628 L 647.322 534.859 L 640.765 529.944 L 639.362 525.463 L 637.713 521.042 L 638.791 512.56 Z M 639.833 525.295 L 641.194 529.64 L 647.896 534.665 L 644.017 548.496 L 650.165 555.2 L 647.579 557.776 L 647.579 561.512 L 642.56 557.38 L 639.708 557.643 L 635.008 562.062 L 631.412 562.062 L 629.617 563.606 L 628.029 571.258 L 632.296 571.799 L 634.743 575.607 L 642.952 573.629 L 641.191 583.576 L 637.565 583.859 L 635.162 590.01 L 635.694 597.214 L 638.381 597.749 L 645.266 610.142 L 647.466 610.142 L 649.349 613.108 L 653.1 611.237 L 656.603 612.115 L 658.781 615.919 L 665.87 614.833 L 669.864 616.83 L 672.882 621.726 L 677.523 619.416 L 689.618 618.667 L 692.535 616.438 L 694.269 608.874 L 696.848 607.292 L 705.5 607.292 L 717.815 613.624 L 750.469 609.603 L 749.457 598.204 L 750.813 589.536 L 744.149 586.308 L 740.345 578.048 L 740.973 569.061 L 746.426 558.973 L 756.714 551.526 L 760.388 534.08 L 757.571 527.754 L 760.123 520.251 L 770.095 511.065 L 787.921 502.042 L 794.577 494.158 L 799.234 479.996 L 801.488 463.48 L 810.662 447.568 L 821.574 442.534 L 824.273 439.844 L 819.425 431.853 L 817.94 416.04 L 807.636 407.717 L 800.829 408.077 L 790.152 418.922 L 787.707 423.479 L 780.382 426.481 L 771.743 419.073 L 758.452 395.709 L 747.209 388.435 L 733.78 385.212 L 716.251 385.32 L 716.594 389.447 L 712.93 397.335 L 708.836 398.7 L 707.724 406.791 L 697.737 405.933 L 694.136 402.332 L 691.559 401.819 L 685.531 406.271 L 691.189 411.939 L 691.189 415.172 L 697.738 417.355 L 699.663 420.657 L 703.827 421.773 L 705.322 425.653 L 703.415 427.016 L 706.482 432.596 L 703.037 434.028 L 702.253 439.56 L 705.447 443.023 L 709.382 444.716 L 710.498 451.1 L 715.715 454.943 L 718.597 462.148 L 713.192 464.138 L 711.45 466.751 L 704.759 463.122 L 701.648 465.097 L 699.104 461.702 L 694.377 461.702 L 689.271 467.877 L 690.389 476.217 L 685.725 478.834 L 678.895 476.554 L 676.96 472.156 L 671.184 470.78 L 669.86 468.39 L 660.867 472.21 L 656.838 470.774 L 654.663 468.045 L 650.154 467.776 L 645.04 471.007 L 641.007 478.811 L 647.372 486.559 L 644.828 490.227 L 645.354 494.711 L 650.902 498.591 L 650.615 501.529 L 648.042 508.379 L 638.624 506.993 L 637.408 508.941 L 639.307 512.464 L 638.225 520.982 L 639.833 525.295 Z" />
    <path id="XK-PE" title="Peć"  d="M 393.119 494.222 L 392.279 494.302 L 389.519 495.402 L 385.659 489.332 L 385.659 486.292 L 383.449 483.532 L 385.099 479.672 L 382.899 476.912 L 375.719 478.562 L 369.919 474.152 L 362.749 473.042 L 356.119 476.082 L 350.319 476.082 L 342.319 473.592 L 335.969 477.462 L 324.929 478.012 L 321.889 475.802 L 325.759 471.392 L 324.929 468.902 L 321.069 468.352 L 318.859 465.862 L 317.479 463.102 L 320.789 461.722 L 311.679 451.792 L 308.639 451.242 L 307.259 454.822 L 300.359 457.862 L 285.729 452.892 L 281.039 449.582 L 273.039 449.302 L 268.899 442.402 L 266.139 441.572 L 265.309 437.992 L 270.549 431.082 L 247.919 427.502 L 241.959 423.162 L 244.389 418.402 L 238.599 413.982 L 232.849 404.782 L 226.169 402.622 L 222.219 398.352 L 218.929 397.312 L 216.469 392.902 L 212.689 380.212 L 217.159 374.242 L 219.759 366.442 L 221.869 366.112 L 253.359 377.162 L 268.319 377.022 L 282.629 379.372 L 286.259 377.672 L 298.139 362.022 L 295.339 353.322 L 296.199 350.922 L 311.059 339.392 L 324.359 341.462 L 371.189 332.802 L 376.729 329.552 L 379.789 324.592 L 392.559 322.942 L 403.599 318.522 L 404.979 322.662 L 410.779 323.212 L 413.809 326.252 L 414.919 329.842 L 417.949 331.492 L 420.989 335.912 L 420.709 342.262 L 428.159 342.262 L 427.609 350.542 L 424.019 357.442 L 424.019 365.452 L 419.609 374.282 L 420.989 379.802 L 425.129 383.392 L 424.849 387.532 L 423.199 392.222 L 419.609 396.362 L 416.019 396.642 L 414.089 400.782 L 414.639 404.092 L 420.159 406.572 L 420.989 410.992 L 428.439 422.312 L 433.959 422.032 L 436.999 419.002 L 437.829 415.132 L 440.309 414.032 L 444.999 418.442 L 442.789 420.932 L 445.549 422.582 L 447.209 427.552 L 441.139 431.972 L 442.789 440.252 L 451.079 441.912 L 456.319 445.772 L 457.699 453.222 L 459.909 454.052 L 463.219 452.392 L 465.979 452.122 L 465.699 456.262 L 462.939 463.162 L 451.899 462.612 L 449.689 459.852 L 441.139 463.712 L 434.789 474.482 L 434.239 479.722 L 430.919 484.692 L 427.609 486.352 L 427.889 489.932 L 417.399 490.492 L 412.429 492.692 L 400.559 491.042 L 395.039 491.872 L 393.119 494.222 Z" />
    <path d="M 392.338 494.547 L 389.419 495.711 L 385.409 489.405 L 385.409 486.38 L 383.16 483.571 L 384.81 479.711 L 382.802 477.191 L 375.661 478.832 L 369.818 474.389 L 362.785 473.301 L 356.174 476.332 L 350.281 476.332 L 342.353 473.864 L 336.045 477.709 L 324.853 478.266 L 321.52 475.843 L 325.476 471.335 L 324.741 469.128 L 320.943 468.587 L 318.65 466.003 L 317.136 462.974 L 320.364 461.628 L 311.552 452.023 L 308.798 451.525 L 307.455 455.009 L 300.371 458.13 L 285.614 453.117 L 280.956 449.829 L 272.895 449.547 L 268.734 442.614 L 265.928 441.77 L 265.039 437.934 L 270.097 431.264 L 247.82 427.74 L 241.639 423.238 L 244.071 418.474 L 238.411 414.153 L 232.685 404.992 L 226.03 402.84 L 222.08 398.57 L 218.759 397.52 L 216.237 393 L 212.413 380.163 L 216.935 374.125 L 219.57 366.219 L 221.892 365.855 L 253.4 376.912 L 268.338 376.772 L 282.593 379.113 L 286.097 377.472 L 297.861 361.975 L 295.075 353.318 L 295.988 350.769 L 310.991 339.128 L 324.355 341.208 L 371.1 332.564 L 376.549 329.368 L 379.639 324.359 L 392.496 322.698 L 403.752 318.191 L 405.165 322.429 L 410.892 322.972 L 414.03 326.119 L 415.128 329.671 L 418.121 331.301 L 421.242 335.839 L 420.97 342.012 L 428.426 342.012 L 427.855 350.611 L 424.269 357.503 L 424.269 365.511 L 419.874 374.311 L 421.212 379.665 L 425.387 383.285 L 425.096 387.583 L 423.419 392.35 L 419.731 396.603 L 416.184 396.88 L 414.348 400.817 L 414.864 403.919 L 420.381 406.397 L 421.225 410.897 L 428.569 422.055 L 433.85 421.787 L 436.77 418.877 L 437.611 414.955 L 440.359 413.736 L 445.347 418.426 L 443.176 420.872 L 445.757 422.415 L 447.504 427.646 L 441.415 432.08 L 443.002 440.04 L 451.183 441.678 L 456.547 445.629 L 457.919 453.038 L 459.895 453.78 L 463.148 452.148 L 466.248 451.844 L 465.946 456.318 L 463.105 463.421 L 451.774 462.856 L 449.615 460.16 L 441.314 463.907 L 435.032 474.562 L 434.481 479.81 L 431.09 484.886 L 427.871 486.5 L 428.158 490.168 L 417.458 490.739 L 412.465 492.949 L 400.56 491.295 L 395.172 492.105 L 393.247 494.461 L 392.338 494.547 Z M 394.906 491.639 L 400.558 490.789 L 412.393 492.435 L 417.34 490.245 L 427.62 489.696 L 427.347 486.204 L 430.748 484.498 L 433.997 479.634 L 434.546 474.402 L 440.964 463.517 L 449.763 459.544 L 452.024 462.368 L 462.773 462.903 L 465.452 456.206 L 465.71 452.4 L 463.29 452.636 L 459.923 454.324 L 457.479 453.406 L 456.091 445.915 L 450.975 442.146 L 442.576 440.464 L 440.863 431.864 L 446.914 427.458 L 445.341 422.749 L 442.402 420.992 L 444.651 418.458 L 440.259 414.328 L 438.047 415.309 L 437.228 419.127 L 434.067 422.277 L 428.309 422.569 L 420.753 411.088 L 419.937 406.747 L 414.414 404.265 L 413.83 400.747 L 415.854 396.404 L 419.487 396.121 L 422.979 392.094 L 424.602 387.481 L 424.871 383.499 L 420.766 379.939 L 419.344 374.253 L 423.769 365.393 L 423.769 357.381 L 427.363 350.473 L 427.892 342.512 L 420.448 342.512 L 420.736 335.985 L 417.777 331.683 L 414.71 330.013 L 413.588 326.385 L 410.666 323.452 L 404.793 322.896 L 403.446 318.853 L 392.622 323.186 L 379.939 324.825 L 376.909 329.736 L 371.278 333.04 L 324.363 341.716 L 311.127 339.656 L 296.41 351.075 L 295.603 353.326 L 298.417 362.069 L 286.421 377.872 L 282.665 379.631 L 268.3 377.272 L 253.318 377.412 L 221.846 366.369 L 219.948 366.665 L 217.383 374.359 L 212.964 380.261 L 216.701 392.804 L 219.099 397.104 L 222.358 398.134 L 226.308 402.404 L 233.013 404.572 L 238.787 413.811 L 244.706 418.33 L 242.279 423.086 L 248.017 427.264 L 271 430.9 L 265.579 438.05 L 266.35 441.374 L 269.064 442.19 L 273.183 449.057 L 281.122 449.335 L 285.844 452.667 L 300.347 457.594 L 307.063 454.635 L 308.48 450.959 L 311.806 451.561 L 321.214 461.816 L 317.822 463.23 L 319.068 465.721 L 321.195 468.117 L 325.117 468.676 L 326.042 471.449 L 322.258 475.761 L 325.005 477.758 L 335.893 477.215 L 342.285 473.32 L 350.357 475.832 L 356.064 475.832 L 362.713 472.783 L 370.02 473.915 L 375.777 478.292 L 382.996 476.633 L 385.388 479.633 L 383.738 483.493 L 385.909 486.204 L 385.909 489.259 L 389.619 495.093 L 392.22 494.057 L 392.991 493.983 L 394.906 491.639 Z" />
    <path id="XK-UR" title="Uroševac"  d="M 672.789 622.052 L 662.729 633.642 L 654.969 647.562 L 646.519 674.002 L 640.249 681.402 L 633.359 682.892 L 630.279 681.032 L 621.479 682.142 L 618.919 680.652 L 616.349 671.632 L 612.129 664.092 L 602.879 654.732 L 599.209 639.462 L 592.899 634.012 L 582.059 633.272 L 577.969 637.462 L 568.829 642.582 L 563.569 650.402 L 543.549 662.722 L 537.469 648.212 L 534.439 644.902 L 528.359 643.792 L 523.669 640.482 L 512.629 640.762 L 500.479 638.002 L 499.929 633.582 L 502.419 632.752 L 504.629 629.722 L 503.239 622.262 L 506.829 620.612 L 513.179 624.192 L 517.319 618.122 L 525.049 614.262 L 527.539 605.152 L 530.849 604.322 L 533.609 607.082 L 536.369 603.772 L 542.719 602.112 L 540.229 599.352 L 538.579 593.832 L 541.609 591.902 L 542.439 589.142 L 540.229 586.102 L 540.229 582.792 L 537.469 582.242 L 537.469 577.822 L 540.229 572.302 L 536.919 569.822 L 536.919 564.852 L 534.159 561.262 L 530.019 557.402 L 525.049 557.402 L 522.569 555.462 L 522.289 552.432 L 525.879 550.772 L 531.399 553.532 L 533.059 550.222 L 526.429 544.702 L 526.429 541.942 L 530.019 541.662 L 531.119 537.522 L 535.259 537.252 L 536.369 535.592 L 528.919 528.412 L 529.469 524.552 L 512.629 520.132 L 512.079 518.202 L 511.549 514.002 L 521.739 512.682 L 522.839 509.642 L 529.739 504.952 L 535.819 506.612 L 537.199 511.022 L 544.099 509.642 L 545.199 506.612 L 550.719 511.022 L 558.999 510.472 L 565.349 513.512 L 575.559 508.812 L 579.429 512.132 L 590.189 512.962 L 592.679 520.132 L 595.719 520.412 L 601.789 516.542 L 605.379 517.652 L 612.279 515.162 L 619.179 514.892 L 622.769 517.652 L 626.909 517.102 L 631.869 524.272 L 634.079 524.552 L 635.459 521.792 L 637.949 520.962 L 639.599 525.382 L 640.979 529.792 L 647.609 534.762 L 643.739 548.562 L 649.819 555.192 L 647.329 557.672 L 647.329 560.982 L 642.639 557.122 L 639.599 557.402 L 634.909 561.812 L 631.319 561.812 L 629.389 563.472 L 627.729 571.472 L 632.149 572.032 L 634.629 575.892 L 642.639 573.962 L 640.979 583.342 L 637.389 583.622 L 634.909 589.972 L 635.459 597.422 L 638.219 597.972 L 645.119 610.392 L 647.329 610.392 L 649.259 613.432 L 653.129 611.502 L 656.439 612.332 L 658.649 616.192 L 665.829 615.092 L 669.689 617.022 L 672.789 622.052 Z" />
    <path d="M 662.935 633.786 L 655.2 647.662 L 646.742 674.126 L 640.385 681.628 L 633.315 683.157 L 630.224 681.291 L 621.426 682.401 L 618.706 680.817 L 616.117 671.729 L 611.927 664.244 L 602.652 654.858 L 598.985 639.599 L 592.799 634.256 L 582.157 633.529 L 578.123 637.662 L 569.003 642.771 L 563.746 650.587 L 543.431 663.088 L 537.255 648.349 L 534.311 645.133 L 528.26 644.028 L 523.593 640.734 L 512.604 641.013 L 500.253 638.207 L 499.656 633.41 L 502.264 632.54 L 504.363 629.662 L 502.958 622.116 L 506.841 620.332 L 513.102 623.861 L 517.149 617.927 L 524.837 614.088 L 527.336 604.945 L 530.926 604.045 L 533.592 606.712 L 536.228 603.55 L 542.258 601.974 L 540.006 599.478 L 538.285 593.723 L 541.396 591.741 L 542.164 589.189 L 539.979 586.183 L 539.979 582.997 L 537.219 582.447 L 537.219 577.763 L 539.912 572.377 L 536.669 569.947 L 536.669 564.937 L 533.973 561.431 L 529.921 557.652 L 524.963 557.652 L 522.33 555.592 L 522.024 552.279 L 525.883 550.495 L 531.287 553.197 L 532.747 550.287 L 526.179 544.819 L 526.179 541.711 L 529.823 541.427 L 530.924 537.284 L 535.12 537.011 L 536.045 535.627 L 528.653 528.503 L 529.19 524.737 L 512.428 520.338 L 511.833 518.252 L 511.27 513.786 L 521.556 512.454 L 522.631 509.481 L 529.694 504.68 L 536.017 506.407 L 537.37 510.733 L 543.912 509.424 L 545.083 506.199 L 550.799 510.766 L 559.048 510.218 L 565.351 513.236 L 575.6 508.518 L 579.53 511.889 L 590.371 512.725 L 592.862 519.898 L 595.657 520.155 L 601.752 516.269 L 605.373 517.388 L 612.231 514.914 L 619.26 514.639 L 622.839 517.391 L 627.028 516.834 L 632.011 524.038 L 633.935 524.282 L 635.282 521.588 L 638.099 520.649 L 638.183 520.875 L 639.838 525.307 L 641.194 529.64 L 647.896 534.665 L 644.017 548.496 L 650.165 555.2 L 647.579 557.776 L 647.579 561.512 L 642.56 557.38 L 639.708 557.643 L 635.008 562.062 L 631.412 562.062 L 629.617 563.606 L 628.029 571.258 L 632.296 571.799 L 634.743 575.607 L 642.952 573.63 L 641.191 583.576 L 637.565 583.859 L 635.163 590.01 L 635.694 597.214 L 638.381 597.749 L 645.266 610.142 L 647.466 610.142 L 649.349 613.108 L 653.1 611.237 L 656.603 612.115 L 658.781 615.919 L 665.87 614.833 L 669.864 616.83 L 673.098 622.077 L 662.935 633.786 Z M 669.514 617.214 L 665.788 615.351 L 658.517 616.465 L 656.275 612.549 L 653.158 611.767 L 649.169 613.756 L 647.192 610.642 L 644.972 610.642 L 638.057 598.195 L 635.224 597.63 L 634.656 589.934 L 637.213 583.385 L 640.767 583.108 L 642.326 574.295 L 634.515 576.177 L 632.002 572.265 L 627.429 571.686 L 629.161 563.338 L 631.226 561.562 L 634.81 561.562 L 639.49 557.161 L 642.718 556.864 L 647.079 560.452 L 647.079 557.568 L 649.473 555.184 L 643.461 548.628 L 647.322 534.859 L 640.764 529.944 L 639.362 525.463 L 637.799 521.275 L 635.636 521.996 L 634.223 524.822 L 631.727 524.506 L 626.79 517.37 L 622.699 517.913 L 619.098 515.145 L 612.327 515.41 L 605.385 517.916 L 601.826 516.815 L 595.781 520.669 L 592.496 520.366 L 590.007 513.199 L 579.328 512.375 L 575.518 509.106 L 565.347 513.788 L 558.95 510.726 L 550.639 511.278 L 545.315 507.025 L 544.286 509.86 L 537.028 511.311 L 535.621 506.817 L 529.784 505.224 L 523.047 509.803 L 521.922 512.91 L 511.828 514.218 L 512.325 518.152 L 512.83 519.926 L 529.748 524.367 L 529.185 528.321 L 536.693 535.557 L 535.398 537.493 L 531.314 537.76 L 530.215 541.897 L 526.679 542.173 L 526.679 544.585 L 533.371 550.157 L 531.511 553.867 L 525.875 551.049 L 522.554 552.585 L 522.808 555.332 L 525.135 557.152 L 530.117 557.152 L 534.345 561.093 L 537.169 564.767 L 537.169 569.697 L 540.546 572.227 L 537.719 577.881 L 537.719 582.037 L 540.479 582.587 L 540.479 586.021 L 542.714 589.095 L 541.822 592.063 L 538.873 593.941 L 540.452 599.226 L 543.18 602.25 L 536.51 603.994 L 533.626 607.452 L 530.772 604.599 L 527.742 605.359 L 525.261 614.436 L 517.489 618.317 L 513.256 624.523 L 506.817 620.892 L 503.52 622.408 L 504.895 629.782 L 502.574 632.964 L 500.202 633.754 L 500.705 637.797 L 512.654 640.511 L 523.745 640.23 L 528.458 643.556 L 534.567 644.671 L 537.683 648.075 L 543.667 662.356 L 563.392 650.217 L 568.655 642.393 L 577.815 637.262 L 581.961 633.015 L 592.999 633.768 L 599.433 639.325 L 603.106 654.606 L 612.331 663.94 L 616.581 671.535 L 619.132 680.487 L 621.532 681.883 L 630.334 680.773 L 633.403 682.627 L 640.113 681.176 L 646.296 673.878 L 654.738 647.462 L 662.523 633.498 L 672.48 622.027 L 669.514 617.214 Z" />
    <path id="XK-PZ" title="Prizren"  d="M 543.549 662.722 L 538.839 666.282 L 529.479 667.632 L 523.349 670.332 L 509.119 685.682 L 496.859 685.772 L 489.299 690.232 L 476.109 692.282 L 473.509 694.332 L 459.239 717.842 L 460.349 739.582 L 464.919 750.252 L 463.739 759.862 L 468.899 769.552 L 456.639 781.512 L 452.939 786.982 L 430.079 800.972 L 427.169 808.342 L 419.199 818.572 L 414.659 827.462 L 410.539 830.282 L 405.239 828.242 L 400.429 830.472 L 396.479 829.962 L 394.539 828.572 L 394.539 823.662 L 390.519 811.352 L 391.559 802.182 L 390.449 791.612 L 394.849 788.092 L 402.049 787.212 L 401.919 783.832 L 395.959 769.362 L 410.849 758.002 L 413.139 748.162 L 412.479 741.622 L 408.079 735.582 L 403.059 720.492 L 402.089 710.602 L 393.809 702.562 L 388.369 692.052 L 392.109 684.892 L 390.489 680.052 L 392.699 674.282 L 388.719 665.252 L 389.379 662.322 L 384.219 655.762 L 384.909 653.942 L 380.369 644.122 L 377.599 631.452 L 369.499 623.152 L 368.769 618.682 L 366.219 616.532 L 368.269 613.262 L 378.759 609.682 L 379.029 605.542 L 385.099 604.162 L 389.519 598.362 L 395.039 597.252 L 396.419 587.872 L 399.729 593.942 L 402.489 588.972 L 411.049 587.872 L 414.639 588.422 L 414.639 592.842 L 420.989 594.492 L 421.819 590.912 L 426.229 586.492 L 431.749 576.832 L 436.719 576.832 L 440.859 586.492 L 443.349 587.322 L 447.209 584.012 L 448.869 576.552 L 451.899 574.622 L 450.799 567.442 L 453.559 564.682 L 451.629 558.612 L 453.009 547.852 L 447.209 540.942 L 451.349 536.802 L 449.969 534.322 L 446.659 534.042 L 443.899 531.562 L 444.999 525.762 L 437.269 523.832 L 436.449 520.522 L 429.549 515.552 L 410.779 514.172 L 409.119 503.962 L 403.599 503.682 L 401.109 502.022 L 398.909 495.952 L 395.319 494.022 L 393.119 494.222 L 395.039 491.872 L 400.559 491.042 L 412.429 492.692 L 417.399 490.492 L 427.889 489.932 L 427.609 486.352 L 430.919 484.692 L 434.239 479.722 L 434.789 474.482 L 441.139 463.712 L 449.689 459.852 L 451.899 462.612 L 462.939 463.162 L 465.699 456.262 L 465.959 452.372 L 472.609 451.402 L 478.129 454.442 L 477.299 459.412 L 473.159 463.552 L 473.159 466.312 L 481.439 471.832 L 480.889 478.732 L 477.849 481.492 L 477.299 488.662 L 473.989 492.532 L 475.369 498.332 L 480.609 492.812 L 485.299 492.252 L 487.789 490.042 L 494.409 490.042 L 496.899 483.972 L 499.099 483.422 L 500.479 487.562 L 502.419 488.392 L 502.139 495.012 L 496.619 495.572 L 498.549 501.362 L 494.959 506.052 L 497.719 508.262 L 503.519 504.122 L 509.589 506.052 L 511.529 513.782 L 512.079 518.202 L 512.629 520.132 L 529.469 524.552 L 528.919 528.412 L 536.369 535.592 L 535.259 537.252 L 531.119 537.522 L 530.019 541.662 L 526.429 541.942 L 526.429 544.702 L 533.059 550.222 L 531.399 553.532 L 525.879 550.772 L 522.289 552.432 L 522.569 555.462 L 525.049 557.402 L 530.019 557.402 L 534.159 561.262 L 536.919 564.852 L 536.919 569.822 L 540.229 572.302 L 537.469 577.822 L 537.469 582.242 L 540.229 582.792 L 540.229 586.102 L 542.439 589.142 L 541.609 591.902 L 538.579 593.832 L 540.229 599.352 L 542.719 602.112 L 536.369 603.772 L 533.609 607.082 L 530.849 604.322 L 527.539 605.152 L 525.049 614.262 L 517.319 618.122 L 513.179 624.192 L 506.829 620.612 L 503.239 622.262 L 504.629 629.722 L 502.419 632.752 L 499.929 633.582 L 500.479 638.002 L 512.629 640.762 L 523.669 640.482 L 528.359 643.792 L 534.439 644.902 L 537.469 648.212 L 543.549 662.722 Z" />
    <path d="M 538.938 666.52 L 529.549 667.875 L 523.497 670.54 L 509.229 685.931 L 496.928 686.022 L 489.385 690.472 L 476.212 692.519 L 473.699 694.5 L 459.493 717.906 L 460.596 739.525 L 465.175 750.216 L 463.997 759.814 L 469.208 769.6 L 456.832 781.673 L 453.116 787.167 L 430.281 801.142 L 427.388 808.467 L 419.411 818.707 L 414.853 827.632 L 410.572 830.563 L 405.248 828.513 L 400.469 830.729 L 396.385 830.202 L 394.289 828.7 L 394.289 823.702 L 390.264 811.378 L 391.308 802.181 L 390.186 791.502 L 394.748 787.852 L 401.79 786.992 L 401.671 783.886 L 395.655 769.28 L 410.626 757.858 L 412.886 748.146 L 412.237 741.714 L 407.854 735.698 L 402.813 720.544 L 401.849 710.718 L 393.606 702.713 L 388.087 692.051 L 391.838 684.871 L 390.223 680.046 L 392.429 674.289 L 388.457 665.277 L 389.109 662.383 L 383.935 655.806 L 384.638 653.952 L 380.131 644.202 L 377.37 631.575 L 369.265 623.27 L 368.537 618.814 L 365.892 616.583 L 368.104 613.054 L 378.52 609.499 L 378.792 605.34 L 384.955 603.938 L 389.377 598.136 L 394.817 597.042 L 396.281 587.096 L 399.731 593.423 L 402.332 588.74 L 411.052 587.62 L 414.889 588.207 L 414.889 592.649 L 420.803 594.185 L 421.592 590.786 L 426.028 586.339 L 431.604 576.582 L 436.884 576.582 L 441.045 586.29 L 443.294 587.04 L 446.983 583.876 L 448.647 576.397 L 451.627 574.499 L 450.533 567.355 L 453.275 564.613 L 451.374 558.635 L 452.747 547.929 L 446.87 540.927 L 451.039 536.759 L 449.815 534.56 L 446.554 534.284 L 443.627 531.654 L 444.709 525.947 L 437.062 524.038 L 436.228 520.671 L 429.46 515.796 L 410.564 514.407 L 408.905 504.201 L 403.518 503.928 L 400.902 502.184 L 398.706 496.127 L 395.267 494.278 L 392.549 494.525 L 394.906 491.639 L 400.558 490.789 L 412.393 492.435 L 417.34 490.245 L 427.62 489.696 L 427.347 486.204 L 430.748 484.498 L 433.997 479.634 L 434.546 474.402 L 440.964 463.517 L 449.763 459.544 L 452.024 462.368 L 462.773 462.903 L 465.452 456.206 L 465.723 452.154 L 472.656 451.142 L 478.405 454.308 L 477.532 459.532 L 473.409 463.656 L 473.409 466.178 L 481.7 471.705 L 481.13 478.851 L 478.091 481.61 L 477.542 488.762 L 474.262 492.598 L 475.505 497.825 L 480.49 492.574 L 485.192 492.013 L 487.694 489.792 L 494.241 489.792 L 496.716 483.76 L 499.263 483.123 L 500.681 487.376 L 502.676 488.23 L 502.38 495.239 L 496.955 495.789 L 498.828 501.409 L 495.306 506.01 L 497.728 507.949 L 503.476 503.846 L 509.798 505.856 L 511.775 513.736 L 512.325 518.152 L 512.83 519.926 L 529.748 524.367 L 529.185 528.321 L 536.693 535.557 L 535.398 537.493 L 531.314 537.76 L 530.215 541.897 L 526.679 542.173 L 526.679 544.585 L 533.371 550.157 L 531.511 553.867 L 525.875 551.049 L 522.554 552.585 L 522.808 555.332 L 525.135 557.152 L 530.117 557.152 L 534.345 561.093 L 537.169 564.767 L 537.169 569.697 L 540.546 572.227 L 537.719 577.881 L 537.719 582.037 L 540.479 582.587 L 540.479 586.021 L 542.714 589.095 L 541.822 592.063 L 538.873 593.941 L 540.452 599.226 L 543.18 602.25 L 536.51 603.994 L 533.626 607.452 L 530.772 604.599 L 527.742 605.359 L 525.261 614.436 L 517.489 618.317 L 513.256 624.522 L 506.817 620.892 L 503.52 622.408 L 504.894 629.782 L 502.574 632.964 L 500.202 633.754 L 500.705 637.797 L 512.654 640.511 L 523.745 640.23 L 528.458 643.556 L 534.567 644.671 L 537.683 648.075 L 543.855 662.804 L 538.938 666.52 Z M 537.255 648.349 L 534.311 645.133 L 528.26 644.028 L 523.593 640.734 L 512.604 641.013 L 500.253 638.207 L 499.656 633.41 L 502.264 632.54 L 504.363 629.662 L 502.958 622.116 L 506.841 620.332 L 513.102 623.861 L 517.149 617.927 L 524.837 614.088 L 527.336 604.945 L 530.926 604.045 L 533.592 606.712 L 536.228 603.55 L 542.258 601.974 L 540.006 599.478 L 538.285 593.723 L 541.396 591.741 L 542.164 589.189 L 539.979 586.183 L 539.979 582.997 L 537.219 582.447 L 537.219 577.763 L 539.912 572.377 L 536.669 569.947 L 536.669 564.937 L 533.973 561.431 L 529.921 557.652 L 524.963 557.652 L 522.33 555.592 L 522.024 552.279 L 525.883 550.495 L 531.287 553.197 L 532.747 550.287 L 526.179 544.819 L 526.179 541.711 L 529.823 541.427 L 530.924 537.284 L 535.12 537.011 L 536.045 535.627 L 528.653 528.503 L 529.19 524.737 L 512.428 520.338 L 511.833 518.252 L 511.283 513.828 L 509.38 506.248 L 503.562 504.398 L 497.71 508.575 L 494.612 506.094 L 498.27 501.315 L 496.283 495.355 L 501.898 494.785 L 502.162 488.554 L 500.277 487.748 L 498.935 483.721 L 497.082 484.184 L 494.577 490.292 L 487.884 490.292 L 485.406 492.491 L 480.728 493.05 L 475.233 498.839 L 473.716 492.466 L 477.056 488.562 L 477.607 481.374 L 480.648 478.613 L 481.178 471.959 L 472.909 466.446 L 472.909 463.448 L 477.066 459.292 L 477.853 454.576 L 472.562 451.661 L 466.195 452.59 L 465.946 456.318 L 463.105 463.421 L 451.774 462.856 L 449.615 460.16 L 441.314 463.907 L 435.032 474.562 L 434.481 479.809 L 431.09 484.886 L 427.871 486.5 L 428.158 490.168 L 417.458 490.739 L 412.465 492.949 L 400.56 491.295 L 395.172 492.105 L 393.689 493.919 L 395.371 493.766 L 399.112 495.777 L 401.316 501.86 L 403.68 503.436 L 409.333 503.723 L 410.994 513.937 L 429.638 515.308 L 436.67 520.373 L 437.476 523.626 L 445.289 525.577 L 444.171 531.47 L 446.764 533.8 L 450.123 534.084 L 451.659 536.845 L 447.548 540.957 L 453.271 547.775 L 451.884 558.589 L 453.843 564.751 L 451.065 567.529 L 452.171 574.745 L 449.091 576.707 L 447.435 584.148 L 443.404 587.604 L 440.673 586.694 L 436.554 577.082 L 431.894 577.082 L 426.43 586.645 L 422.046 591.038 L 421.175 594.798 L 414.389 593.035 L 414.389 588.637 L 411.046 588.124 L 402.646 589.204 L 399.727 594.46 L 396.557 588.648 L 395.261 597.462 L 389.661 598.588 L 385.243 604.386 L 379.266 605.744 L 378.998 609.865 L 368.434 613.47 L 366.546 616.481 L 369.001 618.55 L 369.733 623.034 L 377.828 631.329 L 380.607 644.042 L 385.18 653.932 L 384.503 655.718 L 389.649 662.261 L 388.981 665.227 L 392.969 674.275 L 390.755 680.058 L 392.38 684.913 L 388.651 692.053 L 394.012 702.411 L 402.329 710.486 L 403.305 720.44 L 408.304 735.466 L 412.721 741.53 L 413.392 748.178 L 411.072 758.146 L 396.263 769.444 L 402.167 783.778 L 402.308 787.432 L 394.95 788.332 L 390.712 791.722 L 391.81 802.183 L 390.774 811.326 L 394.789 823.622 L 394.789 828.444 L 396.573 829.722 L 400.389 830.215 L 405.23 827.971 L 410.506 830.001 L 414.465 827.292 L 418.987 818.437 L 426.95 808.217 L 429.877 800.802 L 452.762 786.797 L 456.446 781.351 L 468.59 769.504 L 463.481 759.91 L 464.663 750.288 L 460.102 739.639 L 458.985 717.778 L 473.319 694.164 L 476.006 692.045 L 489.213 689.992 L 496.79 685.522 L 509.009 685.433 L 523.201 670.124 L 529.409 667.389 L 538.74 666.044 L 543.243 662.64 L 537.255 648.349 Z" />
  </g>
</svg>