<svg fill="#FFFFFF" viewBox="0 0 1024 1024" xmlns="http://www.w3.org/2000/svg">
  <defs></defs>
  <g transform="matrix(1, 0, 0, 1, -60.978012, 52.072495)">
    <g>
      <path id="WF-AL" title="Alo"  d="M 164.209 740.766 L 168.262 740.609 L 171.316 737.326 L 177.918 732.661 L 186.901 728.668 L 190.389 725.89 L 188.116 723.93 L 184.147 722.018 L 182.271 722.21 L 177.918 721.465 L 172.507 718.723 L 167.636 717.556 L 151.979 724.916 L 148.792 728.043 L 147.999 731.963 L 152.051 735.366 L 164.209 740.766 Z M 157.763 708.862 L 136.442 697.522 L 130.574 695.718 L 129.142 692.7 L 118.596 681.432 L 116.66 690.307 L 115.662 697.534 L 118.993 703.715 L 120.568 709.127 L 122.949 709.487 L 128.818 712.157 L 132.918 710.509 L 157.763 712.157 L 157.763 708.862 Z" ></path>
      <path id="WF-UV" title="Uvea"  d="M 1039.056 179.365 L 1032.105 185.366 L 1025.743 193.23 L 1022.881 202.394 L 1026.321 212.399 L 1018.504 218.484 L 1020.741 226.192 L 1025.804 234.382 L 1026.321 241.778 L 1030.794 245.217 L 1037.18 247.045 L 1042.928 245.842 L 1045.405 240.142 L 1042.699 227.984 L 1044.179 223.391 L 1051.779 222.14 L 1050.66 218.749 L 1049.927 217.462 L 1048.315 215.67 L 1052.981 205.773 L 1050.66 197.908 L 1044.864 189.803 L 1039.056 179.365 Z" ></path>
      <path id="WF-SG" title="Sigave"  d="M 113.221 675.683 L 96.565 670.404 L 92.982 677.908 L 97.876 691.762 L 106.558 705.266 L 111.08 707.695 L 120.568 709.127 L 118.993 703.715 L 115.662 697.534 L 116.66 690.307 L 118.596 681.432 L 113.221 675.683 Z" ></path>
    </g>
    <path d="M 147.45 732.155 L 148.332 727.794 L 151.689 724.5 L 167.582 717.029 L 172.681 718.25 L 178.077 720.985 L 182.288 721.706 L 184.237 721.506 L 188.393 723.508 L 191.172 725.905 L 187.163 729.099 L 178.166 733.098 L 171.647 737.704 L 168.488 741.101 L 164.112 741.27 L 151.784 735.794 L 147.45 732.155 Z M 164.306 740.262 L 168.036 740.117 L 170.985 736.948 L 177.67 732.224 L 186.639 728.237 L 189.606 725.875 L 187.839 724.352 L 184.057 722.53 L 182.254 722.714 L 177.759 721.945 L 172.333 719.196 L 167.69 718.083 L 152.269 725.332 L 149.252 728.292 L 148.548 731.771 L 152.318 734.938 L 164.306 740.262 Z M 132.999 711.015 L 128.806 712.701 L 122.805 709.971 L 120.177 709.574 L 118.528 703.906 L 115.144 697.627 L 115.167 697.466 L 116.171 690.2 L 118.31 680.395 L 129.56 692.415 L 130.931 695.305 L 136.635 697.058 L 158.263 708.562 L 158.263 712.691 L 132.999 711.015 Z M 157.263 709.162 L 136.249 697.986 L 130.217 696.131 L 128.724 692.985 L 118.882 682.469 L 117.153 690.395 L 116.18 697.441 L 119.458 703.524 L 120.959 708.68 L 123.093 709.003 L 128.83 711.613 L 132.837 710.003 L 157.263 711.623 L 157.263 709.162 Z" ></path>
    <path d="M 1045.287 189.535 L 1051.116 197.686 L 1053.514 205.814 L 1048.909 215.583 L 1050.335 217.168 L 1051.119 218.545 L 1052.437 222.538 L 1044.561 223.835 L 1043.217 228.008 L 1045.928 240.192 L 1043.284 246.278 L 1037.161 247.56 L 1030.565 245.671 L 1025.838 242.037 L 1025.314 234.54 L 1020.28 226.397 L 1017.929 218.298 L 1025.732 212.224 L 1022.355 202.401 L 1025.294 192.99 L 1031.744 185.017 L 1039.194 178.585 L 1045.287 189.535 Z M 1044.441 190.071 L 1038.918 180.145 L 1032.466 185.715 L 1026.192 193.47 L 1023.407 202.387 L 1026.91 212.574 L 1019.079 218.67 L 1021.202 225.987 L 1026.294 234.224 L 1026.804 241.519 L 1031.023 244.763 L 1037.199 246.53 L 1042.572 245.406 L 1044.882 240.092 L 1042.181 227.96 L 1043.797 222.947 L 1051.121 221.742 L 1050.201 218.953 L 1049.519 217.756 L 1047.721 215.757 L 1052.448 205.732 L 1050.204 198.13 L 1044.441 190.071 Z" ></path>
    <path d="M 117.153 690.395 L 116.18 697.441 L 119.458 703.524 L 121.267 709.738 L 110.92 708.176 L 106.207 705.645 L 97.424 691.983 L 92.442 677.879 L 96.301 669.796 L 113.497 675.246 L 119.14 681.282 L 117.153 690.395 Z M 112.945 676.12 L 96.829 671.012 L 93.522 677.937 L 98.328 691.541 L 106.909 704.887 L 111.24 707.214 L 119.869 708.516 L 118.528 703.906 L 115.144 697.627 L 116.165 690.239 L 118.052 681.582 L 112.945 676.12 Z" ></path>
  </g>
</svg>