<svg fill="#FFFFFF" version="1.1" width="1024px" height="1024px" viewBox="0 0 1024 1024" xmlns="http://www.w3.org/2000/svg">
  <g transform="matrix(1, 0, 0, 1, 108.985001, 115.796005)">
    <path id="ZA-EC" title="Eastern Cape"  d="M 616.499 427.589 L 620.938 432.027 L 620.976 434.105 L 618.766 436.995 L 614.195 438.392 L 614.875 440.13 L 612.344 443.114 L 610.078 442.51 L 608.756 445.966 L 604.525 444.247 L 602.787 448.478 L 604.09 455.92 L 606.338 456.278 L 608.359 459.338 L 612.741 460.226 L 615.272 456.033 L 619.03 457.884 L 618.898 460.868 L 630.948 464.797 L 638.087 462.568 L 644.698 466.855 L 647.588 466.27 L 652.026 468.574 L 654.425 467.592 L 658.165 471.445 L 661.111 471.464 L 662.679 474.901 L 666.72 475.676 L 673.652 488.783 L 657.315 508.029 L 652.102 509.918 L 641.695 521.005 L 635.783 523.819 L 619.37 546.106 L 593.117 574.512 L 587.224 577.912 L 584.278 582.218 L 573.304 587.752 L 569.961 594.287 L 561.311 601.786 L 552.717 606.262 L 517.247 632.685 L 490.786 644.527 L 482.513 643.98 L 471.464 640.599 L 460.019 641.694 L 453.182 645.698 L 449.914 650.137 L 448.951 654.783 L 453.2 659.543 L 447.251 660.77 L 438.827 659.845 L 429.591 656.124 L 420.45 656.143 L 415.539 658.598 L 415.029 662.64 L 410.704 667.815 L 412.517 669.402 L 410.704 670.705 L 401.355 668.004 L 399.693 669.194 L 394.537 668.004 L 388.568 664 L 377.198 661.016 L 352.21 656.823 L 351.625 654.216 L 354.534 650.363 L 347.583 647.757 L 347.413 645.037 L 338.857 645 L 341.124 641.033 L 347.413 637.199 L 352.758 637.671 L 353.023 635.424 L 349.491 632.307 L 349.094 627.888 L 344.448 624.715 L 336.78 624.564 L 335.25 622.127 L 308.638 622.788 L 307.542 618.142 L 309.318 617.84 L 317.798 604.694 L 317.873 596.025 L 321.028 592.172 L 325.372 591.228 L 323.917 586.053 L 326.958 590.151 L 329.64 587.129 L 338.725 589.282 L 339.065 585.92 L 333.097 579.329 L 335.306 577.969 L 331.113 566.032 L 336.855 561.99 L 340.047 563.407 L 342.125 560.479 L 352.588 560.781 L 352.985 555.115 L 357.782 551.734 L 363.751 555.739 L 371.343 551.621 L 371.117 550.205 L 373.477 550.526 L 375.687 548.731 L 375.706 546.899 L 374.214 546.767 L 374.044 544.652 L 375.952 544.501 L 374.894 542.555 L 377.822 541.762 L 379.994 538.513 L 377.406 535.51 L 374.743 535.982 L 378.105 531.11 L 377.16 529.466 L 377.387 526.388 L 382.619 528.239 L 385.018 524.952 L 394.442 524.593 L 395.198 512.052 L 397.219 511.051 L 397.332 507.236 L 408.287 506.896 L 410.024 504.743 L 411.743 505.687 L 411.932 503.119 L 429.516 495.809 L 437.562 496.338 L 437.543 493.203 L 441.566 489.35 L 440.452 487.971 L 444.682 481.04 L 442.208 476.658 L 445.683 472.484 L 442.151 472.03 L 441.415 462.285 L 448.29 461.51 L 449.782 464.721 L 455.599 466.175 L 461.53 462.322 L 462.72 458.262 L 465.269 459.735 L 470.766 456.618 L 474.505 457.959 L 475.657 455.258 L 481.739 460.49 L 489.464 459.508 L 491.485 463.437 L 499.153 465.288 L 498.889 466.421 L 507.35 464.098 L 509.692 466.081 L 513.658 464.891 L 515.453 461.435 L 518.494 461.302 L 517.134 458.016 L 522.498 458.488 L 523.423 455.863 L 531.733 455.315 L 531.129 452.463 L 534.453 452.501 L 533.018 449.932 L 536.55 448.95 L 534.17 446.098 L 536.399 445.645 L 540.271 445.286 L 553.756 461.34 L 560.971 461.51 L 562.387 463.965 L 571.774 465.552 L 571.661 461.605 L 575.099 455.655 L 573.569 453.71 L 579.707 448.157 L 576.893 444.002 L 581.501 442.037 L 585.562 436.031 L 589.604 436.503 L 593.23 434.407 L 599.52 435.521 L 607.585 433.066 L 616.499 427.589 Z" ></path>
    <path d="M 621.406 431.829 L 621.452 434.262 L 619.049 437.403 L 614.82 438.694 L 615.417 440.22 L 612.51 443.647 L 610.367 443.076 L 609.024 446.585 L 604.784 444.861 L 603.276 448.531 L 604.497 455.506 L 606.618 455.844 L 608.644 458.915 L 612.508 459.697 L 615.092 455.417 L 619.516 457.597 L 619.385 460.53 L 630.952 464.302 L 638.159 462.05 L 644.792 466.355 L 647.658 465.773 L 652.049 468.055 L 654.542 467.035 L 658.365 470.975 L 661.415 470.993 L 663.007 474.484 L 667.032 475.254 L 674.219 488.846 L 657.594 508.43 L 652.368 510.324 L 641.978 521.392 L 636.093 524.195 L 619.735 546.406 L 593.415 574.886 L 587.553 578.267 L 584.599 582.585 L 573.654 588.104 L 570.339 594.584 L 561.579 602.178 L 552.968 606.662 L 517.487 633.095 L 490.871 645.007 L 482.428 644.448 L 471.415 641.079 L 460.168 642.155 L 453.505 646.057 L 450.356 650.333 L 449.461 654.645 L 454.098 659.839 L 447.274 661.248 L 438.71 660.308 L 429.501 656.596 L 420.561 656.615 L 415.976 658.908 L 415.481 662.837 L 411.363 667.764 L 413.277 669.438 L 410.793 671.223 L 401.444 668.522 L 399.795 669.702 L 394.346 668.444 L 388.372 664.436 L 377.098 661.479 L 351.819 657.237 L 351.117 654.107 L 353.776 650.584 L 347.132 648.091 L 346.969 645.508 L 338.045 645.468 L 340.774 640.693 L 347.3 636.716 L 352.343 637.161 L 352.524 635.614 L 349.037 632.538 L 348.645 628.152 L 344.299 625.183 L 336.515 625.03 L 334.993 622.605 L 308.266 623.27 L 306.968 617.76 L 309.034 617.409 L 317.328 604.553 L 317.403 595.855 L 320.767 591.745 L 324.782 590.873 L 322.769 583.712 L 326.99 589.403 L 329.474 586.604 L 338.309 588.699 L 338.574 586.081 L 332.366 579.225 L 334.734 577.767 L 330.549 565.851 L 336.802 561.45 L 339.885 562.819 L 341.887 559.999 L 352.148 560.296 L 352.53 554.858 L 357.777 551.162 L 363.777 555.187 L 370.824 551.366 L 370.55 549.651 L 373.338 550.031 L 375.217 548.505 L 375.23 547.332 L 373.776 547.201 L 373.536 544.219 L 375.189 544.087 L 374.193 542.255 L 377.527 541.352 L 379.4 538.549 L 377.225 536.022 L 373.712 536.645 L 377.548 531.087 L 376.679 529.576 L 376.962 525.736 L 382.445 527.676 L 384.77 524.49 L 393.997 524.138 L 394.743 511.75 L 396.756 510.755 L 396.873 506.777 L 408.056 506.432 L 409.905 504.139 L 411.326 504.919 L 411.482 502.794 L 429.437 495.332 L 437.086 495.834 L 437.069 493.003 L 440.926 489.308 L 439.875 488.009 L 444.135 481.03 L 441.636 476.607 L 444.771 472.842 L 441.709 472.45 L 440.911 461.867 L 448.575 461.002 L 450.114 464.317 L 455.514 465.667 L 461.125 462.022 L 462.436 457.551 L 465.271 459.191 L 470.72 456.101 L 474.246 457.364 L 475.476 454.48 L 481.888 459.995 L 489.732 458.998 L 491.806 463.029 L 499.72 464.938 L 499.529 465.756 L 507.465 463.576 L 509.802 465.556 L 513.332 464.496 L 515.16 460.976 L 517.8 460.86 L 516.399 457.478 L 522.175 457.986 L 523.081 455.411 L 531.159 454.881 L 530.545 451.985 L 533.643 452.019 L 532.313 449.638 L 535.719 448.691 L 533.301 445.794 L 536.329 445.176 L 540.473 444.793 L 553.981 460.874 L 561.247 461.044 L 562.686 463.537 L 571.285 464.991 L 571.185 461.484 L 574.53 455.697 L 572.925 453.655 L 579.086 448.081 L 576.181 443.792 L 581.188 441.658 L 585.332 435.529 L 589.504 436.016 L 593.143 433.912 L 599.491 435.036 L 607.39 432.632 L 616.569 426.992 L 621.406 431.829 Z M 607.781 433.5 L 599.548 436.007 L 593.317 434.902 L 589.704 436.991 L 585.792 436.534 L 581.815 442.417 L 577.605 444.211 L 580.328 448.232 L 574.213 453.765 L 575.667 455.615 L 572.137 461.725 L 572.264 466.113 L 562.089 464.394 L 560.695 461.977 L 553.531 461.807 L 540.068 445.779 L 536.469 446.113 L 535.039 446.402 L 537.381 449.209 L 533.722 450.227 L 535.264 452.983 L 531.713 452.943 L 532.308 455.75 L 523.765 456.314 L 522.821 458.991 L 517.868 458.554 L 519.189 461.744 L 515.745 461.894 L 513.985 465.286 L 509.583 466.606 L 507.235 464.619 L 498.248 467.086 L 498.586 465.637 L 491.164 463.845 L 489.196 460.018 L 481.59 460.985 L 475.839 456.037 L 474.764 458.554 L 470.811 457.136 L 465.267 460.279 L 463.003 458.972 L 461.934 462.623 L 455.684 466.683 L 449.449 465.125 L 448.005 462.018 L 441.919 462.702 L 442.593 471.611 L 446.597 472.125 L 442.78 476.709 L 445.23 481.049 L 441.028 487.933 L 442.206 489.391 L 438.017 493.403 L 438.038 496.842 L 429.595 496.287 L 412.381 503.444 L 412.16 506.456 L 410.143 505.347 L 408.517 507.361 L 397.791 507.695 L 397.681 511.348 L 395.653 512.355 L 394.888 525.049 L 385.265 525.415 L 382.793 528.802 L 377.812 527.039 L 377.642 529.357 L 378.662 531.132 L 375.774 535.32 L 377.589 534.998 L 380.587 538.477 L 378.116 542.172 L 375.595 542.856 L 376.715 544.914 L 374.552 545.084 L 374.652 546.333 L 376.182 546.467 L 376.158 548.958 L 373.617 551.02 L 371.683 550.758 L 371.863 551.876 L 363.724 556.29 L 357.79 552.307 L 353.44 555.372 L 353.028 561.267 L 342.363 560.959 L 340.21 563.994 L 336.908 562.53 L 331.678 566.213 L 335.879 578.171 L 333.828 579.433 L 339.556 585.76 L 339.14 589.866 L 329.806 587.654 L 326.926 590.899 L 325.066 588.393 L 325.963 591.583 L 321.288 592.599 L 318.344 596.195 L 318.268 604.836 L 309.601 618.27 L 308.116 618.523 L 309.01 622.307 L 335.507 621.649 L 337.044 624.097 L 344.597 624.246 L 349.544 627.623 L 349.944 632.077 L 353.521 635.233 L 353.174 638.181 L 347.526 637.683 L 341.473 641.373 L 339.669 644.531 L 347.857 644.567 L 348.034 647.423 L 355.291 650.144 L 352.133 654.326 L 352.601 656.409 L 377.276 660.549 L 388.687 663.543 L 388.765 663.564 L 394.727 667.564 L 399.591 668.686 L 401.266 667.487 L 410.615 670.188 L 411.758 669.366 L 410.045 667.866 L 414.578 662.444 L 415.103 658.289 L 420.339 655.671 L 429.682 655.652 L 438.944 659.382 L 447.228 660.293 L 452.303 659.246 L 448.441 654.921 L 449.472 649.94 L 452.859 645.339 L 459.869 641.233 L 471.513 640.119 L 482.598 643.513 L 490.701 644.049 L 517.007 632.275 L 552.466 605.861 L 561.043 601.393 L 569.583 593.991 L 572.955 587.401 L 583.957 581.852 L 586.896 577.557 L 592.819 574.14 L 619.006 545.806 L 635.473 523.443 L 641.412 520.618 L 651.835 509.512 L 657.035 507.629 L 673.085 488.721 L 666.409 476.097 L 662.35 475.319 L 660.807 471.934 L 657.964 471.915 L 654.308 468.149 L 652.004 469.093 L 647.518 466.766 L 644.604 467.356 L 638.016 463.085 L 630.944 465.291 L 618.411 461.206 L 618.545 458.171 L 615.451 456.649 L 612.973 460.755 L 608.074 459.761 L 606.058 456.713 L 603.684 456.333 L 602.298 448.425 L 604.266 443.633 L 608.487 445.346 L 609.789 441.945 L 612.178 442.581 L 614.333 440.039 L 613.57 438.09 L 618.482 436.587 L 620.5 433.948 L 620.469 432.226 L 616.429 428.186 L 607.781 433.5 Z" ></path>
    <path id="ZA-FS" title="Free State"  d="M 543.368 248.897 L 547.561 246.536 L 548.241 248.217 L 554.266 249.256 L 555.324 247.31 L 560.027 246.536 L 563.974 243.287 L 566.788 249.803 L 572.568 255.734 L 574.022 253.505 L 575.457 255.885 L 578.442 255.148 L 580.141 256.47 L 585.411 257.49 L 586.96 260.531 L 589.774 259.134 L 593.287 262.363 L 592.248 264.403 L 597.782 261.683 L 596.063 260.38 L 597.612 258.888 L 609.284 263.931 L 614.705 261.211 L 617.557 262.609 L 620.579 269.786 L 625.263 268.936 L 631.005 272.222 L 631.401 274.319 L 636.69 275.074 L 645.132 289.013 L 648.929 288.314 L 649.93 285.953 L 652.782 286.029 L 649.873 287.332 L 653.273 293.641 L 648.457 297.21 L 650.44 305.879 L 645.567 318.156 L 647.909 321.896 L 647.72 325.126 L 644.339 329.677 L 639.391 330.452 L 635.405 335.627 L 626.283 340.67 L 624.564 345.864 L 613.666 348.017 L 608.567 358.254 L 601.257 353.721 L 600.275 349.414 L 598.028 347.866 L 586.261 350.472 L 583.768 354.854 L 575.269 354.457 L 568.904 361.295 L 567.77 364.826 L 563.124 363.41 L 560.593 366.904 L 554.077 365.979 L 552.736 371.683 L 548.789 374.119 L 550.413 375.8 L 548.713 376.008 L 549.299 377.708 L 542.896 383.77 L 543.727 385.848 L 539.666 387.888 L 538.778 392.1 L 537.267 392.194 L 538.061 394.366 L 532.451 399.182 L 532.395 401.052 L 524.934 402.752 L 520.798 405.018 L 520.25 406.983 L 518.569 405.887 L 533.396 436.164 L 537.343 436.201 L 535.322 440.13 L 536.399 445.588 L 534.151 446.06 L 536.531 448.912 L 533.018 449.895 L 534.434 452.463 L 531.129 452.425 L 531.733 455.296 L 523.423 455.844 L 522.498 458.469 L 517.134 457.997 L 518.494 461.284 L 515.453 461.416 L 513.658 464.891 L 509.673 466.062 L 507.331 464.079 L 498.889 466.402 L 499.134 465.269 L 491.466 463.418 L 489.445 459.489 L 481.72 460.471 L 475.638 455.24 L 474.486 457.94 L 470.728 456.599 L 465.232 459.716 L 462.682 458.243 L 461.473 462.303 L 455.542 466.156 L 449.725 464.721 L 448.252 461.51 L 441.377 462.266 L 437.618 459.017 L 433.237 458.677 L 427.325 453.275 L 413.518 437.505 L 408.815 427.4 L 403.149 425.813 L 401.771 421.771 L 390.721 415.576 L 386.944 410.08 L 386.604 408.003 L 413.178 351.36 L 410.591 350.416 L 411.29 343.031 L 413.575 340.462 L 415.143 333.568 L 413.235 331.188 L 416.899 329.488 L 419.468 322.632 L 418.146 320.347 L 422.263 319.233 L 425.228 312.32 L 430.592 309.053 L 431.896 305.105 L 447.194 297.475 L 450.991 298.211 L 458.073 293.055 L 461.171 295.17 L 467.649 295.983 L 468.726 300.308 L 471.181 300.289 L 471.955 294.528 L 479.114 288.617 L 480.832 284.159 L 483.949 284.329 L 485.29 282.535 L 493.185 282.78 L 489.898 280.759 L 491.976 275.698 L 488.066 270.239 L 492.203 268.842 L 493.657 266.537 L 496.395 266.877 L 498.511 261.759 L 501.948 262.307 L 504.215 258.945 L 509.862 256.489 L 512.601 259.039 L 513.564 254.072 L 518.758 257.547 L 525.047 256.943 L 525.897 259.379 L 532.565 252.92 L 537.362 256.64 L 540.157 254.865 L 543.368 248.897 Z" ></path>
    <path d="M 547.797 245.862 L 548.581 247.796 L 554.013 248.732 L 555.02 246.881 L 559.824 246.09 L 564.159 242.524 L 567.187 249.537 L 572.494 254.982 L 574.037 252.617 L 575.682 255.343 L 578.551 254.635 L 580.342 256.029 L 585.726 257.071 L 587.167 259.9 L 589.855 258.567 L 593.871 262.258 L 593.311 263.355 L 596.887 261.596 L 595.338 260.424 L 597.51 258.331 L 609.269 263.41 L 614.703 260.684 L 617.923 262.263 L 620.868 269.253 L 625.348 268.441 L 631.428 271.92 L 631.802 273.9 L 636.979 274.638 L 645.367 288.49 L 648.593 287.897 L 649.62 285.474 L 654.867 285.612 L 650.53 287.555 L 653.883 293.777 L 648.985 297.407 L 650.933 305.917 L 646.094 318.109 L 648.389 321.773 L 648.183 325.294 L 644.604 330.114 L 639.649 330.89 L 635.719 335.993 L 626.674 340.993 L 624.925 346.274 L 613.985 348.434 L 608.757 358.928 L 600.84 354.017 L 599.856 349.7 L 597.929 348.372 L 586.567 350.888 L 584.034 355.339 L 575.465 354.939 L 569.321 361.54 L 568.078 365.414 L 563.309 363.96 L 560.808 367.412 L 554.438 366.507 L 553.152 371.981 L 549.537 374.213 L 551.412 376.153 L 549.35 376.406 L 549.844 377.842 L 543.453 383.893 L 544.326 386.075 L 540.082 388.207 L 539.166 392.549 L 537.928 392.627 L 538.616 394.512 L 532.918 399.405 L 532.855 401.432 L 525.104 403.198 L 521.2 405.338 L 520.531 407.731 L 519.746 407.219 L 533.692 435.693 L 538.114 435.737 L 535.817 440.2 L 536.952 445.955 L 535.016 446.361 L 537.362 449.171 L 533.719 450.189 L 535.239 452.945 L 531.713 452.905 L 532.308 455.731 L 523.765 456.295 L 522.821 458.972 L 517.868 458.535 L 519.187 461.725 L 515.747 461.875 L 513.985 465.288 L 509.562 466.587 L 507.216 464.6 L 498.262 467.065 L 498.575 465.62 L 491.145 463.826 L 489.177 459.999 L 481.571 460.966 L 475.82 456.018 L 474.747 458.535 L 470.773 457.117 L 465.23 460.26 L 462.963 458.951 L 461.875 462.604 L 455.627 466.664 L 449.391 465.125 L 447.965 462.016 L 441.224 462.757 L 437.428 459.476 L 433.038 459.136 L 426.987 453.606 L 413.118 437.765 L 408.479 427.796 L 402.783 426.2 L 401.381 422.094 L 390.395 415.935 L 386.495 410.262 L 386.115 407.935 L 412.532 351.626 L 410.087 350.735 L 410.834 342.832 L 413.141 340.239 L 414.631 333.685 L 412.489 331.013 L 416.525 329.141 L 418.947 322.676 L 417.43 320.052 L 421.919 318.836 L 424.854 311.995 L 430.198 308.739 L 431.508 304.771 L 447.126 296.98 L 450.879 297.709 L 458.064 292.477 L 461.343 294.715 L 468.029 295.554 L 469.094 299.832 L 470.767 299.82 L 471.512 294.283 L 478.717 288.331 L 480.515 283.668 L 483.722 283.844 L 485.059 282.055 L 491.426 282.253 L 489.309 280.952 L 491.439 275.76 L 487.311 269.996 L 491.893 268.449 L 493.417 266.031 L 496.097 266.364 L 498.216 261.234 L 501.725 261.793 L 503.899 258.567 L 509.958 255.932 L 512.299 258.114 L 513.235 253.284 L 518.881 257.062 L 525.37 256.436 L 526.099 258.525 L 532.531 252.296 L 537.388 256.064 L 539.8 254.533 L 543.017 248.553 L 547.797 245.862 Z M 540.514 255.197 L 537.335 257.217 L 532.599 253.543 L 525.695 260.233 L 524.724 257.449 L 518.635 258.032 L 513.893 254.859 L 512.903 259.965 L 509.766 257.047 L 504.53 259.322 L 502.171 262.82 L 498.806 262.284 L 496.694 267.391 L 493.897 267.044 L 492.512 269.234 L 488.822 270.483 L 492.512 275.635 L 490.488 280.567 L 494.943 283.307 L 485.52 283.015 L 484.175 284.815 L 481.15 284.65 L 479.51 288.902 L 472.399 294.774 L 471.595 300.757 L 468.357 300.784 L 467.27 296.411 L 460.999 295.626 L 458.083 293.633 L 451.102 298.714 L 447.262 297.969 L 432.283 305.439 L 430.987 309.366 L 425.602 312.645 L 422.607 319.629 L 418.862 320.642 L 419.989 322.589 L 417.273 329.836 L 413.981 331.364 L 415.655 333.451 L 414.009 340.685 L 411.745 343.229 L 411.095 350.096 L 413.824 351.094 L 387.093 408.071 L 387.394 409.899 L 391.048 415.218 L 402.16 421.448 L 403.516 425.426 L 409.152 427.003 L 413.919 437.244 L 427.663 452.945 L 433.435 458.218 L 437.809 458.558 L 441.53 461.775 L 448.539 461.004 L 450.059 464.317 L 455.457 465.648 L 461.071 462.001 L 462.4 457.534 L 465.233 459.172 L 470.682 456.082 L 474.226 457.346 L 475.457 454.461 L 481.869 459.977 L 489.713 458.979 L 491.787 463.01 L 499.693 464.917 L 499.516 465.739 L 507.446 463.558 L 509.785 465.537 L 513.332 464.494 L 515.158 460.957 L 517.8 460.842 L 516.399 457.459 L 522.175 457.967 L 523.081 455.393 L 531.159 454.86 L 530.545 451.946 L 533.63 451.982 L 532.317 449.6 L 535.7 448.654 L 533.286 445.76 L 535.845 445.222 L 534.827 440.06 L 536.572 436.666 L 533.099 436.632 L 517.392 404.556 L 519.969 406.235 L 520.395 404.699 L 524.764 402.306 L 531.934 400.673 L 531.985 398.959 L 537.505 394.221 L 536.606 391.762 L 538.391 391.65 L 539.251 387.569 L 543.128 385.621 L 542.339 383.648 L 548.753 377.573 L 548.077 375.609 L 549.414 375.447 L 548.041 374.025 L 552.321 371.384 L 553.716 365.45 L 560.378 366.396 L 562.939 362.86 L 567.462 364.239 L 568.486 361.049 L 575.072 353.976 L 583.501 354.369 L 585.955 350.057 L 598.126 347.36 L 600.695 349.129 L 601.675 353.424 L 608.376 357.579 L 613.347 347.599 L 624.203 345.454 L 625.892 340.347 L 635.092 335.26 L 639.132 330.014 L 644.075 329.241 L 647.257 324.957 L 647.429 322.019 L 645.04 318.203 L 649.947 305.842 L 647.928 297.014 L 652.663 293.505 L 649.629 287.874 L 649.265 288.732 L 644.898 289.536 L 636.401 275.511 L 631.001 274.738 L 630.582 272.525 L 625.178 269.431 L 620.29 270.319 L 617.191 262.954 L 614.707 261.738 L 609.3 264.452 L 597.714 259.445 L 596.789 260.337 L 598.677 261.77 L 591.185 265.451 L 592.703 262.469 L 589.693 259.7 L 586.752 261.162 L 585.096 257.91 L 579.941 256.912 L 578.332 255.662 L 575.233 256.427 L 574.007 254.393 L 572.641 256.486 L 566.39 250.07 L 563.789 244.05 L 560.229 246.982 L 555.628 247.739 L 554.519 249.779 L 547.901 248.638 L 547.325 247.21 L 543.719 249.24 L 540.514 255.197 Z" ></path>
    <path id="ZA-GT" title="Gauteng"  d="M 595.667 161.241 L 602.693 160.467 L 604.09 164.188 L 597.763 167.191 L 596.044 180.431 L 598.689 189.874 L 606.3 190.554 L 611.664 184.057 L 616.537 182.735 L 617.708 186.852 L 613.062 188.722 L 613.817 192.216 L 611.494 196.541 L 611.872 199.393 L 608.756 198.864 L 607.018 208.063 L 596.139 206.155 L 593.589 210.896 L 588.414 211.576 L 591.304 219.697 L 595.912 221.189 L 596.063 224.627 L 599.52 226.799 L 606.092 224.985 L 608.227 229.405 L 602.749 232.087 L 602.636 235.336 L 592.947 236.979 L 588.735 242.551 L 584.259 243.967 L 583.258 247.461 L 584.58 249.35 L 580.349 251.541 L 581.35 254.053 L 580.141 256.47 L 578.442 255.148 L 575.457 255.885 L 574.022 253.505 L 572.568 255.734 L 566.788 249.803 L 563.974 243.287 L 560.027 246.536 L 555.324 247.31 L 554.266 249.256 L 548.241 248.217 L 547.561 246.536 L 543.368 248.897 L 544.785 241.059 L 543.085 238.924 L 546.371 231.709 L 541.687 231.879 L 540.214 229.537 L 533.339 231.067 L 533.792 232.465 L 527.314 234.958 L 525.217 228.574 L 532.036 223.21 L 530.317 215.731 L 533.566 216.108 L 533.717 214.05 L 536.55 213.634 L 538.778 200.149 L 547.315 195.521 L 549.544 200.035 L 552.056 198.694 L 552.245 200.848 L 562.539 198.147 L 563.067 193.33 L 564.484 192.821 L 562.293 187.287 L 566.222 186.682 L 570.49 182.206 L 568.828 174.934 L 572.549 174.33 L 571.718 177.144 L 580.368 175.029 L 580.368 169.816 L 590.189 169.363 L 590.548 166.813 L 596.007 168.116 L 599.123 164.792 L 597.385 164.886 L 595.667 161.241 Z" ></path>
    <path d="M 603.006 159.957 L 604.685 164.427 L 598.198 167.506 L 596.524 180.397 L 599.055 189.432 L 606.094 190.061 L 611.396 183.641 L 616.864 182.157 L 618.279 187.132 L 613.608 189.011 L 614.316 192.286 L 611.982 196.63 L 612.423 199.966 L 609.133 199.408 L 607.396 208.608 L 596.394 206.678 L 593.891 211.332 L 589.054 211.968 L 591.67 219.319 L 596.369 220.842 L 596.524 224.358 L 599.595 226.289 L 606.346 224.426 L 608.856 229.622 L 603.212 232.387 L 603.095 235.736 L 593.211 237.413 L 589.02 242.955 L 584.642 244.341 L 583.773 247.374 L 585.277 249.522 L 580.946 251.764 L 581.868 254.076 L 580.306 257.198 L 578.332 255.662 L 575.233 256.427 L 574.007 254.393 L 572.641 256.486 L 566.39 250.07 L 563.789 244.05 L 560.229 246.982 L 555.628 247.739 L 554.519 249.779 L 547.901 248.638 L 547.325 247.21 L 542.724 249.801 L 544.282 241.185 L 542.535 238.992 L 545.625 232.21 L 541.432 232.361 L 539.991 230.07 L 533.949 231.415 L 534.38 232.744 L 527.019 235.577 L 524.666 228.408 L 531.509 223.025 L 529.707 215.185 L 533.131 215.583 L 533.273 213.638 L 536.14 213.217 L 538.35 199.845 L 547.521 194.872 L 549.752 199.39 L 552.464 197.941 L 552.666 200.249 L 562.104 197.773 L 562.631 192.987 L 563.866 192.541 L 561.636 186.911 L 565.991 186.24 L 569.973 182.064 L 568.256 174.549 L 573.214 173.743 L 572.403 176.491 L 579.896 174.659 L 579.896 169.365 L 589.776 168.909 L 590.154 166.233 L 595.85 167.593 L 597.975 165.326 L 597.095 165.376 L 594.958 160.844 L 603.006 159.957 Z M 597.249 167.481 L 596.163 168.639 L 590.943 167.393 L 590.603 169.816 L 580.84 170.267 L 580.84 175.399 L 571.032 177.798 L 571.884 174.917 L 569.4 175.32 L 571.008 182.348 L 566.452 187.124 L 562.95 187.662 L 565.102 193.1 L 563.504 193.674 L 562.973 198.521 L 551.824 201.446 L 551.648 199.448 L 549.336 200.681 L 547.11 196.171 L 539.207 200.453 L 536.96 214.052 L 534.16 214.462 L 534 216.634 L 530.927 216.277 L 532.563 223.395 L 525.769 228.74 L 527.609 234.338 L 533.205 232.185 L 532.729 230.72 L 540.437 229.005 L 541.942 231.398 L 547.117 231.209 L 543.634 238.856 L 545.287 240.932 L 544.012 247.992 L 547.797 245.862 L 548.581 247.796 L 554.013 248.732 L 555.02 246.881 L 559.824 246.09 L 564.159 242.524 L 567.187 249.537 L 572.494 254.982 L 574.037 252.617 L 575.682 255.343 L 578.551 254.635 L 579.977 255.743 L 580.833 254.03 L 579.752 251.318 L 583.883 249.178 L 582.742 247.548 L 583.875 243.593 L 588.45 242.146 L 592.683 236.544 L 602.177 234.935 L 602.287 231.787 L 607.598 229.188 L 605.839 225.545 L 599.444 227.309 L 595.603 224.895 L 595.455 221.537 L 590.937 220.075 L 587.774 211.183 L 593.287 210.459 L 595.884 205.632 L 606.64 207.517 L 608.378 198.321 L 611.32 198.821 L 611.007 196.453 L 613.319 192.146 L 612.516 188.433 L 617.138 186.573 L 616.21 183.313 L 611.932 184.472 L 606.506 191.047 L 598.322 190.316 L 595.565 180.465 L 597.249 167.481 Z" ></path>
    <path id="ZA-LP" title="Limpopo"  d="M 647.965 0.568 L 660.28 3.363 L 670.101 9.501 L 674.936 8.727 L 678.128 11.749 L 704.552 8.557 L 725.743 12.221 L 740.4 55.473 L 740.324 70.941 L 746.821 78.893 L 750.372 92.794 L 755.925 96.722 L 751.109 97.308 L 747.388 101.992 L 744.744 99.82 L 741.948 101.935 L 734.998 100.084 L 732.826 102.37 L 725.611 104.183 L 736.565 103.881 L 736.565 106.808 L 733.921 109.282 L 734.412 114.949 L 730.125 120.482 L 732.826 122.163 L 731.787 124.09 L 736.188 124.165 L 733.997 126.243 L 735.149 127.981 L 742.25 130.965 L 742.25 133.836 L 738.265 134.308 L 735.697 137.594 L 729.086 137.594 L 729.955 143.676 L 736.131 144.337 L 735.697 152.232 L 728.822 151.476 L 724.931 153.856 L 717.489 153.875 L 714.864 151.118 L 713.466 143.6 L 708.726 141.277 L 709.028 133.552 L 704.684 130.455 L 706.61 127.811 L 702.568 124.279 L 696.09 128.151 L 693.994 127.15 L 693.956 130.455 L 691.104 133.307 L 689.158 130.738 L 682.076 128.377 L 681.283 130.644 L 675.56 129.133 L 675.371 132.514 L 672.727 130.474 L 668.326 130.625 L 668.817 136.291 L 671.499 138.558 L 670.781 142.127 L 667.891 142.505 L 655.653 152.572 L 655.634 154.385 L 652.234 154.706 L 655.483 159.862 L 653.273 160.618 L 651.762 164.074 L 643.074 162.563 L 635.651 151.873 L 632.365 152.874 L 633.97 150.192 L 632.365 144.11 L 627.303 142.845 L 624.489 143.6 L 623.828 149.455 L 618.634 151.665 L 616.688 147.378 L 611.079 145.772 L 611.872 149.795 L 601.673 149.569 L 595.251 152.893 L 595.327 156.973 L 588.112 158.672 L 588.055 160.429 L 583.371 161.883 L 583.617 165.019 L 595.667 161.241 L 597.385 164.886 L 599.123 164.792 L 596.007 168.116 L 590.548 166.813 L 590.189 169.363 L 580.368 169.816 L 576.798 163.942 L 572.341 164.433 L 572.077 161.694 L 569.395 161.241 L 569.886 158.71 L 571.756 158.276 L 576.572 159.938 L 577.422 156.425 L 570.339 152.836 L 564.333 151.514 L 560.083 152.78 L 560.971 150.06 L 557.42 149.229 L 557.137 152.27 L 551.678 153.138 L 547.372 151.155 L 543.425 158.559 L 540.875 155.745 L 534.642 156.463 L 531.658 152.742 L 525.047 152.44 L 523.593 148.247 L 520.061 146.906 L 518.947 137.821 L 516.926 137.878 L 516.68 140.597 L 505.707 145.886 L 502.874 145.697 L 499.512 143.166 L 489.294 142.618 L 487.481 138.973 L 487.707 133.231 L 491.239 130.606 L 495.338 123.089 L 500.721 120.029 L 501.476 117.347 L 510.372 113.06 L 510.618 104.561 L 517.455 80.139 L 518.607 82.33 L 520.005 81.801 L 520.08 78.723 L 524.613 76.135 L 523.914 73.907 L 527.125 74.473 L 526.521 72.811 L 532.111 70.28 L 533.301 67.542 L 535.416 68.901 L 536.871 67.013 L 537.532 68.731 L 539.005 66.692 L 543.141 66.352 L 546.749 57.815 L 550.847 56.984 L 553.454 58.551 L 555.512 55.492 L 554.549 53.659 L 562.784 49.108 L 563.067 44.084 L 568.186 41.213 L 568.224 37.473 L 573.588 33.809 L 575.892 28.615 L 582.956 23.648 L 591.115 24.195 L 606.64 18.775 L 608.434 16.773 L 610.89 17.472 L 616.632 4.685 L 622.373 4.534 L 624.791 2.815 L 631.345 4.024 L 647.965 0.568 Z" ></path>
    <path d="M 660.463 2.921 L 670.201 9.006 L 675.091 8.224 L 678.293 11.254 L 704.563 8.079 L 726.1 11.804 L 740.872 55.395 L 740.796 70.773 L 747.254 78.676 L 750.786 92.509 L 757.196 97.043 L 751.358 97.754 L 747.46 102.661 L 744.732 100.42 L 742.05 102.451 L 735.147 100.613 L 733.073 102.795 L 729.898 103.592 L 737.038 103.395 L 737.038 107.012 L 734.412 109.471 L 734.898 115.092 L 730.818 120.358 L 733.453 121.997 L 732.571 123.631 L 737.351 123.714 L 734.609 126.313 L 735.464 127.601 L 742.723 130.651 L 742.723 134.255 L 738.516 134.754 L 735.927 138.066 L 729.63 138.066 L 730.37 143.245 L 736.628 143.916 L 736.14 152.755 L 728.931 151.964 L 725.065 154.328 L 717.287 154.347 L 714.426 151.342 L 713.045 143.92 L 708.242 141.566 L 708.546 133.789 L 704.021 130.563 L 705.974 127.882 L 702.516 124.861 L 696.115 128.685 L 694.456 127.894 L 694.426 130.653 L 691.055 134.025 L 688.87 131.141 L 682.369 128.972 L 681.585 131.212 L 675.998 129.737 L 675.792 133.435 L 672.574 130.952 L 668.84 131.08 L 669.27 136.057 L 672.016 138.376 L 671.178 142.552 L 668.086 142.956 L 656.123 152.797 L 656.102 154.816 L 653.042 155.105 L 656.2 160.115 L 653.622 160.997 L 652.045 164.603 L 642.798 162.994 L 635.46 152.425 L 631.33 153.682 L 633.462 150.12 L 631.979 144.501 L 627.307 143.332 L 624.921 143.973 L 624.266 149.782 L 618.394 152.281 L 616.348 147.773 L 611.691 146.439 L 612.448 150.281 L 601.782 150.043 L 595.729 153.178 L 595.806 157.345 L 588.573 159.048 L 588.516 160.78 L 583.872 162.223 L 584.042 164.391 L 595.918 160.667 L 597.676 164.397 L 600.271 164.257 L 596.163 168.639 L 590.943 167.393 L 590.603 169.816 L 580.109 170.301 L 576.551 164.444 L 571.916 164.954 L 571.64 162.1 L 568.839 161.626 L 569.48 158.319 L 571.78 157.785 L 576.236 159.322 L 576.874 156.678 L 570.178 153.284 L 564.35 152.001 L 559.354 153.49 L 560.363 150.402 L 557.839 149.812 L 557.573 152.678 L 551.61 153.628 L 547.58 151.771 L 543.525 159.373 L 540.688 156.242 L 534.436 156.961 L 531.424 153.205 L 524.706 152.897 L 523.219 148.609 L 519.627 147.246 L 518.531 138.304 L 517.358 138.338 L 517.126 140.907 L 505.799 146.366 L 502.702 146.16 L 499.342 143.631 L 488.994 143.075 L 487.005 139.075 L 487.245 132.988 L 490.875 130.289 L 494.988 122.745 L 500.318 119.714 L 501.08 117.015 L 509.907 112.759 L 510.147 104.489 L 517.321 78.868 L 518.83 81.741 L 519.54 81.473 L 519.614 78.445 L 524.048 75.914 L 523.23 73.306 L 526.402 73.867 L 525.928 72.562 L 531.75 69.925 L 533.09 66.845 L 535.307 68.271 L 537.009 66.059 L 537.66 67.747 L 538.75 66.238 L 542.818 65.904 L 546.411 57.401 L 550.934 56.485 L 553.312 57.915 L 554.963 55.461 L 553.917 53.471 L 562.327 48.821 L 562.61 43.798 L 567.716 40.935 L 567.753 37.222 L 573.21 33.495 L 575.514 28.303 L 582.82 23.166 L 591.051 23.718 L 606.37 18.369 L 608.28 16.238 L 610.625 16.905 L 616.322 4.22 L 622.217 4.065 L 624.679 2.315 L 631.339 3.542 L 647.969 0.084 L 660.463 2.921 Z M 631.35 4.505 L 624.902 3.316 L 622.53 5.002 L 616.941 5.15 L 611.154 18.038 L 608.589 17.307 L 606.91 19.181 L 591.179 24.673 L 583.09 24.129 L 576.27 28.927 L 573.965 34.123 L 568.694 37.724 L 568.656 41.49 L 563.524 44.369 L 563.241 49.395 L 555.182 53.848 L 556.062 55.522 L 553.595 59.188 L 550.76 57.482 L 547.087 58.228 L 543.464 66.799 L 539.26 67.145 L 537.403 69.716 L 536.731 67.967 L 535.526 69.532 L 533.513 68.239 L 532.472 70.635 L 527.114 73.06 L 527.848 75.079 L 524.598 74.507 L 525.178 76.356 L 520.545 79 L 520.469 82.13 L 518.384 82.92 L 517.589 81.41 L 511.088 104.632 L 510.837 113.36 L 501.873 117.68 L 501.123 120.345 L 495.687 123.433 L 491.604 130.923 L 488.17 133.475 L 487.957 138.871 L 489.594 142.161 L 499.68 142.701 L 503.046 145.236 L 505.614 145.406 L 516.235 140.288 L 516.493 137.417 L 519.362 137.337 L 520.496 146.566 L 523.967 147.884 L 525.389 151.983 L 531.892 152.279 L 534.848 155.964 L 541.062 155.248 L 543.325 157.745 L 547.164 150.54 L 551.746 152.649 L 556.701 151.862 L 557.001 148.645 L 561.579 149.718 L 560.812 152.069 L 564.316 151.027 L 570.5 152.389 L 577.969 156.172 L 576.908 160.554 L 571.729 158.767 L 570.292 159.101 L 569.95 160.856 L 572.511 161.288 L 572.766 163.912 L 577.046 163.44 L 580.627 169.331 L 589.776 168.909 L 590.154 166.233 L 595.85 167.593 L 597.975 165.326 L 597.095 165.376 L 595.416 161.815 L 583.192 165.646 L 582.871 161.545 L 587.594 160.078 L 587.651 158.297 L 594.847 156.601 L 594.773 152.608 L 601.563 149.095 L 611.296 149.31 L 610.467 145.106 L 617.028 146.983 L 618.873 151.05 L 623.389 149.129 L 624.056 143.228 L 627.299 142.358 L 632.75 143.719 L 634.478 150.264 L 633.4 152.066 L 635.842 151.322 L 643.349 162.133 L 651.478 163.545 L 652.923 160.238 L 654.765 159.609 L 651.426 154.308 L 655.165 153.954 L 655.182 152.347 L 667.697 142.054 L 670.385 141.702 L 670.981 138.739 L 668.364 136.525 L 667.812 130.17 L 672.88 129.996 L 674.95 131.592 L 675.12 128.528 L 680.98 130.075 L 681.783 127.782 L 689.447 130.336 L 691.153 132.589 L 693.486 130.257 L 693.529 126.406 L 696.066 127.616 L 702.621 123.697 L 707.247 127.739 L 705.347 130.347 L 709.509 133.316 L 709.209 140.988 L 713.888 143.281 L 715.302 150.893 L 717.691 153.403 L 724.797 153.384 L 728.712 150.989 L 735.253 151.709 L 735.634 144.758 L 729.539 144.107 L 728.542 137.122 L 735.466 137.122 L 738.014 133.862 L 741.778 133.416 L 741.778 131.278 L 734.833 128.36 L 733.385 126.173 L 735.024 124.619 L 731.003 124.549 L 732.199 122.33 L 729.432 120.607 L 733.925 114.805 L 733.43 109.095 L 736.093 106.604 L 736.093 104.366 L 721.323 104.774 L 732.578 101.945 L 734.849 99.555 L 741.846 101.42 L 744.755 99.219 L 747.316 101.323 L 750.859 96.862 L 754.654 96.401 L 749.958 93.079 L 746.389 79.11 L 739.852 71.109 L 739.927 55.55 L 725.386 12.638 L 704.54 9.035 L 677.964 12.244 L 674.782 9.229 L 670.001 9.996 L 660.097 3.805 L 647.962 1.051 L 631.35 4.505 Z" ></path>
    <path id="ZA-MP" title="Mpumalanga"  d="M 756.076 97.61 L 757.795 109.358 L 761.44 115.421 L 762.554 123.429 L 763.687 167.379 L 761.138 178.92 L 762.649 187.117 L 759.003 197.58 L 761.157 204.134 L 755.642 206.665 L 733.827 191.555 L 728.727 192.877 L 719.586 202.377 L 712.276 219.338 L 704.854 229.462 L 703.003 237.47 L 703.815 251.673 L 705.269 252.334 L 708.235 249.728 L 708.952 253.449 L 712.106 256.622 L 711.861 262.042 L 720.379 271.845 L 727.235 274.602 L 721.89 281.496 L 718.264 279.57 L 711.011 280.684 L 709.028 277.832 L 704.873 279.796 L 697.639 276.17 L 692.426 278.455 L 685.74 278.153 L 682.756 275.66 L 671.216 282.308 L 667.117 280.967 L 664.681 282.365 L 660.582 281.024 L 656.559 282.346 L 654.274 286.728 L 652.782 286.029 L 649.93 285.953 L 648.929 288.314 L 645.132 289.013 L 636.69 275.074 L 631.401 274.319 L 631.005 272.222 L 625.263 268.936 L 620.579 269.786 L 617.557 262.609 L 614.705 261.211 L 609.284 263.931 L 597.612 258.888 L 596.063 260.38 L 597.782 261.683 L 592.248 264.403 L 593.287 262.363 L 589.774 259.134 L 586.96 260.531 L 585.411 257.49 L 580.141 256.47 L 581.35 254.053 L 580.349 251.541 L 584.58 249.35 L 583.258 247.461 L 584.259 243.967 L 588.735 242.551 L 592.947 236.979 L 602.636 235.336 L 602.749 232.087 L 608.227 229.405 L 606.092 224.985 L 599.52 226.799 L 596.063 224.627 L 595.912 221.189 L 591.304 219.697 L 588.414 211.576 L 593.589 210.896 L 596.139 206.155 L 607.018 208.063 L 608.756 198.864 L 611.872 199.393 L 611.494 196.541 L 613.817 192.216 L 613.062 188.722 L 617.708 186.852 L 616.537 182.735 L 611.664 184.057 L 606.3 190.554 L 598.689 189.874 L 596.044 180.431 L 597.763 167.191 L 604.09 164.188 L 602.693 160.467 L 595.667 161.241 L 583.617 165.019 L 583.371 161.883 L 588.055 160.429 L 588.112 158.672 L 595.327 156.973 L 595.251 152.893 L 601.673 149.569 L 611.872 149.795 L 611.079 145.772 L 616.688 147.378 L 618.634 151.665 L 623.828 149.455 L 624.489 143.6 L 627.303 142.845 L 632.365 144.11 L 633.97 150.192 L 632.365 152.874 L 635.651 151.873 L 643.074 162.563 L 651.762 164.074 L 653.273 160.618 L 655.483 159.862 L 652.234 154.706 L 655.634 154.385 L 655.653 152.572 L 667.891 142.505 L 670.781 142.127 L 671.499 138.558 L 668.817 136.291 L 668.326 130.625 L 672.727 130.474 L 675.371 132.514 L 675.56 129.133 L 681.283 130.644 L 682.076 128.377 L 689.158 130.738 L 691.104 133.307 L 693.956 130.455 L 693.994 127.15 L 696.09 128.151 L 702.568 124.279 L 706.61 127.811 L 704.684 130.455 L 709.028 133.552 L 708.726 141.277 L 713.466 143.6 L 714.864 151.118 L 717.489 153.875 L 724.931 153.856 L 728.822 151.476 L 735.697 152.232 L 736.131 144.337 L 729.955 143.676 L 729.086 137.594 L 735.697 137.594 L 738.265 134.308 L 742.25 133.836 L 742.25 130.965 L 735.149 127.981 L 733.997 126.243 L 736.188 124.165 L 731.787 124.09 L 732.826 122.163 L 730.125 120.482 L 734.412 114.949 L 733.921 109.282 L 736.565 106.808 L 736.565 103.881 L 725.611 104.183 L 732.826 102.37 L 734.998 100.084 L 741.948 101.935 L 744.744 99.82 L 747.388 101.992 L 751.109 97.308 L 755.925 96.722 L 756.076 97.61 Z" ></path>
    <path d="M 756.542 97.542 L 758.248 109.195 L 761.895 115.26 L 763.026 123.389 L 764.162 167.425 L 761.619 178.927 L 763.136 187.154 L 759.502 197.584 L 761.736 204.387 L 755.594 207.207 L 733.736 192.067 L 728.975 193.3 L 719.986 202.644 L 712.688 219.574 L 705.292 229.662 L 703.479 237.51 L 704.27 251.361 L 705.186 251.779 L 708.542 248.829 L 709.389 253.218 L 712.588 256.436 L 712.341 261.874 L 720.66 271.45 L 727.991 274.398 L 722.02 282.1 L 718.181 280.061 L 710.792 281.196 L 708.869 278.429 L 704.867 280.321 L 697.626 276.691 L 692.515 278.931 L 685.559 278.618 L 682.707 276.234 L 671.269 282.822 L 667.17 281.481 L 664.734 282.879 L 660.582 281.521 L 656.89 282.735 L 654.483 287.347 L 652.67 286.499 L 650.239 286.433 L 649.265 288.732 L 644.898 289.536 L 636.401 275.511 L 631.001 274.738 L 630.582 272.525 L 625.178 269.431 L 620.29 270.319 L 617.191 262.954 L 614.707 261.738 L 609.3 264.452 L 597.714 259.445 L 596.789 260.337 L 598.677 261.77 L 591.185 265.451 L 592.703 262.469 L 589.693 259.7 L 586.752 261.162 L 585.096 257.91 L 579.441 256.816 L 580.833 254.03 L 579.752 251.318 L 583.883 249.178 L 582.742 247.548 L 583.875 243.593 L 588.45 242.146 L 592.683 236.544 L 602.177 234.935 L 602.287 231.787 L 607.598 229.188 L 605.839 225.545 L 599.444 227.309 L 595.603 224.895 L 595.455 221.537 L 590.937 220.075 L 587.774 211.183 L 593.287 210.459 L 595.884 205.632 L 606.64 207.517 L 608.378 198.321 L 611.32 198.821 L 611.007 196.453 L 613.319 192.146 L 612.516 188.433 L 617.138 186.573 L 616.21 183.313 L 611.932 184.472 L 606.506 191.047 L 598.322 190.316 L 595.565 180.465 L 597.329 166.875 L 603.495 163.948 L 602.379 160.977 L 595.765 161.706 L 583.192 165.646 L 582.871 161.543 L 587.594 160.078 L 587.651 158.297 L 594.847 156.601 L 594.773 152.608 L 601.563 149.095 L 611.296 149.31 L 610.467 145.106 L 617.028 146.983 L 618.873 151.05 L 623.389 149.129 L 624.056 143.228 L 627.299 142.358 L 632.75 143.719 L 634.478 150.264 L 633.4 152.066 L 635.842 151.322 L 643.349 162.133 L 651.477 163.545 L 652.923 160.238 L 654.765 159.609 L 651.426 154.308 L 655.165 153.954 L 655.182 152.347 L 667.697 142.054 L 670.385 141.702 L 670.981 138.739 L 668.364 136.525 L 667.812 130.17 L 672.88 129.996 L 674.95 131.592 L 675.12 128.528 L 680.98 130.075 L 681.783 127.782 L 689.447 130.336 L 691.153 132.589 L 693.486 130.257 L 693.529 126.406 L 696.066 127.616 L 702.621 123.697 L 707.247 127.739 L 705.347 130.347 L 709.509 133.316 L 709.209 140.988 L 713.888 143.281 L 715.302 150.893 L 717.691 153.403 L 724.797 153.384 L 728.712 150.989 L 735.253 151.709 L 735.634 144.758 L 729.539 144.107 L 728.542 137.122 L 735.466 137.122 L 738.014 133.862 L 741.778 133.416 L 741.778 131.278 L 734.833 128.36 L 733.385 126.173 L 735.024 124.617 L 731.003 124.549 L 732.199 122.33 L 729.432 120.607 L 733.925 114.805 L 733.43 109.093 L 736.093 106.604 L 736.093 104.366 L 721.323 104.774 L 732.578 101.945 L 734.849 99.555 L 741.846 101.42 L 744.755 99.219 L 747.316 101.321 L 750.859 96.862 L 756.314 96.199 L 756.389 96.643 L 756.542 97.542 Z M 755.536 97.246 L 751.358 97.754 L 747.46 102.661 L 744.732 100.42 L 742.05 102.451 L 735.147 100.613 L 733.073 102.795 L 729.898 103.592 L 737.038 103.395 L 737.038 107.012 L 734.412 109.471 L 734.9 115.092 L 730.818 120.358 L 733.453 121.997 L 732.571 123.631 L 737.351 123.714 L 734.609 126.313 L 735.464 127.601 L 742.723 130.651 L 742.723 134.255 L 738.516 134.754 L 735.927 138.066 L 729.63 138.066 L 730.37 143.245 L 736.628 143.916 L 736.14 152.755 L 728.931 151.964 L 725.065 154.328 L 717.287 154.347 L 714.426 151.342 L 713.045 143.92 L 708.242 141.566 L 708.546 133.789 L 704.021 130.563 L 705.974 127.882 L 702.516 124.861 L 696.115 128.685 L 694.458 127.894 L 694.426 130.653 L 691.055 134.025 L 688.87 131.141 L 682.369 128.972 L 681.585 131.212 L 675.998 129.737 L 675.792 133.435 L 672.574 130.952 L 668.84 131.08 L 669.27 136.057 L 672.016 138.376 L 671.178 142.552 L 668.086 142.956 L 656.123 152.797 L 656.102 154.816 L 653.042 155.105 L 656.2 160.115 L 653.622 160.997 L 652.045 164.603 L 642.798 162.994 L 635.46 152.425 L 631.33 153.682 L 633.462 150.12 L 631.979 144.501 L 627.307 143.332 L 624.921 143.973 L 624.266 149.782 L 618.394 152.281 L 616.348 147.773 L 611.691 146.439 L 612.448 150.281 L 601.782 150.043 L 595.729 153.178 L 595.806 157.345 L 588.573 159.048 L 588.516 160.78 L 583.872 162.223 L 584.042 164.391 L 595.569 160.776 L 603.006 159.957 L 604.685 164.427 L 598.198 167.506 L 596.524 180.397 L 599.055 189.432 L 606.094 190.061 L 611.396 183.641 L 616.864 182.157 L 618.279 187.132 L 613.608 189.011 L 614.316 192.286 L 611.982 196.63 L 612.423 199.966 L 609.133 199.408 L 607.396 208.608 L 596.394 206.678 L 593.889 211.332 L 589.054 211.968 L 591.67 219.319 L 596.369 220.842 L 596.524 224.358 L 599.595 226.289 L 606.346 224.426 L 608.856 229.622 L 603.212 232.387 L 603.095 235.736 L 593.211 237.413 L 589.02 242.955 L 584.642 244.341 L 583.773 247.374 L 585.277 249.522 L 580.946 251.764 L 581.868 254.076 L 580.842 256.125 L 585.726 257.071 L 587.167 259.9 L 589.855 258.567 L 593.871 262.258 L 593.311 263.355 L 596.887 261.596 L 595.338 260.424 L 597.51 258.329 L 609.269 263.41 L 614.703 260.684 L 617.923 262.263 L 620.868 269.253 L 625.348 268.441 L 631.428 271.92 L 631.802 273.9 L 636.977 274.638 L 645.367 288.49 L 648.593 287.895 L 649.62 285.474 L 652.893 285.559 L 654.064 286.108 L 656.229 281.957 L 660.582 280.527 L 664.628 281.851 L 667.064 280.453 L 671.163 281.794 L 682.805 275.086 L 685.921 277.688 L 692.337 277.979 L 697.652 275.649 L 704.878 279.271 L 709.186 277.235 L 711.23 280.172 L 718.347 279.078 L 721.76 280.892 L 726.48 274.806 L 720.098 272.239 L 711.381 262.208 L 711.625 256.807 L 708.516 253.679 L 707.927 250.627 L 705.352 252.889 L 703.36 251.985 L 702.527 237.43 L 704.416 229.262 L 711.865 219.102 L 719.185 202.111 L 728.48 192.454 L 733.917 191.043 L 755.689 206.123 L 760.577 203.881 L 758.505 197.576 L 762.161 187.079 L 760.656 178.91 L 763.213 167.334 L 762.082 123.467 L 760.985 115.581 L 757.341 109.52 L 755.609 97.684 L 755.536 97.246 Z" ></path>
    <path id="ZA-NC" title="Northern Cape"  d="M 178.75 145.281 L 186.721 148.643 L 192.425 154.291 L 195.295 160.939 L 196.674 160.977 L 196.278 164.112 L 200.319 168.248 L 199.318 169.514 L 201.453 173.272 L 203.53 174.103 L 204.493 177.239 L 206.911 177.069 L 204.796 180.487 L 207.837 184.378 L 205.929 186.777 L 207.44 186.89 L 207.119 189.704 L 210.934 194.917 L 210.367 197.202 L 212.351 196.069 L 214.9 204.342 L 214.258 212.52 L 215.882 214.654 L 203.946 232.257 L 204.815 250.181 L 207.818 256.149 L 217.998 250.068 L 229.84 254.336 L 242.23 251.692 L 248.501 253.656 L 257.151 253.619 L 261.25 250.011 L 261.08 244.043 L 274.187 241.247 L 279.759 234.354 L 281.591 228.385 L 289.807 224.249 L 292.848 219.13 L 299.477 218.715 L 300.403 214.616 L 302.896 212.803 L 305.899 212.973 L 305.88 237.338 L 312.831 237.734 L 313.643 239.453 L 316.419 239.283 L 317.892 241.625 L 319.139 240.53 L 323.049 243.325 L 321.084 247.782 L 322.765 250.294 L 320.82 253.505 L 324.503 261.532 L 320.914 262.609 L 320.253 267.614 L 322.236 273.016 L 325.447 272.128 L 331.472 280.042 L 337.535 280.911 L 341.029 284.102 L 342.88 283.385 L 344.561 285.217 L 343.843 287.03 L 349.963 287.068 L 357.178 291.336 L 359.822 287.691 L 363.618 288.484 L 365.318 287.238 L 363.335 286.01 L 364.959 283.234 L 369.303 284.197 L 369.492 278.323 L 373.137 280.778 L 371.343 293.886 L 374.346 294.944 L 373.1 300.629 L 374.743 302.215 L 389.928 298.759 L 390.948 306.087 L 387.001 310.658 L 392.365 315.078 L 390.778 318.458 L 394.896 321.537 L 399.787 316.419 L 399.957 311.565 L 403.924 306.597 L 403.565 296.455 L 407.323 294.755 L 408.249 299.477 L 419.657 299.363 L 410.383 311.13 L 415.785 321.782 L 418.165 320.328 L 419.468 322.614 L 416.918 329.47 L 413.235 331.169 L 415.143 333.549 L 413.575 340.424 L 411.29 342.993 L 410.591 350.378 L 413.178 351.322 L 386.623 407.965 L 386.944 410.042 L 390.721 415.558 L 401.771 421.734 L 403.149 425.776 L 408.815 427.362 L 413.518 437.467 L 427.325 453.238 L 433.256 458.62 L 437.637 458.96 L 441.377 462.209 L 442.114 471.955 L 445.646 472.408 L 442.17 476.582 L 444.645 480.964 L 440.414 487.896 L 441.528 489.274 L 437.505 493.127 L 437.524 496.263 L 429.478 495.734 L 411.894 503.043 L 411.705 505.612 L 409.986 504.667 L 408.249 506.821 L 397.294 507.161 L 397.181 510.976 L 395.16 511.977 L 394.404 524.518 L 384.98 524.877 L 382.581 528.163 L 377.349 526.312 L 377.123 529.391 L 373.005 529.617 L 370.928 525.84 L 371.778 524.669 L 367.717 524.726 L 366.942 528.371 L 362.882 531.28 L 359.784 528.163 L 361.371 525.67 L 356.97 523.762 L 356.46 521.855 L 350.284 521.307 L 345.864 524.197 L 340.519 523.158 L 340.104 524.763 L 333.928 526.652 L 331.359 533.867 L 324.295 540.1 L 322.388 537.229 L 323.143 534.849 L 318.799 532.885 L 314.833 534.094 L 312.812 531.544 L 309.072 532.772 L 307.297 530.071 L 299.534 529.976 L 300.875 525.651 L 298.533 522.554 L 286.124 516.793 L 280.231 528.579 L 279.948 534.471 L 275.604 532.583 L 275.585 541.875 L 277.908 544.331 L 275.982 548.524 L 275.037 545.672 L 271.978 547.088 L 271.808 552.282 L 268.521 553.566 L 267.898 555.927 L 264.555 556.551 L 258.341 552.868 L 255.791 555.436 L 252.939 553.019 L 249.2 554.341 L 249.672 559.044 L 245.384 559.913 L 243.25 562.33 L 237.244 562.613 L 236.337 565.579 L 232.277 567.94 L 229.878 574.38 L 230.747 576.836 L 223.211 579.291 L 221.284 578.214 L 212.823 581.671 L 214.069 588.3 L 212.917 592.153 L 209.045 595.118 L 203.077 595.609 L 201.113 592.569 L 197.959 595.288 L 194.483 595.609 L 190.819 593.664 L 190.63 591.058 L 187.155 587.167 L 182.471 585.203 L 182.565 580.009 L 179.94 577.497 L 176.994 563.917 L 179.166 564.993 L 180.809 561.272 L 183.963 558.099 L 185.21 558.779 L 181.904 551.564 L 177.825 555.871 L 175.728 555.814 L 170.024 562.972 L 163.867 562.273 L 156.954 568.242 L 155.557 565.787 L 154.442 566.674 L 152.629 573.039 L 153.989 577.421 L 150.287 579.82 L 147.983 575.098 L 148.908 568.582 L 144.357 558.251 L 149.116 555.55 L 148.436 546.087 L 140.56 543.216 L 139.163 540.1 L 136.745 539.288 L 137.916 534.037 L 134.176 537.682 L 126.206 535.265 L 129.039 527.181 L 126.735 521.307 L 128.529 517.02 L 126.848 515.49 L 127.906 513.204 L 124.563 512.166 L 125.45 505.253 L 123.335 503.1 L 125.186 500.493 L 122.391 499.455 L 121.635 490.294 L 119.237 486.007 L 119.822 482.966 L 123.203 480.265 L 118.217 477.394 L 122.598 475.997 L 121.824 468.631 L 117.386 468.102 L 113.457 464.645 L 114.175 462.511 L 112.229 459.47 L 107.375 458.394 L 102.805 451.897 L 99.159 452.879 L 100.444 460.377 L 94.381 453.181 L 95.288 456.637 L 92.776 464.797 L 87.846 473.296 L 83.351 475.279 L 79.403 471.785 L 74.776 472.03 L 74.568 479.189 L 68.864 479.869 L 71.131 484.175 L 66.088 488.783 L 67.032 493.977 L 63.708 492.617 L 40.137 446.589 L 28.446 406.076 L 23.913 392.44 L 18.832 383.468 L 17.604 376.744 L 14.394 374.043 L 11.523 367.622 L 7.292 364.317 L 5.705 356.516 L 0.247 351.454 L 0.984 348.489 L 5.517 346.94 L 10.692 342.37 L 13.43 343.748 L 17.434 336.42 L 14.771 330.999 L 17.888 331.226 L 17.038 328.261 L 19.361 327.959 L 18.454 325.522 L 21.174 325.73 L 21.117 321.084 L 30.901 318.232 L 36.019 322.387 L 36.775 329.337 L 42.101 328.582 L 45.369 332.473 L 46.615 338.875 L 42.989 342.218 L 45.312 347.79 L 47.748 347.866 L 46.899 356.176 L 54.699 354.439 L 58.533 359.009 L 63.368 357.574 L 71.509 358.631 L 78.478 364.959 L 84.635 366.904 L 88.847 365.11 L 100.614 365.658 L 111.738 362.749 L 122.353 364.052 L 125.356 368.056 L 130.323 370.002 L 133.345 369.246 L 139.219 366.224 L 136.688 361.332 L 137.859 357.725 L 147.36 355.742 L 152.44 345.562 L 158.824 344.9 L 160.883 343.125 L 164.453 344.239 L 167.626 340.632 L 173.707 340.084 L 173.877 139.389 L 178.75 145.281 Z" ></path>
    <path d="M 179.041 144.89 L 186.989 148.243 L 192.821 154.019 L 195.609 160.474 L 197.209 160.52 L 196.774 163.946 L 200.948 168.216 L 199.887 169.557 L 201.781 172.895 L 203.916 173.748 L 204.835 176.742 L 207.799 176.532 L 205.37 180.455 L 208.437 184.38 L 206.854 186.372 L 207.965 186.456 L 207.608 189.574 L 211.446 194.817 L 211.091 196.245 L 212.628 195.367 L 215.378 204.289 L 214.744 212.378 L 216.464 214.639 L 204.425 232.391 L 205.281 250.058 L 208.012 255.485 L 217.947 249.548 L 229.874 253.847 L 242.253 251.205 L 248.572 253.184 L 256.972 253.146 L 260.772 249.803 L 260.596 243.663 L 273.925 240.821 L 279.334 234.127 L 281.198 228.055 L 289.471 223.89 L 292.57 218.675 L 299.094 218.265 L 299.982 214.339 L 302.754 212.322 L 306.371 212.527 L 306.352 236.892 L 313.138 237.279 L 313.934 238.962 L 316.67 238.794 L 317.996 240.906 L 319.109 239.927 L 323.636 243.164 L 321.621 247.735 L 323.324 250.281 L 321.354 253.535 L 325.158 261.829 L 321.343 262.973 L 320.737 267.561 L 322.529 272.445 L 325.629 271.588 L 331.731 279.602 L 337.747 280.465 L 341.131 283.557 L 343.01 282.828 L 345.109 285.115 L 344.537 286.562 L 350.093 286.596 L 357.047 290.711 L 359.62 287.166 L 363.509 287.98 L 364.474 287.272 L 362.695 286.169 L 364.725 282.699 L 368.85 283.613 L 369.048 277.454 L 373.646 280.552 L 371.863 293.569 L 374.898 294.638 L 373.617 300.472 L 374.886 301.698 L 390.325 298.185 L 391.445 306.235 L 387.673 310.601 L 392.948 314.947 L 391.369 318.311 L 394.843 320.908 L 399.321 316.222 L 399.491 311.393 L 403.446 306.439 L 403.081 296.154 L 407.673 294.079 L 408.636 299.001 L 420.637 298.882 L 410.94 311.185 L 415.976 321.114 L 418.333 319.671 L 419.987 322.572 L 417.292 329.817 L 413.981 331.345 L 415.655 333.432 L 414.008 340.647 L 411.745 343.191 L 411.095 350.059 L 413.824 351.056 L 387.112 408.035 L 387.394 409.865 L 391.048 415.199 L 402.16 421.411 L 403.516 425.388 L 409.152 426.965 L 413.919 437.206 L 427.663 452.907 L 433.454 458.161 L 437.83 458.501 L 441.834 461.98 L 442.556 471.535 L 446.558 472.049 L 442.743 476.633 L 445.192 480.973 L 440.99 487.858 L 442.168 489.316 L 437.979 493.328 L 438 496.767 L 429.557 496.212 L 412.344 503.368 L 412.123 506.381 L 410.105 505.272 L 408.479 507.285 L 397.753 507.62 L 397.644 511.272 L 395.615 512.279 L 394.85 524.973 L 385.227 525.34 L 382.755 528.726 L 377.774 526.964 L 377.563 529.84 L 372.735 530.105 L 370.369 525.806 L 370.843 525.154 L 368.1 525.192 L 367.366 528.649 L 362.831 531.897 L 359.184 528.229 L 360.676 525.883 L 356.573 524.104 L 356.09 522.297 L 350.405 521.793 L 345.963 524.697 L 340.865 523.706 L 340.495 525.137 L 334.292 527.034 L 331.763 534.141 L 324.201 540.812 L 321.868 537.303 L 322.565 535.106 L 318.767 533.389 L 314.663 534.64 L 312.645 532.095 L 308.876 533.333 L 307.04 530.539 L 298.896 530.441 L 300.352 525.744 L 298.227 522.933 L 286.341 517.414 L 280.698 528.701 L 280.386 535.178 L 276.074 533.302 L 276.057 541.688 L 278.471 544.238 L 275.91 549.81 L 274.756 546.323 L 272.44 547.394 L 272.268 552.609 L 268.916 553.92 L 268.278 556.337 L 264.466 557.047 L 258.417 553.461 L 255.82 556.078 L 252.841 553.555 L 249.706 554.662 L 250.184 559.422 L 245.634 560.343 L 243.471 562.793 L 237.599 563.069 L 236.734 565.894 L 232.66 568.263 L 230.38 574.384 L 231.353 577.134 L 223.16 579.805 L 221.252 578.737 L 213.357 581.962 L 214.555 588.327 L 213.325 592.434 L 209.223 595.577 L 202.833 596.104 L 201.011 593.281 L 198.153 595.745 L 194.387 596.093 L 190.368 593.959 L 190.171 591.252 L 186.874 587.562 L 181.993 585.514 L 182.089 580.207 L 179.509 577.738 L 176.325 563.057 L 178.933 564.351 L 180.412 561.002 L 183.878 557.516 L 184.188 557.684 L 181.766 552.397 L 178.023 556.349 L 175.951 556.292 L 170.23 563.471 L 164.02 562.766 L 156.828 568.975 L 155.419 566.5 L 154.854 566.95 L 153.122 573.034 L 154.546 577.623 L 150.096 580.505 L 147.496 575.175 L 148.421 568.65 L 143.752 558.05 L 148.623 555.287 L 147.987 546.425 L 140.211 543.592 L 138.817 540.481 L 136.192 539.599 L 137.11 535.482 L 134.307 538.215 L 125.598 535.575 L 128.535 527.19 L 126.225 521.301 L 127.964 517.144 L 126.274 515.607 L 127.25 513.495 L 124.043 512.498 L 124.954 505.421 L 122.721 503.149 L 124.446 500.722 L 121.945 499.793 L 121.173 490.436 L 118.74 486.086 L 119.391 482.705 L 122.366 480.329 L 117.053 477.27 L 122.089 475.664 L 121.393 469.056 L 117.184 468.553 L 112.909 464.793 L 113.655 462.575 L 111.937 459.89 L 107.094 458.815 L 102.608 452.439 L 99.698 453.222 L 101.203 462.011 L 95.369 455.087 L 95.779 456.649 L 93.212 464.987 L 88.177 473.666 L 83.264 475.832 L 79.235 472.266 L 75.235 472.48 L 75.029 479.61 L 69.603 480.256 L 71.718 484.277 L 66.6 488.955 L 67.652 494.74 L 63.368 492.988 L 39.695 446.765 L 27.994 406.216 L 23.478 392.632 L 18.383 383.632 L 17.17 376.996 L 14.006 374.334 L 11.139 367.922 L 6.863 364.581 L 5.273 356.76 L -0.278 351.611 L 0.587 348.126 L 5.275 346.525 L 10.618 341.805 L 13.236 343.121 L 16.902 336.409 L 13.984 330.469 L 17.247 330.707 L 16.433 327.864 L 18.711 327.568 L 17.754 324.995 L 20.696 325.22 L 20.641 320.73 L 31.007 317.709 L 36.467 322.143 L 37.192 328.801 L 42.294 328.078 L 45.809 332.263 L 47.129 339.044 L 43.552 342.341 L 45.631 347.327 L 48.27 347.411 L 47.435 355.574 L 54.876 353.915 L 58.695 358.469 L 63.33 357.092 L 71.716 358.182 L 78.718 364.539 L 84.611 366.402 L 88.762 364.634 L 100.565 365.183 L 111.706 362.269 L 122.61 363.608 L 125.653 367.665 L 130.355 369.507 L 133.177 368.802 L 138.583 366.02 L 136.178 361.374 L 137.495 357.319 L 147.039 355.326 L 152.134 345.12 L 158.628 344.445 L 160.773 342.596 L 164.3 343.697 L 167.395 340.179 L 173.235 339.654 L 173.407 138.078 L 179.041 144.89 Z M 178.459 145.672 L 174.348 140.699 L 174.179 340.517 L 167.856 341.085 L 164.604 344.781 L 160.992 343.654 L 159.021 345.356 L 152.746 346.005 L 147.681 356.157 L 138.224 358.131 L 137.198 361.291 L 139.856 366.428 L 133.513 369.692 L 130.291 370.496 L 125.059 368.447 L 122.096 364.496 L 111.77 363.229 L 100.663 366.133 L 88.932 365.586 L 84.66 367.406 L 78.238 365.378 L 71.301 359.081 L 63.406 358.055 L 58.371 359.549 L 54.521 354.962 L 46.362 356.779 L 47.227 348.323 L 44.993 348.253 L 42.426 342.096 L 46.101 338.707 L 44.929 332.682 L 41.908 329.086 L 36.358 329.874 L 35.572 322.631 L 30.795 318.755 L 21.593 321.437 L 21.652 326.24 L 19.155 326.049 L 20.011 328.35 L 17.642 328.657 L 18.528 331.746 L 15.559 331.53 L 17.967 336.431 L 13.625 344.375 L 10.765 342.934 L 5.758 347.356 L 1.38 348.854 L 0.772 351.298 L 6.138 356.272 L 7.721 364.052 L 11.906 367.321 L 14.781 373.753 L 18.039 376.493 L 19.282 383.306 L 24.347 392.247 L 28.893 405.927 L 40.577 446.415 L 64.048 492.247 L 66.413 493.214 L 65.576 488.611 L 70.543 484.073 L 68.126 479.481 L 74.107 478.767 L 74.317 471.583 L 79.572 471.303 L 83.438 474.726 L 87.515 472.926 L 92.339 464.606 L 94.796 456.628 L 93.393 451.275 L 99.685 458.743 L 98.621 452.535 L 103.001 451.355 L 107.657 457.973 L 112.522 459.051 L 114.694 462.447 L 114.005 464.498 L 117.588 467.65 L 122.255 468.206 L 123.108 476.329 L 119.38 477.519 L 124.04 480.201 L 120.253 483.227 L 119.733 485.928 L 122.098 490.153 L 122.836 499.117 L 125.926 500.265 L 123.949 503.051 L 125.947 505.085 L 125.082 511.833 L 128.561 512.914 L 127.422 515.375 L 129.094 516.895 L 127.245 521.313 L 129.543 527.172 L 126.814 534.957 L 134.046 537.15 L 138.723 532.592 L 137.298 538.976 L 139.508 539.718 L 140.91 542.84 L 148.886 545.749 L 149.609 555.814 L 144.961 558.451 L 149.396 568.516 L 148.47 575.02 L 150.478 579.134 L 153.432 577.219 L 152.136 573.045 L 154.031 566.398 L 155.695 565.073 L 157.081 567.509 L 163.714 561.781 L 169.818 562.474 L 175.505 555.336 L 177.626 555.393 L 182.042 550.732 L 186.231 559.875 L 184.048 558.683 L 181.206 561.543 L 179.398 565.635 L 177.662 564.776 L 180.371 577.255 L 183.041 579.81 L 182.949 584.891 L 187.436 586.772 L 191.089 590.863 L 191.271 593.369 L 194.58 595.126 L 197.764 594.831 L 201.215 591.857 L 203.321 595.116 L 208.868 594.659 L 212.509 591.872 L 213.584 588.276 L 212.288 581.38 L 221.316 577.691 L 223.262 578.777 L 230.14 576.537 L 229.376 574.376 L 231.893 567.617 L 235.941 565.263 L 236.889 562.158 L 243.029 561.867 L 245.135 559.482 L 249.16 558.666 L 248.693 554.02 L 253.037 552.482 L 255.763 554.794 L 258.265 552.275 L 264.644 556.054 L 267.518 555.518 L 268.126 553.213 L 271.347 551.955 L 271.515 546.782 L 275.319 545.02 L 276.053 547.237 L 277.345 544.423 L 275.113 542.062 L 275.134 531.863 L 279.51 533.765 L 279.765 528.456 L 285.907 516.172 L 298.839 522.176 L 301.398 525.561 L 300.172 529.512 L 307.553 529.602 L 309.268 532.211 L 312.978 530.992 L 315.003 533.548 L 318.831 532.381 L 323.721 534.592 L 322.907 537.155 L 324.39 539.388 L 330.955 533.593 L 333.563 526.271 L 339.713 524.389 L 340.174 522.61 L 345.766 523.696 L 350.163 520.822 L 356.83 521.413 L 357.367 523.421 L 362.066 525.457 L 360.385 528.099 L 362.933 530.662 L 366.519 528.093 L 367.333 524.259 L 372.713 524.184 L 371.485 525.874 L 373.275 529.13 L 376.683 528.941 L 376.924 525.661 L 382.407 527.6 L 384.732 524.414 L 393.959 524.063 L 394.705 511.675 L 396.718 510.679 L 396.835 506.702 L 408.018 506.356 L 409.867 504.063 L 411.288 504.843 L 411.445 502.718 L 429.399 495.256 L 437.048 495.758 L 437.031 492.927 L 440.888 489.233 L 439.838 487.933 L 444.097 480.955 L 441.598 476.531 L 444.733 472.767 L 441.672 472.374 L 440.92 462.438 L 437.445 459.419 L 433.057 459.079 L 426.987 453.568 L 413.118 437.727 L 408.479 427.759 L 402.783 426.163 L 401.381 422.057 L 390.395 415.916 L 386.495 410.22 L 386.134 407.895 L 412.532 351.588 L 410.087 350.697 L 410.834 342.795 L 413.143 340.201 L 414.631 333.666 L 412.489 330.994 L 416.544 329.122 L 418.948 322.655 L 417.995 320.985 L 415.594 322.451 L 409.826 311.075 L 418.676 299.845 L 407.862 299.953 L 406.974 295.431 L 404.048 296.755 L 404.402 306.756 L 400.424 311.736 L 400.254 316.615 L 394.948 322.166 L 390.187 318.606 L 391.781 315.21 L 386.328 310.715 L 390.451 305.94 L 389.532 299.333 L 374.599 302.733 L 372.582 300.786 L 373.795 295.25 L 370.824 294.203 L 372.629 281.005 L 369.936 279.192 L 369.757 284.781 L 365.194 283.77 L 363.975 285.851 L 366.162 287.204 L 363.728 288.99 L 360.024 288.216 L 357.308 291.961 L 349.833 287.54 L 343.15 287.498 L 344.013 285.319 L 342.75 283.942 L 340.927 284.648 L 337.324 281.358 L 331.214 280.482 L 325.266 272.668 L 321.944 273.586 L 319.77 267.667 L 320.486 262.244 L 323.848 261.236 L 320.285 253.475 L 322.206 250.308 L 320.548 247.83 L 322.461 243.486 L 319.169 241.132 L 317.788 242.347 L 316.168 239.772 L 313.352 239.944 L 312.523 238.19 L 305.408 237.783 L 305.427 213.419 L 303.038 213.285 L 300.824 214.894 L 299.861 219.164 L 293.126 219.586 L 290.143 224.608 L 281.984 228.716 L 280.184 234.58 L 274.45 241.674 L 261.563 244.422 L 261.727 250.219 L 257.33 254.091 L 248.429 254.128 L 242.207 252.179 L 229.806 254.825 L 218.049 250.587 L 207.623 256.816 L 204.348 250.304 L 203.466 232.123 L 215.301 214.669 L 213.773 212.663 L 214.422 204.395 L 212.073 196.772 L 209.644 198.16 L 210.422 195.017 L 206.63 189.834 L 206.915 187.324 L 205.003 187.181 L 207.236 184.376 L 204.222 180.519 L 206.023 177.605 L 204.152 177.735 L 203.145 174.458 L 201.124 173.65 L 198.75 169.47 L 199.69 168.28 L 195.781 164.278 L 196.14 161.434 L 194.982 161.404 L 192.028 154.563 L 186.452 149.044 L 178.459 145.672 Z" ></path>
    <path id="ZA-NL" title="KwaZulu-Natal"  d="M 767.522 251.05 L 771.129 253.6 L 773.282 252.07 L 780.913 253.694 L 805.712 253.467 L 805.202 255.639 L 803.615 265.669 L 795.172 289.013 L 789.204 324.427 L 782.782 337.289 L 781.687 345.108 L 762.535 365.015 L 750.448 369.756 L 729.445 393.308 L 715.714 415.274 L 715.941 420.959 L 707.328 431.007 L 694.617 456.713 L 673.652 488.821 L 666.72 475.713 L 662.679 474.939 L 661.111 471.502 L 658.165 471.483 L 654.425 467.63 L 652.026 468.612 L 647.588 466.308 L 644.698 466.893 L 638.087 462.606 L 630.948 464.834 L 618.898 460.906 L 619.03 457.922 L 615.272 456.071 L 612.741 460.264 L 608.359 459.376 L 606.338 456.316 L 604.09 455.957 L 602.787 448.516 L 604.525 444.285 L 608.756 446.004 L 610.078 442.547 L 612.344 443.152 L 614.875 440.168 L 614.195 438.43 L 618.766 437.032 L 620.976 434.143 L 620.938 432.065 L 616.499 427.626 L 623.299 423.604 L 621.372 418.825 L 622.335 411.969 L 623.96 408.947 L 629.437 407.002 L 629.418 404.811 L 631.25 404.15 L 629.966 399.088 L 635.953 395.802 L 637.785 391.08 L 631.382 376.707 L 627.794 376.669 L 625.792 373.382 L 618.955 370.134 L 608.548 358.273 L 613.647 348.017 L 624.545 345.883 L 626.264 340.689 L 635.405 335.646 L 639.372 330.471 L 644.32 329.696 L 647.701 325.126 L 647.871 321.896 L 645.529 318.156 L 650.402 305.879 L 648.438 297.21 L 653.235 293.641 L 649.854 287.332 L 652.763 286.029 L 654.255 286.728 L 656.54 282.327 L 660.563 281.024 L 664.662 282.365 L 666.739 280.967 L 671.216 282.308 L 682.756 275.66 L 685.74 278.153 L 692.426 278.474 L 697.639 276.17 L 704.873 279.796 L 709.047 277.832 L 711.011 280.703 L 718.264 279.588 L 721.909 281.515 L 727.254 274.621 L 737.642 278.512 L 760.835 278.587 L 762.724 250.899 L 767.522 251.05 Z" ></path>
    <path d="M 771.129 253.022 L 773.178 251.565 L 780.96 253.222 L 806.308 252.99 L 805.664 255.73 L 804.074 265.788 L 795.631 289.134 L 789.657 324.574 L 783.24 337.431 L 782.133 345.325 L 762.804 365.418 L 750.725 370.155 L 729.825 393.594 L 716.192 415.401 L 716.42 421.126 L 707.725 431.27 L 695.027 456.947 L 673.609 489.75 L 666.409 476.135 L 662.35 475.356 L 660.807 471.972 L 657.964 471.953 L 654.308 468.187 L 652.004 469.131 L 647.518 466.804 L 644.604 467.394 L 638.016 463.123 L 630.944 465.329 L 618.411 461.244 L 618.545 458.209 L 615.451 456.686 L 612.973 460.792 L 608.074 459.799 L 606.058 456.751 L 603.684 456.371 L 602.298 448.463 L 604.266 443.671 L 608.487 445.384 L 609.789 441.981 L 612.178 442.619 L 614.333 440.077 L 613.57 438.128 L 618.482 436.624 L 620.5 433.986 L 620.469 432.263 L 615.734 427.53 L 622.709 423.403 L 620.887 418.884 L 621.88 411.82 L 623.629 408.564 L 628.963 406.669 L 628.944 404.48 L 630.687 403.851 L 629.418 398.85 L 635.575 395.471 L 637.273 391.093 L 631.075 377.175 L 627.528 377.139 L 625.461 373.749 L 618.664 370.519 L 607.985 358.346 L 613.328 347.598 L 624.185 345.473 L 625.873 340.364 L 635.09 335.279 L 639.111 330.032 L 644.056 329.26 L 647.236 324.959 L 647.391 322.02 L 645.002 318.203 L 649.909 305.842 L 647.909 297.016 L 652.627 293.505 L 649.199 287.109 L 652.767 285.51 L 654.045 286.108 L 656.21 281.938 L 660.563 280.527 L 664.59 281.844 L 666.662 280.452 L 671.157 281.798 L 682.805 275.086 L 685.921 277.688 L 692.337 277.996 L 697.652 275.649 L 704.878 279.271 L 709.209 277.233 L 711.234 280.191 L 718.347 279.097 L 721.779 280.912 L 727.093 274.056 L 737.729 278.04 L 760.395 278.113 L 762.284 250.413 L 767.678 250.581 L 771.129 253.022 Z M 763.164 251.384 L 761.276 279.061 L 737.555 278.984 L 727.415 275.186 L 722.039 282.117 L 718.181 280.08 L 710.79 281.215 L 708.884 278.431 L 704.867 280.321 L 697.626 276.691 L 692.515 278.952 L 685.559 278.618 L 682.707 276.234 L 671.274 282.818 L 666.817 281.483 L 664.734 282.886 L 660.563 281.521 L 656.871 282.716 L 654.465 287.347 L 652.759 286.548 L 650.51 287.555 L 653.843 293.777 L 648.966 297.405 L 650.895 305.917 L 646.056 318.109 L 648.351 321.771 L 648.166 325.292 L 644.585 330.133 L 639.632 330.909 L 635.721 336.012 L 626.655 341.013 L 624.906 346.292 L 613.967 348.436 L 609.113 358.199 L 619.246 369.748 L 626.122 373.016 L 628.06 376.198 L 631.69 376.238 L 638.297 391.066 L 636.331 396.132 L 630.514 399.326 L 631.813 404.448 L 629.894 405.141 L 629.913 407.334 L 624.29 409.33 L 622.791 412.118 L 621.858 418.766 L 623.888 423.804 L 617.264 427.723 L 621.406 431.867 L 621.452 434.299 L 619.049 437.44 L 614.82 438.732 L 615.417 440.258 L 612.51 443.684 L 610.367 443.114 L 609.024 446.623 L 604.784 444.899 L 603.276 448.569 L 604.498 455.544 L 606.618 455.882 L 608.644 458.953 L 612.508 459.735 L 615.092 455.455 L 619.516 457.635 L 619.385 460.568 L 630.952 464.339 L 638.159 462.088 L 644.792 466.393 L 647.658 465.811 L 652.049 468.092 L 654.542 467.072 L 658.365 471.012 L 661.415 471.031 L 663.007 474.522 L 667.032 475.292 L 673.696 487.892 L 694.207 456.479 L 706.931 430.745 L 715.461 420.793 L 715.236 415.148 L 729.065 393.023 L 750.17 369.358 L 762.267 364.613 L 781.241 344.891 L 782.325 337.147 L 788.751 324.279 L 794.713 288.892 L 803.156 265.55 L 804.735 255.566 L 805.115 253.945 L 780.865 254.166 L 773.386 252.574 L 771.129 254.178 L 767.365 251.516 L 763.164 251.384 Z" ></path>
    <path id="ZA-NW" title="North West"  d="M 487.707 133.231 L 487.481 138.973 L 489.294 142.618 L 499.512 143.166 L 502.874 145.697 L 505.707 145.886 L 516.68 140.597 L 516.926 137.878 L 518.947 137.821 L 520.061 146.906 L 523.593 148.247 L 525.047 152.44 L 531.658 152.742 L 534.642 156.463 L 540.875 155.745 L 543.425 158.559 L 547.372 151.155 L 551.678 153.138 L 557.137 152.27 L 557.42 149.229 L 560.971 150.06 L 560.083 152.78 L 564.333 151.514 L 570.339 152.836 L 577.422 156.425 L 576.572 159.938 L 571.756 158.276 L 569.886 158.71 L 569.395 161.241 L 572.077 161.694 L 572.341 164.433 L 576.798 163.942 L 580.368 169.816 L 580.368 175.029 L 571.718 177.144 L 572.549 174.33 L 568.828 174.934 L 570.49 182.206 L 566.222 186.682 L 562.293 187.287 L 564.484 192.821 L 563.067 193.33 L 562.539 198.147 L 552.245 200.848 L 552.056 198.694 L 549.544 200.035 L 547.315 195.521 L 538.778 200.149 L 536.55 213.634 L 533.717 214.05 L 533.566 216.108 L 530.317 215.731 L 532.036 223.21 L 525.217 228.574 L 527.314 234.958 L 533.792 232.465 L 533.339 231.067 L 540.214 229.537 L 541.687 231.879 L 546.371 231.709 L 543.085 238.924 L 544.785 241.059 L 543.368 248.897 L 540.157 254.865 L 537.362 256.64 L 532.565 252.92 L 525.897 259.379 L 525.047 256.943 L 518.758 257.547 L 513.564 254.072 L 512.601 259.039 L 509.862 256.489 L 504.215 258.945 L 501.948 262.307 L 498.511 261.759 L 496.395 266.877 L 493.657 266.537 L 492.203 268.842 L 488.066 270.239 L 491.976 275.698 L 489.898 280.759 L 493.185 282.78 L 485.29 282.535 L 483.949 284.329 L 480.832 284.159 L 479.114 288.617 L 471.955 294.528 L 471.181 300.289 L 468.726 300.308 L 467.649 295.983 L 461.171 295.17 L 458.073 293.055 L 450.991 298.211 L 447.194 297.475 L 431.896 305.105 L 430.592 309.053 L 425.228 312.32 L 422.263 319.233 L 418.146 320.347 L 415.766 321.801 L 410.364 311.149 L 419.638 299.382 L 408.23 299.496 L 407.304 294.774 L 403.546 296.455 L 403.905 306.616 L 399.92 311.565 L 399.75 316.437 L 394.858 321.556 L 390.74 318.477 L 392.327 315.096 L 386.963 310.677 L 390.91 306.125 L 389.89 298.778 L 374.705 302.253 L 373.062 300.648 L 374.308 294.963 L 371.305 293.905 L 373.1 280.797 L 369.454 278.342 L 369.266 284.216 L 364.922 283.253 L 363.297 286.029 L 365.28 287.257 L 363.581 288.522 L 359.784 287.729 L 357.14 291.374 L 349.925 287.106 L 343.825 287.068 L 344.523 285.255 L 342.842 283.423 L 340.991 284.14 L 337.516 280.948 L 331.453 280.08 L 325.428 272.166 L 322.218 273.053 L 320.234 267.652 L 320.895 262.647 L 324.503 261.57 L 320.82 253.524 L 322.765 250.313 L 321.084 247.801 L 323.067 243.344 L 319.158 240.53 L 317.911 241.625 L 316.438 239.302 L 313.662 239.453 L 312.849 237.734 L 305.899 237.338 L 305.918 212.992 L 302.896 212.822 L 304.841 207.911 L 307.41 207.76 L 308.619 202.491 L 307.089 201.301 L 310.413 197.108 L 308.354 195.767 L 312.321 190.252 L 311.697 186.966 L 313.756 185.832 L 312.018 184.227 L 313.529 179.108 L 319.479 173.234 L 321.481 168.532 L 323.993 168.343 L 324.654 170.42 L 330.641 167.398 L 341.331 169.4 L 343.692 167.512 L 352.21 176.011 L 353.381 175.067 L 361.163 180.695 L 360.729 182.111 L 365.431 186.493 L 370.38 186.323 L 370.474 187.834 L 372.873 187.985 L 373.137 186.663 L 379.37 186.248 L 388.323 193.973 L 391.798 192.405 L 401.978 196.957 L 409.061 197.297 L 414.255 196.636 L 421.357 191.668 L 425.058 193.633 L 435.824 194.162 L 447.931 186.323 L 453.654 167.889 L 462.285 148.152 L 461.511 139.577 L 487.707 133.231 Z" ></path>
    <path d="M 487.957 138.871 L 489.594 142.161 L 499.68 142.701 L 503.046 145.236 L 505.614 145.406 L 516.235 140.288 L 516.493 137.417 L 519.362 137.337 L 520.496 146.566 L 523.967 147.884 L 525.389 151.983 L 531.892 152.279 L 534.848 155.964 L 541.062 155.248 L 543.325 157.745 L 547.164 150.54 L 551.746 152.649 L 556.701 151.862 L 557.001 148.645 L 561.579 149.718 L 560.812 152.069 L 564.316 151.027 L 570.5 152.389 L 577.969 156.172 L 576.908 160.554 L 571.731 158.767 L 570.292 159.101 L 569.95 160.856 L 572.511 161.288 L 572.766 163.912 L 577.046 163.44 L 580.84 169.684 L 580.84 175.399 L 571.032 177.798 L 571.884 174.917 L 569.4 175.32 L 571.008 182.348 L 566.452 187.124 L 562.95 187.662 L 565.102 193.1 L 563.506 193.674 L 562.973 198.521 L 551.824 201.446 L 551.648 199.448 L 549.336 200.681 L 547.11 196.171 L 539.207 200.453 L 536.96 214.052 L 534.16 214.462 L 534 216.634 L 530.927 216.277 L 532.563 223.395 L 525.769 228.74 L 527.609 234.338 L 533.205 232.185 L 532.729 230.72 L 540.437 229.005 L 541.942 231.398 L 547.117 231.209 L 543.634 238.856 L 545.287 240.932 L 543.819 249.053 L 540.514 255.197 L 537.335 257.217 L 532.599 253.543 L 525.695 260.233 L 524.724 257.449 L 518.635 258.032 L 513.893 254.859 L 512.903 259.965 L 509.768 257.047 L 504.53 259.322 L 502.171 262.82 L 498.806 262.284 L 496.694 267.391 L 493.897 267.044 L 492.512 269.234 L 488.822 270.483 L 492.512 275.635 L 490.488 280.567 L 494.943 283.307 L 485.52 283.015 L 484.175 284.815 L 481.15 284.65 L 479.51 288.902 L 472.399 294.774 L 471.595 300.757 L 468.357 300.782 L 467.27 296.411 L 460.999 295.626 L 458.083 293.633 L 451.102 298.714 L 447.262 297.969 L 432.283 305.439 L 430.987 309.366 L 425.602 312.645 L 422.607 319.629 L 418.335 320.785 L 415.575 322.47 L 409.807 311.094 L 418.658 299.864 L 407.843 299.972 L 406.955 295.448 L 404.029 296.755 L 404.383 306.775 L 400.386 311.738 L 400.216 316.634 L 394.911 322.185 L 390.149 318.625 L 391.743 315.227 L 386.289 310.733 L 390.414 305.978 L 389.494 299.354 L 374.56 302.771 L 372.544 300.803 L 373.757 295.269 L 370.786 294.222 L 372.592 281.024 L 369.898 279.211 L 369.719 284.799 L 365.156 283.787 L 363.938 285.87 L 366.119 287.221 L 363.692 289.028 L 359.986 288.254 L 357.27 291.999 L 349.795 287.578 L 343.139 287.536 L 343.978 285.358 L 342.712 283.98 L 340.888 284.686 L 337.305 281.394 L 331.195 280.52 L 325.247 272.706 L 321.925 273.624 L 319.751 267.705 L 320.467 262.282 L 323.848 261.274 L 320.287 253.494 L 322.206 250.326 L 320.548 247.847 L 322.48 243.503 L 319.188 241.132 L 317.807 242.345 L 316.187 239.789 L 313.371 239.942 L 312.542 238.19 L 305.427 237.783 L 305.446 213.438 L 302.216 213.257 L 304.513 207.458 L 307.028 207.309 L 308.092 202.678 L 306.422 201.38 L 309.722 197.221 L 307.682 195.893 L 311.818 190.14 L 311.17 186.716 L 312.955 185.734 L 311.482 184.374 L 313.112 178.857 L 319.08 172.964 L 321.16 168.082 L 324.329 167.844 L 324.935 169.75 L 330.571 166.905 L 341.205 168.896 L 343.726 166.879 L 352.244 175.378 L 353.366 174.472 L 361.713 180.51 L 361.267 181.968 L 365.611 186.015 L 370.822 185.836 L 370.92 187.389 L 372.492 187.489 L 372.745 186.216 L 379.533 185.764 L 388.404 193.419 L 391.798 191.888 L 402.09 196.49 L 409.042 196.823 L 414.079 196.182 L 421.323 191.115 L 425.187 193.166 L 435.696 193.682 L 447.53 186.019 L 453.21 167.725 L 461.804 148.075 L 461.005 139.215 L 488.204 132.625 L 487.957 138.871 Z M 462.017 139.94 L 462.767 148.23 L 454.098 168.054 L 448.331 186.627 L 435.953 194.641 L 424.93 194.099 L 421.391 192.222 L 414.431 197.089 L 409.08 197.771 L 401.867 197.423 L 391.798 192.923 L 388.242 194.526 L 379.208 186.731 L 373.53 187.111 L 373.255 188.482 L 370.029 188.28 L 369.938 186.811 L 365.252 186.971 L 360.19 182.255 L 360.613 180.88 L 353.397 175.662 L 352.176 176.644 L 343.658 168.144 L 341.458 169.905 L 330.711 167.891 L 324.373 171.091 L 323.657 168.841 L 321.802 168.981 L 319.877 173.505 L 313.949 179.36 L 312.555 184.08 L 314.557 185.93 L 312.224 187.215 L 312.823 190.363 L 309.027 195.64 L 311.104 196.995 L 307.756 201.222 L 309.146 202.304 L 307.791 208.212 L 305.17 208.365 L 303.576 212.388 L 306.39 212.546 L 306.371 236.892 L 313.157 237.279 L 313.952 238.964 L 316.689 238.815 L 318.015 240.906 L 319.129 239.927 L 323.655 243.185 L 321.621 247.756 L 323.324 250.3 L 321.353 253.554 L 325.158 261.867 L 321.324 263.011 L 320.718 267.599 L 322.51 272.483 L 325.61 271.626 L 331.712 279.639 L 337.728 280.503 L 341.095 283.594 L 342.973 282.865 L 345.069 285.151 L 344.51 286.599 L 350.055 286.633 L 357.01 290.749 L 359.582 287.204 L 363.469 288.016 L 364.442 287.293 L 362.657 286.188 L 364.687 282.716 L 368.812 283.632 L 369.011 277.473 L 373.608 280.571 L 371.825 293.588 L 374.86 294.657 L 373.579 300.493 L 374.851 301.736 L 390.287 298.202 L 391.407 306.272 L 387.637 310.62 L 392.911 314.964 L 391.332 318.33 L 394.805 320.927 L 399.283 316.241 L 399.453 311.391 L 403.427 306.457 L 403.062 296.154 L 407.654 294.099 L 408.617 299.02 L 420.618 298.901 L 410.921 311.204 L 415.957 321.133 L 417.957 319.909 L 421.919 318.836 L 424.854 311.995 L 430.198 308.739 L 431.508 304.771 L 447.126 296.98 L 450.879 297.709 L 458.064 292.477 L 461.343 294.715 L 468.029 295.554 L 469.094 299.832 L 470.767 299.82 L 471.512 294.283 L 478.717 288.331 L 480.515 283.668 L 483.722 283.844 L 485.059 282.055 L 491.426 282.253 L 489.309 280.952 L 491.439 275.76 L 487.311 269.996 L 491.893 268.449 L 493.417 266.031 L 496.097 266.364 L 498.216 261.234 L 501.725 261.793 L 503.899 258.567 L 509.957 255.932 L 512.299 258.114 L 513.235 253.284 L 518.881 257.062 L 525.37 256.436 L 526.099 258.525 L 532.531 252.296 L 537.388 256.064 L 539.8 254.533 L 542.917 248.738 L 544.282 241.185 L 542.535 238.992 L 545.625 232.21 L 541.432 232.361 L 539.991 230.07 L 533.949 231.415 L 534.38 232.744 L 527.019 235.577 L 524.666 228.408 L 531.509 223.025 L 529.707 215.185 L 533.131 215.583 L 533.273 213.638 L 536.14 213.217 L 538.35 199.845 L 547.521 194.872 L 549.752 199.39 L 552.464 197.941 L 552.666 200.249 L 562.104 197.773 L 562.631 192.987 L 563.866 192.541 L 561.636 186.911 L 565.991 186.24 L 569.973 182.064 L 568.256 174.549 L 573.214 173.743 L 572.403 176.491 L 579.896 174.659 L 579.896 169.948 L 576.551 164.444 L 571.918 164.954 L 571.642 162.1 L 568.839 161.626 L 569.48 158.319 L 571.782 157.785 L 576.236 159.322 L 576.874 156.678 L 570.178 153.284 L 564.35 152.001 L 559.354 153.49 L 560.363 150.402 L 557.839 149.812 L 557.573 152.678 L 551.61 153.628 L 547.58 151.771 L 543.525 159.373 L 540.688 156.242 L 534.436 156.961 L 531.424 153.205 L 524.706 152.897 L 523.219 148.609 L 519.627 147.246 L 518.531 138.304 L 517.358 138.338 L 517.126 140.907 L 505.799 146.366 L 502.702 146.158 L 499.344 143.631 L 488.994 143.075 L 487.005 139.075 L 487.211 133.838 L 462.017 139.94 Z" ></path>
    <path id="ZA-WC" title="Western Cape"  d="M 348.697 656.596 L 341.199 658.938 L 339.14 660.563 L 338.782 664.057 L 320.99 662.074 L 318.893 663.093 L 300.478 657.654 L 293.509 661.45 L 283.518 661.261 L 277.927 664.737 L 277.323 667.494 L 279.797 668.949 L 268.502 672.329 L 267.539 674.369 L 269.277 675.653 L 267.785 677.939 L 262.742 680.394 L 256.962 681.225 L 249.181 678.921 L 244.667 679.601 L 237.829 683.907 L 229.217 680.432 L 218.243 679.846 L 215.712 681.357 L 215.391 685.947 L 206.344 684.417 L 197.335 686.778 L 193.501 691.689 L 185.663 696.297 L 185.191 698.488 L 177.919 701.227 L 176.767 705.949 L 173.386 707.29 L 167.739 703.229 L 158.692 702.983 L 156.161 704.702 L 155.878 702.549 L 145.018 693.766 L 139.087 695.296 L 143.412 689.951 L 139.975 682.887 L 138.162 682.075 L 135.65 683.851 L 130.871 682.623 L 129.719 679.658 L 126.697 678.052 L 116.385 680.866 L 115.629 675.483 L 117.744 672.726 L 115.894 669.081 L 118.349 667.211 L 113.476 662.659 L 105.789 662.338 L 97.308 665.738 L 96.666 668.892 L 99.273 672.084 L 98.423 676.617 L 100.274 679.034 L 99.103 679.091 L 96.289 676.938 L 93.984 669.421 L 91.416 666.644 L 93.588 660.997 L 90.83 660.204 L 95.288 652.007 L 97.346 653.234 L 99.707 650.722 L 97.252 639.9 L 93.323 633.346 L 90.868 632.477 L 89.81 626.093 L 82.935 620.144 L 83.596 618.482 L 80.556 612.816 L 74.285 607.433 L 73.378 605.601 L 74.776 603.297 L 80.234 611.154 L 81.878 610.417 L 77.269 605.412 L 77.25 600.86 L 74.474 599.179 L 72.793 601.691 L 70.545 601.899 L 68.845 594.344 L 69.998 591.511 L 68.109 589.282 L 71.055 587.733 L 70.696 584.485 L 74.115 581.935 L 78.535 586.884 L 82.142 586.487 L 90.774 575.362 L 92.228 568.034 L 91.17 559.856 L 92.757 557.778 L 89.565 535.699 L 81.538 517.662 L 63.708 492.693 L 67.032 494.053 L 66.088 488.859 L 71.131 484.25 L 68.864 479.944 L 74.568 479.264 L 74.776 472.106 L 79.403 471.86 L 83.351 475.354 L 87.846 473.39 L 92.776 464.891 L 95.288 456.732 L 94.381 453.275 L 100.444 460.471 L 99.159 452.973 L 102.805 451.991 L 107.375 458.488 L 112.229 459.565 L 114.175 462.606 L 113.457 464.74 L 117.386 468.196 L 121.824 468.725 L 122.598 476.091 L 118.217 477.489 L 123.203 480.36 L 119.822 483.06 L 119.237 486.007 L 121.711 490.408 L 122.466 499.568 L 125.262 500.607 L 123.411 503.213 L 125.526 505.366 L 124.638 512.279 L 127.981 513.318 L 126.924 515.603 L 128.605 517.133 L 126.81 521.42 L 129.115 527.294 L 126.281 535.378 L 134.252 537.796 L 137.992 534.15 L 136.821 539.401 L 139.238 540.213 L 140.636 543.33 L 148.512 546.2 L 149.192 555.663 L 144.432 558.364 L 148.984 568.695 L 148.058 575.211 L 150.363 579.933 L 154.065 577.534 L 152.705 573.153 L 154.518 566.788 L 155.632 565.9 L 157.03 568.355 L 163.943 562.387 L 170.1 563.086 L 175.804 555.927 L 177.9 555.984 L 181.98 551.678 L 185.285 558.893 L 184.039 558.213 L 180.884 561.386 L 179.241 565.107 L 177.069 564.03 L 180.016 577.61 L 182.641 580.122 L 182.547 585.316 L 187.231 587.28 L 190.706 591.171 L 190.895 593.777 L 194.559 595.723 L 198.034 595.402 L 201.188 592.682 L 203.152 595.723 L 209.121 595.232 L 212.993 592.266 L 214.145 588.413 L 212.898 581.784 L 221.36 578.328 L 223.286 579.404 L 230.822 576.949 L 229.953 574.494 L 232.352 568.053 L 236.413 565.692 L 237.319 562.727 L 243.326 562.443 L 245.46 560.026 L 249.747 559.157 L 249.275 554.454 L 253.015 553.132 L 255.867 555.55 L 258.417 552.981 L 264.63 556.664 L 267.973 556.041 L 268.597 553.68 L 271.883 552.395 L 272.053 547.201 L 275.113 545.785 L 276.057 548.637 L 277.984 544.444 L 275.661 541.989 L 275.679 532.696 L 280.023 534.585 L 280.307 528.692 L 286.2 516.906 L 298.609 522.667 L 300.951 525.764 L 299.61 530.09 L 307.372 530.184 L 309.148 532.885 L 312.887 531.657 L 314.908 534.207 L 318.874 532.998 L 323.219 534.963 L 322.463 537.342 L 324.371 540.213 L 331.434 533.98 L 334.003 526.766 L 340.179 524.877 L 340.595 523.271 L 345.94 524.31 L 350.359 521.42 L 356.536 521.968 L 357.046 523.876 L 361.446 525.783 L 359.86 528.276 L 362.957 531.393 L 367.018 528.484 L 367.792 524.839 L 371.853 524.782 L 371.003 525.953 L 373.081 529.731 L 377.198 529.504 L 378.143 531.147 L 374.781 536.02 L 377.444 535.548 L 380.031 538.551 L 377.859 541.8 L 374.932 542.593 L 375.989 544.538 L 374.082 544.689 L 374.252 546.805 L 375.744 546.937 L 375.725 548.769 L 373.515 550.563 L 371.154 550.242 L 371.381 551.659 L 363.788 555.776 L 357.82 551.772 L 353.023 555.153 L 352.626 560.819 L 342.162 560.517 L 340.085 563.444 L 336.893 562.028 L 331.151 566.07 L 335.344 578.007 L 333.134 579.366 L 339.103 585.958 L 338.763 589.32 L 329.678 587.167 L 326.996 590.189 L 323.955 586.09 L 325.409 591.265 L 321.065 592.21 L 317.911 596.063 L 317.836 604.732 L 309.355 617.877 L 307.58 618.18 L 308.675 622.826 L 335.287 622.165 L 336.817 624.601 L 344.486 624.752 L 349.132 627.925 L 349.528 632.345 L 353.06 635.461 L 352.796 637.709 L 347.451 637.237 L 341.161 641.071 L 338.895 645.037 L 347.451 645.075 L 347.621 647.795 L 354.571 650.401 L 351.663 654.254 L 352.248 656.861 L 348.697 656.596 Z" ></path>
    <path d="M 554.656 792.324 L 552.952 791.456 L 549.292 791.831 L 547.843 790.276 L 550.871 785.717 L 554.093 786.255 L 556.957 788.817 L 554.656 792.324 Z M 553.867 786.725 L 551.109 786.263 L 548.477 790.224 L 549.488 791.309 L 553.048 790.944 L 554.484 791.676 L 556.303 788.903 L 553.867 786.725 Z M 557.221 780.546 L 555.352 778.276 L 556.677 777.388 L 558.783 777.994 L 559.09 780.01 L 557.221 780.546 Z M 558.337 778.386 L 556.763 777.932 L 556.088 778.384 L 557.399 779.975 L 558.53 779.65 L 558.337 778.386 Z M 184.519 347.933 L 180.639 349.145 L 179.668 349.911 L 179.463 351.906 L 169.864 350.836 L 168.732 351.387 L 158.989 348.509 L 155.331 350.501 L 150.049 350.401 L 147.242 352.147 L 146.983 353.326 L 148.631 354.295 L 142.208 356.218 L 141.834 357.011 L 142.778 357.709 L 141.822 359.175 L 139.054 360.522 L 135.901 360.975 L 131.782 359.756 L 129.499 360.099 L 125.815 362.42 L 121.175 360.547 L 115.483 360.244 L 114.32 360.938 L 114.14 363.512 L 109.131 362.665 L 104.495 363.88 L 102.488 366.451 L 98.391 368.86 L 98.136 370.046 L 94.282 371.497 L 93.672 373.995 L 91.635 374.803 L 88.596 372.618 L 83.964 372.492 L 82.355 373.585 L 82.165 372.142 L 76.591 367.634 L 72.84 368.601 L 75.506 365.306 L 73.795 361.791 L 73.048 361.456 L 71.74 362.381 L 68.973 361.67 L 68.351 360.067 L 66.92 359.307 L 61.282 360.846 L 60.828 357.611 L 61.916 356.193 L 60.913 354.217 L 62.143 353.281 L 59.847 351.136 L 55.923 350.972 L 51.608 352.702 L 51.319 354.124 L 52.697 355.812 L 52.246 358.217 L 53.448 359.787 L 52.261 359.844 L 50.634 358.6 L 49.408 354.598 L 47.981 353.056 L 49.089 350.175 L 47.592 349.744 L 50.225 344.902 L 51.365 345.582 L 52.387 344.496 L 51.125 338.934 L 49.112 335.576 L 47.757 335.096 L 47.188 331.66 L 43.482 328.453 L 43.855 327.516 L 42.322 324.659 L 38.998 321.807 L 38.435 320.668 L 39.446 319.001 L 40.53 320.562 L 40.521 318.311 L 39.375 317.618 L 38.552 318.848 L 37.024 318.989 L 36.059 314.698 L 36.641 313.266 L 35.538 311.964 L 37.223 311.078 L 37.036 309.385 L 39.144 307.813 L 41.551 310.507 L 43.227 310.323 L 47.696 304.563 L 48.447 300.781 L 47.879 296.39 L 48.717 295.292 L 47.047 283.74 L 42.822 274.245 L 32.894 260.341 L 35.032 261.216 L 34.589 258.779 L 37.219 256.376 L 35.939 253.945 L 39.106 253.567 L 39.217 249.763 L 41.999 249.615 L 44.046 251.427 L 46.205 250.484 L 48.759 246.079 L 50.06 241.855 L 49.317 239.021 L 52.648 242.975 L 52.085 239.688 L 54.404 239.063 L 56.869 242.567 L 59.445 243.138 L 60.595 244.936 L 60.23 246.022 L 62.127 247.691 L 64.598 247.985 L 65.05 252.286 L 63.076 252.916 L 65.543 254.336 L 63.537 255.938 L 63.263 257.318 L 64.555 259.615 L 64.946 264.361 L 66.582 264.969 L 65.535 266.444 L 66.593 267.521 L 66.135 271.094 L 67.977 271.666 L 67.374 272.969 L 68.259 273.774 L 67.28 276.113 L 68.497 279.215 L 67.052 283.337 L 70.881 284.498 L 73.357 282.085 L 72.603 285.465 L 73.773 285.858 L 74.515 287.511 L 78.738 289.051 L 79.121 294.38 L 76.66 295.776 L 79.008 301.105 L 78.518 304.549 L 79.581 306.727 L 81.145 305.713 L 80.459 303.503 L 81.461 299.984 L 82.343 299.282 L 83.077 300.572 L 86.589 297.539 L 89.821 297.906 L 92.832 294.127 L 93.955 294.157 L 96.293 291.689 L 98.51 296.53 L 97.355 295.899 L 95.85 297.413 L 94.893 299.58 L 93.974 299.125 L 95.408 305.732 L 96.822 307.085 L 96.773 309.775 L 99.149 310.771 L 101.083 312.937 L 101.179 314.264 L 102.931 315.194 L 104.617 315.038 L 106.444 313.463 L 107.559 315.189 L 110.496 314.947 L 112.424 313.471 L 112.993 311.567 L 112.307 307.916 L 117.087 305.963 L 118.116 306.538 L 121.759 305.352 L 121.354 304.208 L 122.687 300.629 L 124.83 299.383 L 125.332 297.739 L 128.583 297.585 L 129.698 296.322 L 131.829 295.89 L 131.582 293.43 L 133.882 292.616 L 135.325 293.84 L 136.65 292.506 L 140.027 294.507 L 141.549 294.223 L 141.871 293.003 L 143.575 292.337 L 143.665 289.598 L 145.679 288.665 L 146.068 289.839 L 146.752 288.349 L 145.57 287.099 L 145.581 281.699 L 147.898 282.706 L 148.033 279.895 L 151.285 273.391 L 158.132 276.57 L 159.487 278.362 L 158.838 280.454 L 162.746 280.502 L 163.654 281.883 L 165.618 281.238 L 166.69 282.591 L 168.717 281.973 L 171.305 283.144 L 170.874 284.501 L 171.66 285.683 L 175.136 282.615 L 176.517 278.738 L 179.773 277.742 L 180.017 276.8 L 182.978 277.375 L 185.306 275.853 L 188.836 276.166 L 189.12 277.229 L 191.608 278.307 L 190.718 279.706 L 192.067 281.063 L 193.966 279.703 L 194.397 277.673 L 197.245 277.633 L 196.595 278.529 L 197.543 280.252 L 199.72 280.132 L 200.375 281.272 L 198.846 283.489 L 199.806 283.319 L 201.393 285.161 L 200.086 287.117 L 198.751 287.479 L 199.343 288.569 L 198.199 288.659 L 198.252 289.32 L 199.062 289.391 L 199.049 290.71 L 197.704 291.802 L 196.68 291.663 L 196.775 292.255 L 192.466 294.592 L 189.323 292.483 L 187.021 294.106 L 186.803 297.227 L 181.156 297.064 L 180.015 298.671 L 178.268 297.896 L 175.499 299.846 L 177.723 306.177 L 176.637 306.845 L 179.67 310.195 L 179.45 312.369 L 174.508 311.198 L 172.983 312.916 L 171.998 311.589 L 172.472 313.278 L 169.998 313.816 L 168.439 315.72 L 168.399 320.295 L 163.81 327.408 L 163.024 327.542 L 163.497 329.545 L 177.526 329.197 L 178.34 330.493 L 182.339 330.572 L 184.958 332.36 L 185.17 334.718 L 187.064 336.389 L 186.88 337.95 L 183.89 337.686 L 180.685 339.64 L 179.73 341.312 L 184.065 341.331 L 184.159 342.843 L 188.001 344.284 L 186.329 346.498 L 186.688 348.094 L 184.519 347.933 Z M 184.461 347.427 L 186.052 347.546 L 185.791 346.382 L 187.199 344.517 L 183.681 343.197 L 183.595 341.829 L 178.87 341.808 L 180.315 339.28 L 183.77 337.174 L 186.44 337.41 L 186.536 336.591 L 184.69 334.962 L 184.482 332.64 L 182.181 331.068 L 178.06 330.987 L 177.254 329.703 L 163.103 330.055 L 162.416 327.138 L 163.51 326.952 L 167.901 320.145 L 167.941 315.54 L 169.722 313.364 L 171.848 312.902 L 170.782 309.111 L 173.017 312.124 L 174.332 310.642 L 179.01 311.751 L 179.15 310.365 L 175.863 306.735 L 177.117 305.963 L 174.901 299.654 L 178.212 297.324 L 179.844 298.049 L 180.904 296.556 L 186.337 296.713 L 186.539 293.834 L 189.317 291.877 L 192.494 294.008 L 196.225 291.985 L 196.08 291.077 L 197.556 291.278 L 198.551 290.47 L 198.558 289.849 L 197.788 289.78 L 197.661 288.201 L 198.536 288.131 L 198.009 287.162 L 199.774 286.683 L 200.767 285.199 L 199.614 283.861 L 197.754 284.191 L 199.785 281.248 L 199.44 280.648 L 197.257 280.768 L 196.005 278.492 L 196.255 278.147 L 194.803 278.167 L 194.414 279.997 L 192.013 281.717 L 190.082 279.774 L 190.872 278.533 L 188.7 277.591 L 188.444 276.634 L 185.434 276.367 L 183.082 277.905 L 180.383 277.38 L 180.187 278.138 L 176.903 279.142 L 175.564 282.905 L 171.56 286.437 L 170.325 284.579 L 170.694 283.416 L 168.683 282.507 L 166.51 283.169 L 165.442 281.822 L 163.446 282.477 L 162.474 280.998 L 158.162 280.946 L 158.933 278.459 L 157.808 276.971 L 151.515 274.049 L 148.527 280.025 L 148.362 283.454 L 146.079 282.461 L 146.07 286.901 L 147.348 288.251 L 145.992 291.201 L 145.381 289.355 L 144.155 289.922 L 144.064 292.683 L 142.289 293.377 L 141.951 294.657 L 139.933 295.033 L 136.73 293.134 L 135.355 294.52 L 133.778 293.184 L 132.118 293.77 L 132.371 296.29 L 129.962 296.778 L 128.817 298.075 L 125.708 298.221 L 125.25 299.717 L 123.093 300.971 L 121.886 304.212 L 122.401 305.668 L 118.064 307.082 L 117.053 306.517 L 112.873 308.224 L 113.507 311.594 L 112.856 313.769 L 110.684 315.433 L 107.301 315.711 L 106.336 314.217 L 104.823 315.522 L 102.829 315.706 L 100.701 314.576 L 100.597 313.143 L 98.851 311.189 L 96.267 310.105 L 96.318 307.295 L 94.952 305.988 L 93.266 298.215 L 94.647 298.9 L 95.43 297.127 L 97.265 295.281 L 97.43 295.37 L 96.147 292.571 L 94.165 294.663 L 93.068 294.633 L 90.039 298.434 L 86.751 298.061 L 82.943 301.348 L 82.197 300.038 L 81.898 300.276 L 80.981 303.497 L 81.735 305.927 L 79.379 307.453 L 78.002 304.631 L 78.492 301.176 L 76.02 295.564 L 78.599 294.101 L 78.262 289.409 L 74.145 287.909 L 73.407 286.262 L 72.017 285.795 L 72.503 283.615 L 71.019 285.062 L 66.408 283.664 L 67.963 279.225 L 66.74 276.107 L 67.661 273.906 L 66.766 273.091 L 67.283 271.974 L 65.585 271.446 L 66.067 267.699 L 64.885 266.496 L 65.798 265.211 L 64.474 264.719 L 64.065 259.765 L 62.737 257.402 L 63.083 255.662 L 64.657 254.404 L 61.844 252.784 L 64.51 251.934 L 64.142 248.435 L 61.913 248.169 L 59.65 246.178 L 60.045 245.004 L 59.135 243.582 L 56.571 243.013 L 54.196 239.637 L 52.655 240.052 L 53.452 244.705 L 50.363 241.039 L 50.58 241.866 L 49.221 246.281 L 46.555 250.876 L 43.954 252.013 L 41.821 250.125 L 39.703 250.238 L 39.594 254.013 L 36.721 254.355 L 37.841 256.484 L 35.131 258.961 L 35.688 262.024 L 34.306 261.459 L 43.258 273.995 L 47.532 283.6 L 49.242 295.428 L 48.401 296.53 L 48.953 300.799 L 48.164 304.777 L 43.493 310.797 L 41.349 311.033 L 39.076 308.487 L 37.564 309.615 L 37.757 311.362 L 36.322 312.116 L 37.219 313.174 L 36.581 314.742 L 37.416 318.451 L 38.268 318.372 L 39.225 316.942 L 41.019 318.029 L 41.03 320.482 L 43.639 323.316 L 42.263 323.933 L 39.474 319.919 L 39.005 320.692 L 39.401 321.494 L 42.718 324.341 L 44.405 327.484 L 44.078 328.307 L 47.652 331.4 L 48.203 334.724 L 49.448 335.164 L 51.595 338.746 L 52.933 344.644 L 51.455 346.218 L 50.415 345.598 L 48.328 349.436 L 49.751 349.845 L 48.559 352.945 L 49.852 354.342 L 51.066 358.3 L 52.419 359.336 L 52.472 359.333 L 51.714 358.344 L 52.163 355.948 L 50.781 354.256 L 51.172 352.338 L 55.837 350.468 L 60.053 350.644 L 62.917 353.32 L 61.547 354.363 L 62.504 356.247 L 61.352 357.749 L 61.698 360.214 L 66.98 358.773 L 68.749 359.713 L 69.347 361.25 L 71.64 361.839 L 72.992 360.884 L 74.165 361.409 L 76.094 365.374 L 74.18 367.739 L 76.709 367.087 L 82.635 371.878 L 82.745 372.715 L 83.816 371.988 L 88.764 372.122 L 91.705 374.237 L 93.248 373.625 L 93.858 371.123 L 97.704 369.674 L 97.949 368.54 L 102.152 366.069 L 104.205 363.44 L 109.109 362.155 L 113.68 362.928 L 113.84 360.642 L 115.357 359.736 L 121.285 360.053 L 125.765 361.86 L 129.321 359.621 L 131.818 359.245 L 135.939 360.465 L 138.906 360.038 L 141.478 358.786 L 142.102 357.831 L 141.206 357.169 L 141.852 355.803 L 147.389 354.145 L 146.417 353.574 L 146.798 351.833 L 149.911 349.899 L 155.209 349.999 L 158.931 347.971 L 168.688 350.853 L 169.776 350.324 L 179.017 351.354 L 179.192 349.649 L 180.401 348.695 L 184.461 347.427 Z" ></path>
  </g>
</svg>